<svg width="256" height="42" viewBox="0 0 256 42" fill="none" xmlns="http://www.w3.org/2000/svg">
<path d="M128.638 14.8819C128.788 11.9894 129.825 9.62559 131.446 7.78153V5.32431H129.292C124.938 5.32431 121.252 6.99285 119.11 10.763H118.984V5.73916H107.817V36.3769H118.987V24.0088C118.987 18.7593 120.523 14.7566 126.721 14.7566C127.395 14.7611 128.027 14.7999 128.638 14.8819Z" fill="#717172"/>
<path d="M213.202 14.7703C214.13 12.0623 215.634 9.65066 217.59 7.71543V5.32203H215.441C211.085 5.32203 207.403 6.99057 205.249 10.7585H205.129V5.73916H193.955V36.377H205.129V24.0088C205.129 18.7593 206.669 14.7566 212.867 14.7566L213.202 14.7703Z" fill="#717172"/>
<path d="M151.32 13.6214C149.597 12.7256 147.199 12.1284 145.291 12.1284C144.01 12.1284 141.797 12.6618 141.797 14.2186C141.797 16.3111 145.291 16.6075 146.837 16.9129C152.043 17.925 155.982 20.3161 155.982 25.9828C155.982 34.0428 148.43 37.3981 141.12 37.3981C136.636 37.3981 132.226 36.1422 128.414 33.8719L132.465 26.2814C134.733 27.8405 138.54 29.3882 141.302 29.3882C142.716 29.3882 144.801 28.734 144.801 27.0609C144.801 24.6721 141.302 24.5467 137.799 23.6532C134.304 22.7574 130.81 21.0888 130.81 15.5931C130.81 8.06646 137.799 4.7271 144.687 4.7271C148.248 4.7271 151.81 5.26276 155.056 6.69652L151.32 13.6214Z" fill="#717172"/>
<path d="M251.086 36.377H239.917V32.9692H239.794C237.829 36.0145 233.954 37.3867 230.277 37.3867C220.941 37.3867 214.378 29.8008 214.378 21.0204C214.378 12.2492 220.825 4.72026 230.152 4.72026C233.772 4.72026 237.583 6.03321 239.915 8.71837V5.73916H251.082L251.086 36.377ZM225.919 21.0865C225.919 24.9661 228.563 27.9522 233.099 27.9522C237.64 27.9522 240.273 24.9707 240.273 21.0865C240.273 17.3232 237.64 14.1594 233.099 14.1594C228.563 14.1616 225.919 17.3232 225.919 21.0865Z" fill="#717172"/>
<path d="M192.193 22.8827H168.676C168.676 27.298 171.076 29.6846 175.678 29.6846C178.072 29.6846 179.788 28.9118 181.019 26.8786H191.764C189.984 34.1066 182.922 37.3913 175.742 37.3913C165.314 37.3913 157.518 31.654 157.518 21.0888C157.518 10.877 164.692 4.7271 174.942 4.7271C185.867 4.7271 192.197 11.2987 192.197 21.7453L192.193 22.8827ZM181.817 16.6075C181.263 13.6807 178.5 11.7705 175.496 11.7705C172.239 11.7705 169.549 13.4368 168.863 16.6075H181.817Z" fill="#717172"/>
<path d="M72.2903 20.5532C72.2789 20.2887 72.2607 20.0312 72.2402 19.769V19.7599C71.9894 16.9175 71.0503 14.2574 69.457 11.8549C68.7458 10.7835 67.932 9.81022 67.0226 8.9372C65.6936 7.65844 64.155 6.60078 62.4204 5.76423C59.8104 4.51739 56.927 3.88827 53.8497 3.88827C53.5489 3.88827 53.2343 3.89282 52.9175 3.90422C50.7566 4.00224 48.6663 4.41253 46.7015 5.13511C44.7206 5.85085 42.9951 6.79682 41.5841 7.93197C41.2969 8.15991 40.9846 8.44028 40.6496 8.74801L40.408 8.98507L40.0774 9.3361H40.082L39.927 9.48882L39.8518 9.57088L39.4574 9.98573C39.1657 10.314 38.8876 10.6422 38.6277 10.9636L38.6254 10.9591L38.6163 10.9499C38.0761 11.6064 37.5769 12.2857 37.2099 12.8966C36.9615 13.2886 36.7176 13.6921 36.4851 14.0955L33.2642 20.6079L33.2688 20.6124L33.1001 20.9429L32.7445 21.6632C32.0379 23.0924 31.2811 24.5171 30.4355 25.6933C28.5504 27.7607 26.4191 28.7728 23.6792 28.7728C23.4878 28.7728 23.2917 28.7637 23.0911 28.7523C21.4408 28.6862 20.0253 28.2964 18.7693 27.5533C18.6349 27.4735 18.5049 27.3914 18.3796 27.3071C17.3538 26.6256 16.5674 25.7503 15.9793 24.6584C15.316 23.4207 15.022 22.1556 15.063 20.8153C15.0653 20.7788 15.0676 20.7469 15.0676 20.7173C15.1565 18.5837 15.9702 16.9243 17.6091 15.4906C18.008 15.1464 18.4252 14.8546 18.8605 14.5947C18.9221 14.5583 18.9836 14.5241 19.0452 14.4922C20.2624 13.8289 21.6483 13.4983 23.237 13.4983L23.7317 13.512C26.255 13.6077 28.2016 14.3964 29.7539 15.935L34.6228 7.19344C33.458 6.41387 32.1428 5.74372 30.693 5.19894C30.6383 5.17842 30.5813 5.15563 30.5244 5.13739C30.3511 5.07585 30.1802 5.01202 30.0024 4.95504C28.4615 4.43989 26.8454 4.12305 25.1814 3.97944C25.1403 3.9726 25.0948 3.96805 25.0537 3.96349C24.7984 3.94753 24.5386 3.91562 24.2833 3.90422C24.0052 3.89282 23.7248 3.88827 23.4513 3.88599H23.294C20.2327 3.89738 17.388 4.52423 14.7872 5.76651C11.8741 7.17064 9.51259 9.21529 7.76199 11.8503C6.01595 14.4853 5.06315 17.4098 4.92638 20.5486C4.91498 20.8176 4.90814 21.0843 4.90814 21.3464C4.90587 25.7366 6.50602 29.5979 9.68811 32.8393C13.0092 36.2402 17.3287 38.0728 22.5144 38.2894C22.8472 38.3031 23.1755 38.3122 23.5037 38.3122C26.4373 38.3122 29.1521 37.7902 31.5866 36.7462C32.1952 36.4864 32.7856 36.1809 33.3896 35.8413C33.7178 35.6521 34.0278 35.4515 34.3356 35.2372L34.5635 35.0845L34.9464 34.8224C35.4069 34.4919 35.8377 34.134 36.2571 33.7533L36.403 33.6143C36.6492 33.3795 36.8954 33.1424 37.1279 32.8985L38.0009 31.9115L38.3337 31.4944L38.4887 31.2665L38.6437 31.0431C39.9407 28.864 44.1622 20.9338 44.1622 20.9338V20.9179L44.4129 20.4346L44.6226 20.0562C45.2449 18.9234 45.6939 18.1187 46.2889 17.2731L46.3048 17.248C47.693 15.2353 50.0796 13.8015 52.8924 13.5599C57.6108 13.1541 61.7457 16.2542 62.1263 20.4848C62.5047 24.7154 58.9853 28.4742 54.2669 28.8822C53.2844 28.9665 52.3294 28.9004 51.429 28.7021L51.4062 28.7112C47.9437 27.9909 45.7395 25.4653 44.6522 24.337L40.1116 32.6866C40.1116 32.6866 41.5226 34.1089 42.4891 34.8201C43.4578 35.529 44.7092 36.2265 45.7076 36.6596C48.1307 37.6945 50.7657 38.3145 53.6765 38.3145C54.0139 38.3145 53.9455 38.3145 54.2965 38.3008C59.4777 38.0842 64.0958 36.0989 67.426 32.698C70.5807 29.468 72.2926 25.7799 72.3086 21.4148V21.2849C72.3063 21.0432 72.2994 20.7993 72.2903 20.5532Z" fill="#717172"/>
<path d="M89.6596 37.4118C87.3049 37.4118 85.1691 37.1383 83.2521 36.5912C81.3351 36.0442 79.6985 35.1803 78.3422 33.9949C76.9814 32.8096 75.9328 31.3007 75.1943 29.4703C74.4558 27.6399 74.0865 25.4334 74.0865 22.8622V5.73232H84.8614V22.7255C84.8614 24.6516 85.3218 26.0466 86.2404 26.9173C87.1613 27.7903 88.3307 28.2257 89.7485 28.2257C91.1982 28.2257 92.3744 27.82 93.2816 27.0062C94.1842 26.1925 94.6401 24.843 94.6401 22.9466V5.73232H105.415V22.6366C105.415 25.2989 105.037 27.5624 104.282 29.4247C103.528 31.2893 102.463 32.8119 101.093 33.9972C99.7164 35.1825 98.0593 36.0442 96.1103 36.5935C94.1614 37.1383 92.0119 37.4118 89.6596 37.4118Z" fill="#717172"/>
</svg>
