<svg width="139" height="49" viewBox="0 0 139 49" fill="none" xmlns="http://www.w3.org/2000/svg">
<path d="M32.4754 3.12817C36.6183 3.12817 39.9767 6.48562 39.9767 10.6325V32.27C39.9767 36.4144 36.6196 39.7743 32.4754 39.7743H29.1291L23.0841 45.071V39.7743H11.2749C7.13187 39.7743 3.77344 36.4169 3.77344 32.27V10.6325C3.77344 6.48792 7.13072 3.12817 11.2749 3.12817H32.4754ZM127.805 14.2964C132.492 14.2964 134.602 17.2427 134.602 22.6319V23.101C134.602 30.5665 130.015 32.7091 124.693 32.7091C123.956 32.7091 123.152 32.6752 122.349 32.5746V35.7223H124.591V39.4379H115.051V35.7223H117.294V18.3471H115.051V14.6315H122.349V16.0041C123.989 14.9995 125.462 14.2964 127.805 14.2964ZM30.2637 10.6012H14.3696V14.5106H16.461V29.4965H14.3696V33.4058H23.3623V29.4965H21.0618V23.8496H26.4992V19.9403H21.0618V14.5106H26.2901V16.4652H30.2637V10.6012ZM86.8205 14.4691C91.7782 14.4691 94.7858 17.0799 94.9189 23.0951V25.2433H83.5812C84.0777 27.9874 85.9942 28.78 89.2663 28.78C91.481 28.78 93.4976 28.4496 94.5876 28.2515L94.5938 31.9332C94.5938 31.9332 92.8971 32.2035 91.1019 32.4115L90.9092 32.4335C89.8484 32.5531 88.7732 32.647 88.0106 32.647C81.7967 32.647 78.2264 30.0694 78.2264 23.8218V23.2609C78.2264 17.9714 81.037 14.4691 86.8205 14.4691ZM105.524 14.4691C110.482 14.4691 113.49 17.0799 113.622 23.0951V25.2433H102.285C102.781 27.9874 104.698 28.78 107.97 28.78C110.185 28.78 112.2 28.4496 113.291 28.2515L113.298 31.9332C113.298 31.9332 112.916 31.9941 112.322 32.0803L112.192 32.0992C111.658 32.176 110.978 32.2696 110.259 32.3575L110.079 32.3793C109.988 32.3902 109.897 32.4009 109.806 32.4115L109.613 32.4335C109.517 32.4444 109.42 32.455 109.324 32.4654L109.131 32.4859C108.234 32.5794 107.362 32.647 106.715 32.647C100.501 32.647 96.9309 30.0694 96.9309 23.8218V23.2609C96.9309 17.9714 99.7409 14.4691 105.524 14.4691ZM74.6975 7.73799V27.6305C74.6975 28.8055 75.3623 28.8323 75.9959 28.7073L76.0749 28.691C76.298 28.6429 76.5136 28.5809 76.6907 28.5494V32.1915H76.68C72.0843 33.4263 69.6007 32.1836 69.5955 27.4832V7.73799H74.6975ZM66.7447 7.73569V14.4416H62.4205V12.0309H56.4277V18.0238H62.4205V22.3821H56.4277V28.3742H58.8382V32.636H48.7139V28.3742H51.1248V12.0309H48.7139V7.73569H66.7447ZM125.729 18.4486C124.356 18.4486 123.118 18.9836 122.349 19.6195V28.4572C122.851 28.6585 123.654 28.7921 124.659 28.7921C127.303 28.7921 129.311 27.3187 129.311 23.3355V22.9006C129.311 19.92 128.006 18.4486 125.729 18.4486ZM86.8866 18.3347C84.7379 18.3347 83.6804 19.5579 83.5152 22.1365H90.159C90.1259 19.5918 89.0015 18.3347 86.8866 18.3347ZM105.59 18.3347C103.442 18.3347 102.385 19.5579 102.219 22.1365H108.863C108.83 19.5918 107.705 18.3347 105.59 18.3347Z" fill="#3E81DE"/>
</svg>
