<svg width="139" height="49" viewBox="0 0 139 49" fill="none" xmlns="http://www.w3.org/2000/svg">
<path d="M4.05957 12.2041H8.62142V22.3392H18.2427V12.2041H22.8104V37.0827H18.2427V26.7347H8.62142V37.0827H4.05957V12.2041Z" fill="#45535E"/>
<path d="M37.2623 28.9794C37.2623 31.062 35.5655 32.7567 33.4834 32.7567C31.4005 32.7567 29.7048 31.062 29.7048 28.9794V18.2683H25.3785V28.9794C25.3785 33.4479 29.0146 37.0827 33.4834 37.0827C37.9512 37.0827 41.587 33.4479 41.587 28.9794V18.2683H37.2623V28.9794Z" fill="#45535E"/>
<path d="M53.6642 18.3937C51.5182 18.3937 50.0203 19.0165 48.5737 20.4365V12.2041H44.2334V27.461C44.2334 33.1717 48.3623 37.0827 53.0011 37.0827C58.1581 37.0827 62.6765 33.1019 62.6765 27.7385C62.6765 22.443 58.51 18.3937 53.6642 18.3937ZM53.7721 33.0674C50.8311 33.0674 48.5821 30.6112 48.5821 27.7385C48.5821 24.8652 50.8311 22.4082 53.7721 22.4082C56.2641 22.4082 58.5143 24.8652 58.5143 27.7385C58.5143 30.6112 56.2641 33.0674 53.7721 33.0674Z" fill="#45535E"/>
<path d="M69.9662 19.4872C69.9662 17.3054 71.42 16.6137 73.0115 16.6137C74.2927 16.6137 75.9882 17.5827 77.0947 18.7597L79.9319 15.4374C78.514 13.5342 75.642 12.2187 73.2885 12.2187C68.5812 12.2187 65.1895 14.9529 65.1895 19.4872C65.1895 27.8969 75.538 25.2311 75.538 29.9392C75.538 31.3911 74.1195 32.6729 72.4938 32.6729C69.9317 32.6729 69.1007 31.4269 67.9245 30.1114L64.7745 33.3641C66.783 35.8216 69.274 37.0681 72.2507 37.0681C76.715 37.0681 80.3145 34.2994 80.3145 29.9726C80.3145 20.6287 69.9662 23.5362 69.9662 19.4872Z" fill="#45535E"/>
<path d="M91.7406 18.1499C87.1023 18.1499 82.9728 22.0586 82.9728 27.7707V43.0669H87.3129V34.7954C88.7597 36.2144 90.2569 36.8382 92.4037 36.8382C97.2492 36.8382 101.416 32.7894 101.416 27.4939C101.416 22.1297 96.8965 18.1499 91.7406 18.1499ZM92.5118 32.8242C89.5711 32.8242 87.3218 30.3646 87.3218 27.4939C87.3218 24.6207 89.5711 22.1637 92.5118 22.1637C95.0033 22.1637 97.2538 24.6207 97.2538 27.4939C97.2538 30.3646 95.0033 32.8242 92.5118 32.8242Z" fill="#45535E"/>
<path d="M133.364 33.0674C130.804 33.0674 130.077 31.9605 130.077 30.2639V22.7542H134.056V18.9477H130.077V13.929L125.683 15.9012V31.1984C125.683 35.1097 128.382 37.0827 132.083 37.0827C132.637 37.0827 133.399 37.0469 133.815 36.9445L134.888 32.9995C134.403 33.033 133.85 33.0674 133.364 33.0674Z" fill="#45535E"/>
<path d="M121.918 22.9753C121.086 21.5437 119.915 20.3961 118.452 19.5322C117.358 18.8956 116.225 18.4916 114.947 18.3181V13.7695C116.225 13.227 117.018 12.0263 117.018 10.6254C117.018 8.71603 115.486 7.16875 113.579 7.16875C111.669 7.16875 110.111 8.71603 110.111 10.6254C110.111 12.0263 110.858 13.227 112.136 13.7695V18.3201C111.114 18.4678 110.054 18.7865 109.086 19.2761C107.109 17.7746 100.626 12.8486 96.8335 9.97148C96.9234 9.6472 96.9927 9.31296 96.9927 8.96032C96.9927 6.84549 95.2801 5.13135 93.1645 5.13135C91.0489 5.13135 89.337 6.84549 89.337 8.96032C89.337 11.0749 91.0507 12.7895 93.1663 12.7895C93.8879 12.7895 94.5554 12.5785 95.1313 12.2315L95.9317 12.8386L106.929 20.7623C106.348 21.2961 105.806 21.9033 105.373 22.5846C104.495 23.9734 103.959 25.5015 103.959 27.1684V27.5162C103.959 28.6863 104.181 29.791 104.56 30.8287C104.893 31.7348 105.381 32.5587 105.985 33.3036L102.335 36.9624C102.011 36.843 101.671 36.7776 101.316 36.7776C100.526 36.7776 99.7849 37.0863 99.2261 37.6441C98.6667 38.2035 98.3603 38.9464 98.3603 39.737C98.3606 40.5274 98.6685 41.2702 99.2276 41.8291C99.7865 42.3882 100.529 42.6964 101.32 42.6964C102.111 42.6964 102.854 42.3882 103.413 41.8291C103.971 41.2702 104.279 40.5271 104.279 39.737C104.279 39.4311 104.232 39.1326 104.143 38.849L107.916 35.076C108.433 35.4332 108.991 35.734 109.592 35.9934C110.776 36.5055 112.084 36.8175 113.514 36.8175H113.777C115.358 36.8175 116.85 36.4459 118.253 35.6859C119.731 34.8828 120.888 33.7845 121.762 32.3824C122.64 30.9764 123.124 29.423 123.124 27.714V27.6286C123.124 25.9474 122.735 24.3963 121.918 22.9753ZM117.308 30.89C116.284 32.0279 115.107 32.7289 113.777 32.7289H113.557C112.797 32.7289 112.054 32.5188 111.326 32.1368C110.506 31.7162 109.882 31.1162 109.372 30.3565C108.845 29.6108 108.559 28.7967 108.559 27.9335V27.6713C108.559 26.8226 108.721 26.0179 109.132 25.258C109.57 24.4272 110.163 23.7812 110.951 23.2676C111.725 22.7575 112.551 22.5074 113.472 22.5074H113.557C114.392 22.5074 115.182 22.6719 115.928 23.0535C116.687 23.4603 117.308 24.0161 117.789 24.7472C118.257 25.4785 118.535 26.2674 118.624 27.1267C118.638 27.3053 118.645 27.4883 118.645 27.6631C118.645 28.8294 118.2 29.9095 117.308 30.89Z" fill="#F8761F"/>
</svg>
