<svg width="235" height="42" viewBox="0 0 235 42" fill="none" xmlns="http://www.w3.org/2000/svg">
<path opacity="0.6" d="M120.131 10.5058V5.02336H113.516V10.5058H98.3169V10.8905C97.0375 10.3827 95.6717 10.1284 94.2953 10.1418C91.3737 10.1418 88.8606 11.167 86.8243 13.1874C86.1785 13.8233 85.6166 14.5391 85.1521 15.3174C84.7757 14.4133 84.2478 13.5801 83.5911 12.8536C81.9269 11.0272 79.6538 10.1004 76.8259 10.1004C75.9529 10.0941 75.0835 10.2135 74.2445 10.4549V4.99792H67.6303V8.98774C66.7882 8.05523 65.8134 7.25183 64.7373 6.60339C62.6759 5.31846 60.2962 4.63572 57.8672 4.63232C54.1428 4.63232 50.9398 5.92464 48.3457 8.47431C47.7126 9.09503 47.1409 9.77533 46.6385 10.5058H40.6792L38.0739 17.1454L35.4702 10.5058H31.7092V5.33491H27.9277L18.4411 17.2678L8.89419 5.33491H5.15076V30.7855H12.1131V20.1974L17.055 26.5286H19.6937L24.7485 20.1497V29.3358C24.5132 29.5546 24.2968 29.7928 24.1016 30.0479C23.5593 30.7626 23.2091 31.6043 23.0843 32.4927C23.0572 32.6787 23.0397 32.8678 23.0286 33.0729L23.0191 33.3908V33.4353C23.0243 33.611 23.0407 33.7862 23.0684 33.9598C23.1519 34.4637 23.3167 34.9506 23.5564 35.4016C23.9969 36.2312 24.6567 36.924 25.4638 37.4044C26.1478 37.8096 26.9033 38.0794 27.6892 38.1992C28.1536 38.2769 28.6236 38.3152 29.0944 38.3137C29.2724 38.3137 29.4537 38.3137 29.6349 38.2994C29.9019 38.2882 30.2135 38.2628 30.5203 38.2262C30.849 38.1868 31.1753 38.1295 31.4978 38.0546C32.7237 37.7538 33.8871 37.2394 34.9345 36.5349L34.9504 36.5238C35.931 35.8919 36.81 35.1148 37.5573 34.2189C37.8435 33.8759 38.1089 33.516 38.352 33.1412C39.6062 33.2684 40.8954 33.4003 42.1193 33.5513C44.2764 33.8088 46.4922 34.114 48.8893 34.4812L50.4948 34.734C52.2433 35.0106 54.0554 35.2967 55.858 35.5288C60.6743 36.1519 65.4621 36.5683 70.0941 36.767C74.8857 36.9727 79.685 36.9138 84.4702 36.5906C89.7444 36.2075 94.4034 35.5224 98.7095 34.4955C104.413 33.1428 109.07 31.5262 112.551 29.6919L113.521 29.1816V30.7839H120.135V16.9101H123.841V10.5058H120.131ZM8.77497 27.4474H8.48885V10.172L8.64781 10.3754L8.76702 15.3762C8.76702 15.4859 8.76702 15.594 8.76702 15.6941L8.77497 27.4474ZM25.0712 14.3509C24.9456 14.5226 24.8296 14.6689 24.7247 14.804L18.3839 22.8011L12.1449 14.8199L12.121 14.7928C12.0177 14.6641 11.9016 14.5147 11.7793 14.3462L11.2674 13.6452L18.4491 22.6215L25.5751 13.6579L25.0712 14.3509ZM28.0914 15.6957C28.0914 15.5892 28.0914 15.4779 28.0914 15.3635L28.1836 10.3786L28.3727 10.1418V10.5058H28.2996L28.3727 10.687V27.4474H28.0882L28.0914 15.6957ZM34.5276 25.8578L34.4242 26.1344L34.2351 26.5954C34.0507 26.5954 33.8695 26.6002 33.6914 26.6097H33.674C33.1335 26.6351 32.6487 26.6685 32.1925 26.7114C32.0335 26.7241 31.8746 26.74 31.7156 26.7607V18.9114L34.5307 25.8499C34.5307 25.8499 34.5228 25.8546 34.5228 25.8578H34.5276ZM43.019 27.2884C42.4023 27.2121 41.776 27.1406 41.1545 27.0738C41.3897 26.4873 41.5534 26.0581 41.6313 25.8594L44.4639 18.8796C44.6428 22.086 46.0338 25.1044 48.3552 27.3234C48.6652 27.627 48.991 27.9115 49.3089 28.1802C47.0915 27.8257 45.0282 27.5332 43.0143 27.2805L43.019 27.2884ZM49.5362 23.599C48.36 21.9618 47.7655 20.0527 47.7655 17.9052C47.7655 15.7577 48.3616 13.8423 49.5394 12.2018C48.4124 13.8518 47.8434 15.7625 47.8434 17.9052C47.8434 20.048 48.4045 21.9459 49.5299 23.5959L49.5362 23.599ZM67.6367 20.6393H63.9647L63.2971 21.7742C62.8203 22.5785 62.0763 23.2621 61.0717 23.8057C60.0919 24.3536 58.9897 24.6455 57.8672 24.6545C55.9438 24.6545 54.4321 24.0362 53.1128 22.7089C51.7934 21.3816 51.1751 19.8477 51.1751 17.9052C51.1751 15.9628 51.7918 14.4257 53.116 13.0904C54.4401 11.7552 55.9438 11.1337 57.8672 11.1337C58.945 11.144 60.003 11.4244 60.9446 11.9491C61.9142 12.4689 62.6327 13.1254 63.0857 13.8995L63.7517 15.0376H67.6303L67.6367 20.6393ZM70.9747 18.8907V16.7607L71.7505 16.1026C71.3197 16.9706 71.0545 17.9113 70.9684 18.8764L70.9747 18.8907ZM79.3994 28.9622H74.2445V20.1211C74.2445 18.8049 74.4988 17.8003 74.982 17.2153C75.2507 16.8974 75.7021 16.5191 76.8259 16.5191C77.9164 16.5191 78.3774 16.8942 78.6555 17.2201C79.1451 17.7955 79.3931 18.7 79.3931 19.9112L79.3994 28.9622ZM97.2312 23.661C96.4364 24.4781 95.5542 24.8421 94.3843 24.8421C93.8535 24.8583 93.3252 24.7617 92.8345 24.5586C92.3437 24.3556 91.9016 24.0507 91.5374 23.6642C90.7426 22.8488 90.3643 21.9046 90.3643 20.6949C90.3643 19.4852 90.7378 18.5363 91.5406 17.7145C91.9142 17.3405 92.3579 17.0438 92.8462 16.8414C93.3346 16.639 93.858 16.5348 94.3867 16.5348C94.9153 16.5348 95.4388 16.639 95.9271 16.8414C96.4155 17.0438 96.8592 17.3405 97.2328 17.7145C98.0276 18.5299 98.4075 19.4741 98.4075 20.6838C98.4075 21.8934 98.0276 22.8249 97.2249 23.6467L97.2312 23.661ZM101.599 23.8581L100.655 24.6768C101.115 23.933 101.435 23.1115 101.599 22.2527V23.8581ZM101.599 19.1101C101.43 18.2282 101.097 17.386 100.617 16.6272L101.599 17.484V19.1101ZM106.845 19.3517V17.2519L107.678 16.5032C107.214 17.3837 106.928 18.3467 106.835 19.3374L106.845 19.3517ZM113.521 23.9885L110.515 25.3666C110.385 25.427 110.251 25.4875 110.115 25.5463V20.4899C110.115 19.0433 110.533 18.1293 110.727 17.9243C111.362 17.3012 111.925 16.9801 112.453 16.9388L112.819 16.9101H113.521V23.9885Z" fill="white"/>
<path opacity="0.6" d="M142.74 13.2639L142.105 14.4958L141.903 13.2639H135.797L135.838 13.4721C135.136 13.148 134.372 12.9804 133.599 12.9809C133.464 12.9809 133.33 12.9809 133.201 12.9937L133.667 10.5012H127.786L125.122 24.8932H130.208C130.734 25.0841 131.289 25.1804 131.849 25.1777C133.003 25.164 134.134 24.8544 135.134 24.2786C136.134 23.7028 136.97 22.88 137.562 21.8889L137.687 22.5056L134.618 27.6558H141.162L149.237 13.2639H142.74Z" fill="white"/>
<path fill-rule="evenodd" clip-rule="evenodd" d="M131.658 12.1321H129.178L127.131 23.1939H129.512L129.671 22.3133C129.909 22.9109 130.686 23.4784 131.852 23.4784C133.958 23.4784 136.318 21.9842 136.87 18.9974C137.453 15.8596 135.333 14.6198 133.599 14.6198C132.654 14.598 131.737 14.9341 131.03 15.5608L131.135 14.9249L131.658 12.1321ZM132.748 16.9278C133.972 16.9278 134.586 17.9578 134.39 19.0181V19.034C134.182 20.1244 133.182 21.1545 131.91 21.1545C130.671 21.1545 130.073 20.1689 130.297 19.0181C130.477 17.988 131.434 16.9278 132.748 16.9278Z" fill="#231F20"/>
<path d="M137.843 14.8963L139.456 22.7679L137.561 25.9502H140.19L146.39 14.8963H143.761L141.281 19.7064L140.486 14.8963H137.843Z" fill="#231F20"/>
<path d="M63.9996 27.5205C62.1595 28.6679 60.0356 29.279 57.8671 29.2849C54.5973 29.2849 51.7886 28.1611 49.5155 25.9325C47.2424 23.7039 46.09 20.9365 46.09 17.7065C46.09 14.4765 47.244 11.7027 49.5155 9.47253C51.787 7.24237 54.5958 6.1106 57.8671 6.1106C59.9886 6.11278 62.0672 6.70854 63.8677 7.83051C65.7545 8.98771 67.1247 10.4835 67.9386 12.2813L68.3392 13.1778H64.7054L64.5226 12.8599C63.9138 11.8187 62.9775 10.9524 61.7393 10.2848C60.5521 9.62625 59.2183 9.27695 57.8607 9.26907C55.497 9.26907 53.5562 10.067 51.9253 11.7122C50.2944 13.3574 49.4996 15.3174 49.4996 17.7017C49.4996 20.0861 50.2976 22.0492 51.9285 23.6912C53.5594 25.3332 55.5018 26.128 57.8655 26.128C59.2656 26.1202 60.6412 25.7594 61.8648 25.0789C63.1444 24.3874 64.0982 23.4941 64.734 22.4243L64.9184 22.1064H68.5506L68.1484 22.9966C67.325 24.8182 65.9294 26.3442 63.9996 27.5205Z" fill="#231F20"/>
<path d="M73.696 15.9516C72.9521 16.8577 72.5754 18.1929 72.5754 19.9255V28.9193H69.2993V6.46825H72.5754V13.0141C73.6992 12.0588 75.125 11.5739 76.8259 11.5739C79.1641 11.5739 81.0382 12.3353 82.3544 13.7818C83.6705 15.2284 84.3366 17.2439 84.3366 19.7713V28.9145H81.0621V19.7109C81.0621 18.0928 80.6647 16.8036 79.9255 15.9373C79.1864 15.071 78.1722 14.6498 76.8259 14.6498C75.4445 14.6498 74.4208 15.0758 73.696 15.9516Z" fill="#231F20"/>
<path fill-rule="evenodd" clip-rule="evenodd" d="M94.2952 29.2849C96.5206 29.2849 98.4281 28.5982 99.9858 27.2503V28.9193H103.262V11.9793H99.9858V13.661C98.4265 12.3036 96.5158 11.6153 94.2952 11.6153C91.8298 11.6153 89.7109 12.4768 87.9973 14.1777C86.2838 15.8785 85.4127 17.9926 85.4127 20.4564C85.4127 22.9203 86.2822 25.0233 87.9973 26.7225C89.7125 28.4218 91.8298 29.2849 94.2952 29.2849ZM88.6888 20.4851C88.6888 18.8319 89.2292 17.476 90.3403 16.3379C90.8696 15.8055 91.499 15.3829 92.1922 15.0946C92.8853 14.8063 93.6287 14.6579 94.3794 14.6579C95.1302 14.6579 95.8735 14.8063 96.5667 15.0946C97.2599 15.3829 97.8892 15.8055 98.4185 16.3379C99.5312 17.4712 100.07 18.8255 100.07 20.4707C100.07 22.116 99.5296 23.4798 98.4169 24.6179C97.8878 25.1503 97.2586 25.5728 96.5655 25.8611C95.8725 26.1494 95.1293 26.2978 94.3786 26.2978C93.628 26.2978 92.8848 26.1494 92.1918 25.8611C91.4987 25.5728 90.8695 25.1503 90.3403 24.6179C89.2276 23.4909 88.6888 22.1382 88.6888 20.4851Z" fill="#231F20"/>
<path fill-rule="evenodd" clip-rule="evenodd" d="M118.461 6.49687V11.9793H122.171V15.0456H118.466V28.9193H115.19V15.0456H112.755L112.326 15.0789C111.385 15.1521 110.475 15.6337 109.544 16.5509C108.879 17.2249 108.446 18.6952 108.446 20.2943V27.813C109.442 27.4495 110.364 27.0738 111.211 26.686L112.082 26.2854L112.119 27.8495L111.772 28.0323C108.417 29.7999 103.888 31.3672 98.3247 32.6882C94.1044 33.6944 89.5328 34.3652 84.3493 34.7419C79.6249 35.0592 74.8866 35.116 70.156 34.912C65.5765 34.7149 60.838 34.3032 56.0693 33.6864C54.281 33.4528 52.4816 33.1682 50.7331 32.8916L49.1435 32.6421C46.7163 32.2701 44.4797 31.9633 42.3084 31.7026C40.8623 31.5231 39.3559 31.3721 37.8971 31.2259L37.8957 31.2258L37.4443 31.1781C37.1216 31.8141 36.7292 32.4123 36.2744 32.9616C35.6292 33.7329 34.8702 34.4013 34.0236 34.9438C33.1398 35.541 32.1579 35.9779 31.1226 36.2345C30.8603 36.2948 30.595 36.3415 30.3278 36.3744C30.091 36.4014 29.8144 36.4268 29.5664 36.4364C29.4091 36.4491 29.2549 36.4491 29.1055 36.4491C28.728 36.4507 28.3509 36.4204 27.9784 36.3585C27.4007 36.272 26.8449 36.0756 26.3412 35.7799C25.7935 35.457 25.3453 34.9895 25.0457 34.4287C24.8898 34.137 24.7824 33.8219 24.7278 33.4957C24.7121 33.3973 24.7031 33.298 24.7007 33.1984V32.9632C24.7087 32.8185 24.7214 32.6755 24.7421 32.534C24.8259 31.9292 25.0628 31.3558 25.4304 30.8681C26.1568 29.9191 27.1789 29.4455 28.0833 29.1053C28.2677 29.0401 28.4553 28.9797 28.6445 28.9209H26.4191V15.1378C26.2855 15.3221 26.1488 15.5034 26.0169 15.6623L18.8845 24.664H17.8672L10.8334 15.648C10.7046 15.4891 10.5711 15.3206 10.4439 15.1409V28.9209H6.8197V6.80842H8.09136L18.4442 19.7491L28.7382 6.80842H30.0449V28.5426C30.1485 28.5234 30.253 28.5033 30.3587 28.4831C30.5335 28.4495 30.7114 28.4153 30.8937 28.3836C31.372 28.2904 31.8548 28.2219 32.3402 28.1786C32.806 28.1341 33.2733 28.1039 33.7502 28.0816C34.2509 28.0657 34.7738 28.0657 35.3397 28.0657C35.4987 27.7001 35.7403 27.1215 35.9755 26.5429L36.0868 26.2441C36.1504 26.0708 36.2156 25.896 36.2823 25.7227L36.3173 25.6337L30.7761 11.9793H34.3319L38.0754 21.5167L41.8172 11.9793H45.3667L40.0639 25.0487C39.9209 25.4302 39.4344 26.705 38.7239 28.3073C40.0385 28.4234 41.4325 28.5728 42.8059 28.7413C45.0202 29.0195 47.2949 29.3469 49.7635 29.7395L51.2192 29.9773C53.0633 30.2794 54.801 30.564 56.5986 30.8109C61.2417 31.4706 65.861 31.9299 70.3325 32.1779C74.934 32.4565 79.5471 32.4899 84.1522 32.2781C88.7241 32.0794 93.2749 31.5407 97.7668 30.6662C100.493 30.1184 102.96 29.5202 105.166 28.8716V11.9793H108.43V13.3861C109.353 12.5547 110.636 12.1017 112.245 12.0429H112.324V11.9793H115.185V6.49687H118.461ZM32.3625 30.5184C32.1177 30.4993 31.8665 30.4914 31.5788 30.4914C31.4326 30.4914 31.2768 30.493 31.1083 30.5073C30.2825 30.5222 29.4617 30.6402 28.6651 30.8586C28.0818 31.0287 27.3045 31.3545 26.8864 31.949C26.7156 32.1935 26.612 32.4785 26.586 32.7756C26.5695 32.8973 26.5669 33.0205 26.578 33.1428C26.6058 33.2656 26.6541 33.3827 26.7211 33.4893C26.9818 33.9312 27.5286 34.2094 28.228 34.2587C28.5998 34.2822 28.973 34.264 29.3407 34.2046C29.5362 34.1744 29.7111 34.1363 29.9193 34.087C30.0936 34.0428 30.2655 33.9898 30.4343 33.928C31.1347 33.6674 31.7746 33.2666 32.3148 32.7502C32.9969 32.1435 33.5951 31.4486 34.0935 30.6837C33.9361 30.6694 33.7867 30.6551 33.6611 30.6408C33.224 30.5899 32.7932 30.547 32.3625 30.5184Z" fill="#231F20"/>
<path opacity="0.6" d="M227.883 12.223C225.816 10.066 222.478 9.01687 217.657 9.01687C214.468 9.01687 211.655 9.54778 209.267 10.5985L210.698 3.88574H198.736L197.23 10.9704C195.449 9.85775 193.136 9.26166 190.471 9.26166C189.338 9.26022 188.21 9.40392 187.114 9.68925H181.053L182.059 4.96029H154.718L149.274 31.6094H170.9L169.628 37.5957H181.593L182.844 31.7143C184.118 32.1069 185.446 32.2989 186.78 32.2834C188.905 32.2935 191.01 31.87 192.966 31.0387L192.844 31.611H204.801L205.088 30.2551C207.209 31.6014 210.15 32.2834 213.852 32.2834C221.601 32.2834 226.63 29.4221 229.232 23.5026C229.597 22.5478 229.818 21.5447 229.89 20.5253L230.01 18.4112C230.126 15.9029 229.409 13.8205 227.883 12.223Z" fill="white"/>
<path d="M200.906 6.5686H207.381L206.549 10.4789H200.075L200.906 6.5686Z" fill="#CE1141"/>
<path fill-rule="evenodd" clip-rule="evenodd" d="M179.417 34.9122H172.941L174.214 28.9259H152.56L156.904 7.63044H178.741L177.741 12.334H163.173L162.48 15.9741H175.321L174.367 20.4948H161.525L160.835 24.2096H175.22L177.738 12.3594H184.03L183.562 14.5578H183.624C185.355 12.8776 187.848 11.9318 190.474 11.9318C195.246 11.9318 198.207 14.0793 198.487 17.9722L199.679 12.3626H206.153L204.871 18.4029C206.835 13.9188 211.499 11.6934 217.663 11.6934C223.621 11.6934 227.557 13.4324 227.338 18.2821H220.626C220.471 16.807 219.313 15.9693 216.846 15.9693C213.823 15.9693 211.633 17.6495 210.997 20.6426C210.361 23.6358 211.776 25.316 214.891 25.316C217.228 25.316 219.015 24.3606 219.93 22.4277H226.778C224.766 27.0009 220.995 29.5919 213.86 29.5919C207.532 29.5919 203.933 27.4714 203.901 22.9618L202.629 28.9195H196.155L197.293 23.5579C195.479 27.0661 191.687 29.5983 186.777 29.5983C183.906 29.5983 181.908 28.6509 181.068 27.4301H181.006L179.417 34.9122ZM187.95 16.4653C184.925 16.4653 182.987 18.1136 182.442 20.6792C181.897 23.2448 183.133 24.8947 186.158 24.8947C189.12 24.8947 191.049 23.4276 191.634 20.6792C192.219 17.9308 190.913 16.4653 187.95 16.4653Z" fill="#CE1141"/>
</svg>
