<svg width="159" height="42" viewBox="0 0 159 42" fill="none" xmlns="http://www.w3.org/2000/svg">
<path d="M27.1106 3.88599H31.9656V8.99996H27.1106V3.88599Z" fill="#525254"/>
<path d="M112.113 3.88599H116.968V8.99996H112.113V3.88599Z" fill="#525254"/>
<path d="M16.3789 10.8352C13.3189 10.8352 11.5492 12.2084 10.6955 13.157C10.594 12.3398 10.055 11.2794 7.95102 11.2794H3.3822V16.0614H5.25471C5.5717 16.0614 5.67363 16.1624 5.67363 16.4789V38.3145H11.1196V30.119C11.1196 29.8978 11.1153 29.6912 11.1097 29.506C11.9602 30.2873 13.5849 31.3631 16.1227 31.3631C21.4457 31.3631 25.1673 27.1435 25.1673 21.1001C25.1673 14.9608 21.6336 10.8352 16.3789 10.8352ZM15.2727 26.6194C12.3408 26.6194 11.0087 23.8123 11.0087 21.2114C11.0087 17.1148 13.2492 15.6546 15.3452 15.6546C17.9162 15.6546 19.6452 17.8712 19.6452 21.173C19.6452 24.9381 17.4473 26.6194 15.2727 26.6194Z" fill="#231F1F"/>
<path d="M32.337 25.7577V14.1874C32.337 12.2312 31.3944 11.2798 29.4635 11.2798H24.5978V16.0618H26.4721C26.7877 16.0618 26.8892 16.1628 26.8892 16.4789V28.0108C26.8892 29.9946 27.8028 30.918 29.758 30.918H34.6298V26.1775H32.755C32.4534 26.1775 32.337 26.0574 32.337 25.7577Z" fill="#231F1F"/>
<path d="M46.5618 10.8352C43.5008 10.8352 41.7334 12.2084 40.876 13.157C40.7745 12.3398 40.2382 11.2794 38.1348 11.2794H33.5631V16.0614H35.4375C35.7531 16.0614 35.8555 16.1624 35.8555 16.4789V38.3145H41.3038V30.119C41.3038 29.8978 41.2982 29.6912 41.2912 29.506C42.1383 30.2873 43.7682 31.3631 46.3051 31.3631C51.6285 31.3631 55.3483 27.1435 55.3483 21.1001C55.3483 14.9608 51.8169 10.8352 46.5618 10.8352ZM45.4509 26.6194C42.5269 26.6194 41.1902 23.8123 41.1902 21.2114C41.1902 17.1148 43.4302 15.6546 45.528 15.6546C48.0986 15.6546 49.8271 17.8712 49.8271 21.173C49.8271 24.9381 47.6315 26.6194 45.4509 26.6194Z" fill="#231F1F"/>
<path d="M65.3875 10.8352C59.5208 10.8352 55.4186 15.0571 55.4186 21.1001C55.4186 27.0454 59.8453 31.3631 65.9444 31.3631C70.7427 31.3631 73.6742 28.5228 73.7981 28.4026L74.0169 28.1866L71.6456 24.2495L71.2926 24.5833C71.2701 24.6001 69.1176 26.5839 66.2744 26.5839C63.5454 26.5839 61.5476 24.9185 61.0768 22.3054H73.9898L74.0207 21.9487C74.0291 21.8996 74.1371 20.7406 74.1371 20.1744C74.1371 14.5891 70.6207 10.8352 65.3875 10.8352ZM61.2792 18.2654C61.8702 16.3382 63.3472 15.246 65.3875 15.246C67.0267 15.246 68.29 16.4929 68.5116 18.2654H61.2792Z" fill="#231F1F"/>
<path d="M93.943 25.7571V6.79316C93.943 4.83837 92.9873 3.88599 91.0316 3.88599H86.1645V8.66801H88.0384C88.3535 8.66801 88.4578 8.76993 88.4578 9.08646V12.5145C87.6541 11.7884 86.0841 10.8351 83.3821 10.8351C78.0975 10.8351 74.41 15.057 74.41 21.1C74.41 27.2392 77.9437 31.363 83.1984 31.363C86.2033 31.363 87.9346 29.9678 88.7804 28.9967C88.8907 29.8444 89.4392 30.9174 91.4772 30.9174H96.1951V26.1775H94.3605C94.0585 26.1775 93.943 26.0568 93.943 25.7571ZM84.2317 26.6193C81.642 26.6193 79.9663 24.4522 79.9663 21.1C79.9663 17.8416 81.7098 15.6545 84.306 15.6545C87.2492 15.6545 88.5686 18.3686 88.5686 21.0644C88.5686 25.162 86.3263 26.6193 84.2317 26.6193Z" fill="#231F1F"/>
<path d="M108.342 11.0195C106.075 11.0195 103.988 12.3277 102.752 14.412V13.9632C102.752 12.1837 101.769 11.279 99.8412 11.279H95.1597V16.0615H97.0317C97.3473 16.0615 97.4516 16.162 97.4516 16.479V30.9181H102.897V23.0583C102.897 22.0231 103.028 21.0263 103.286 20.1057C104.105 17.3954 106.284 16.4304 108.046 16.4304C108.67 16.4304 109.126 16.4968 109.132 16.4987L109.588 16.5674V11.1542L109.256 11.0981C109.239 11.0948 108.778 11.0195 108.342 11.0195Z" fill="#231F1F"/>
<path d="M117.336 25.7577V14.1874C117.336 12.2312 116.398 11.2798 114.466 11.2798H110.064V16.0618H111.471C111.788 16.0618 111.889 16.1628 111.889 16.4789V28.0108C111.889 29.9946 112.803 30.918 114.762 30.918H119.629V26.1775H117.755C117.453 26.1775 117.336 26.0574 117.336 25.7577Z" fill="#231F1F"/>
<path d="M137.799 16.0618V11.2798H134.893C133.196 11.2798 132.285 11.868 131.748 13.3141L128.197 23.2292C128.075 23.5972 127.959 24.0091 127.862 24.4046C127.758 24.0072 127.636 23.5902 127.501 23.2217L123.951 13.3108C123.407 11.8497 122.527 11.2798 120.806 11.2798H117.718V16.0618H118.519C118.944 16.0618 119.08 16.2058 119.182 16.4718L124.677 30.918H130.8L136.296 16.4718C136.396 16.2058 136.537 16.0618 136.962 16.0618H137.799Z" fill="#231F1F"/>
<path d="M155.301 21.9487C155.305 21.8996 155.416 20.7406 155.416 20.1744C155.416 14.5891 151.898 10.8352 146.663 10.8352C140.796 10.8352 136.697 15.0571 136.697 21.1001C136.697 27.0454 141.119 31.3631 147.22 31.3631C152.018 31.3631 154.952 28.5228 155.074 28.4026L155.295 28.1866L152.928 24.2495L152.568 24.5833C152.55 24.6001 150.386 26.5839 147.553 26.5839C144.822 26.5839 142.824 24.9185 142.352 22.3054H155.269L155.301 21.9487ZM142.555 18.2654C143.151 16.3382 144.623 15.246 146.663 15.246C148.307 15.246 149.565 16.4929 149.788 18.2654H142.555Z" fill="#231F1F"/>
<path d="M108.341 11.0195C106.58 11.0195 104.941 11.8158 103.711 13.1408C104.75 13.1314 105.796 13.123 106.842 13.123C107.761 13.123 108.673 13.1314 109.587 13.137V11.1542L109.255 11.0981C109.238 11.0948 108.777 11.0195 108.341 11.0195Z" fill="#3B3B3C"/>
<path d="M131.748 13.3141L131.524 13.9443C133.63 14.0892 135.719 14.2491 137.8 14.4277V11.2798H134.894C133.197 11.2798 132.286 11.868 131.748 13.3141Z" fill="#3B3B3C"/>
<path d="M16.3789 10.8352C13.3189 10.8352 11.5488 12.2084 10.6955 13.1566C10.5936 12.3398 10.055 11.2794 7.95102 11.2794H3.3822V16.0614H5.25471C5.5717 16.0614 5.67363 16.1624 5.67363 16.4784V28.6467C8.17638 27.7761 10.7404 26.9369 13.3539 26.1299C11.7535 25.214 11.0087 23.1559 11.0087 21.2109C11.0087 17.1148 13.2492 15.6546 15.3452 15.6546C17.9162 15.6546 19.6452 17.8712 19.6452 21.173C19.6452 22.5598 19.3441 23.6594 18.8583 24.5001C20.8926 23.924 22.9549 23.3653 25.049 22.8277C25.1168 22.2699 25.1673 21.6957 25.1673 21.1001C25.1673 14.9608 21.6336 10.8352 16.3789 10.8352Z" fill="#3B3B3C"/>
<path d="M29.4635 11.2798H24.5978V16.0618H26.4721C26.7873 16.0618 26.8887 16.1628 26.8887 16.4793V22.3694C28.6841 21.9224 30.4972 21.4886 32.337 21.0706V14.1874C32.337 12.2317 31.3944 11.2798 29.4635 11.2798Z" fill="#3B3B3C"/>
<path d="M27.1106 3.88599H31.9656V8.99996H27.1106V3.88599Z" fill="#3B3B3C"/>
<path d="M46.5633 10.8352C43.5023 10.8352 41.735 12.2084 40.8776 13.1566C40.7756 12.3398 40.2398 11.2794 38.1359 11.2794H33.5647V16.0614H35.4386C35.7542 16.0614 35.8571 16.1624 35.8571 16.4784V20.2931C37.6983 19.9027 39.5652 19.524 41.4433 19.1598C42.067 16.6323 43.8352 15.6546 45.5291 15.6546C47.0627 15.6546 48.2844 16.4541 49.0296 17.7904C50.9091 17.4771 52.8013 17.1751 54.7098 16.8894C53.4694 13.15 50.4986 10.8352 46.5633 10.8352Z" fill="#3B3B3C"/>
<path d="M65.3881 10.8352C61.1017 10.8352 57.7671 13.092 56.2776 16.6631C58.5924 16.3298 60.931 16.0184 63.2902 15.7294C63.8938 15.4148 64.5965 15.2465 65.3881 15.2465C65.6882 15.2465 65.9669 15.3026 66.2371 15.3797C68.3775 15.1375 70.5376 14.9145 72.7145 14.7102C71.2179 12.2813 68.6342 10.8352 65.3881 10.8352Z" fill="#3B3B3C"/>
<path d="M91.0309 3.88599H86.1638V8.66801H88.0377C88.3524 8.66801 88.4571 8.76993 88.4571 9.08646V12.5145C87.6534 11.7884 86.0834 10.8351 83.3815 10.8351C80.4238 10.8351 77.9674 12.1577 76.3763 14.3851C82.1313 13.9007 87.9905 13.5534 93.9423 13.3444V6.79316C93.9423 4.83837 92.9867 3.88599 91.0309 3.88599Z" fill="#3B3B3C"/>
<path d="M99.8421 11.2798H95.1597V13.3108C97.6442 13.2318 100.14 13.1752 102.657 13.1467C102.381 11.9119 101.444 11.2798 99.8421 11.2798Z" fill="#3B3B3C"/>
<path d="M112.113 3.88599H116.968V8.99996H112.113V3.88599Z" fill="#3B3B3C"/>
<path d="M114.467 11.2798H110.065V13.1406C112.47 13.1621 114.863 13.2061 117.243 13.271C116.973 11.9409 116.065 11.2798 114.467 11.2798Z" fill="#3B3B3C"/>
<path d="M120.806 11.2798H117.718V13.2855C119.832 13.3482 121.933 13.4253 124.023 13.5207L123.951 13.3108C123.407 11.8497 122.527 11.2798 120.806 11.2798Z" fill="#3B3B3C"/>
<path d="M146.663 10.8352C143.318 10.8352 140.553 12.2112 138.787 14.511C141.344 14.7354 143.886 14.9874 146.4 15.2647C146.787 15.3072 147.167 15.3465 147.548 15.3909C149.974 15.6654 152.373 15.9669 154.752 16.2914C153.506 12.9204 150.561 10.8352 146.663 10.8352Z" fill="#3B3B3C"/>
</svg>
