<svg width="180" height="42" viewBox="0 0 180 42" fill="none" xmlns="http://www.w3.org/2000/svg">
<path d="M55.7254 14.0314C56.4461 14.0314 57.1669 14.1423 57.8321 14.3641C58.4974 14.5858 59.0518 14.9739 59.5508 15.4174C60.0498 15.9164 60.4378 16.4708 60.7705 17.1915C61.0477 17.9122 61.214 18.7438 61.2694 19.7418V21.7376C61.2694 22.7356 61.1031 23.5672 60.7705 24.2879C60.4378 25.0086 60.0498 25.6185 59.5508 26.062C59.0518 26.5609 58.4974 26.8936 57.8321 27.1153C57.1669 27.3371 56.4461 27.448 55.7254 27.448H52.3436V31.2179C52.3436 31.3842 52.2327 31.5506 52.1218 31.6615C52.0109 31.8278 51.8446 31.8832 51.6783 31.8832H47.9083V14.9185C47.9083 14.7521 48.0192 14.5858 48.1301 14.4749C48.241 14.3086 48.4073 14.2532 48.5736 14.2532H51.5674C51.7337 14.2532 51.9 14.3641 52.0109 14.4749C52.1772 14.5858 52.2327 14.7521 52.2327 14.9185V15.4729L52.7316 14.9739C52.9534 14.7521 53.1197 14.6413 53.3969 14.4749C53.6741 14.3641 53.9513 14.2532 54.3394 14.1423C54.7275 14.0869 55.171 14.0314 55.7254 14.0314ZM129.128 14.0314C129.96 14.0314 130.792 14.1423 131.512 14.3641C132.233 14.5858 132.843 14.8076 133.397 15.1402C133.952 15.4729 134.34 15.861 134.672 16.249C135.005 16.6926 135.171 17.0806 135.171 17.5242C135.171 17.6905 135.116 17.8568 135.005 17.9677C134.839 18.0786 134.728 18.1894 134.506 18.1894H131.402C131.235 18.1894 131.069 18.134 130.958 18.0786C130.847 18.0231 130.736 17.9122 130.57 17.8014C130.404 17.6905 130.237 17.635 129.96 17.5242C129.738 17.4687 129.406 17.4133 128.962 17.4133C128.574 17.4133 128.241 17.4687 128.02 17.5796C127.742 17.6905 127.632 17.8568 127.632 18.134C127.632 18.3003 127.687 18.4666 127.742 18.5775C127.798 18.6884 127.964 18.7438 128.241 18.7993C128.463 18.8547 128.851 18.9102 129.295 18.9656C129.738 19.0211 130.348 19.1319 131.069 19.2428C132.566 19.4646 133.675 20.019 134.34 20.7397C135.005 21.5159 135.393 22.4029 135.393 23.4008C135.393 23.9552 135.227 24.5096 134.95 24.9532C134.672 25.4521 134.229 25.8957 133.73 26.2283C133.176 26.6164 132.51 26.8936 131.734 27.1153C130.958 27.3371 130.071 27.448 129.073 27.448C128.075 27.448 127.188 27.3371 126.467 27.1153C125.691 26.8936 125.081 26.6164 124.582 26.2837C124.083 25.9511 123.695 25.563 123.418 25.1195C123.141 24.7314 122.975 24.2879 122.975 23.8998C122.975 23.7335 123.03 23.5672 123.141 23.4563C123.307 23.3454 123.418 23.2345 123.64 23.2345H126.689C126.855 23.2345 127.022 23.29 127.077 23.3454C127.133 23.4563 127.243 23.5117 127.41 23.6226C127.521 23.7335 127.742 23.8444 127.964 23.8998C128.186 24.0107 128.574 24.0107 129.073 24.0107C129.572 24.0107 130.015 23.9552 130.348 23.7889C130.792 23.7335 130.958 23.5672 130.958 23.29C130.958 23.1236 130.903 22.9573 130.792 22.8464C130.681 22.7356 130.459 22.6801 130.182 22.6247C129.905 22.5692 129.517 22.5138 129.018 22.4029C128.519 22.3475 127.909 22.2366 127.188 22.1257C125.913 21.904 124.97 21.405 124.305 20.7397C123.64 20.019 123.307 19.1319 123.307 18.0231C123.307 17.4687 123.474 16.9143 123.751 16.4708C124.028 15.9718 124.416 15.5837 124.915 15.1957C125.414 14.8076 126.024 14.5304 126.745 14.3641C127.465 14.1423 128.241 14.0314 129.128 14.0314ZM143.044 14.0314C143.876 14.0314 144.707 14.1423 145.428 14.3641C146.149 14.5858 146.758 14.8076 147.313 15.1402C147.867 15.4729 148.255 15.861 148.588 16.249C148.921 16.6926 149.087 17.0806 149.087 17.5242C149.087 17.6905 149.032 17.8568 148.921 17.9677C148.754 18.0786 148.643 18.1894 148.422 18.1894H145.483C145.317 18.1894 145.151 18.134 145.04 18.0786C144.929 18.0231 144.818 17.9122 144.652 17.8014C144.485 17.6905 144.319 17.635 144.042 17.5242C143.82 17.4687 143.487 17.4133 143.044 17.4133C142.656 17.4133 142.323 17.4687 142.101 17.5796C141.824 17.6905 141.713 17.8568 141.713 18.134C141.713 18.3003 141.769 18.4666 141.824 18.5775C141.88 18.6884 142.046 18.7438 142.323 18.7993C142.6 18.8547 142.933 18.9102 143.377 18.9656C143.82 19.0211 144.43 19.1319 145.151 19.2428C146.648 19.4646 147.756 20.019 148.422 20.7397C149.087 21.5159 149.475 22.4029 149.475 23.4008C149.475 23.9552 149.309 24.5096 149.032 24.9532C148.754 25.4521 148.311 25.8957 147.812 26.2283C147.257 26.6164 146.592 26.8936 145.816 27.1153C145.04 27.3371 144.153 27.448 143.155 27.448C142.157 27.448 141.27 27.3371 140.549 27.1153C139.773 26.8936 139.163 26.6164 138.664 26.2837C138.165 25.9511 137.777 25.563 137.5 25.1195C137.223 24.7314 137.056 24.2879 137.056 23.8998C137.056 23.7335 137.112 23.5672 137.223 23.4563C137.389 23.3454 137.5 23.2345 137.722 23.2345H140.771C140.937 23.2345 141.104 23.29 141.159 23.3454C141.214 23.4563 141.325 23.5117 141.492 23.6226C141.603 23.7335 141.824 23.8444 142.046 23.8998C142.268 24.0107 142.656 24.0107 143.155 24.0107C143.654 24.0107 144.097 23.9552 144.43 23.7889C144.652 23.7335 144.874 23.5672 144.874 23.29C144.874 23.1236 144.818 22.9573 144.707 22.8464C144.596 22.7356 144.375 22.6801 144.097 22.6247C143.82 22.5692 143.432 22.5138 142.933 22.4029C142.434 22.3475 141.824 22.2366 141.104 22.1257C139.828 21.904 138.886 21.405 138.221 20.7397C137.555 20.019 137.223 19.1319 137.223 18.0231C137.223 17.4687 137.389 16.9143 137.666 16.4708C137.943 15.9718 138.332 15.5837 138.831 15.1957C139.329 14.8076 139.939 14.5304 140.66 14.3641C141.381 14.1423 142.157 14.0314 143.044 14.0314ZM114.825 14.0869C116.045 14.0869 117.042 14.3086 117.929 14.6967C118.761 15.0848 119.482 15.6392 120.036 16.249C120.591 16.9143 120.979 17.635 121.2 18.4112C121.422 19.1874 121.533 20.019 121.533 20.7951V21.5159C121.533 21.6822 121.478 21.8485 121.311 21.9594C121.2 22.0703 121.034 22.1812 120.868 22.1812L112.552 22.1811L112.553 22.2143C112.561 22.5643 112.62 22.8635 112.774 23.0682C112.94 23.29 113.106 23.5117 113.328 23.678C113.55 23.8444 113.771 23.9552 114.049 24.0107C114.326 24.0661 114.548 24.1216 114.825 24.1216C115.324 24.1216 115.712 24.0661 115.989 23.9552C116.266 23.8444 116.543 23.7335 116.71 23.5117C116.876 23.3454 117.042 23.29 117.098 23.2345C117.148 23.1841 117.29 23.1795 117.482 23.1791L120.757 23.1791C121.145 23.1791 121.311 23.3454 121.311 23.7335C121.311 23.9552 121.2 24.2324 120.923 24.6205C120.702 25.0086 120.313 25.4521 119.759 25.8402C119.26 26.2837 118.539 26.6164 117.763 26.949C116.932 27.2817 115.934 27.3925 114.825 27.3925C113.771 27.3925 112.774 27.2262 111.942 26.949C111.11 26.6164 110.39 26.2283 109.835 25.6185C109.281 25.064 108.837 24.3433 108.56 23.5117C108.283 22.6801 108.117 21.7376 108.117 20.7397C108.117 19.7972 108.283 18.9102 108.56 18.0786C108.837 17.247 109.281 16.5817 109.835 15.9718C110.39 15.362 111.11 14.9185 111.942 14.5858C112.774 14.2532 113.716 14.0869 114.825 14.0869ZM76.9036 13.976C77.9016 13.976 78.7886 14.0869 79.5093 14.3641C80.23 14.5858 80.8399 14.9739 81.3389 15.4174C81.8378 15.861 82.1705 16.3599 82.3922 16.9698C82.614 17.5796 82.7249 18.2449 82.7249 18.9656V26.4501C82.7249 26.6164 82.6694 26.7827 82.5031 26.8936C82.3922 27.0045 82.2259 27.1153 82.0596 27.1153H78.9549C78.7886 27.1153 78.6223 27.0599 78.5114 26.8936C78.4005 26.7827 78.2896 26.6164 78.2896 26.4501V25.7293C77.9016 26.2283 77.4026 26.6164 76.7927 26.8936C76.1829 27.1708 75.4622 27.3371 74.4643 27.3371C73.7435 27.3371 73.1337 27.2262 72.5793 27.0599C72.0249 26.8381 71.5814 26.6164 71.1933 26.2283C70.8052 25.8957 70.528 25.4521 70.3617 25.0086C70.1399 24.6205 70.029 24.0661 70.029 23.5117C70.029 22.4029 70.4726 21.5159 71.3042 20.7951C72.1358 20.0744 73.5218 19.5755 75.4067 19.2428L78.2896 18.7438C78.2896 18.3558 78.1788 18.0231 77.957 17.7459C77.7352 17.4687 77.3472 17.3578 76.8482 17.3578C76.4601 17.3578 76.1829 17.4133 75.9611 17.5242C75.7394 17.635 75.6285 17.7459 75.5176 17.8014C75.3513 17.9122 75.2404 18.0231 75.0741 18.0231C74.9771 18.0716 74.8376 18.0777 74.6928 18.0785L71.4705 18.0786C71.3042 18.0786 71.1933 18.0231 71.0824 17.9122C70.9715 17.8014 70.9161 17.6905 70.9715 17.5242C71.027 17.1361 71.1933 16.748 71.4705 16.3599C71.7477 15.9718 72.1912 15.5837 72.6902 15.1957C73.1891 14.863 73.8544 14.5858 74.5751 14.3086C75.2959 14.0869 76.072 13.976 76.9036 13.976ZM167.77 14.0314C168.657 14.0314 169.434 14.1977 170.099 14.4749C170.764 14.7521 171.319 15.1402 171.818 15.6392C172.261 16.1382 172.594 16.748 172.871 17.4133C173.093 18.134 173.259 18.8547 173.259 19.6309V21.6267C173.204 22.4029 173.093 23.1791 172.871 23.8444C172.649 24.5651 172.261 25.1195 171.818 25.6185C171.374 26.1174 170.82 26.5055 170.099 26.7827C169.434 27.0599 168.657 27.2262 167.77 27.2262C166.883 27.2262 166.107 27.0599 165.442 26.7827C164.777 26.5055 164.222 26.1174 163.723 25.6185C163.28 25.1195 162.892 24.5096 162.67 23.8444C162.448 23.1791 162.282 22.4029 162.282 21.6267V19.6309C162.282 18.8547 162.448 18.0786 162.67 17.4133C162.892 16.748 163.28 16.1382 163.723 15.6392C164.167 15.1402 164.721 14.7521 165.442 14.4749C166.107 14.1977 166.883 14.0314 167.77 14.0314ZM67.3679 9.59619C67.5342 9.59619 67.7005 9.65163 67.8114 9.81795C67.9223 9.92883 68.0332 10.0952 68.0332 10.2615V26.5055C68.0332 26.6718 67.9777 26.8381 67.8114 26.949C67.7005 27.0599 67.5342 27.1708 67.3679 27.1708H64.2632C64.0969 27.1708 63.9306 27.1153 63.8197 26.949C63.7088 26.8381 63.5979 26.6718 63.5979 26.5055V10.2615C63.5979 10.0952 63.6534 9.92883 63.8197 9.81795C63.9306 9.70707 64.0969 9.59619 64.2632 9.59619H67.3679ZM93.3694 14.0869C94.1456 14.0869 94.8663 14.1977 95.5316 14.4195C96.1969 14.6413 96.7513 14.9739 97.2502 15.4729C97.6938 15.9164 98.0818 16.5262 98.3591 17.247C98.6363 17.9677 98.7471 18.7993 98.7471 19.7972V26.5055H98.6363C98.6363 26.6718 98.5808 26.8381 98.4145 26.949C98.3036 27.0599 98.1373 27.1708 97.971 27.1708H94.8663C94.7 27.1708 94.5337 27.1153 94.4228 26.949C94.3119 26.8381 94.201 26.6718 94.201 26.5055V20.2407C94.201 19.52 94.0347 18.9656 93.7021 18.5221C93.3694 18.0786 92.815 17.8568 92.0943 17.8568C91.3736 17.8568 90.8192 18.0786 90.4865 18.5221C90.1539 18.9656 89.9876 19.52 89.9876 20.2407V26.5055C89.9876 26.6718 89.9321 26.8381 89.7658 26.949C89.6549 27.0599 89.4886 27.1708 89.3223 27.1708H86.2176C86.0513 27.1708 85.885 27.1153 85.7741 26.949C85.6632 26.8381 85.5523 26.6718 85.5523 26.5055V14.9739C85.5523 14.8076 85.6078 14.6413 85.7741 14.5304C85.885 14.4195 86.0513 14.3086 86.2176 14.3086H89.2114C89.3777 14.3086 89.544 14.3641 89.6549 14.5304C89.7658 14.6413 89.8767 14.8076 89.8767 14.9739V15.5283C89.9876 15.362 90.1539 15.1957 90.3756 15.0293C90.5974 14.863 90.8192 14.6967 91.0964 14.5304C91.3736 14.3641 91.7062 14.2532 92.0943 14.1977C92.4824 14.0869 92.9259 14.0869 93.3694 14.0869ZM105.123 9.59619C105.289 9.59619 105.455 9.65163 105.566 9.81795C105.677 9.92883 105.788 10.0952 105.788 10.2615V26.5055H105.843C105.843 26.6718 105.788 26.8381 105.622 26.949C105.511 27.0599 105.345 27.1708 105.178 27.1708H102.018C101.852 27.1708 101.685 27.1153 101.575 26.949C101.464 26.8381 101.353 26.6718 101.353 26.5055V10.2615C101.353 10.0952 101.408 9.92883 101.575 9.81795C101.685 9.70707 101.852 9.59619 102.018 9.59619H105.123ZM153.578 24.8977C153.744 24.8977 153.855 24.9532 153.966 25.064C154.077 25.1749 154.132 25.2858 154.132 25.4521V26.6164C154.132 26.7827 154.077 26.8936 153.966 27.0045C153.855 27.1153 153.744 27.1708 153.578 27.1708H152.413C152.025 27.1708 151.859 27.0045 151.859 26.6164V25.4521C151.859 25.2858 151.914 25.1749 152.025 25.064C152.136 24.9532 152.247 24.8977 152.413 24.8977H153.578ZM158.623 14.3086C159.011 14.3086 159.177 14.4749 159.177 14.863V26.6164C159.177 27.0045 159.011 27.1708 158.623 27.1708H158.179C157.791 27.1708 157.625 27.0045 157.625 26.6164V14.863C157.625 14.4749 157.791 14.3086 158.179 14.3086H158.623ZM167.77 15.4729C166.606 15.4729 165.664 15.861 164.943 16.5817C164.222 17.3024 163.834 18.4112 163.779 19.7972V21.6822C163.834 23.1236 164.222 24.177 164.943 24.8977C165.664 25.6185 166.606 26.0065 167.77 26.0065C168.935 26.0065 169.877 25.6185 170.598 24.8977C171.319 24.177 171.707 23.0682 171.762 21.6822V20.7397C171.818 20.3516 171.818 20.0744 171.762 19.7972C171.707 18.3558 171.319 17.3024 170.598 16.5817C169.877 15.861 168.935 15.4729 167.77 15.4729ZM78.2896 21.6822L76.0166 22.0148C75.5731 22.0703 75.185 22.2366 74.9632 22.4584C74.686 22.6801 74.5751 22.9019 74.5751 23.2345C74.5751 23.5672 74.686 23.7889 74.9078 23.8998C75.0187 24.0107 75.2959 24.0661 75.6839 24.0661C76.072 24.0661 76.4047 24.0107 76.6819 23.8998C76.9591 23.7889 77.2917 23.6226 77.5135 23.4008C77.7352 23.1791 77.9016 22.9573 78.0679 22.6247C78.1788 22.3475 78.2896 22.0148 78.2896 21.6822ZM54.6166 17.9122C54.2285 17.9122 53.9513 17.9677 53.6741 18.0786C53.3969 18.1894 53.1752 18.3558 53.0088 18.5221C52.8425 18.6884 52.7316 18.9102 52.6208 19.1319C52.5099 19.3537 52.4544 19.6309 52.399 19.8527C52.3436 20.1299 52.3436 20.4071 52.3436 20.7397V23.5672H54.6166C55.3928 23.5672 55.9472 23.3454 56.2798 22.9019C56.6125 22.5138 56.7788 21.9594 56.8342 21.405V20.0744C56.7788 19.52 56.6125 19.0211 56.2798 18.5775C55.9472 18.134 55.3928 17.9122 54.6166 17.9122ZM114.769 17.4133C114.049 17.4133 113.55 17.635 113.162 18.0231C112.774 18.4112 112.607 18.9102 112.496 19.4091H116.932C116.876 18.9102 116.654 18.4112 116.266 18.0231C115.989 17.5796 115.435 17.4133 114.769 17.4133ZM158.844 9.59619C159.011 9.59619 159.122 9.65163 159.233 9.76251C159.343 9.87339 159.399 9.98427 159.399 10.1506V11.0931C159.399 11.2594 159.343 11.3703 159.233 11.4812C159.122 11.592 159.011 11.6475 158.844 11.6475H157.902C157.514 11.6475 157.348 11.4812 157.348 11.0931V10.1506C157.348 9.98427 157.403 9.87339 157.514 9.76251C157.625 9.65163 157.736 9.59619 157.902 9.59619H158.844Z" fill="#111111"/>
<path d="M10.7631 3.8855H18.0812H25.3993C27.9496 3.8855 30.1672 4.93886 31.6641 6.60208C33.161 8.26529 33.9372 10.6492 33.66 13.1995C31.2206 13.1995 28.7812 13.1995 26.3418 13.1995C23.9025 13.1995 21.4631 13.1995 19.0237 13.1995C16.4734 13.1995 14.2558 12.1461 12.7589 10.4829C11.3175 8.76425 10.4859 6.43575 10.7631 3.8855Z" fill="#F7CE12"/>
<path d="M8.59985 23.678H15.918H23.2361C25.7864 23.678 28.2257 22.6246 30.1107 20.9614C31.9957 19.2982 33.2708 16.9143 33.6035 14.364C31.1641 14.364 28.7247 14.364 26.2853 14.364C23.8459 14.364 21.4066 14.364 18.9672 14.364C16.4169 14.364 13.9776 15.4174 12.0926 17.0806C10.2076 18.7438 8.87706 21.0723 8.59985 23.678Z" fill="#F0572A"/>
<path d="M18.9678 14.364C18.6906 16.8034 18.4134 19.2428 18.1362 21.6821C17.859 24.1215 17.5818 26.5609 17.3046 29.0003C17.0274 31.5505 15.6969 33.879 13.8119 35.5977C11.9269 37.2609 9.48754 38.3142 6.93729 38.3142L7.76889 30.9961C8.04609 28.5567 8.3233 26.1174 8.6005 23.678C8.8777 21.1277 10.2083 18.7992 12.0378 17.0806C13.9228 15.3619 16.3621 14.364 18.9678 14.364Z" fill="#2ABDE1"/>
<path d="M18.9672 14.364C18.69 16.8034 18.4128 19.2428 18.1356 21.6821C18.0599 22.3484 17.9842 23.0146 17.9085 23.6809L8.59985 23.678C8.87706 21.1277 10.2076 18.7992 12.0372 17.0806C13.9221 15.3619 16.3615 14.364 18.9672 14.364Z" fill="#1C519F"/>
</svg>
