<svg width="290" height="42" viewBox="0 0 290 42" fill="none" xmlns="http://www.w3.org/2000/svg">
<path d="M19.331 21.8157L34.632 36.8781H4.02997L19.331 21.8157Z" fill="#FF2638"/>
<path d="M4.02997 6.75366L19.331 21.8161L34.632 6.75366H4.02997Z" fill="#FFC600"/>
<path d="M19.3348 21.8161L34.6358 36.8786L49.9368 21.8161L34.6358 6.75366L19.3348 21.8161Z" fill="#0079F2"/>
<path d="M280.938 13.8946C280.938 14.1135 280.636 14.2094 280.493 14.0421C279.374 12.7412 277.525 11.7551 274.994 11.7551C269.518 11.7551 266.404 16.1767 266.404 21.5303C266.404 26.8495 269.518 31.2687 274.994 31.2687C277.559 31.2687 279.564 30.3711 280.808 28.8218C280.948 28.6497 281.26 28.7431 281.26 28.9644V30.6195C281.26 30.7424 281.359 30.8408 281.479 30.8408H284.976C285.099 30.8408 285.198 30.7424 285.198 30.6195V4.10707C285.198 3.98483 285.098 3.88574 284.976 3.88574H281.157C281.036 3.88709 280.938 3.98579 280.938 4.10707V13.8946ZM281.115 21.5303C281.115 24.8748 279.148 27.4963 275.89 27.4963C272.668 27.4963 270.664 24.8724 270.664 21.5303C270.664 18.117 272.668 15.5299 275.89 15.5299C279.148 15.5299 281.115 18.117 281.115 21.5303ZM265.342 12.2469C265.342 12.1325 265.255 12.0371 265.14 12.0281C265.005 12.0176 264.868 12.0111 264.732 12.0084C262.101 12.0084 260.569 13.0634 259.725 14.0962C259.583 14.2684 259.256 14.1749 259.256 13.9487V12.4068C259.256 12.2855 259.158 12.1868 259.037 12.1855H255.537C255.416 12.1868 255.318 12.2855 255.318 12.4068V30.6195C255.318 30.7424 255.417 30.8408 255.537 30.8408H259.359C259.48 30.8394 259.578 30.7407 259.578 30.6195V21.1369C259.578 17.5416 261.368 15.9603 264.376 15.9603C264.631 15.9603 264.902 15.9849 265.089 16.0021C265.152 16.009 265.216 15.989 265.264 15.947C265.312 15.9049 265.34 15.8447 265.342 15.7808V12.2469ZM247.304 22.1082C247.368 22.099 247.432 22.1178 247.481 22.1598C247.529 22.2018 247.557 22.2629 247.557 22.3271V23.2567C247.557 25.7724 245.875 27.9291 242.437 27.9291C240.396 27.9291 239.142 27.2455 239.142 25.4847C239.142 24.1912 240.003 23.2223 242.617 22.8239L247.304 22.1107V22.1082ZM241.579 31.2711C244.228 31.2711 246.22 30.499 247.511 28.9841C247.651 28.8169 247.958 28.9103 247.968 29.1317C248.02 30.2014 248.172 30.8383 248.202 30.8383H251.913C252.07 30.8383 252.181 30.676 252.131 30.526C251.873 29.7096 251.708 28.3865 251.708 27.3168V18.7269C251.708 14.4504 249.131 11.7551 243.692 11.7551C238.21 11.7551 235.965 14.6274 235.522 17.8022C235.515 17.864 235.535 17.9258 235.576 17.9722C235.617 18.0187 235.676 18.0454 235.739 18.0457H239.459C239.567 18.0457 239.656 17.967 239.681 17.8612C240.027 16.2456 241.341 15.2791 243.583 15.2791C246.124 15.2791 247.557 16.4275 247.557 18.6924V18.7884C247.557 18.8982 247.477 18.9914 247.368 19.0072L242.187 19.7351C237.283 20.4163 235.065 22.4648 235.065 25.6273C235.065 28.8243 236.961 31.2711 241.579 31.2711ZM223.789 31.2711C229.731 31.2711 233.454 26.7782 233.454 21.5328C233.454 16.2849 229.731 11.7551 223.789 11.7551C217.882 11.7551 214.162 16.2849 214.162 21.5303C214.162 26.7782 217.882 31.2687 223.789 31.2687V31.2711ZM218.421 21.5328C218.421 17.9006 220.711 15.5299 223.789 15.5299C226.905 15.5299 229.195 17.9006 229.195 21.5303C229.195 25.1257 226.905 27.4963 223.789 27.4963C220.711 27.4963 218.421 25.1257 218.421 21.5303V21.5328ZM198.475 14.0421C198.332 14.2094 198.032 14.1135 198.032 13.8946V4.10707C198.032 3.98483 197.933 3.88574 197.811 3.88574H193.992C193.869 3.88574 193.77 3.98483 193.77 4.10707V30.617C193.77 30.74 193.869 30.8383 193.992 30.8383H197.488C197.611 30.8383 197.71 30.74 197.71 30.617V28.9448C197.71 28.7234 198.015 28.63 198.152 28.8021C199.424 30.3637 201.431 31.2711 203.973 31.2711C209.484 31.2711 212.6 26.8495 212.6 21.5328C212.6 16.1767 209.484 11.7551 203.973 11.7551C201.472 11.7551 199.601 12.7412 198.475 14.0421ZM197.887 21.5303C197.887 18.117 199.854 15.5299 203.113 15.5299C206.334 15.5299 208.341 18.117 208.341 21.5303C208.341 24.8748 206.334 27.4963 203.113 27.4963C199.857 27.4963 197.887 24.8724 197.887 21.5303ZM190.153 27.3242C190.151 27.2542 190.118 27.1887 190.063 27.1455C190.007 27.1023 189.936 27.0858 189.867 27.1004C189.622 27.1496 189.243 27.211 188.83 27.211C187.362 27.211 186.754 26.4905 186.754 25.0175V15.8201C186.756 15.6989 186.854 15.6013 186.975 15.6013H190.005C190.128 15.6013 190.227 15.5029 190.227 15.3799V12.4117C190.227 12.2895 190.127 12.1904 190.005 12.1904H186.973C186.914 12.1904 186.858 12.1671 186.817 12.1256C186.775 12.0841 186.752 12.0278 186.752 11.9691V7.55975C186.752 7.43847 186.654 7.33977 186.533 7.33843H182.714C182.592 7.33843 182.492 7.43752 182.492 7.55975V11.9715C182.492 12.0302 182.469 12.0865 182.428 12.128C182.386 12.1695 182.33 12.1928 182.271 12.1928H179.886C179.764 12.1928 179.666 12.2904 179.664 12.4117V15.3849C179.664 15.5078 179.763 15.6062 179.886 15.6062H182.271C182.394 15.6062 182.492 15.7045 182.492 15.825V25.4527C182.492 28.9743 184.14 30.9514 187.935 30.9514C188.987 30.9514 189.69 30.8334 189.99 30.7719C190.087 30.7508 190.155 30.6642 190.153 30.5654V27.3242ZM160.107 21.5303C160.107 26.9209 163.901 31.2687 169.378 31.2687C174.753 31.2687 177.542 27.6143 178.142 24.3338C178.153 24.271 178.136 24.2066 178.094 24.158C178.053 24.1095 177.992 24.082 177.928 24.083H173.989C173.887 24.0839 173.799 24.1522 173.772 24.2502C173.221 26.1708 171.569 27.4963 169.341 27.4963C166.299 27.4963 164.366 25.0174 164.366 21.5303C164.366 18.0088 166.299 15.5299 169.341 15.5299C171.569 15.5299 173.221 16.8554 173.772 18.7761C173.799 18.8744 173.888 18.9433 173.989 18.9433H177.928C177.992 18.9442 178.053 18.9167 178.094 18.8682C178.136 18.8197 178.153 18.7553 178.142 18.6924C177.542 15.4119 174.753 11.7576 169.378 11.7576C163.901 11.7576 160.107 16.1054 160.107 21.5303ZM152.933 22.9321C152.933 25.9864 151.288 27.6045 148.639 27.6045C146.062 27.6045 145.024 25.915 145.024 23.3649V12.4068C145.024 12.2846 144.925 12.1855 144.803 12.1855H140.984C140.862 12.1855 140.763 12.2846 140.763 12.4068V23.9403C140.763 28.2882 143.091 31.2687 147.599 31.2687C150.103 31.2687 151.812 30.3268 152.768 29.1587C152.913 28.9816 153.258 29.0825 153.258 29.3112V30.6195C153.258 30.7424 153.356 30.8408 153.479 30.8408H156.974C157.096 30.8408 157.195 30.7424 157.195 30.6195V12.4068C157.195 12.2846 157.096 12.1855 156.974 12.1855H153.154C153.032 12.1855 152.933 12.2846 152.933 12.4068V22.9321ZM133.235 13.8946C133.235 14.1135 132.933 14.2094 132.79 14.0421C131.671 12.7412 129.822 11.7551 127.291 11.7551C121.815 11.7551 118.699 16.1767 118.699 21.5303C118.699 26.8495 121.815 31.2687 127.291 31.2687C129.854 31.2687 131.858 30.3711 133.105 28.8218C133.245 28.6497 133.555 28.7431 133.555 28.9644V30.6195C133.555 30.7424 133.653 30.8408 133.776 30.8408H137.273C137.396 30.8408 137.494 30.7424 137.494 30.6195V4.10707C137.494 3.98483 137.395 3.88574 137.273 3.88574H133.454C133.332 3.88574 133.233 3.98483 133.233 4.10707V13.8946H133.235ZM133.412 21.5303C133.412 24.8748 131.445 27.4963 128.186 27.4963C124.965 27.4963 122.958 24.8724 122.958 21.5303C122.958 18.117 124.965 15.5299 128.186 15.5299C131.442 15.5299 133.412 18.117 133.412 21.5303ZM107.315 31.2711C113.259 31.2711 116.98 26.7782 116.98 21.5328C116.98 16.2825 113.262 11.7551 107.315 11.7551C101.411 11.7551 97.6877 16.2849 97.6877 21.5303C97.6877 26.7782 101.411 31.2687 107.315 31.2687V31.2711ZM101.947 21.5328C101.947 17.9006 104.236 15.5299 107.315 15.5299C110.431 15.5299 112.721 17.9006 112.721 21.5303C112.721 25.1257 110.431 27.4963 107.315 27.4963C104.236 27.4963 101.947 25.1257 101.947 21.5303V21.5328ZM97.1983 12.2469C97.1987 12.1325 97.1108 12.0371 96.9967 12.0281C96.8616 12.0176 96.7263 12.0111 96.5909 12.0084C93.9596 12.0084 92.425 13.0634 91.5815 14.0962C91.4389 14.2684 91.1143 14.1749 91.1143 13.9487V12.4068C91.1143 12.2846 91.0152 12.1855 90.893 12.1855H87.396C87.2738 12.1855 87.1747 12.2846 87.1747 12.4068V30.6195C87.1747 30.7424 87.2731 30.8408 87.396 30.8408H91.2151C91.3381 30.8408 91.4365 30.7424 91.4365 30.6195V21.1369C91.4365 17.5416 93.2243 15.9603 96.2318 15.9603C96.4901 15.9603 96.7581 15.9849 96.945 16.0021C97.0085 16.009 97.0721 15.989 97.1202 15.947C97.1683 15.9049 97.1966 15.8447 97.1983 15.7808V12.2469ZM69.9752 29.1464C69.9752 28.9251 70.2801 28.8292 70.4252 28.9989C71.5491 30.3145 73.4205 31.2711 75.919 31.2711C81.4301 31.2711 84.5458 26.8495 84.5458 21.5328C84.5458 16.1767 81.4301 11.7551 75.919 11.7551C73.3738 11.7551 71.3671 12.6921 70.0957 14.2389C69.958 14.4086 69.6531 14.3127 69.6531 14.0913V12.4068C69.6531 12.2846 69.554 12.1855 69.4317 12.1855H65.9372C65.815 12.1855 65.7159 12.2846 65.7159 12.4068V38.0929C65.7159 38.2159 65.8143 38.3142 65.9372 38.3142H69.7563C69.8793 38.3142 69.9777 38.2159 69.9777 38.0929V29.1464H69.9752ZM69.8326 21.5303C69.8326 18.0801 71.7999 15.4562 75.0583 15.4562C78.2799 15.4562 80.2865 18.0801 80.2865 21.5303C80.2865 24.8748 78.2799 27.4963 75.0583 27.4963C71.8024 27.4963 69.8326 24.8724 69.8326 21.5303Z" fill="#000C2C"/>
</svg>
