<svg width="160" height="42" viewBox="0 0 160 42" fill="none" xmlns="http://www.w3.org/2000/svg">
<path d="M6.68925 29.9467C6.51306 29.8449 6.36871 29.5954 6.36871 29.3929V12.8068C6.36871 12.6039 6.51306 12.3548 6.68925 12.2528L21.2376 3.96235C21.414 3.86053 21.7025 3.86053 21.8789 3.96235L36.4263 12.2537C36.6027 12.3556 36.7469 12.6047 36.7469 12.8075V29.3936C36.7469 29.596 36.6027 29.8453 36.4263 29.9474L21.8789 38.2381C21.7025 38.3399 21.414 38.3399 21.2376 38.2381L6.68925 29.9467ZM50.4121 14.4575V21.1849H53.2888C55.3766 21.1849 56.3045 20.3343 56.3045 18.9425V16.7C56.3045 15.3083 55.3766 14.4575 53.2888 14.4575H50.4121ZM50.4121 23.3243V29.3299C50.4121 29.6906 50.3193 29.8453 49.9945 29.8453H48.5792C48.2777 29.8453 48.1617 29.6906 48.1617 29.3299V12.8339C48.1617 12.473 48.2777 12.3182 48.5792 12.3182H53.2888C57.279 12.3182 58.5549 14.174 58.5549 16.2876V19.355C58.5549 21.4684 57.279 23.3243 53.2888 23.3243H50.4121ZM63.7902 14.4575V20.7725H66.6668C68.7548 20.7725 69.6829 19.9477 69.6829 18.53V16.7C69.6829 15.3083 68.7548 14.4575 66.6668 14.4575H63.7902ZM63.7902 22.9119V29.3299C63.7902 29.6906 63.6973 29.8453 63.3725 29.8453H61.9574C61.6558 29.8453 61.5399 29.6906 61.5399 29.3299V12.8339C61.5399 12.473 61.6558 12.3182 61.9574 12.3182H66.6668C70.6572 12.3182 71.933 14.174 71.933 16.2876V18.9682C71.933 20.5405 71.2139 21.9582 69.2187 22.577L72.0026 29.3299C72.1186 29.6392 71.9099 29.8453 71.5851 29.8453H70.193C69.8683 29.8453 69.8219 29.6392 69.6829 29.3299L67.0611 22.9119H63.7902ZM84.1287 16.4938C84.1287 15.1019 83.1494 14.2513 80.9456 14.2513C78.7663 14.2513 77.787 15.1019 77.787 16.4938V25.6697C77.787 27.0617 78.7663 27.9121 80.9456 27.9121C83.1494 27.9121 84.1287 27.0617 84.1287 25.6697V16.4938ZM75.3873 16.0814C75.3873 13.9678 76.7586 12.1122 80.9456 12.1122C85.1571 12.1122 86.5286 13.9678 86.5286 16.0814V26.0822C86.5286 28.1958 85.1571 30.0517 80.9456 30.0517C76.7586 30.0517 75.3873 28.1958 75.3873 26.0822V16.0814ZM99.4571 12.3182C99.7754 12.3182 99.9224 12.4472 99.9224 12.8079V13.9678C99.9224 14.3287 99.7754 14.4575 99.4571 14.4575H95.5395V29.3299C95.5395 29.6906 95.417 29.8453 95.0985 29.8453H93.5805C93.2622 29.8453 93.1398 29.6906 93.1398 29.3299V14.4575H89.2219C88.8793 14.4575 88.7568 14.3287 88.7568 13.9678V12.8079C88.7568 12.4472 88.8793 12.3182 89.2219 12.3182H99.4571ZM110.868 16.4938C110.868 15.1019 109.889 14.2513 107.685 14.2513C105.506 14.2513 104.526 15.1019 104.526 16.4938V25.6697C104.526 27.0617 105.506 27.9121 107.685 27.9121C109.889 27.9121 110.868 27.0617 110.868 25.6697V16.4938ZM102.127 16.0814C102.127 13.9678 103.498 12.1122 107.685 12.1122C111.897 12.1122 113.268 13.9678 113.268 16.0814V26.0822C113.268 28.1958 111.897 30.0517 107.685 30.0517C103.498 30.0517 102.127 28.1958 102.127 26.0822V16.0814ZM127.441 29.3555C127.441 29.6906 127.349 29.8453 127.024 29.8453H125.748C125.516 29.8453 125.423 29.7679 125.33 29.6133L119.878 18.9942C119.368 18.0403 119.09 17.2413 119.043 17.1382V29.3555C119.043 29.6906 118.927 29.8453 118.626 29.8453H117.326C117.025 29.8453 116.909 29.6906 116.909 29.3555V12.8079C116.909 12.473 117.025 12.3182 117.326 12.3182H118.626C118.811 12.3182 118.927 12.3955 118.997 12.5244L124.588 23.3758C124.913 23.9944 125.307 25.0253 125.307 25.0253V12.8079C125.307 12.473 125.446 12.3182 125.748 12.3182H127.024C127.349 12.3182 127.441 12.473 127.441 12.8079V29.3555ZM131.431 29.8453C131.129 29.8453 131.013 29.6906 131.013 29.3299V12.8339C131.013 12.473 131.129 12.3182 131.431 12.3182H139.365C139.666 12.3182 139.806 12.4472 139.806 12.8079V13.9678C139.806 14.3287 139.666 14.4575 139.365 14.4575H133.263V19.6642H138.947C139.272 19.6642 139.411 19.793 139.411 20.1539V21.2622C139.411 21.5973 139.272 21.752 138.947 21.752H133.263V27.7061H139.62C139.922 27.7061 140.061 27.8092 140.061 28.1699V29.3555C140.061 29.7166 139.922 29.8453 139.62 29.8453H131.431ZM152.848 12.3182C153.149 12.3182 153.288 12.4472 153.288 12.8079V13.9678C153.288 14.3287 153.149 14.4575 152.848 14.4575H149.136V29.3299C149.136 29.6906 149.02 29.8453 148.718 29.8453H147.28C146.978 29.8453 146.862 29.6906 146.862 29.3299V14.4575H143.15C142.826 14.4575 142.71 14.3287 142.71 13.9678V12.8079C142.71 12.4472 142.826 12.3182 143.15 12.3182H152.848Z" fill="#E15B29"/>
</svg>
