<svg width="152" height="42" viewBox="0 0 152 42" fill="none" xmlns="http://www.w3.org/2000/svg">
<path d="M51.281 30.9959L52.9805 27.0486C54.8171 28.4192 57.2567 29.1319 59.6688 29.1319C61.4506 29.1319 62.5744 28.4466 62.5744 27.405C62.547 24.4994 51.9115 26.7745 51.8292 19.4831C51.8018 15.7826 55.0912 12.9319 59.7511 12.9319C62.5196 12.9319 65.2881 13.6172 67.2617 15.1796L65.6719 19.209C63.8628 18.0578 61.615 17.2354 59.477 17.2354C58.0242 17.2354 57.0648 17.9207 57.0648 18.7979C57.0922 21.6486 67.81 20.0862 67.9196 27.0486C67.9196 30.8314 64.7125 33.4903 60.1074 33.4903C56.7358 33.4903 53.6384 32.6954 51.281 30.9959ZM116.492 25.6233C115.643 27.1035 114.053 28.1177 112.216 28.1177C109.502 28.1177 107.31 25.9248 107.31 23.2111C107.31 20.4974 109.502 18.3045 112.216 18.3045C114.053 18.3045 115.643 19.3187 116.492 20.7989L121.18 18.1948C119.425 15.0699 116.054 12.9319 112.216 12.9319C106.542 12.9319 101.937 17.537 101.937 23.2111C101.937 28.8852 106.542 33.4903 112.216 33.4903C116.081 33.4903 119.425 31.3796 121.18 28.2273L116.492 25.6233V25.6233ZM70.277 4.40698H76.143V33.1065H70.277V4.40698ZM123.482 4.40698V33.1065H129.348V24.4994L136.311 33.1065H143.821L134.967 22.8821L143.163 13.343H135.982L129.348 21.2649V4.40698H123.482ZM93.5765 25.6781C92.7268 27.0761 90.9724 28.1177 88.9988 28.1177C86.2851 28.1177 84.0922 25.9248 84.0922 23.2111C84.0922 20.4974 86.2851 18.3045 88.9988 18.3045C90.9724 18.3045 92.7268 19.4009 93.5765 20.8263V25.6781ZM93.5765 13.343V15.673C92.6171 14.0557 90.2323 12.9319 87.7379 12.9319C82.5846 12.9319 78.5278 17.4821 78.5278 23.1837C78.5278 28.8852 82.5846 33.4903 87.7379 33.4903C90.2323 33.4903 92.6171 32.3664 93.5765 30.7492V33.0791H99.4425V13.343H93.5765Z" fill="black"/>
<path d="M15.0163 25.65C15.0163 27.651 13.3991 29.2683 11.3981 29.2683C9.39705 29.2683 7.77979 27.651 7.77979 25.65C7.77979 23.649 9.39705 22.0317 11.3981 22.0317H15.0163V25.65ZM16.8255 25.65C16.8255 23.649 18.4427 22.0317 20.4438 22.0317C22.4448 22.0317 24.062 23.649 24.062 25.65V34.6957C24.062 36.6967 22.4448 38.314 20.4438 38.314C18.4427 38.314 16.8255 36.6967 16.8255 34.6957V25.65Z" fill="#E01E5A"/>
<path d="M20.4433 11.1225C18.4423 11.1225 16.8251 9.50529 16.8251 7.50427C16.8251 5.50325 18.4423 3.88599 20.4433 3.88599C22.4444 3.88599 24.0616 5.50325 24.0616 7.50427V11.1225H20.4433ZM20.4433 12.9591C22.4444 12.9591 24.0616 14.5764 24.0616 16.5774C24.0616 18.5784 22.4444 20.1957 20.4433 20.1957H11.3702C9.36921 20.1957 7.75195 18.5784 7.75195 16.5774C7.75195 14.5764 9.36921 12.9591 11.3702 12.9591H20.4433Z" fill="#36C5F0"/>
<path d="M34.9445 16.5771C34.9445 14.5761 36.5618 12.9589 38.5628 12.9589C40.5638 12.9589 42.1811 14.5761 42.1811 16.5771C42.1811 18.5782 40.5638 20.1954 38.5628 20.1954H34.9445V16.5771ZM33.1354 16.5771C33.1354 18.5782 31.5181 20.1954 29.5171 20.1954C27.5161 20.1954 25.8988 18.5782 25.8988 16.5771V7.50402C25.8988 5.503 27.5161 3.88574 29.5171 3.88574C31.5181 3.88574 33.1354 5.503 33.1354 7.50402V16.5771V16.5771Z" fill="#2EB67D"/>
<path d="M29.5171 31.0774C31.5181 31.0774 33.1354 32.6947 33.1354 34.6957C33.1354 36.6967 31.5181 38.314 29.5171 38.314C27.5161 38.314 25.8988 36.6967 25.8988 34.6957V31.0774H29.5171ZM29.5171 29.2683C27.5161 29.2683 25.8988 27.651 25.8988 25.65C25.8988 23.649 27.5161 22.0317 29.5171 22.0317H38.5902C40.5912 22.0317 42.2085 23.649 42.2085 25.65C42.2085 27.651 40.5912 29.2683 38.5902 29.2683H29.5171Z" fill="#ECB22E"/>
</svg>
