<svg width="32" height="32" viewBox="0 0 32 32" fill="none" xmlns="http://www.w3.org/2000/svg">
<mask id="mask0_44_177" style="mask-type:alpha" maskUnits="userSpaceOnUse" x="0" y="0" width="32" height="32">
<rect width="32" height="32" fill="#D9D9D9"/>
</mask>
<g mask="url(#mask0_44_177)">
<path d="M13.9333 16.989L15.8223 18.8777C16.0232 19.0777 16.279 19.1777 16.5897 19.1777C16.9003 19.1777 17.163 19.0777 17.3777 18.8777L21.5557 14.7V16.0333C21.5557 16.3371 21.6621 16.5927 21.875 16.8C22.0879 17.0073 22.3518 17.111 22.6667 17.111C22.9704 17.111 23.2316 17.0046 23.45 16.7917C23.6684 16.5788 23.7777 16.3149 23.7777 16V12C23.7777 11.6962 23.6684 11.4351 23.45 11.2167C23.2316 10.9982 22.9704 10.889 22.6667 10.889H18.6333C18.3296 10.889 18.074 10.9982 17.8667 11.2167C17.6593 11.4351 17.5557 11.6999 17.5557 12.011C17.5557 12.3221 17.6621 12.5832 17.875 12.7943C18.0879 13.0054 18.3518 13.111 18.6667 13.111H19.9667L16.6 16.511L14.711 14.6223C14.4963 14.4001 14.2337 14.289 13.923 14.289C13.6123 14.289 13.3566 14.4001 13.1557 14.6223L9.089 18.689C8.86678 18.9037 8.75567 19.1668 8.75567 19.4783C8.75567 19.7899 8.86967 20.0464 9.09767 20.248C9.30656 20.4678 9.56633 20.5777 9.877 20.5777C10.1877 20.5777 10.4434 20.4666 10.6443 20.2443L13.9333 16.989ZM6.22233 28C5.62233 28 5.10189 27.7797 4.661 27.339C4.22033 26.8981 4 26.3777 4 25.7777V6.22233C4 5.62233 4.22033 5.10189 4.661 4.661C5.10189 4.22033 5.62233 4 6.22233 4H25.7777C26.3777 4 26.8981 4.22033 27.339 4.661C27.7797 5.10189 28 5.62233 28 6.22233V25.7777C28 26.3777 27.7797 26.8981 27.339 27.339C26.8981 27.7797 26.3777 28 25.7777 28H6.22233ZM6.22233 25.7777H25.7777V6.22233H6.22233V25.7777Z" fill="#7560F3"/>
</g>
</svg>
