<svg width="353" height="300" viewBox="0 0 353 300" fill="none" xmlns="http://www.w3.org/2000/svg">
<g clip-path="url(#clip0_153_943)">
<rect width="353" height="300" fill="white"/>
<rect x="-7" y="-13" width="401" height="442.822" rx="12.3006" fill="white"/>
<g clip-path="url(#clip1_153_943)">
<path d="M34.0004 297.755V286.888H30.4013V285.7H39.0461V286.888H35.447V297.755H34.0004ZM41.5916 297.755L39.0601 289.127H40.5067L42.4871 296.463L42.1943 296.446L44.3641 289.127H46.0001L48.1872 296.446H47.8772L49.8576 289.127H51.3214L48.7899 297.755H47.3089L45.0358 290.091H45.3457L43.0726 297.755H41.5916ZM53.0739 297.755V289.127H54.5204V297.755H53.0739ZM53.7971 287.267C53.5101 287.267 53.269 287.175 53.0739 286.992C52.8902 286.796 52.7983 286.555 52.7983 286.268C52.7983 285.981 52.8902 285.752 53.0739 285.579C53.269 285.396 53.5101 285.304 53.7971 285.304C54.0727 285.304 54.308 285.396 54.5032 285.579C54.6984 285.752 54.796 285.981 54.796 286.268C54.796 286.555 54.6984 286.796 54.5032 286.992C54.308 287.175 54.0727 287.267 53.7971 287.267ZM60.4488 297.755C59.9322 297.755 59.4845 297.674 59.1056 297.514C58.7267 297.353 58.434 297.083 58.2273 296.704C58.0322 296.314 57.9346 295.791 57.9346 295.137V290.35H56.4364V289.127H57.9346L58.124 287.043H59.3811V289.127H61.8954V290.35H59.3811V295.137C59.3811 295.677 59.4902 296.044 59.7083 296.239C59.9265 296.423 60.3111 296.515 60.8621 296.515H61.7748V297.755H60.4488ZM67.1589 297.755C66.6423 297.755 66.1945 297.674 65.8157 297.514C65.4368 297.353 65.1441 297.083 64.9374 296.704C64.7423 296.314 64.6447 295.791 64.6447 295.137V290.35H63.1465V289.127H64.6447L64.8341 287.043H66.0912V289.127H68.6055V290.35H66.0912V295.137C66.0912 295.677 66.2003 296.044 66.4184 296.239C66.6366 296.423 67.0212 296.515 67.5722 296.515H68.4849V297.755H67.1589ZM74.0469 297.961C73.2432 297.961 72.5257 297.772 71.8943 297.393C71.2628 297.014 70.7634 296.486 70.396 295.809C70.0401 295.131 69.8622 294.339 69.8622 293.432C69.8622 292.525 70.0401 291.733 70.396 291.056C70.7519 290.378 71.2456 289.856 71.877 289.489C72.5199 289.11 73.2547 288.92 74.0813 288.92C74.9309 288.92 75.6541 289.11 76.2511 289.489C76.8481 289.856 77.3016 290.35 77.6116 290.97C77.933 291.578 78.0938 292.244 78.0938 292.967C78.0938 293.082 78.0938 293.203 78.0938 293.329C78.0938 293.455 78.088 293.599 78.0765 293.759H70.9471V292.64H76.6644C76.63 291.859 76.3659 291.251 75.8723 290.815C75.3901 290.367 74.7816 290.143 74.0469 290.143C73.5647 290.143 73.1112 290.252 72.6864 290.47C72.2616 290.688 71.9172 291.016 71.6532 291.452C71.4006 291.877 71.2743 292.405 71.2743 293.036V293.518C71.2743 294.23 71.4063 294.827 71.6704 295.309C71.9344 295.78 72.2731 296.136 72.6864 296.377C73.1112 296.618 73.5647 296.739 74.0469 296.739C74.6553 296.739 75.1547 296.607 75.5451 296.343C75.9469 296.067 76.2396 295.694 76.4233 295.223H77.8527C77.7034 295.751 77.4566 296.222 77.1122 296.635C76.7678 297.037 76.3372 297.359 75.8206 297.6C75.3155 297.841 74.7242 297.961 74.0469 297.961ZM80.0115 297.755V289.127H81.3202L81.4408 290.78C81.636 290.39 81.8828 290.057 82.1813 289.781C82.4913 289.506 82.8529 289.293 83.2662 289.144C83.691 288.995 84.1732 288.92 84.7128 288.92V290.436H84.2306C83.8632 290.436 83.513 290.487 83.1801 290.591C82.8472 290.683 82.5487 290.838 82.2846 291.056C82.032 291.262 81.8311 291.555 81.6819 291.934C81.5326 292.313 81.458 292.778 81.458 293.329V297.755H80.0115Z" fill="black"/>
<path d="M299.357 297.755V287.319L297.325 287.818V286.785L299.839 285.7H300.821V297.755H299.357ZM307.151 297.961C306.382 297.961 305.682 297.824 305.05 297.548C304.43 297.261 303.937 296.836 303.569 296.274C303.202 295.711 303.007 295.011 302.984 294.173H304.448C304.459 294.632 304.568 295.057 304.775 295.447C304.993 295.826 305.303 296.13 305.705 296.36C306.107 296.589 306.589 296.704 307.151 296.704C307.714 296.704 308.185 296.595 308.563 296.377C308.942 296.159 309.229 295.872 309.424 295.516C309.62 295.149 309.717 294.741 309.717 294.293C309.717 293.731 309.579 293.277 309.304 292.933C309.04 292.577 308.678 292.313 308.219 292.141C307.771 291.968 307.278 291.882 306.738 291.882H305.842V290.66H306.738C307.519 290.66 308.133 290.482 308.581 290.126C309.028 289.758 309.252 289.253 309.252 288.61C309.252 288.082 309.074 287.64 308.718 287.284C308.374 286.928 307.852 286.751 307.151 286.751C306.474 286.751 305.934 286.946 305.533 287.336C305.131 287.726 304.901 288.226 304.844 288.834H303.38C303.414 288.18 303.592 287.6 303.914 287.095C304.235 286.59 304.671 286.199 305.223 285.924C305.774 285.637 306.417 285.493 307.151 285.493C307.932 285.493 308.586 285.631 309.114 285.907C309.643 286.182 310.039 286.55 310.303 287.009C310.578 287.468 310.716 287.973 310.716 288.524C310.716 288.926 310.641 289.311 310.492 289.678C310.343 290.045 310.119 290.367 309.82 290.642C309.533 290.906 309.16 291.096 308.701 291.211C309.172 291.303 309.591 291.486 309.958 291.762C310.337 292.026 310.636 292.37 310.854 292.795C311.072 293.22 311.181 293.719 311.181 294.293C311.181 294.948 311.026 295.556 310.716 296.119C310.417 296.67 309.97 297.117 309.373 297.462C308.776 297.795 308.035 297.961 307.151 297.961ZM313.348 297.755V296.739C314.175 296.096 314.955 295.447 315.69 294.793C316.425 294.138 317.079 293.49 317.653 292.847C318.227 292.192 318.675 291.555 318.997 290.935C319.318 290.315 319.479 289.718 319.479 289.144C319.479 288.719 319.404 288.329 319.255 287.973C319.117 287.606 318.887 287.307 318.566 287.078C318.245 286.848 317.803 286.733 317.24 286.733C316.7 286.733 316.253 286.854 315.897 287.095C315.541 287.325 315.271 287.635 315.087 288.025C314.915 288.404 314.829 288.823 314.829 289.282H313.434C313.446 288.49 313.618 287.812 313.951 287.25C314.284 286.676 314.731 286.24 315.294 285.941C315.868 285.643 316.522 285.493 317.257 285.493C317.98 285.493 318.618 285.631 319.169 285.907C319.72 286.171 320.15 286.567 320.46 287.095C320.77 287.623 320.925 288.289 320.925 289.093C320.925 289.655 320.81 290.218 320.581 290.78C320.351 291.343 320.041 291.894 319.651 292.433C319.261 292.961 318.824 293.472 318.342 293.966C317.871 294.46 317.389 294.925 316.896 295.361C316.402 295.797 315.931 296.193 315.483 296.549H321.339V297.755H313.348ZM322.237 299.873L323.236 296.067H324.734L323.236 299.873H322.237ZM330.894 297.961C330.021 297.961 329.286 297.801 328.689 297.479C328.092 297.146 327.616 296.704 327.26 296.153C326.904 295.602 326.64 294.988 326.468 294.31C326.307 293.622 326.227 292.921 326.227 292.21C326.227 290.878 326.411 289.712 326.778 288.714C327.145 287.703 327.673 286.917 328.362 286.354C329.063 285.78 329.901 285.493 330.876 285.493C331.634 285.493 332.283 285.643 332.822 285.941C333.374 286.24 333.804 286.636 334.114 287.129C334.435 287.623 334.631 288.174 334.7 288.783H333.356C333.241 288.128 332.966 287.629 332.53 287.284C332.093 286.928 331.537 286.751 330.859 286.751C330.262 286.751 329.723 286.94 329.241 287.319C328.758 287.686 328.374 288.249 328.087 289.006C327.811 289.764 327.65 290.734 327.605 291.917C327.605 291.94 327.605 291.963 327.605 291.986C327.605 292.009 327.605 292.032 327.605 292.055C327.777 291.687 328.029 291.354 328.362 291.056C328.695 290.746 329.091 290.499 329.55 290.315C330.01 290.132 330.521 290.04 331.083 290.04C331.772 290.04 332.415 290.2 333.012 290.522C333.609 290.843 334.091 291.297 334.458 291.882C334.837 292.456 335.027 293.134 335.027 293.914C335.027 294.592 334.86 295.24 334.527 295.86C334.194 296.48 333.718 296.985 333.098 297.376C332.478 297.766 331.743 297.961 330.894 297.961ZM330.79 296.687C331.318 296.687 331.789 296.572 332.203 296.343C332.627 296.101 332.96 295.78 333.201 295.378C333.442 294.965 333.563 294.5 333.563 293.983C333.563 293.444 333.442 292.973 333.201 292.571C332.96 292.169 332.627 291.859 332.203 291.641C331.789 291.412 331.318 291.297 330.79 291.297C330.262 291.297 329.786 291.423 329.361 291.676C328.936 291.917 328.598 292.244 328.345 292.657C328.104 293.059 327.983 293.507 327.983 294C327.983 294.517 328.104 294.976 328.345 295.378C328.598 295.78 328.936 296.101 329.361 296.343C329.786 296.572 330.262 296.687 330.79 296.687ZM342.861 297.755V295.172H336.747V294.052L342.602 285.7H344.29V293.897H346.081V295.172H344.29V297.755H342.861ZM338.349 293.897H342.929V287.302L338.349 293.897ZM351.926 297.961C351.111 297.961 350.399 297.812 349.791 297.514C349.182 297.215 348.7 296.807 348.344 296.291C348 295.774 347.782 295.189 347.69 294.534H349.102C349.24 295.189 349.555 295.717 350.049 296.119C350.543 296.52 351.174 296.721 351.943 296.721C352.517 296.721 353.011 296.589 353.424 296.325C353.838 296.05 354.153 295.688 354.371 295.24C354.59 294.781 354.699 294.27 354.699 293.708C354.699 293.111 354.584 292.594 354.354 292.158C354.136 291.71 353.82 291.36 353.407 291.107C353.005 290.855 352.54 290.729 352.012 290.729C351.346 290.729 350.778 290.872 350.307 291.159C349.848 291.446 349.509 291.825 349.291 292.296H347.896L348.912 285.7H355.267V286.957H350.032L349.343 290.642C349.63 290.309 350.015 290.04 350.497 289.833C350.979 289.615 351.536 289.506 352.167 289.506C352.753 289.506 353.286 289.615 353.769 289.833C354.251 290.04 354.664 290.332 355.009 290.711C355.364 291.079 355.634 291.521 355.818 292.037C356.002 292.542 356.093 293.094 356.093 293.691C356.093 294.265 356.002 294.81 355.818 295.326C355.634 295.843 355.364 296.302 355.009 296.704C354.653 297.095 354.216 297.404 353.7 297.634C353.183 297.852 352.592 297.961 351.926 297.961Z" fill="#02A0FC"/>
</g>
<g clip-path="url(#clip2_153_943)">
<path fill-rule="evenodd" clip-rule="evenodd" d="M29.9019 245.313C29.9019 242.595 32.1047 240.393 34.8221 240.393H352.178C354.895 240.393 357.098 242.595 357.098 245.313V245.313C357.098 248.03 354.895 250.233 352.178 250.233H34.8221C32.1047 250.233 29.9019 248.03 29.9019 245.313V245.313Z" fill="#DAD7FE"/>
<path d="M31.1934 226.411V214.356H38.5295V215.545H32.64V219.781H37.6512V220.952H32.64V226.411H31.1934ZM42.5588 226.618C41.8585 226.618 41.273 226.497 40.8023 226.256C40.3316 226.003 39.9814 225.676 39.7518 225.274C39.5222 224.873 39.4074 224.431 39.4074 223.948C39.4074 223.363 39.5566 222.869 39.8551 222.467C40.1651 222.066 40.5956 221.756 41.1467 221.538C41.7092 221.319 42.3636 221.21 43.1099 221.21H45.4174C45.4174 220.682 45.3313 220.24 45.1591 219.884C44.9984 219.517 44.7573 219.247 44.4359 219.075C44.1144 218.891 43.7241 218.799 43.2648 218.799C42.7138 218.799 42.2316 218.937 41.8183 219.213C41.4165 219.488 41.1696 219.896 41.0778 220.435H39.5968C39.6657 219.815 39.8781 219.299 40.234 218.885C40.5899 218.461 41.0376 218.139 41.5772 217.921C42.1168 217.692 42.6793 217.577 43.2648 217.577C44.0685 217.577 44.7344 217.726 45.2625 218.024C45.7906 218.311 46.1866 218.719 46.4507 219.247C46.7262 219.764 46.864 220.372 46.864 221.073V226.411H45.5724L45.4863 224.878C45.3715 225.119 45.2223 225.349 45.0386 225.567C44.8664 225.774 44.6597 225.958 44.4186 226.118C44.189 226.268 43.9192 226.388 43.6093 226.48C43.2993 226.572 42.9491 226.618 42.5588 226.618ZM42.7827 225.395C43.1845 225.395 43.5461 225.315 43.8676 225.154C44.2005 224.982 44.4818 224.752 44.7114 224.465C44.941 224.178 45.1132 223.857 45.228 223.501C45.3543 223.133 45.4174 222.76 45.4174 222.381V222.33H43.2304C42.6793 222.33 42.2316 222.399 41.8872 222.536C41.5428 222.674 41.2959 222.858 41.1467 223.087C40.9974 223.317 40.9228 223.581 40.9228 223.88C40.9228 224.19 40.9917 224.459 41.1295 224.689C41.2787 224.907 41.4911 225.079 41.7666 225.206C42.0422 225.332 42.3808 225.395 42.7827 225.395ZM53.0109 226.618C52.1958 226.618 51.461 226.428 50.8066 226.049C50.1637 225.671 49.6528 225.142 49.274 224.465C48.9066 223.788 48.7229 223.001 48.7229 222.106C48.7229 221.199 48.9066 220.407 49.274 219.729C49.6528 219.052 50.1637 218.524 50.8066 218.145C51.461 217.766 52.1958 217.577 53.0109 217.577C54.0442 217.577 54.9052 217.847 55.594 218.386C56.2829 218.914 56.7191 219.62 56.9028 220.504H55.4218C55.307 219.976 55.0257 219.563 54.578 219.264C54.1303 218.966 53.6022 218.817 52.9937 218.817C52.5 218.817 52.0408 218.943 51.616 219.195C51.2027 219.437 50.864 219.798 50.6 220.28C50.3359 220.763 50.2039 221.365 50.2039 222.089C50.2039 222.628 50.2785 223.105 50.4278 223.518C50.5885 223.931 50.7952 224.281 51.0477 224.568C51.3003 224.844 51.5931 225.051 51.926 225.188C52.2704 225.326 52.6263 225.395 52.9937 225.395C53.407 225.395 53.7744 225.332 54.0958 225.206C54.4288 225.068 54.71 224.873 54.9396 224.62C55.1807 224.356 55.3415 224.046 55.4218 223.69H56.9028C56.7191 224.563 56.2771 225.269 55.5768 225.808C54.888 226.348 54.0327 226.618 53.0109 226.618ZM62.7457 226.618C61.942 226.618 61.2245 226.428 60.5931 226.049C59.9616 225.671 59.4622 225.142 59.0948 224.465C58.7389 223.788 58.561 222.996 58.561 222.089C58.561 221.182 58.7389 220.389 59.0948 219.712C59.4507 219.035 59.9444 218.512 60.5758 218.145C61.2188 217.766 61.9535 217.577 62.7801 217.577C63.6297 217.577 64.3529 217.766 64.9499 218.145C65.5469 218.512 66.0004 219.006 66.3104 219.626C66.6318 220.234 66.7926 220.9 66.7926 221.624C66.7926 221.738 66.7926 221.859 66.7926 221.985C66.7926 222.112 66.7868 222.255 66.7753 222.416H59.6459V221.296H65.3632C65.3288 220.516 65.0647 219.907 64.5711 219.471C64.0889 219.023 63.4804 218.799 62.7457 218.799C62.2635 218.799 61.81 218.908 61.3852 219.127C60.9604 219.345 60.616 219.672 60.352 220.108C60.0994 220.533 59.9731 221.061 59.9731 221.692V222.175C59.9731 222.886 60.1051 223.483 60.3692 223.966C60.6332 224.436 60.9719 224.792 61.3852 225.033C61.81 225.274 62.2635 225.395 62.7457 225.395C63.3541 225.395 63.8535 225.263 64.2439 224.999C64.6457 224.723 64.9385 224.35 65.1221 223.88H66.5515C66.4022 224.408 66.1554 224.878 65.811 225.292C65.4666 225.693 65.036 226.015 64.5194 226.256C64.0143 226.497 63.423 226.618 62.7457 226.618ZM73.2738 226.618C72.7916 226.618 72.3496 226.549 71.9478 226.411C71.5575 226.273 71.2073 226.084 70.8973 225.843C70.5988 225.602 70.352 225.315 70.1568 224.982L70.0191 226.411H68.7103V214.012H70.1568V219.195C70.4324 218.759 70.8284 218.38 71.3451 218.059C71.8617 217.737 72.5046 217.577 73.2738 217.577C74.1234 217.577 74.8639 217.772 75.4953 218.162C76.1267 218.553 76.6146 219.092 76.9591 219.781C77.3035 220.458 77.4757 221.233 77.4757 222.106C77.4757 222.978 77.3035 223.753 76.9591 224.431C76.6146 225.108 76.121 225.642 75.4781 226.032C74.8466 226.422 74.1119 226.618 73.2738 226.618ZM73.1016 225.361C73.6756 225.361 74.1808 225.229 74.617 224.964C75.0533 224.689 75.392 224.304 75.6331 223.811C75.8856 223.317 76.0119 222.743 76.0119 222.089C76.0119 221.434 75.8856 220.866 75.6331 220.384C75.392 219.89 75.0533 219.511 74.617 219.247C74.1808 218.972 73.6756 218.834 73.1016 218.834C72.5276 218.834 72.0224 218.972 71.5862 219.247C71.1499 219.511 70.8112 219.89 70.5701 220.384C70.329 220.866 70.2085 221.434 70.2085 222.089C70.2085 222.743 70.329 223.317 70.5701 223.811C70.8112 224.304 71.1499 224.689 71.5862 224.964C72.0224 225.229 72.5276 225.361 73.1016 225.361ZM83.3989 226.618C82.5952 226.618 81.8719 226.434 81.229 226.067C80.5861 225.688 80.0752 225.16 79.6964 224.482C79.329 223.805 79.1453 223.013 79.1453 222.106C79.1453 221.187 79.3347 220.389 79.7136 219.712C80.0925 219.035 80.6033 218.512 81.2463 218.145C81.9006 217.766 82.6297 217.577 83.4333 217.577C84.2484 217.577 84.9774 217.766 85.6204 218.145C86.2633 218.512 86.7684 219.035 87.1358 219.712C87.5032 220.378 87.6869 221.176 87.6869 222.106C87.6869 223.013 87.4974 223.805 87.1186 224.482C86.7512 225.16 86.2403 225.688 85.5859 226.067C84.943 226.434 84.214 226.618 83.3989 226.618ZM83.3989 225.378C83.904 225.378 84.369 225.257 84.7937 225.016C85.2185 224.764 85.5572 224.396 85.8098 223.914C86.0738 223.42 86.2059 222.812 86.2059 222.089C86.2059 221.365 86.0796 220.763 85.827 220.28C85.5744 219.787 85.2358 219.419 84.811 219.178C84.3862 218.937 83.927 218.817 83.4333 218.817C82.9511 218.817 82.4919 218.937 82.0556 219.178C81.6309 219.419 81.2864 219.787 81.0224 220.28C80.7583 220.763 80.6263 221.371 80.6263 222.106C80.6263 222.818 80.7583 223.42 81.0224 223.914C81.2864 224.396 81.6251 224.764 82.0384 225.016C82.4632 225.257 82.9167 225.378 83.3989 225.378ZM93.6069 226.618C92.8033 226.618 92.08 226.434 91.4371 226.067C90.7942 225.688 90.2833 225.16 89.9044 224.482C89.5371 223.805 89.3534 223.013 89.3534 222.106C89.3534 221.187 89.5428 220.389 89.9217 219.712C90.3005 219.035 90.8114 218.512 91.4543 218.145C92.1087 217.766 92.8377 217.577 93.6414 217.577C94.4565 217.577 95.1855 217.766 95.8284 218.145C96.4713 218.512 96.9765 219.035 97.3439 219.712C97.7112 220.378 97.8949 221.176 97.8949 222.106C97.8949 223.013 97.7055 223.805 97.3266 224.482C96.9593 225.16 96.4484 225.688 95.794 226.067C95.1511 226.434 94.422 226.618 93.6069 226.618ZM93.6069 225.378C94.1121 225.378 94.577 225.257 95.0018 225.016C95.4266 224.764 95.7653 224.396 96.0178 223.914C96.2819 223.42 96.4139 222.812 96.4139 222.089C96.4139 221.365 96.2876 220.763 96.0351 220.28C95.7825 219.787 95.4438 219.419 95.019 219.178C94.5943 218.937 94.135 218.817 93.6414 218.817C93.1592 218.817 92.7 218.937 92.2637 219.178C91.8389 219.419 91.4945 219.787 91.2304 220.28C90.9664 220.763 90.8344 221.371 90.8344 222.106C90.8344 222.818 90.9664 223.42 91.2304 223.914C91.4945 224.396 91.8332 224.764 92.2465 225.016C92.6713 225.257 93.1247 225.378 93.6069 225.378ZM105.279 226.411L101.129 221.675L104.9 217.783H106.674L102.351 222.192L102.368 221.159L107.121 226.411H105.279ZM99.9231 226.411V214.012H101.37V226.411H99.9231Z" fill="black"/>
<path d="M313.366 226.411V215.975L311.334 216.475V215.441L313.848 214.356H314.83V226.411H313.366ZM317.199 226.411V225.395C318.026 224.752 318.807 224.103 319.541 223.449C320.276 222.795 320.931 222.146 321.505 221.503C322.079 220.849 322.526 220.212 322.848 219.592C323.169 218.972 323.33 218.375 323.33 217.801C323.33 217.376 323.255 216.985 323.106 216.63C322.968 216.262 322.739 215.964 322.417 215.734C322.096 215.504 321.654 215.39 321.091 215.39C320.552 215.39 320.104 215.51 319.748 215.751C319.392 215.981 319.122 216.291 318.939 216.681C318.766 217.06 318.68 217.479 318.68 217.938H317.285C317.297 217.146 317.469 216.469 317.802 215.906C318.135 215.332 318.583 214.896 319.145 214.598C319.719 214.299 320.374 214.15 321.108 214.15C321.832 214.15 322.469 214.288 323.02 214.563C323.571 214.827 324.002 215.223 324.312 215.751C324.622 216.279 324.777 216.945 324.777 217.749C324.777 218.311 324.662 218.874 324.432 219.437C324.202 219.999 323.892 220.55 323.502 221.09C323.112 221.618 322.676 222.129 322.193 222.622C321.723 223.116 321.24 223.581 320.747 224.017C320.253 224.454 319.782 224.85 319.335 225.206H325.19V226.411H317.199ZM326.089 228.529L327.087 224.723H328.586L327.087 228.529H326.089ZM331.697 226.411V215.975L329.665 216.475V215.441L332.179 214.356H333.161V226.411H331.697ZM340.369 226.618C339.313 226.618 338.4 226.359 337.631 225.843C336.873 225.315 336.288 224.586 335.875 223.656C335.461 222.714 335.255 221.624 335.255 220.384C335.255 219.144 335.461 218.059 335.875 217.129C336.288 216.188 336.873 215.459 337.631 214.942C338.4 214.414 339.313 214.15 340.369 214.15C341.437 214.15 342.344 214.414 343.09 214.942C343.848 215.459 344.428 216.188 344.829 217.129C345.243 218.059 345.449 219.144 345.449 220.384C345.449 221.624 345.243 222.714 344.829 223.656C344.428 224.586 343.848 225.315 343.09 225.843C342.344 226.359 341.437 226.618 340.369 226.618ZM340.369 225.343C341.058 225.343 341.672 225.148 342.212 224.758C342.763 224.356 343.193 223.788 343.503 223.053C343.813 222.307 343.968 221.417 343.968 220.384C343.968 219.35 343.813 218.466 343.503 217.732C343.193 216.985 342.763 216.417 342.212 216.027C341.672 215.636 341.058 215.441 340.369 215.441C339.669 215.441 339.043 215.636 338.492 216.027C337.953 216.417 337.522 216.985 337.201 217.732C336.891 218.466 336.736 219.35 336.736 220.384C336.736 221.417 336.891 222.307 337.201 223.053C337.522 223.788 337.953 224.356 338.492 224.758C339.043 225.148 339.669 225.343 340.369 225.343ZM351.503 226.618C350.745 226.618 350.097 226.468 349.557 226.17C349.017 225.871 348.587 225.475 348.265 224.982C347.955 224.477 347.766 223.925 347.697 223.328H349.04C349.155 223.983 349.431 224.488 349.867 224.844C350.303 225.188 350.854 225.361 351.52 225.361C352.129 225.361 352.668 225.177 353.139 224.809C353.61 224.442 353.988 223.88 354.275 223.122C354.574 222.364 354.74 221.405 354.775 220.246C354.775 220.212 354.775 220.183 354.775 220.16C354.775 220.125 354.775 220.091 354.775 220.057C354.603 220.424 354.35 220.763 354.017 221.073C353.684 221.371 353.288 221.612 352.829 221.796C352.381 221.98 351.87 222.071 351.296 222.071C350.619 222.071 349.976 221.911 349.367 221.589C348.77 221.268 348.283 220.82 347.904 220.246C347.536 219.66 347.353 218.977 347.353 218.197C347.353 217.519 347.519 216.871 347.852 216.251C348.185 215.631 348.661 215.126 349.281 214.735C349.901 214.345 350.636 214.15 351.486 214.15C352.358 214.15 353.093 214.316 353.69 214.649C354.287 214.971 354.763 215.407 355.119 215.958C355.475 216.509 355.733 217.129 355.894 217.818C356.066 218.495 356.153 219.19 356.153 219.902C356.153 221.222 355.969 222.387 355.601 223.397C355.234 224.408 354.706 225.2 354.017 225.774C353.328 226.336 352.49 226.618 351.503 226.618ZM351.589 220.814C352.129 220.814 352.611 220.694 353.036 220.453C353.46 220.2 353.793 219.873 354.034 219.471C354.287 219.058 354.413 218.604 354.413 218.111C354.413 217.594 354.287 217.135 354.034 216.733C353.793 216.32 353.46 215.998 353.036 215.769C352.611 215.539 352.129 215.424 351.589 215.424C351.061 215.424 350.584 215.545 350.16 215.786C349.746 216.015 349.419 216.331 349.178 216.733C348.937 217.135 348.816 217.6 348.816 218.128C348.816 218.667 348.937 219.138 349.178 219.54C349.419 219.942 349.746 220.257 350.16 220.487C350.584 220.705 351.061 220.814 351.589 220.814Z" fill="#4339F2"/>
<path fill-rule="evenodd" clip-rule="evenodd" d="M29.9019 245.313C29.9019 242.595 32.1047 240.393 34.8221 240.393H209.491C212.208 240.393 214.411 242.595 214.411 245.313V245.313C214.411 248.03 212.208 250.233 209.491 250.233H34.8221C32.1047 250.233 29.9019 248.03 29.9019 245.313V245.313Z" fill="#4339F2"/>
</g>
<g clip-path="url(#clip3_153_943)">
<path d="M31.1934 155.068V143.013H32.64V155.068H31.1934ZM35.1094 155.068V146.44H36.4182L36.5043 147.955C36.7798 147.416 37.1702 146.997 37.6753 146.698C38.192 146.388 38.7775 146.233 39.4319 146.233C40.1092 146.233 40.6947 146.365 41.1884 146.629C41.682 146.893 42.0666 147.301 42.3422 147.852C42.6177 148.403 42.7555 149.098 42.7555 149.936V155.068H41.3089V150.091C41.3089 149.23 41.1195 148.581 40.7406 148.145C40.3618 147.697 39.8165 147.473 39.1047 147.473C38.6225 147.473 38.1862 147.594 37.7959 147.835C37.417 148.064 37.1128 148.403 36.8832 148.851C36.665 149.299 36.556 149.85 36.556 150.504V155.068H35.1094ZM48.2531 155.274C47.5528 155.274 46.9328 155.159 46.3933 154.93C45.8537 154.689 45.4231 154.35 45.1017 153.914C44.7917 153.477 44.5965 152.967 44.5162 152.381H45.9972C46.0661 152.68 46.1923 152.961 46.376 153.225C46.5597 153.477 46.8066 153.678 47.1165 153.828C47.438 153.977 47.8226 154.051 48.2703 154.051C48.6836 154.051 49.0223 153.994 49.2864 153.879C49.5504 153.753 49.7456 153.587 49.8719 153.38C49.9982 153.173 50.0613 152.955 50.0613 152.725C50.0613 152.37 49.9752 152.1 49.803 151.916C49.6423 151.732 49.4012 151.589 49.0797 151.486C48.7582 151.382 48.3736 151.285 47.9259 151.193C47.547 151.124 47.1739 151.032 46.8066 150.917C46.4507 150.802 46.1292 150.653 45.8422 150.47C45.5552 150.286 45.3256 150.056 45.1533 149.781C44.9811 149.505 44.895 149.172 44.895 148.782C44.895 148.288 45.0213 147.852 45.2739 147.473C45.5379 147.083 45.8996 146.779 46.3588 146.56C46.8295 146.342 47.3863 146.233 48.0292 146.233C48.9477 146.233 49.6939 146.457 50.2679 146.905C50.8535 147.353 51.1921 148.001 51.284 148.851H49.8546C49.8087 148.415 49.625 148.076 49.3036 147.835C48.9821 147.582 48.5516 147.456 48.012 147.456C47.4724 147.456 47.0591 147.565 46.7721 147.783C46.4966 148.001 46.3588 148.288 46.3588 148.644C46.3588 148.874 46.4334 149.075 46.5827 149.247C46.7434 149.419 46.9788 149.568 47.2887 149.695C47.5987 149.809 47.9718 149.907 48.4081 149.987C48.9706 150.102 49.4873 150.246 49.958 150.418C50.4287 150.579 50.8075 150.825 51.0945 151.158C51.393 151.491 51.5423 151.973 51.5423 152.605C51.5538 153.133 51.4217 153.598 51.1462 154C50.8822 154.402 50.5033 154.717 50.0096 154.947C49.516 155.165 48.9305 155.274 48.2531 155.274ZM56.6481 155.068C56.1315 155.068 55.6838 154.987 55.3049 154.826C54.9261 154.666 54.6333 154.396 54.4266 154.017C54.2315 153.627 54.1339 153.104 54.1339 152.45V147.663H52.6357V146.44H54.1339L54.3233 144.356H55.5804V146.44H58.0947V147.663H55.5804V152.45C55.5804 152.99 55.6895 153.357 55.9076 153.552C56.1258 153.736 56.5104 153.828 57.0614 153.828H57.9741V155.068H56.6481ZM62.7899 155.274C62.0896 155.274 61.5041 155.154 61.0334 154.913C60.5627 154.66 60.2125 154.333 59.9829 153.931C59.7533 153.529 59.6385 153.087 59.6385 152.605C59.6385 152.019 59.7878 151.526 60.0863 151.124C60.3962 150.722 60.8268 150.412 61.3778 150.194C61.9404 149.976 62.5948 149.867 63.341 149.867H65.6486C65.6486 149.339 65.5625 148.897 65.3903 148.541C65.2296 148.173 64.9885 147.904 64.667 147.731C64.3455 147.548 63.9552 147.456 63.496 147.456C62.9449 147.456 62.4627 147.594 62.0494 147.869C61.6476 148.145 61.4008 148.552 61.3089 149.092H59.8279C59.8968 148.472 60.1092 147.955 60.4651 147.542C60.821 147.117 61.2688 146.796 61.8083 146.578C62.3479 146.348 62.9105 146.233 63.496 146.233C64.2996 146.233 64.9655 146.382 65.4936 146.681C66.0217 146.968 66.4178 147.376 66.6818 147.904C66.9574 148.42 67.0951 149.029 67.0951 149.729V155.068H65.8036L65.7175 153.535C65.6027 153.776 65.4534 154.006 65.2697 154.224C65.0975 154.43 64.8909 154.614 64.6498 154.775C64.4202 154.924 64.1504 155.045 63.8404 155.136C63.5304 155.228 63.1803 155.274 62.7899 155.274ZM63.0138 154.051C63.4156 154.051 63.7773 153.971 64.0987 153.81C64.4317 153.638 64.7129 153.409 64.9425 153.122C65.1722 152.835 65.3444 152.513 65.4592 152.157C65.5855 151.79 65.6486 151.417 65.6486 151.038V150.986H63.4615C62.9105 150.986 62.4627 151.055 62.1183 151.193C61.7739 151.331 61.5271 151.514 61.3778 151.744C61.2286 151.973 61.1539 152.238 61.1539 152.536C61.1539 152.846 61.2228 153.116 61.3606 153.345C61.5098 153.564 61.7222 153.736 61.9978 153.862C62.2733 153.988 62.612 154.051 63.0138 154.051ZM72.7426 159.063C71.962 159.063 71.2731 158.959 70.6761 158.753C70.0792 158.558 69.6142 158.253 69.2813 157.84C68.9483 157.427 68.7818 156.916 68.7818 156.307C68.7818 156.043 68.8335 155.762 68.9368 155.464C69.0516 155.177 69.2411 154.89 69.5051 154.603C69.7807 154.316 70.1653 154.057 70.6589 153.828L71.6405 154.413C71.0435 154.666 70.6532 154.953 70.4695 155.274C70.2858 155.596 70.194 155.894 70.194 156.17C70.194 156.548 70.303 156.864 70.5212 157.117C70.7393 157.369 71.0378 157.559 71.4166 157.685C71.807 157.811 72.249 157.875 72.7426 157.875C73.2248 157.875 73.6439 157.8 73.9998 157.651C74.3557 157.513 74.6312 157.318 74.8264 157.065C75.0215 156.824 75.1191 156.531 75.1191 156.187C75.1191 155.797 74.9699 155.464 74.6714 155.188C74.3844 154.924 73.8276 154.769 73.001 154.723C72.3121 154.677 71.7381 154.614 71.2789 154.534C70.8311 154.453 70.458 154.361 70.1595 154.258C69.861 154.143 69.6085 154.017 69.4018 153.879C69.2066 153.741 69.0287 153.598 68.868 153.449V153.053L70.5384 151.382L71.7783 151.83L70.0734 153.397L70.2973 152.794C70.4236 152.886 70.5441 152.972 70.6589 153.053C70.7737 153.122 70.9287 153.19 71.1239 153.259C71.3191 153.317 71.5888 153.368 71.9333 153.414C72.2777 153.46 72.7426 153.506 73.3282 153.552C74.0974 153.609 74.7173 153.747 75.188 153.965C75.6702 154.184 76.0146 154.476 76.2213 154.844C76.4394 155.211 76.5485 155.642 76.5485 156.135C76.5485 156.629 76.4107 157.094 76.1352 157.53C75.8711 157.978 75.4578 158.345 74.8953 158.632C74.3442 158.919 73.6267 159.063 72.7426 159.063ZM72.7254 152.364C72.0022 152.364 71.3879 152.226 70.8828 151.951C70.3776 151.675 69.993 151.308 69.729 150.848C69.4649 150.378 69.3329 149.861 69.3329 149.299C69.3329 148.724 69.4649 148.208 69.729 147.749C69.993 147.289 70.3776 146.922 70.8828 146.647C71.3879 146.371 72.0022 146.233 72.7254 146.233C73.4487 146.233 74.0629 146.371 74.5681 146.647C75.0732 146.922 75.4578 147.289 75.7219 147.749C75.9859 148.208 76.1179 148.724 76.1179 149.299C76.1179 149.861 75.9859 150.378 75.7219 150.848C75.4578 151.308 75.0732 151.675 74.5681 151.951C74.0629 152.226 73.4487 152.364 72.7254 152.364ZM72.7254 151.176C73.3339 151.176 73.8161 151.015 74.172 150.693C74.5394 150.372 74.723 149.907 74.723 149.299C74.723 148.69 74.5394 148.231 74.172 147.921C73.8161 147.599 73.3339 147.439 72.7254 147.439C72.117 147.439 71.6233 147.599 71.2444 147.921C70.8771 148.231 70.6934 148.69 70.6934 149.299C70.6934 149.907 70.8771 150.372 71.2444 150.693C71.6233 151.015 72.117 151.176 72.7254 151.176ZM74.1203 147.663L73.6898 146.44H77.2373V147.525L74.1203 147.663ZM78.8847 155.068V146.44H80.1935L80.314 148.093C80.5092 147.703 80.756 147.37 81.0545 147.094C81.3645 146.819 81.7261 146.606 82.1395 146.457C82.5642 146.308 83.0464 146.233 83.586 146.233V147.749H83.1038C82.7364 147.749 82.3863 147.8 82.0533 147.904C81.7204 147.995 81.4219 148.15 81.1579 148.369C80.9053 148.575 80.7044 148.868 80.5551 149.247C80.4059 149.626 80.3313 150.091 80.3313 150.642V155.068H78.8847ZM88.0662 155.274C87.3659 155.274 86.7804 155.154 86.3097 154.913C85.839 154.66 85.4889 154.333 85.2592 153.931C85.0296 153.529 84.9148 153.087 84.9148 152.605C84.9148 152.019 85.0641 151.526 85.3626 151.124C85.6725 150.722 86.1031 150.412 86.6541 150.194C87.2167 149.976 87.8711 149.867 88.6173 149.867H90.9249C90.9249 149.339 90.8388 148.897 90.6666 148.541C90.5059 148.173 90.2648 147.904 89.9433 147.731C89.6219 147.548 89.2315 147.456 88.7723 147.456C88.2212 147.456 87.7391 147.594 87.3258 147.869C86.9239 148.145 86.6771 148.552 86.5853 149.092H85.1043C85.1731 148.472 85.3855 147.955 85.7414 147.542C86.0973 147.117 86.5451 146.796 87.0847 146.578C87.6242 146.348 88.1868 146.233 88.7723 146.233C89.5759 146.233 90.2418 146.382 90.7699 146.681C91.298 146.968 91.6941 147.376 91.9582 147.904C92.2337 148.42 92.3715 149.029 92.3715 149.729V155.068H91.0799L90.9938 153.535C90.879 153.776 90.7297 154.006 90.5461 154.224C90.3738 154.43 90.1672 154.614 89.9261 154.775C89.6965 154.924 89.4267 155.045 89.1167 155.136C88.8067 155.228 88.4566 155.274 88.0662 155.274ZM88.2901 154.051C88.6919 154.051 89.0536 153.971 89.375 153.81C89.708 153.638 89.9892 153.409 90.2189 153.122C90.4485 152.835 90.6207 152.513 90.7355 152.157C90.8618 151.79 90.9249 151.417 90.9249 151.038V150.986H88.7379C88.1868 150.986 87.7391 151.055 87.3946 151.193C87.0502 151.331 86.8034 151.514 86.6541 151.744C86.5049 151.973 86.4303 152.238 86.4303 152.536C86.4303 152.846 86.4992 153.116 86.6369 153.345C86.7862 153.564 86.9986 153.736 87.2741 153.862C87.5496 153.988 87.8883 154.051 88.2901 154.051ZM94.592 155.068V146.44H95.9008L96.0041 147.68C96.2797 147.221 96.647 146.865 97.1063 146.612C97.5655 146.359 98.0764 146.233 98.6389 146.233C99.0867 146.233 99.4942 146.296 99.8616 146.423C100.229 146.537 100.55 146.721 100.826 146.974C101.101 147.215 101.325 147.525 101.498 147.904C101.796 147.376 102.209 146.968 102.737 146.681C103.266 146.382 103.822 146.233 104.408 146.233C105.085 146.233 105.671 146.371 106.164 146.647C106.67 146.911 107.06 147.318 107.335 147.869C107.611 148.42 107.749 149.115 107.749 149.953V155.068H106.319V150.108C106.319 149.235 106.141 148.581 105.786 148.145C105.43 147.697 104.919 147.473 104.253 147.473C103.805 147.473 103.403 147.594 103.047 147.835C102.692 148.064 102.41 148.403 102.204 148.851C101.997 149.299 101.894 149.855 101.894 150.521V155.068H100.447V150.108C100.447 149.235 100.269 148.581 99.9133 148.145C99.5574 147.697 99.0522 147.473 98.3978 147.473C97.9616 147.473 97.5597 147.594 97.1924 147.835C96.8365 148.064 96.5552 148.403 96.3485 148.851C96.1419 149.299 96.0386 149.855 96.0386 150.521V155.068H94.592Z" fill="black"/>
<path fill-rule="evenodd" clip-rule="evenodd" d="M29.9019 173.969C29.9019 171.252 32.1047 169.049 34.8221 169.049H352.178C354.895 169.049 357.098 171.252 357.098 173.969V173.969C357.098 176.687 354.895 178.89 352.178 178.89H34.8221C32.1047 178.89 29.9019 176.687 29.9019 173.969V173.969Z" fill="#FFF5CC"/>
<path fill-rule="evenodd" clip-rule="evenodd" d="M29.9019 173.969C29.9019 171.252 32.1047 169.049 34.8221 169.049H270.994C273.711 169.049 275.914 171.252 275.914 173.969V173.969C275.914 176.687 273.711 178.89 270.994 178.89H34.8221C32.1047 178.89 29.9019 176.687 29.9019 173.969V173.969Z" fill="#FFB200"/>
<path d="M309.132 155.274C308.26 155.274 307.525 155.113 306.928 154.792C306.331 154.459 305.855 154.017 305.499 153.466C305.143 152.915 304.879 152.301 304.706 151.623C304.546 150.934 304.465 150.234 304.465 149.522C304.465 148.191 304.649 147.025 305.016 146.027C305.384 145.016 305.912 144.23 306.601 143.667C307.301 143.093 308.139 142.806 309.115 142.806C309.873 142.806 310.521 142.955 311.061 143.254C311.612 143.552 312.043 143.949 312.353 144.442C312.674 144.936 312.869 145.487 312.938 146.095H311.595C311.48 145.441 311.204 144.942 310.768 144.597C310.332 144.241 309.775 144.063 309.098 144.063C308.501 144.063 307.961 144.253 307.479 144.632C306.997 144.999 306.612 145.562 306.325 146.319C306.05 147.077 305.889 148.047 305.843 149.23C305.843 149.253 305.843 149.276 305.843 149.299C305.843 149.321 305.843 149.344 305.843 149.367C306.015 149 306.268 148.667 306.601 148.369C306.934 148.059 307.33 147.812 307.789 147.628C308.248 147.444 308.759 147.353 309.322 147.353C310.01 147.353 310.653 147.513 311.25 147.835C311.847 148.156 312.33 148.61 312.697 149.195C313.076 149.769 313.265 150.447 313.265 151.227C313.265 151.905 313.099 152.553 312.766 153.173C312.433 153.793 311.956 154.298 311.336 154.689C310.717 155.079 309.982 155.274 309.132 155.274ZM309.029 154C309.557 154 310.028 153.885 310.441 153.655C310.866 153.414 311.199 153.093 311.44 152.691C311.681 152.278 311.801 151.813 311.801 151.296C311.801 150.757 311.681 150.286 311.44 149.884C311.199 149.482 310.866 149.172 310.441 148.954C310.028 148.724 309.557 148.61 309.029 148.61C308.501 148.61 308.024 148.736 307.6 148.989C307.175 149.23 306.836 149.557 306.584 149.97C306.342 150.372 306.222 150.82 306.222 151.313C306.222 151.83 306.342 152.289 306.584 152.691C306.836 153.093 307.175 153.414 307.6 153.655C308.024 153.885 308.501 154 309.029 154ZM319.368 155.274C318.553 155.274 317.841 155.125 317.232 154.826C316.624 154.528 316.142 154.12 315.786 153.604C315.442 153.087 315.223 152.502 315.132 151.847H316.544C316.681 152.502 316.997 153.03 317.491 153.432C317.984 153.833 318.616 154.034 319.385 154.034C319.959 154.034 320.453 153.902 320.866 153.638C321.279 153.363 321.595 153.001 321.813 152.553C322.031 152.094 322.14 151.583 322.14 151.021C322.14 150.424 322.026 149.907 321.796 149.471C321.578 149.023 321.262 148.673 320.849 148.42C320.447 148.168 319.982 148.041 319.454 148.041C318.788 148.041 318.22 148.185 317.749 148.472C317.29 148.759 316.951 149.138 316.733 149.608H315.338L316.354 143.013H322.709V144.27H317.474L316.785 147.955C317.072 147.622 317.456 147.353 317.939 147.146C318.421 146.928 318.978 146.819 319.609 146.819C320.194 146.819 320.728 146.928 321.21 147.146C321.693 147.353 322.106 147.645 322.45 148.024C322.806 148.392 323.076 148.834 323.26 149.35C323.443 149.855 323.535 150.406 323.535 151.003C323.535 151.577 323.443 152.123 323.26 152.639C323.076 153.156 322.806 153.615 322.45 154.017C322.094 154.407 321.658 154.717 321.142 154.947C320.625 155.165 320.034 155.274 319.368 155.274ZM324.609 157.186L325.607 153.38H327.106L325.607 157.186H324.609ZM332.697 155.274C331.927 155.274 331.227 155.136 330.596 154.861C329.976 154.574 329.482 154.149 329.115 153.587C328.747 153.024 328.552 152.324 328.529 151.486H329.993C330.004 151.945 330.114 152.37 330.32 152.76C330.538 153.139 330.848 153.443 331.25 153.673C331.652 153.902 332.134 154.017 332.697 154.017C333.259 154.017 333.73 153.908 334.109 153.69C334.488 153.472 334.775 153.185 334.97 152.829C335.165 152.461 335.263 152.054 335.263 151.606C335.263 151.044 335.125 150.59 334.849 150.246C334.585 149.89 334.224 149.626 333.764 149.454C333.317 149.281 332.823 149.195 332.283 149.195H331.388V147.973H332.283C333.064 147.973 333.678 147.795 334.126 147.439C334.574 147.071 334.798 146.566 334.798 145.923C334.798 145.395 334.62 144.953 334.264 144.597C333.919 144.241 333.397 144.063 332.697 144.063C332.019 144.063 331.48 144.259 331.078 144.649C330.676 145.039 330.446 145.539 330.389 146.147H328.925C328.96 145.493 329.138 144.913 329.459 144.408C329.781 143.903 330.217 143.512 330.768 143.237C331.319 142.95 331.962 142.806 332.697 142.806C333.477 142.806 334.132 142.944 334.66 143.22C335.188 143.495 335.584 143.862 335.848 144.322C336.124 144.781 336.261 145.286 336.261 145.837C336.261 146.239 336.187 146.624 336.038 146.991C335.888 147.358 335.664 147.68 335.366 147.955C335.079 148.219 334.706 148.409 334.247 148.524C334.717 148.615 335.136 148.799 335.504 149.075C335.883 149.339 336.181 149.683 336.399 150.108C336.617 150.533 336.726 151.032 336.726 151.606C336.726 152.261 336.571 152.869 336.261 153.432C335.963 153.983 335.515 154.43 334.918 154.775C334.321 155.108 333.581 155.274 332.697 155.274ZM339.865 155.068L344.6 144.253H337.988V143.013H346.081V144.098L341.397 155.068H339.865ZM351.882 155.274C351.009 155.274 350.274 155.113 349.677 154.792C349.08 154.459 348.604 154.017 348.248 153.466C347.892 152.915 347.628 152.301 347.456 151.623C347.295 150.934 347.215 150.234 347.215 149.522C347.215 148.191 347.398 147.025 347.766 146.027C348.133 145.016 348.661 144.23 349.35 143.667C350.051 143.093 350.889 142.806 351.864 142.806C352.622 142.806 353.271 142.955 353.81 143.254C354.361 143.552 354.792 143.949 355.102 144.442C355.423 144.936 355.619 145.487 355.687 146.095H354.344C354.229 145.441 353.954 144.942 353.518 144.597C353.081 144.241 352.525 144.063 351.847 144.063C351.25 144.063 350.711 144.253 350.228 144.632C349.746 144.999 349.362 145.562 349.075 146.319C348.799 147.077 348.638 148.047 348.592 149.23C348.592 149.253 348.592 149.276 348.592 149.299C348.592 149.321 348.592 149.344 348.592 149.367C348.765 149 349.017 148.667 349.35 148.369C349.683 148.059 350.079 147.812 350.538 147.628C350.998 147.444 351.509 147.353 352.071 147.353C352.76 147.353 353.403 147.513 354 147.835C354.597 148.156 355.079 148.61 355.446 149.195C355.825 149.769 356.015 150.447 356.015 151.227C356.015 151.905 355.848 152.553 355.515 153.173C355.182 153.793 354.706 154.298 354.086 154.689C353.466 155.079 352.731 155.274 351.882 155.274ZM351.778 154C352.306 154 352.777 153.885 353.19 153.655C353.615 153.414 353.948 153.093 354.189 152.691C354.43 152.278 354.551 151.813 354.551 151.296C354.551 150.757 354.43 150.286 354.189 149.884C353.948 149.482 353.615 149.172 353.19 148.954C352.777 148.724 352.306 148.61 351.778 148.61C351.25 148.61 350.774 148.736 350.349 148.989C349.924 149.23 349.586 149.557 349.333 149.97C349.092 150.372 348.971 150.82 348.971 151.313C348.971 151.83 349.092 152.289 349.333 152.691C349.586 153.093 349.924 153.414 350.349 153.655C350.774 153.885 351.25 154 351.778 154Z" fill="#FFB200"/>
</g>
<path fill-rule="evenodd" clip-rule="evenodd" d="M342.337 39.8927C340.979 39.8927 339.877 40.9948 339.877 42.3528C339.877 43.7108 340.979 44.8129 342.337 44.8129C343.695 44.8129 344.798 43.7108 344.798 42.3528C344.798 40.9948 343.695 39.8927 342.337 39.8927ZM350.948 39.8927C349.59 39.8927 348.488 40.9948 348.488 42.3528C348.488 43.7108 349.59 44.8129 350.948 44.8129C352.306 44.8129 353.408 43.7108 353.408 42.3528C353.408 40.9948 352.306 39.8927 350.948 39.8927ZM331.267 42.3529C331.267 40.9949 332.369 39.8927 333.727 39.8927C335.085 39.8927 336.187 40.9949 336.187 42.3529C336.187 43.7109 335.085 44.813 333.727 44.813C332.369 44.813 331.267 43.7109 331.267 42.3529Z" fill="black"/>
<path d="M35.815 48.4908V32.874H30.5589V30.8018H43.5729V32.874H38.342V48.4908H35.815ZM46.1343 48.4908V35.9569H48.6613V48.4908H46.1343ZM47.3978 33.5057C46.9092 33.5057 46.5049 33.3541 46.1848 33.0509C45.8816 32.7308 45.73 32.3433 45.73 31.8885C45.73 31.4336 45.8816 31.063 46.1848 30.7766C46.5049 30.4733 46.9092 30.3217 47.3978 30.3217C47.8695 30.3217 48.2654 30.4733 48.5855 30.7766C48.9056 31.063 49.0656 31.4336 49.0656 31.8885C49.0656 32.3433 48.9056 32.7308 48.5855 33.0509C48.2654 33.3541 47.8695 33.5057 47.3978 33.5057ZM57.3313 48.4908C56.5226 48.4908 55.8235 48.3645 55.2338 48.1118C54.6442 47.8591 54.1894 47.4379 53.8693 46.8483C53.5492 46.2587 53.3891 45.4584 53.3891 44.4476V38.0543H51.2412V35.9569H53.3891L53.6924 32.8234H55.9161V35.9569H59.5045V38.0543H55.9161V44.4729C55.9161 45.1973 56.0678 45.6943 56.371 45.9638C56.6742 46.2165 57.1965 46.3429 57.9377 46.3429H59.3276V48.4908H57.3313ZM62.096 48.4908V30.347H64.623V48.4908H62.096ZM73.7562 48.7941C72.5432 48.7941 71.4566 48.5245 70.4963 47.9854C69.5529 47.4295 68.8117 46.663 68.2726 45.6859C67.7503 44.7088 67.4892 43.5632 67.4892 42.2492C67.4892 40.9351 67.7503 39.7895 68.2726 38.8124C68.7948 37.8185 69.5277 37.0435 70.4711 36.4876C71.4313 35.9317 72.5432 35.6537 73.8067 35.6537C75.0365 35.6537 76.0979 35.9317 76.9907 36.4876C77.9004 37.0267 78.5996 37.7427 79.0881 38.6355C79.5767 39.5284 79.821 40.5224 79.821 41.6174C79.821 41.7859 79.821 41.9712 79.821 42.1733C79.821 42.3755 79.8125 42.5861 79.7957 42.8051H69.3339V41.0362H77.294C77.2434 40.0085 76.8896 39.2083 76.2326 38.6355C75.5756 38.0459 74.7501 37.7511 73.7562 37.7511C73.0823 37.7511 72.4505 37.9027 71.8609 38.206C71.2881 38.4923 70.8248 38.9304 70.4711 39.52C70.1341 40.1096 69.9657 40.8509 69.9657 41.7438V42.4513C69.9657 43.3779 70.1341 44.1613 70.4711 44.8014C70.8248 45.4248 71.2881 45.8965 71.8609 46.2165C72.4505 46.5366 73.0823 46.6967 73.7562 46.6967C74.548 46.6967 75.2134 46.5198 75.7525 46.166C76.2916 45.7954 76.6875 45.2984 76.9402 44.6751H79.4672C79.2482 45.4669 78.8776 46.1744 78.3553 46.7978C77.8331 47.4042 77.1845 47.8928 76.4095 48.2634C75.6346 48.6172 74.7501 48.7941 73.7562 48.7941Z" fill="black"/>
<path opacity="0.4" d="M32.4234 83.954V71.8994H39.88V73.0876H33.87V77.2895H39.3634V78.4605H33.87V82.7657H39.88V83.954H32.4234ZM44.5543 83.954L41.2823 75.3263H42.7978L45.3981 82.5591L48.0157 75.3263H49.4967L46.2247 83.954H44.5543ZM54.4907 84.1606C53.6871 84.1606 52.9695 83.9712 52.3381 83.5923C51.7067 83.2135 51.2073 82.6854 50.8399 82.008C50.484 81.3307 50.3061 80.5385 50.3061 79.6315C50.3061 78.7246 50.484 77.9324 50.8399 77.2551C51.1958 76.5777 51.6895 76.0553 52.3209 75.688C52.9638 75.3091 53.6986 75.1197 54.5252 75.1197C55.3747 75.1197 56.098 75.3091 56.695 75.688C57.292 76.0553 57.7455 76.549 58.0554 77.169C58.3769 77.7774 58.5376 78.4433 58.5376 79.1666C58.5376 79.2814 58.5376 79.4019 58.5376 79.5282C58.5376 79.6545 58.5319 79.798 58.5204 79.9587H51.391V78.8394H57.1083C57.0738 78.0587 56.8098 77.4502 56.3161 77.014C55.8339 76.5662 55.2255 76.3424 54.4907 76.3424C54.0085 76.3424 53.5551 76.4514 53.1303 76.6696C52.7055 76.8877 52.3611 77.2149 52.097 77.6511C51.8444 78.0759 51.7182 78.604 51.7182 79.2355V79.7176C51.7182 80.4294 51.8502 81.0264 52.1142 81.5086C52.3783 81.9793 52.717 82.3352 53.1303 82.5763C53.5551 82.8174 54.0085 82.9379 54.4907 82.9379C55.0992 82.9379 55.5986 82.8059 55.9889 82.5419C56.3908 82.2663 56.6835 81.8932 56.8672 81.4225H58.2965C58.1473 81.9506 57.9005 82.4213 57.556 82.8346C57.2116 83.2364 56.7811 83.5579 56.2645 83.799C55.7593 84.0401 55.1681 84.1606 54.4907 84.1606ZM60.4553 83.954V75.3263H61.7641L61.8847 76.9795C62.0798 76.5892 62.3267 76.2563 62.6252 75.9807C62.9351 75.7052 63.2968 75.4928 63.7101 75.3435C64.1349 75.1943 64.617 75.1197 65.1566 75.1197V76.6351H64.6744C64.3071 76.6351 63.9569 76.6868 63.624 76.7901C63.291 76.8819 62.9925 77.0369 62.7285 77.2551C62.4759 77.4617 62.275 77.7545 62.1258 78.1333C61.9765 78.5122 61.9019 78.9772 61.9019 79.5282V83.954H60.4553ZM67.7426 87.7426L69.8607 82.9896H69.3613L65.9688 75.3263H67.5359L70.3601 81.9047L73.3394 75.3263H74.8376L69.258 87.7426H67.7426ZM80.9387 83.954V71.555H82.3853V83.954H80.9387ZM87.6145 84.1606C86.9142 84.1606 86.3287 84.0401 85.858 83.799C85.3873 83.5464 85.0371 83.2192 84.8075 82.8174C84.5779 82.4156 84.4631 81.9736 84.4631 81.4914C84.4631 80.9059 84.6123 80.4122 84.9108 80.0104C85.2208 79.6086 85.6513 79.2986 86.2024 79.0805C86.7649 78.8623 87.4193 78.7533 88.1656 78.7533H90.4732C90.4732 78.2252 90.3871 77.7832 90.2149 77.4273C90.0541 77.0599 89.813 76.7901 89.4916 76.6179C89.1701 76.4342 88.7798 76.3424 88.3206 76.3424C87.7695 76.3424 87.2873 76.4801 86.874 76.7557C86.4722 77.0312 86.2254 77.4388 86.1335 77.9783H84.6525C84.7214 77.3584 84.9338 76.8418 85.2897 76.4285C85.6456 76.0037 86.0933 75.6822 86.6329 75.4641C87.1725 75.2345 87.7351 75.1197 88.3206 75.1197C89.1242 75.1197 89.7901 75.2689 90.3182 75.5674C90.8463 75.8544 91.2424 76.262 91.5064 76.7901C91.782 77.3067 91.9197 77.9152 91.9197 78.6155V83.954H90.6282L90.5421 82.4213C90.4272 82.6624 90.278 82.892 90.0943 83.1102C89.9221 83.3168 89.7154 83.5005 89.4744 83.6612C89.2447 83.8105 88.975 83.931 88.665 84.0229C88.355 84.1147 88.0048 84.1606 87.6145 84.1606ZM87.8384 82.9379C88.2402 82.9379 88.6018 82.8576 88.9233 82.6969C89.2562 82.5246 89.5375 82.295 89.7671 82.008C89.9967 81.721 90.1689 81.3996 90.2837 81.0437C90.41 80.6763 90.4732 80.3032 90.4732 79.9243V79.8726H88.2861C87.7351 79.8726 87.2873 79.9415 86.9429 80.0793C86.5985 80.2171 86.3516 80.4007 86.2024 80.6304C86.0531 80.86 85.9785 81.124 85.9785 81.4225C85.9785 81.7325 86.0474 82.0023 86.1852 82.2319C86.3344 82.45 86.5468 82.6222 86.8223 82.7485C87.0979 82.8748 87.4366 82.9379 87.8384 82.9379ZM94.1403 83.954V75.3263H95.4491L95.5696 76.9795C95.7648 76.5892 96.0116 76.2563 96.3101 75.9807C96.6201 75.7052 96.9817 75.4928 97.395 75.3435C97.8198 75.1943 98.302 75.1197 98.8416 75.1197V76.6351H98.3594C97.992 76.6351 97.6418 76.6868 97.3089 76.7901C96.976 76.8819 96.6775 77.0369 96.4134 77.2551C96.1609 77.4617 95.9599 77.7545 95.8107 78.1333C95.6614 78.5122 95.5868 78.9772 95.5868 79.5282V83.954H94.1403ZM103.706 87.9492C102.925 87.9492 102.236 87.8459 101.639 87.6392C101.042 87.4441 100.577 87.1398 100.244 86.7265C99.9112 86.3132 99.7447 85.8024 99.7447 85.1939C99.7447 84.9298 99.7964 84.6486 99.8997 84.3501C100.015 84.063 100.204 83.776 100.468 83.489C100.744 83.202 101.128 82.9437 101.622 82.7141L102.603 83.2996C102.006 83.5522 101.616 83.8392 101.432 84.1606C101.249 84.4821 101.157 84.7806 101.157 85.0561C101.157 85.435 101.266 85.7507 101.484 86.0033C101.702 86.2558 102.001 86.4453 102.38 86.5716C102.77 86.6978 103.212 86.761 103.706 86.761C104.188 86.761 104.607 86.6864 104.963 86.5371C105.319 86.3993 105.594 86.2042 105.789 85.9516C105.984 85.7105 106.082 85.4178 106.082 85.0733C106.082 84.683 105.933 84.3501 105.634 84.0745C105.347 83.8105 104.79 83.6555 103.964 83.6096C103.275 83.5636 102.701 83.5005 102.242 83.4201C101.794 83.3398 101.421 83.2479 101.122 83.1446C100.824 83.0298 100.571 82.9035 100.365 82.7657C100.169 82.628 99.9915 82.4845 99.8308 82.3352V81.9391L101.501 80.2687L102.741 80.7165L101.036 82.2836L101.26 81.6808C101.386 81.7727 101.507 81.8588 101.622 81.9391C101.737 82.008 101.892 82.0769 102.087 82.1458C102.282 82.2032 102.552 82.2549 102.896 82.3008C103.241 82.3467 103.706 82.3926 104.291 82.4385C105.06 82.4959 105.68 82.6337 106.151 82.8518C106.633 83.07 106.977 83.3627 107.184 83.7301C107.402 84.0975 107.511 84.528 107.511 85.0217C107.511 85.5153 107.374 85.9803 107.098 86.4166C106.834 86.8643 106.421 87.2317 105.858 87.5187C105.307 87.8057 104.59 87.9492 103.706 87.9492ZM103.688 81.2503C102.965 81.2503 102.351 81.1125 101.846 80.837C101.341 80.5615 100.956 80.1941 100.692 79.7349C100.428 79.2642 100.296 78.7475 100.296 78.185C100.296 77.611 100.428 77.0943 100.692 76.6351C100.956 76.1759 101.341 75.8085 101.846 75.533C102.351 75.2574 102.965 75.1197 103.688 75.1197C104.412 75.1197 105.026 75.2574 105.531 75.533C106.036 75.8085 106.421 76.1759 106.685 76.6351C106.949 77.0943 107.081 77.611 107.081 78.185C107.081 78.7475 106.949 79.2642 106.685 79.7349C106.421 80.1941 106.036 80.5615 105.531 80.837C105.026 81.1125 104.412 81.2503 103.688 81.2503ZM103.688 80.0621C104.297 80.0621 104.779 79.9013 105.135 79.5799C105.502 79.2584 105.686 78.7935 105.686 78.185C105.686 77.5765 105.502 77.1173 105.135 76.8073C104.779 76.4859 104.297 76.3251 103.688 76.3251C103.08 76.3251 102.586 76.4859 102.207 76.8073C101.84 77.1173 101.656 77.5765 101.656 78.185C101.656 78.7935 101.84 79.2584 102.207 79.5799C102.586 79.9013 103.08 80.0621 103.688 80.0621ZM105.083 76.549L104.653 75.3263H108.2V76.4112L105.083 76.549ZM113.334 84.1606C112.531 84.1606 111.813 83.9712 111.182 83.5923C110.55 83.2135 110.051 82.6854 109.683 82.008C109.328 81.3307 109.15 80.5385 109.15 79.6315C109.15 78.7246 109.328 77.9324 109.683 77.2551C110.039 76.5777 110.533 76.0553 111.164 75.688C111.807 75.3091 112.542 75.1197 113.369 75.1197C114.218 75.1197 114.942 75.3091 115.539 75.688C116.136 76.0553 116.589 76.549 116.899 77.169C117.22 77.7774 117.381 78.4433 117.381 79.1666C117.381 79.2814 117.381 79.4019 117.381 79.5282C117.381 79.6545 117.375 79.798 117.364 79.9587H110.235V78.8394H115.952C115.917 78.0587 115.653 77.4502 115.16 77.014C114.677 76.5662 114.069 76.3424 113.334 76.3424C112.852 76.3424 112.399 76.4514 111.974 76.6696C111.549 76.8877 111.205 77.2149 110.941 77.6511C110.688 78.0759 110.562 78.604 110.562 79.2355V79.7176C110.562 80.4294 110.694 81.0264 110.958 81.5086C111.222 81.9793 111.561 82.3352 111.974 82.5763C112.399 82.8174 112.852 82.9379 113.334 82.9379C113.943 82.9379 114.442 82.8059 114.832 82.5419C115.234 82.2663 115.527 81.8932 115.711 81.4225H117.14C116.991 81.9506 116.744 82.4213 116.4 82.8346C116.055 83.2364 115.625 83.5579 115.108 83.799C114.603 84.0401 114.012 84.1606 113.334 84.1606ZM127.731 84.1606C126.893 84.1606 126.152 83.9655 125.509 83.5751C124.878 83.1733 124.384 82.6337 124.028 81.9564C123.684 81.2675 123.512 80.4868 123.512 79.6143C123.512 78.7533 123.684 77.9841 124.028 77.3067C124.384 76.6294 124.878 76.0955 125.509 75.7052C126.152 75.3148 126.898 75.1197 127.748 75.1197C128.448 75.1197 129.068 75.2632 129.608 75.5502C130.147 75.8372 130.561 76.239 130.848 76.7557V71.555H132.294V83.954H130.985L130.848 82.5419C130.675 82.8174 130.446 83.0815 130.159 83.334C129.872 83.5751 129.527 83.776 129.126 83.9368C128.724 84.086 128.259 84.1606 127.731 84.1606ZM127.886 82.9035C128.46 82.9035 128.965 82.7715 129.401 82.5074C129.849 82.2319 130.193 81.8473 130.434 81.3536C130.675 80.86 130.796 80.2859 130.796 79.6315C130.796 78.9772 130.675 78.4089 130.434 77.9267C130.193 77.433 129.849 77.0542 129.401 76.7901C128.965 76.5146 128.46 76.3768 127.886 76.3768C127.335 76.3768 126.835 76.5146 126.387 76.7901C125.951 77.0542 125.607 77.433 125.354 77.9267C125.113 78.4089 124.993 78.9772 124.993 79.6315C124.993 80.2859 125.113 80.86 125.354 81.3536C125.607 81.8473 125.951 82.2319 126.387 82.5074C126.835 82.7715 127.335 82.9035 127.886 82.9035ZM138.51 84.1606C137.706 84.1606 136.989 83.9712 136.357 83.5923C135.726 83.2135 135.226 82.6854 134.859 82.008C134.503 81.3307 134.325 80.5385 134.325 79.6315C134.325 78.7246 134.503 77.9324 134.859 77.2551C135.215 76.5777 135.708 76.0553 136.34 75.688C136.983 75.3091 137.718 75.1197 138.544 75.1197C139.394 75.1197 140.117 75.3091 140.714 75.688C141.311 76.0553 141.764 76.549 142.074 77.169C142.396 77.7774 142.557 78.4433 142.557 79.1666C142.557 79.2814 142.557 79.4019 142.557 79.5282C142.557 79.6545 142.551 79.798 142.539 79.9587H135.41V78.8394H141.127C141.093 78.0587 140.829 77.4502 140.335 77.014C139.853 76.5662 139.244 76.3424 138.51 76.3424C138.027 76.3424 137.574 76.4514 137.149 76.6696C136.724 76.8877 136.38 77.2149 136.116 77.6511C135.863 78.0759 135.737 78.604 135.737 79.2355V79.7176C135.737 80.4294 135.869 81.0264 136.133 81.5086C136.397 81.9793 136.736 82.3352 137.149 82.5763C137.574 82.8174 138.027 82.9379 138.51 82.9379C139.118 82.9379 139.618 82.8059 140.008 82.5419C140.41 82.2663 140.702 81.8932 140.886 81.4225H142.315C142.166 81.9506 141.919 82.4213 141.575 82.8346C141.231 83.2364 140.8 83.5579 140.283 83.799C139.778 84.0401 139.187 84.1606 138.51 84.1606ZM147.746 84.1606C147.046 84.1606 146.426 84.0458 145.886 83.8162C145.347 83.5751 144.916 83.2364 144.595 82.8002C144.285 82.3639 144.09 81.853 144.009 81.2675H145.49C145.559 81.566 145.685 81.8473 145.869 82.1113C146.053 82.3639 146.3 82.5648 146.61 82.7141C146.931 82.8633 147.316 82.9379 147.763 82.9379C148.177 82.9379 148.515 82.8805 148.78 82.7657C149.044 82.6395 149.239 82.473 149.365 82.2663C149.491 82.0597 149.554 81.8416 149.554 81.6119C149.554 81.256 149.468 80.9863 149.296 80.8026C149.135 80.6189 148.894 80.4754 148.573 80.372C148.251 80.2687 147.867 80.1711 147.419 80.0793C147.04 80.0104 146.667 79.9186 146.3 79.8038C145.944 79.6889 145.622 79.5397 145.335 79.356C145.048 79.1723 144.819 78.9427 144.646 78.6672C144.474 78.3916 144.388 78.0587 144.388 77.6684C144.388 77.1747 144.514 76.7384 144.767 76.3596C145.031 75.9692 145.393 75.665 145.852 75.4469C146.323 75.2287 146.879 75.1197 147.522 75.1197C148.441 75.1197 149.187 75.3435 149.761 75.7913C150.347 76.239 150.685 76.8877 150.777 77.7372H149.348C149.302 77.301 149.118 76.9623 148.797 76.7212C148.475 76.4686 148.045 76.3424 147.505 76.3424C146.966 76.3424 146.552 76.4514 146.265 76.6696C145.99 76.8877 145.852 77.1747 145.852 77.5306C145.852 77.7602 145.927 77.9611 146.076 78.1333C146.237 78.3055 146.472 78.4548 146.782 78.5811C147.092 78.6959 147.465 78.7935 147.901 78.8738C148.464 78.9886 148.98 79.1321 149.451 79.3043C149.922 79.4651 150.301 79.7119 150.588 80.0448C150.886 80.3778 151.035 80.86 151.035 81.4914C151.047 82.0195 150.915 82.4845 150.639 82.8863C150.375 83.2881 149.996 83.6038 149.503 83.8334C149.009 84.0516 148.424 84.1606 147.746 84.1606ZM153.273 83.954V75.3263H154.72V83.954H153.273ZM153.997 73.4665C153.71 73.4665 153.469 73.3746 153.273 73.1909C153.09 72.9958 152.998 72.7547 152.998 72.4677C152.998 72.1807 153.09 71.951 153.273 71.7788C153.469 71.5951 153.71 71.5033 153.997 71.5033C154.272 71.5033 154.507 71.5951 154.703 71.7788C154.898 71.951 154.995 72.1807 154.995 72.4677C154.995 72.7547 154.898 72.9958 154.703 73.1909C154.507 73.3746 154.272 73.4665 153.997 73.4665ZM160.666 87.9492C159.885 87.9492 159.196 87.8459 158.599 87.6392C158.002 87.4441 157.537 87.1398 157.204 86.7265C156.871 86.3132 156.705 85.8024 156.705 85.1939C156.705 84.9298 156.756 84.6486 156.86 84.3501C156.975 84.063 157.164 83.776 157.428 83.489C157.704 83.202 158.088 82.9437 158.582 82.7141L159.563 83.2996C158.966 83.5522 158.576 83.8392 158.392 84.1606C158.209 84.4821 158.117 84.7806 158.117 85.0561C158.117 85.435 158.226 85.7507 158.444 86.0033C158.662 86.2558 158.961 86.4453 159.34 86.5716C159.73 86.6978 160.172 86.761 160.666 86.761C161.148 86.761 161.567 86.6864 161.923 86.5371C162.279 86.3993 162.554 86.2042 162.749 85.9516C162.944 85.7105 163.042 85.4178 163.042 85.0733C163.042 84.683 162.893 84.3501 162.594 84.0745C162.307 83.8105 161.75 83.6555 160.924 83.6096C160.235 83.5636 159.661 83.5005 159.202 83.4201C158.754 83.3398 158.381 83.2479 158.082 83.1446C157.784 83.0298 157.531 82.9035 157.325 82.7657C157.13 82.628 156.952 82.4845 156.791 82.3352V81.9391L158.461 80.2687L159.701 80.7165L157.996 82.2836L158.22 81.6808C158.346 81.7727 158.467 81.8588 158.582 81.9391C158.697 82.008 158.852 82.0769 159.047 82.1458C159.242 82.2032 159.512 82.2549 159.856 82.3008C160.201 82.3467 160.666 82.3926 161.251 82.4385C162.02 82.4959 162.64 82.6337 163.111 82.8518C163.593 83.07 163.937 83.3627 164.144 83.7301C164.362 84.0975 164.471 84.528 164.471 85.0217C164.471 85.5153 164.334 85.9803 164.058 86.4166C163.794 86.8643 163.381 87.2317 162.818 87.5187C162.267 87.8057 161.55 87.9492 160.666 87.9492ZM160.648 81.2503C159.925 81.2503 159.311 81.1125 158.806 80.837C158.301 80.5615 157.916 80.1941 157.652 79.7349C157.388 79.2642 157.256 78.7475 157.256 78.185C157.256 77.611 157.388 77.0943 157.652 76.6351C157.916 76.1759 158.301 75.8085 158.806 75.533C159.311 75.2574 159.925 75.1197 160.648 75.1197C161.372 75.1197 161.986 75.2574 162.491 75.533C162.996 75.8085 163.381 76.1759 163.645 76.6351C163.909 77.0943 164.041 77.611 164.041 78.185C164.041 78.7475 163.909 79.2642 163.645 79.7349C163.381 80.1941 162.996 80.5615 162.491 80.837C161.986 81.1125 161.372 81.2503 160.648 81.2503ZM160.648 80.0621C161.257 80.0621 161.739 79.9013 162.095 79.5799C162.462 79.2584 162.646 78.7935 162.646 78.185C162.646 77.5765 162.462 77.1173 162.095 76.8073C161.739 76.4859 161.257 76.3251 160.648 76.3251C160.04 76.3251 159.546 76.4859 159.167 76.8073C158.8 77.1173 158.616 77.5765 158.616 78.185C158.616 78.7935 158.8 79.2584 159.167 79.5799C159.546 79.9013 160.04 80.0621 160.648 80.0621ZM162.043 76.549L161.613 75.3263H165.16V76.4112L162.043 76.549ZM166.808 83.954V75.3263H168.116L168.202 76.8418C168.478 76.3022 168.868 75.8831 169.374 75.5846C169.89 75.2747 170.476 75.1197 171.13 75.1197C171.807 75.1197 172.393 75.2517 172.887 75.5158C173.38 75.7798 173.765 76.1874 174.04 76.7384C174.316 77.2895 174.454 77.9841 174.454 78.8222V83.954H173.007V78.9772C173.007 78.1161 172.818 77.4675 172.439 77.0312C172.06 76.5835 171.515 76.3596 170.803 76.3596C170.321 76.3596 169.884 76.4801 169.494 76.7212C169.115 76.9508 168.811 77.2895 168.581 77.7372C168.363 78.185 168.254 78.7361 168.254 79.3905V83.954H166.808ZM185.18 84.1606C184.365 84.1606 183.63 83.9712 182.976 83.5923C182.333 83.2135 181.822 82.6854 181.443 82.008C181.076 81.3307 180.892 80.5442 180.892 79.6488C180.892 78.7418 181.076 77.9496 181.443 77.2723C181.822 76.5949 182.333 76.0668 182.976 75.688C183.63 75.3091 184.365 75.1197 185.18 75.1197C186.213 75.1197 187.074 75.3895 187.763 75.9291C188.452 76.4572 188.888 77.1632 189.072 78.0472H187.591C187.476 77.5191 187.195 77.1058 186.747 76.8073C186.299 76.5088 185.771 76.3596 185.163 76.3596C184.669 76.3596 184.21 76.4859 183.785 76.7384C183.372 76.9795 183.033 77.3412 182.769 77.8234C182.505 78.3055 182.373 78.9083 182.373 79.6315C182.373 80.1711 182.448 80.6476 182.597 81.0609C182.758 81.4742 182.964 81.8243 183.217 82.1113C183.469 82.3869 183.762 82.5935 184.095 82.7313C184.439 82.8691 184.795 82.9379 185.163 82.9379C185.576 82.9379 185.943 82.8748 186.265 82.7485C186.598 82.6108 186.879 82.4156 187.109 82.163C187.35 81.899 187.511 81.589 187.591 81.2331H189.072C188.888 82.1056 188.446 82.8117 187.746 83.3512C187.057 83.8908 186.202 84.1606 185.18 84.1606ZM194.984 84.1606C194.18 84.1606 193.457 83.9769 192.814 83.6096C192.171 83.2307 191.66 82.7026 191.281 82.0252C190.914 81.3479 190.73 80.5557 190.73 79.6488C190.73 78.7303 190.919 77.9324 191.298 77.2551C191.677 76.5777 192.188 76.0553 192.831 75.688C193.485 75.3091 194.214 75.1197 195.018 75.1197C195.833 75.1197 196.562 75.3091 197.205 75.688C197.848 76.0553 198.353 76.5777 198.721 77.2551C199.088 77.9209 199.272 78.7188 199.272 79.6488C199.272 80.5557 199.082 81.3479 198.703 82.0252C198.336 82.7026 197.825 83.2307 197.171 83.6096C196.528 83.9769 195.799 84.1606 194.984 84.1606ZM194.984 82.9207C195.489 82.9207 195.954 82.8002 196.379 82.5591C196.803 82.3065 197.142 81.9391 197.395 81.457C197.659 80.9633 197.791 80.3548 197.791 79.6315C197.791 78.9083 197.664 78.3055 197.412 77.8234C197.159 77.3297 196.821 76.9623 196.396 76.7212C195.971 76.4801 195.512 76.3596 195.018 76.3596C194.536 76.3596 194.077 76.4801 193.64 76.7212C193.216 76.9623 192.871 77.3297 192.607 77.8234C192.343 78.3055 192.211 78.914 192.211 79.6488C192.211 80.3606 192.343 80.9633 192.607 81.457C192.871 81.9391 193.21 82.3065 193.623 82.5591C194.048 82.8002 194.501 82.9207 194.984 82.9207ZM201.3 83.954V75.3263H202.609L202.712 76.5662C202.987 76.107 203.355 75.7511 203.814 75.4985C204.273 75.246 204.784 75.1197 205.347 75.1197C205.794 75.1197 206.202 75.1828 206.569 75.3091C206.937 75.4239 207.258 75.6076 207.534 75.8602C207.809 76.1013 208.033 76.4112 208.205 76.7901C208.504 76.262 208.917 75.8544 209.445 75.5674C209.973 75.2689 210.53 75.1197 211.116 75.1197C211.793 75.1197 212.379 75.2574 212.872 75.533C213.377 75.797 213.768 76.2046 214.043 76.7557C214.319 77.3067 214.456 78.0013 214.456 78.8394V83.954H213.027V78.9944C213.027 78.1218 212.849 77.4675 212.493 77.0312C212.137 76.5835 211.627 76.3596 210.961 76.3596C210.513 76.3596 210.111 76.4801 209.755 76.7212C209.399 76.9508 209.118 77.2895 208.911 77.7372C208.705 78.185 208.601 78.7418 208.601 79.4077V83.954H207.155V78.9944C207.155 78.1218 206.977 77.4675 206.621 77.0312C206.265 76.5835 205.76 76.3596 205.106 76.3596C204.669 76.3596 204.267 76.4801 203.9 76.7212C203.544 76.9508 203.263 77.2895 203.056 77.7372C202.85 78.185 202.746 78.7418 202.746 79.4077V83.954H201.3ZM216.654 87.7426V75.3263H217.963L218.1 76.7384C218.284 76.4629 218.52 76.2046 218.807 75.9635C219.094 75.7109 219.438 75.51 219.84 75.3608C220.242 75.2 220.707 75.1197 221.235 75.1197C222.073 75.1197 222.802 75.3206 223.422 75.7224C224.053 76.1127 224.541 76.6466 224.885 77.3239C225.241 78.0013 225.419 78.782 225.419 79.666C225.419 80.527 225.241 81.2962 224.885 81.9736C224.541 82.6509 224.053 83.1848 223.422 83.5751C222.79 83.9655 222.056 84.1606 221.217 84.1606C220.517 84.1606 219.897 84.0171 219.358 83.7301C218.818 83.4431 218.399 83.0413 218.1 82.5246V87.7426H216.654ZM221.045 82.9035C221.619 82.9035 222.124 82.7715 222.561 82.5074C222.997 82.2319 223.336 81.8473 223.577 81.3536C223.829 80.86 223.956 80.2859 223.956 79.6315C223.956 78.9772 223.829 78.4089 223.577 77.9267C223.336 77.433 222.997 77.0542 222.561 76.7901C222.124 76.5146 221.619 76.3768 221.045 76.3768C220.471 76.3768 219.966 76.5146 219.53 76.7901C219.094 77.0542 218.755 77.433 218.514 77.9267C218.273 78.4089 218.152 78.9772 218.152 79.6315C218.152 80.2859 218.273 80.86 218.514 81.3536C218.755 81.8473 219.094 82.2319 219.53 82.5074C219.966 82.7715 220.471 82.9035 221.045 82.9035ZM230.292 84.1606C229.592 84.1606 229.006 84.0401 228.535 83.799C228.065 83.5464 227.715 83.2192 227.485 82.8174C227.255 82.4156 227.141 81.9736 227.141 81.4914C227.141 80.9059 227.29 80.4122 227.588 80.0104C227.898 79.6086 228.329 79.2986 228.88 79.0805C229.442 78.8623 230.097 78.7533 230.843 78.7533H233.151C233.151 78.2252 233.065 77.7832 232.892 77.4273C232.732 77.0599 232.491 76.7901 232.169 76.6179C231.848 76.4342 231.457 76.3424 230.998 76.3424C230.447 76.3424 229.965 76.4801 229.552 76.7557C229.15 77.0312 228.903 77.4388 228.811 77.9783H227.33C227.399 77.3584 227.611 76.8418 227.967 76.4285C228.323 76.0037 228.771 75.6822 229.31 75.4641C229.85 75.2345 230.413 75.1197 230.998 75.1197C231.802 75.1197 232.468 75.2689 232.996 75.5674C233.524 75.8544 233.92 76.262 234.184 76.7901C234.459 77.3067 234.597 77.9152 234.597 78.6155V83.954H233.306L233.22 82.4213C233.105 82.6624 232.956 82.892 232.772 83.1102C232.6 83.3168 232.393 83.5005 232.152 83.6612C231.922 83.8105 231.652 83.931 231.342 84.0229C231.033 84.1147 230.682 84.1606 230.292 84.1606ZM230.516 82.9379C230.918 82.9379 231.279 82.8576 231.601 82.6969C231.934 82.5246 232.215 82.295 232.445 82.008C232.674 81.721 232.846 81.3996 232.961 81.0437C233.088 80.6763 233.151 80.3032 233.151 79.9243V79.8726H230.964C230.413 79.8726 229.965 79.9415 229.62 80.0793C229.276 80.2171 229.029 80.4007 228.88 80.6304C228.731 80.86 228.656 81.124 228.656 81.4225C228.656 81.7325 228.725 82.0023 228.863 82.2319C229.012 82.45 229.224 82.6222 229.5 82.7485C229.775 82.8748 230.114 82.9379 230.516 82.9379ZM236.818 83.954V75.3263H238.127L238.213 76.8418C238.488 76.3022 238.879 75.8831 239.384 75.5846C239.9 75.2747 240.486 75.1197 241.14 75.1197C241.818 75.1197 242.403 75.2517 242.897 75.5158C243.39 75.7798 243.775 76.1874 244.051 76.7384C244.326 77.2895 244.464 77.9841 244.464 78.8222V83.954H243.017V78.9772C243.017 78.1161 242.828 77.4675 242.449 77.0312C242.07 76.5835 241.525 76.3596 240.813 76.3596C240.331 76.3596 239.895 76.4801 239.504 76.7212C239.125 76.9508 238.821 77.2895 238.592 77.7372C238.373 78.185 238.264 78.7361 238.264 79.3905V83.954H236.818ZM247.384 87.7426L249.503 82.9896H249.003L245.611 75.3263H247.178L250.002 81.9047L252.981 75.3263H254.479L248.9 87.7426H247.384ZM262.337 83.954L259.806 75.3263H261.252L263.233 82.6624L262.94 82.6452L265.11 75.3263H266.746L268.933 82.6452H268.623L270.603 75.3263H272.067L269.535 83.954H268.054L265.781 76.2907H266.091L263.818 83.954H262.337ZM273.664 83.954V71.555H275.111V76.7901C275.409 76.262 275.817 75.8544 276.334 75.5674C276.85 75.2689 277.424 75.1197 278.056 75.1197C278.722 75.1197 279.296 75.2574 279.778 75.533C280.271 75.797 280.65 76.2046 280.914 76.7557C281.19 77.3067 281.328 78.0013 281.328 78.8394V83.954H279.898V78.9944C279.898 78.1218 279.715 77.4675 279.347 77.0312C278.98 76.5835 278.446 76.3596 277.746 76.3596C277.252 76.3596 276.804 76.4801 276.402 76.7212C276.012 76.9508 275.696 77.2952 275.455 77.7545C275.226 78.2022 275.111 78.7533 275.111 79.4077V83.954H273.664ZM287.376 84.1606C286.572 84.1606 285.855 83.9712 285.223 83.5923C284.592 83.2135 284.092 82.6854 283.725 82.008C283.369 81.3307 283.191 80.5385 283.191 79.6315C283.191 78.7246 283.369 77.9324 283.725 77.2551C284.081 76.5777 284.575 76.0553 285.206 75.688C285.849 75.3091 286.584 75.1197 287.41 75.1197C288.26 75.1197 288.983 75.3091 289.58 75.688C290.177 76.0553 290.631 76.549 290.941 77.169C291.262 77.7774 291.423 78.4433 291.423 79.1666C291.423 79.2814 291.423 79.4019 291.423 79.5282C291.423 79.6545 291.417 79.798 291.406 79.9587H284.276V78.8394H289.994C289.959 78.0587 289.695 77.4502 289.201 77.014C288.719 76.5662 288.111 76.3424 287.376 76.3424C286.894 76.3424 286.44 76.4514 286.015 76.6696C285.591 76.8877 285.246 77.2149 284.982 77.6511C284.73 78.0759 284.603 78.604 284.603 79.2355V79.7176C284.603 80.4294 284.735 81.0264 284.999 81.5086C285.264 81.9793 285.602 82.3352 286.015 82.5763C286.44 82.8174 286.894 82.9379 287.376 82.9379C287.984 82.9379 288.484 82.8059 288.874 82.5419C289.276 82.2663 289.569 81.8932 289.752 81.4225H291.182C291.033 81.9506 290.786 82.4213 290.441 82.8346C290.097 83.2364 289.666 83.5579 289.15 83.799C288.645 84.0401 288.053 84.1606 287.376 84.1606ZM296.464 83.954C295.948 83.954 295.5 83.8736 295.121 83.7129C294.742 83.5522 294.45 83.2824 294.243 82.9035C294.048 82.5132 293.95 81.9908 293.95 81.3364V76.549H292.452V75.3263H293.95L294.14 73.2426H295.397V75.3263H297.911V76.549H295.397V81.3364C295.397 81.876 295.506 82.2434 295.724 82.4385C295.942 82.6222 296.327 82.7141 296.878 82.7141H297.79V83.954H296.464ZM299.765 83.954V71.555H301.211V76.7901C301.51 76.262 301.917 75.8544 302.434 75.5674C302.951 75.2689 303.525 75.1197 304.156 75.1197C304.822 75.1197 305.396 75.2574 305.878 75.533C306.372 75.797 306.751 76.2046 307.015 76.7557C307.29 77.3067 307.428 78.0013 307.428 78.8394V83.954H305.999V78.9944C305.999 78.1218 305.815 77.4675 305.448 77.0312C305.08 76.5835 304.546 76.3596 303.846 76.3596C303.352 76.3596 302.905 76.4801 302.503 76.7212C302.112 76.9508 301.797 77.2952 301.556 77.7545C301.326 78.2022 301.211 78.7533 301.211 79.4077V83.954H299.765ZM313.476 84.1606C312.673 84.1606 311.955 83.9712 311.324 83.5923C310.692 83.2135 310.193 82.6854 309.825 82.008C309.47 81.3307 309.292 80.5385 309.292 79.6315C309.292 78.7246 309.47 77.9324 309.825 77.2551C310.181 76.5777 310.675 76.0553 311.306 75.688C311.949 75.3091 312.684 75.1197 313.511 75.1197C314.36 75.1197 315.084 75.3091 315.681 75.688C316.278 76.0553 316.731 76.549 317.041 77.169C317.362 77.7774 317.523 78.4433 317.523 79.1666C317.523 79.2814 317.523 79.4019 317.523 79.5282C317.523 79.6545 317.517 79.798 317.506 79.9587H310.377V78.8394H316.094C316.059 78.0587 315.795 77.4502 315.302 77.014C314.82 76.5662 314.211 76.3424 313.476 76.3424C312.994 76.3424 312.541 76.4514 312.116 76.6696C311.691 76.8877 311.347 77.2149 311.083 77.6511C310.83 78.0759 310.704 78.604 310.704 79.2355V79.7176C310.704 80.4294 310.836 81.0264 311.1 81.5086C311.364 81.9793 311.703 82.3352 312.116 82.5763C312.541 82.8174 312.994 82.9379 313.476 82.9379C314.085 82.9379 314.584 82.8059 314.975 82.5419C315.376 82.2663 315.669 81.8932 315.853 81.4225H317.282C317.133 81.9506 316.886 82.4213 316.542 82.8346C316.197 83.2364 315.767 83.5579 315.25 83.799C314.745 84.0401 314.154 84.1606 313.476 84.1606ZM319.441 83.954V75.3263H320.75L320.87 76.9795C321.065 76.5892 321.312 76.2563 321.611 75.9807C321.921 75.7052 322.282 75.4928 322.696 75.3435C323.12 75.1943 323.603 75.1197 324.142 75.1197V76.6351H323.66C323.293 76.6351 322.942 76.6868 322.61 76.7901C322.277 76.8819 321.978 77.0369 321.714 77.2551C321.461 77.4617 321.261 77.7545 321.111 78.1333C320.962 78.5122 320.887 78.9772 320.887 79.5282V83.954H319.441ZM32.4751 108.954V100.326H33.9216V108.954H32.4751ZM33.1983 98.4665C32.9113 98.4665 32.6702 98.3746 32.4751 98.1909C32.2914 97.9958 32.1995 97.7547 32.1995 97.4677C32.1995 97.1807 32.2914 96.951 32.4751 96.7788C32.6702 96.5951 32.9113 96.5033 33.1983 96.5033C33.4739 96.5033 33.7092 96.5951 33.9044 96.7788C34.0996 96.951 34.1971 97.1807 34.1971 97.4677C34.1971 97.7547 34.0996 97.9958 33.9044 98.1909C33.7092 98.3746 33.4739 98.4665 33.1983 98.4665ZM39.85 108.954C39.3334 108.954 38.8857 108.874 38.5068 108.713C38.1279 108.552 37.8352 108.282 37.6285 107.904C37.4334 107.513 37.3358 106.991 37.3358 106.336V101.549H35.8376V100.326H37.3358L37.5252 98.2426H38.7823V100.326H41.2966V101.549H38.7823V106.336C38.7823 106.876 38.8914 107.243 39.1095 107.439C39.3277 107.622 39.7123 107.714 40.2633 107.714H41.176V108.954H39.85ZM45.0619 96.8994L43.512 100.826H42.4788L43.4431 96.8994H45.0619ZM49.2981 109.161C48.5978 109.161 47.9778 109.046 47.4382 108.816C46.8987 108.575 46.4681 108.236 46.1467 107.8C45.8367 107.364 45.6415 106.853 45.5612 106.268H47.0422C47.111 106.566 47.2373 106.847 47.421 107.111C47.6047 107.364 47.8515 107.565 48.1615 107.714C48.483 107.863 48.8676 107.938 49.3153 107.938C49.7286 107.938 50.0673 107.881 50.3313 107.766C50.5954 107.639 50.7906 107.473 50.9169 107.266C51.0431 107.06 51.1063 106.842 51.1063 106.612C51.1063 106.256 51.0202 105.986 50.848 105.803C50.6872 105.619 50.4462 105.475 50.1247 105.372C49.8032 105.269 49.4186 105.171 48.9709 105.079C48.592 105.01 48.2189 104.919 47.8515 104.804C47.4956 104.689 47.1742 104.54 46.8872 104.356C46.6002 104.172 46.3705 103.943 46.1983 103.667C46.0261 103.392 45.94 103.059 45.94 102.668C45.94 102.175 46.0663 101.738 46.3189 101.36C46.5829 100.969 46.9446 100.665 47.4038 100.447C47.8745 100.229 48.4313 100.12 49.0742 100.12C49.9927 100.12 50.7389 100.344 51.3129 100.791C51.8984 101.239 52.2371 101.888 52.329 102.737H50.8996C50.8537 102.301 50.67 101.962 50.3486 101.721C50.0271 101.469 49.5966 101.342 49.057 101.342C48.5174 101.342 48.1041 101.451 47.8171 101.67C47.5416 101.888 47.4038 102.175 47.4038 102.531C47.4038 102.76 47.4784 102.961 47.6277 103.133C47.7884 103.306 48.0237 103.455 48.3337 103.581C48.6437 103.696 49.0168 103.793 49.4531 103.874C50.0156 103.989 50.5323 104.132 51.003 104.304C51.4737 104.465 51.8525 104.712 52.1395 105.045C52.438 105.378 52.5873 105.86 52.5873 106.491C52.5988 107.02 52.4667 107.484 52.1912 107.886C51.9271 108.288 51.5483 108.604 51.0546 108.833C50.561 109.052 49.9754 109.161 49.2981 109.161ZM62.0859 109.161C61.3856 109.161 60.8001 109.04 60.3294 108.799C59.8587 108.546 59.5085 108.219 59.2789 107.817C59.0493 107.416 58.9345 106.974 58.9345 106.491C58.9345 105.906 59.0838 105.412 59.3823 105.01C59.6922 104.609 60.1227 104.299 60.6738 104.08C61.2364 103.862 61.8908 103.753 62.637 103.753H64.9446C64.9446 103.225 64.8585 102.783 64.6863 102.427C64.5255 102.06 64.2845 101.79 63.963 101.618C63.6415 101.434 63.2512 101.342 62.792 101.342C62.2409 101.342 61.7587 101.48 61.3454 101.756C60.9436 102.031 60.6968 102.439 60.6049 102.978H59.1239C59.1928 102.358 59.4052 101.842 59.7611 101.428C60.117 101.004 60.5648 100.682 61.1043 100.464C61.6439 100.234 62.2065 100.12 62.792 100.12C63.5956 100.12 64.2615 100.269 64.7896 100.567C65.3177 100.854 65.7138 101.262 65.9778 101.79C66.2534 102.307 66.3911 102.915 66.3911 103.616V108.954H65.0996L65.0135 107.421C64.8987 107.662 64.7494 107.892 64.5657 108.11C64.3935 108.317 64.1869 108.5 63.9458 108.661C63.7162 108.81 63.4464 108.931 63.1364 109.023C62.8264 109.115 62.4763 109.161 62.0859 109.161ZM62.3098 107.938C62.7116 107.938 63.0733 107.858 63.3947 107.697C63.7276 107.525 64.0089 107.295 64.2385 107.008C64.4681 106.721 64.6404 106.4 64.7552 106.044C64.8814 105.676 64.9446 105.303 64.9446 104.924V104.873H62.7575C62.2065 104.873 61.7587 104.942 61.4143 105.079C61.0699 105.217 60.8231 105.401 60.6738 105.63C60.5246 105.86 60.4499 106.124 60.4499 106.423C60.4499 106.732 60.5188 107.002 60.6566 107.232C60.8058 107.45 61.0182 107.622 61.2938 107.749C61.5693 107.875 61.908 107.938 62.3098 107.938ZM73.186 108.954V100.326H74.4948L74.5981 101.566C74.8736 101.107 75.241 100.751 75.7002 100.499C76.1594 100.246 76.6703 100.12 77.2329 100.12C77.6806 100.12 78.0882 100.183 78.4556 100.309C78.8229 100.424 79.1444 100.608 79.4199 100.86C79.6955 101.101 79.9193 101.411 80.0915 101.79C80.39 101.262 80.8033 100.854 81.3314 100.567C81.8596 100.269 82.4164 100.12 83.0019 100.12C83.6792 100.12 84.2647 100.257 84.7584 100.533C85.2635 100.797 85.6539 101.205 85.9294 101.756C86.205 102.307 86.3427 103.001 86.3427 103.839V108.954H84.9134V103.994C84.9134 103.122 84.7354 102.467 84.3795 102.031C84.0236 101.583 83.5128 101.36 82.8469 101.36C82.3991 101.36 81.9973 101.48 81.6414 101.721C81.2855 101.951 81.0043 102.29 80.7976 102.737C80.591 103.185 80.4876 103.742 80.4876 104.408V108.954H79.0411V103.994C79.0411 103.122 78.8631 102.467 78.5072 102.031C78.1513 101.583 77.6462 101.36 76.9918 101.36C76.5555 101.36 76.1537 101.48 75.7863 101.721C75.4304 101.951 75.1492 102.29 74.9425 102.737C74.7359 103.185 74.6325 103.742 74.6325 104.408V108.954H73.186ZM91.6915 109.161C91.0257 109.161 90.4402 109.029 89.935 108.765C89.4414 108.5 89.0568 108.093 88.7812 107.542C88.5172 106.991 88.3851 106.296 88.3851 105.458V100.326H89.8317V105.303C89.8317 106.176 90.0154 106.83 90.3828 107.266C90.7616 107.703 91.3069 107.921 92.0187 107.921C92.5009 107.921 92.9372 107.806 93.3275 107.576C93.7179 107.335 94.0221 106.991 94.2402 106.543C94.4698 106.095 94.5846 105.544 94.5846 104.89V100.326H96.0312V108.954H94.7224L94.6363 107.439C94.3608 107.978 93.9647 108.403 93.4481 108.713C92.9314 109.011 92.3459 109.161 91.6915 109.161ZM98.4118 108.954V96.555H99.8584V108.954H98.4118ZM105.656 108.954C105.139 108.954 104.692 108.874 104.313 108.713C103.934 108.552 103.641 108.282 103.434 107.904C103.239 107.513 103.142 106.991 103.142 106.336V101.549H101.643V100.326H103.142L103.331 98.2426H104.588V100.326H107.102V101.549H104.588V106.336C104.588 106.876 104.697 107.243 104.915 107.439C105.134 107.622 105.518 107.714 106.069 107.714H106.982V108.954H105.656ZM109.111 108.954V100.326H110.558V108.954H109.111ZM109.835 98.4665C109.548 98.4665 109.306 98.3746 109.111 98.1909C108.928 97.9958 108.836 97.7547 108.836 97.4677C108.836 97.1807 108.928 96.951 109.111 96.7788C109.306 96.5951 109.548 96.5033 109.835 96.5033C110.11 96.5033 110.345 96.5951 110.541 96.7788C110.736 96.951 110.833 97.1807 110.833 97.4677C110.833 97.7547 110.736 97.9958 110.541 98.1909C110.345 98.3746 110.11 98.4665 109.835 98.4665ZM113.145 104.511V103.288H119.965V104.511H113.145ZM122.393 108.954V100.326H123.702L123.788 101.842C124.064 101.302 124.454 100.883 124.959 100.585C125.476 100.275 126.061 100.12 126.716 100.12C127.393 100.12 127.979 100.252 128.472 100.516C128.966 100.78 129.35 101.187 129.626 101.738C129.902 102.29 130.039 102.984 130.039 103.822V108.954H128.593V103.977C128.593 103.116 128.403 102.467 128.024 102.031C127.646 101.583 127.1 101.36 126.388 101.36C125.906 101.36 125.47 101.48 125.08 101.721C124.701 101.951 124.397 102.29 124.167 102.737C123.949 103.185 123.84 103.736 123.84 104.39V108.954H122.393ZM135.106 109.161C134.406 109.161 133.821 109.04 133.35 108.799C132.879 108.546 132.529 108.219 132.299 107.817C132.07 107.416 131.955 106.974 131.955 106.491C131.955 105.906 132.104 105.412 132.403 105.01C132.713 104.609 133.143 104.299 133.694 104.08C134.257 103.862 134.911 103.753 135.657 103.753H137.965C137.965 103.225 137.879 102.783 137.707 102.427C137.546 102.06 137.305 101.79 136.983 101.618C136.662 101.434 136.272 101.342 135.812 101.342C135.261 101.342 134.779 101.48 134.366 101.756C133.964 102.031 133.717 102.439 133.625 102.978H132.144C132.213 102.358 132.426 101.842 132.782 101.428C133.137 101.004 133.585 100.682 134.125 100.464C134.664 100.234 135.227 100.12 135.812 100.12C136.616 100.12 137.282 100.269 137.81 100.567C138.338 100.854 138.734 101.262 138.998 101.79C139.274 102.307 139.412 102.915 139.412 103.616V108.954H138.12L138.034 107.421C137.919 107.662 137.77 107.892 137.586 108.11C137.414 108.317 137.207 108.5 136.966 108.661C136.737 108.81 136.467 108.931 136.157 109.023C135.847 109.115 135.497 109.161 135.106 109.161ZM135.33 107.938C135.732 107.938 136.094 107.858 136.415 107.697C136.748 107.525 137.029 107.295 137.259 107.008C137.489 106.721 137.661 106.4 137.776 106.044C137.902 105.676 137.965 105.303 137.965 104.924V104.873H135.778C135.227 104.873 134.779 104.942 134.435 105.079C134.09 105.217 133.844 105.401 133.694 105.63C133.545 105.86 133.47 106.124 133.47 106.423C133.47 106.732 133.539 107.002 133.677 107.232C133.826 107.45 134.039 107.622 134.314 107.749C134.59 107.875 134.928 107.938 135.33 107.938ZM144.806 108.954C144.29 108.954 143.842 108.874 143.463 108.713C143.084 108.552 142.792 108.282 142.585 107.904C142.39 107.513 142.292 106.991 142.292 106.336V101.549H140.794V100.326H142.292L142.482 98.2426H143.739V100.326H146.253V101.549H143.739V106.336C143.739 106.876 143.848 107.243 144.066 107.439C144.284 107.622 144.669 107.714 145.22 107.714H146.132V108.954H144.806ZM148.262 108.954V100.326H149.708V108.954H148.262ZM148.985 98.4665C148.698 98.4665 148.457 98.3746 148.262 98.1909C148.078 97.9958 147.986 97.7547 147.986 97.4677C147.986 97.1807 148.078 96.951 148.262 96.7788C148.457 96.5951 148.698 96.5033 148.985 96.5033C149.261 96.5033 149.496 96.5951 149.691 96.7788C149.886 96.951 149.984 97.1807 149.984 97.4677C149.984 97.7547 149.886 97.9958 149.691 98.1909C149.496 98.3746 149.261 98.4665 148.985 98.4665ZM156.119 109.161C155.315 109.161 154.592 108.977 153.949 108.61C153.306 108.231 152.795 107.703 152.416 107.025C152.049 106.348 151.865 105.556 151.865 104.649C151.865 103.73 152.055 102.932 152.434 102.255C152.813 101.578 153.323 101.055 153.966 100.688C154.621 100.309 155.35 100.12 156.153 100.12C156.969 100.12 157.698 100.309 158.34 100.688C158.983 101.055 159.488 101.578 159.856 102.255C160.223 102.921 160.407 103.719 160.407 104.649C160.407 105.556 160.218 106.348 159.839 107.025C159.471 107.703 158.96 108.231 158.306 108.61C157.663 108.977 156.934 109.161 156.119 109.161ZM156.119 107.921C156.624 107.921 157.089 107.8 157.514 107.559C157.939 107.307 158.277 106.939 158.53 106.457C158.794 105.963 158.926 105.355 158.926 104.632C158.926 103.908 158.8 103.306 158.547 102.823C158.295 102.33 157.956 101.962 157.531 101.721C157.106 101.48 156.647 101.36 156.153 101.36C155.671 101.36 155.212 101.48 154.776 101.721C154.351 101.962 154.007 102.33 153.742 102.823C153.478 103.306 153.346 103.914 153.346 104.649C153.346 105.361 153.478 105.963 153.742 106.457C154.007 106.939 154.345 107.307 154.759 107.559C155.183 107.8 155.637 107.921 156.119 107.921ZM162.435 108.954V100.326H163.744L163.83 101.842C164.106 101.302 164.496 100.883 165.001 100.585C165.518 100.275 166.103 100.12 166.758 100.12C167.435 100.12 168.02 100.252 168.514 100.516C169.008 100.78 169.392 101.187 169.668 101.738C169.943 102.29 170.081 102.984 170.081 103.822V108.954H168.635V103.977C168.635 103.116 168.445 102.467 168.066 102.031C167.687 101.583 167.142 101.36 166.43 101.36C165.948 101.36 165.512 101.48 165.122 101.721C164.743 101.951 164.438 102.29 164.209 102.737C163.991 103.185 163.882 103.736 163.882 104.39V108.954H162.435ZM175.148 109.161C174.448 109.161 173.862 109.04 173.392 108.799C172.921 108.546 172.571 108.219 172.341 107.817C172.112 107.416 171.997 106.974 171.997 106.491C171.997 105.906 172.146 105.412 172.445 105.01C172.755 104.609 173.185 104.299 173.736 104.08C174.299 103.862 174.953 103.753 175.699 103.753H178.007C178.007 103.225 177.921 102.783 177.749 102.427C177.588 102.06 177.347 101.79 177.025 101.618C176.704 101.434 176.314 101.342 175.854 101.342C175.303 101.342 174.821 101.48 174.408 101.756C174.006 102.031 173.759 102.439 173.667 102.978H172.186C172.255 102.358 172.468 101.842 172.823 101.428C173.179 101.004 173.627 100.682 174.167 100.464C174.706 100.234 175.269 100.12 175.854 100.12C176.658 100.12 177.324 100.269 177.852 100.567C178.38 100.854 178.776 101.262 179.04 101.79C179.316 102.307 179.453 102.915 179.453 103.616V108.954H178.162L178.076 107.421C177.961 107.662 177.812 107.892 177.628 108.11C177.456 108.317 177.249 108.5 177.008 108.661C176.779 108.81 176.509 108.931 176.199 109.023C175.889 109.115 175.539 109.161 175.148 109.161ZM175.372 107.938C175.774 107.938 176.136 107.858 176.457 107.697C176.79 107.525 177.071 107.295 177.301 107.008C177.53 106.721 177.703 106.4 177.818 106.044C177.944 105.676 178.007 105.303 178.007 104.924V104.873H175.82C175.269 104.873 174.821 104.942 174.477 105.079C174.132 105.217 173.885 105.401 173.736 105.63C173.587 105.86 173.512 106.124 173.512 106.423C173.512 106.732 173.581 107.002 173.719 107.232C173.868 107.45 174.081 107.622 174.356 107.749C174.632 107.875 174.97 107.938 175.372 107.938ZM181.674 108.954V96.555H183.121V108.954H181.674ZM194.646 109.161C194.164 109.161 193.722 109.092 193.32 108.954C192.93 108.816 192.58 108.627 192.27 108.386C191.971 108.145 191.724 107.858 191.529 107.525L191.391 108.954H190.083V96.555H191.529V101.738C191.805 101.302 192.201 100.923 192.717 100.602C193.234 100.28 193.877 100.12 194.646 100.12C195.496 100.12 196.236 100.315 196.868 100.705C197.499 101.096 197.987 101.635 198.331 102.324C198.676 103.001 198.848 103.776 198.848 104.649C198.848 105.521 198.676 106.296 198.331 106.974C197.987 107.651 197.493 108.185 196.85 108.575C196.219 108.965 195.484 109.161 194.646 109.161ZM194.474 107.904C195.048 107.904 195.553 107.771 195.989 107.507C196.426 107.232 196.764 106.847 197.005 106.354C197.258 105.86 197.384 105.286 197.384 104.632C197.384 103.977 197.258 103.409 197.005 102.927C196.764 102.433 196.426 102.054 195.989 101.79C195.553 101.515 195.048 101.377 194.474 101.377C193.9 101.377 193.395 101.515 192.959 101.79C192.522 102.054 192.184 102.433 191.943 102.927C191.701 103.409 191.581 103.977 191.581 104.632C191.581 105.286 191.701 105.86 191.943 106.354C192.184 106.847 192.522 107.232 192.959 107.507C193.395 107.771 193.9 107.904 194.474 107.904ZM200.879 108.954V100.326H202.188L202.309 101.98C202.504 101.589 202.751 101.256 203.049 100.981C203.359 100.705 203.721 100.493 204.134 100.344C204.559 100.194 205.041 100.12 205.581 100.12V101.635H205.098C204.731 101.635 204.381 101.687 204.048 101.79C203.715 101.882 203.417 102.037 203.152 102.255C202.9 102.462 202.699 102.754 202.55 103.133C202.401 103.512 202.326 103.977 202.326 104.528V108.954H200.879ZM210.061 109.161C209.361 109.161 208.775 109.04 208.304 108.799C207.834 108.546 207.483 108.219 207.254 107.817C207.024 107.416 206.909 106.974 206.909 106.491C206.909 105.906 207.059 105.412 207.357 105.01C207.667 104.609 208.098 104.299 208.649 104.08C209.211 103.862 209.866 103.753 210.612 103.753H212.92C212.92 103.225 212.833 102.783 212.661 102.427C212.5 102.06 212.259 101.79 211.938 101.618C211.616 101.434 211.226 101.342 210.767 101.342C210.216 101.342 209.734 101.48 209.32 101.756C208.919 102.031 208.672 102.439 208.58 102.978H207.099C207.168 102.358 207.38 101.842 207.736 101.428C208.092 101.004 208.54 100.682 209.079 100.464C209.619 100.234 210.181 100.12 210.767 100.12C211.571 100.12 212.236 100.269 212.765 100.567C213.293 100.854 213.689 101.262 213.953 101.79C214.228 102.307 214.366 102.915 214.366 103.616V108.954H213.075L212.988 107.421C212.874 107.662 212.724 107.892 212.541 108.11C212.368 108.317 212.162 108.5 211.921 108.661C211.691 108.81 211.421 108.931 211.111 109.023C210.801 109.115 210.451 109.161 210.061 109.161ZM210.285 107.938C210.687 107.938 211.048 107.858 211.37 107.697C211.703 107.525 211.984 107.295 212.213 107.008C212.443 106.721 212.615 106.4 212.73 106.044C212.856 105.676 212.92 105.303 212.92 104.924V104.873H210.732C210.181 104.873 209.734 104.942 209.389 105.079C209.045 105.217 208.798 105.401 208.649 105.63C208.5 105.86 208.425 106.124 208.425 106.423C208.425 106.732 208.494 107.002 208.632 107.232C208.781 107.45 208.993 107.622 209.269 107.749C209.544 107.875 209.883 107.938 210.285 107.938ZM216.587 108.954V100.326H217.895L217.982 101.842C218.257 101.302 218.647 100.883 219.153 100.585C219.669 100.275 220.255 100.12 220.909 100.12C221.586 100.12 222.172 100.252 222.666 100.516C223.159 100.78 223.544 101.187 223.819 101.738C224.095 102.29 224.233 102.984 224.233 103.822V108.954H222.786V103.977C222.786 103.116 222.597 102.467 222.218 102.031C221.839 101.583 221.294 101.36 220.582 101.36C220.1 101.36 219.663 101.48 219.273 101.721C218.894 101.951 218.59 102.29 218.36 102.737C218.142 103.185 218.033 103.736 218.033 104.39V108.954H216.587ZM230.316 109.161C229.478 109.161 228.737 108.965 228.094 108.575C227.463 108.173 226.969 107.634 226.613 106.956C226.269 106.268 226.097 105.487 226.097 104.614C226.097 103.753 226.269 102.984 226.613 102.307C226.969 101.629 227.463 101.096 228.094 100.705C228.737 100.315 229.483 100.12 230.333 100.12C231.033 100.12 231.653 100.263 232.193 100.55C232.732 100.837 233.146 101.239 233.433 101.756V96.555H234.879V108.954H233.571L233.433 107.542C233.261 107.817 233.031 108.081 232.744 108.334C232.457 108.575 232.113 108.776 231.711 108.937C231.309 109.086 230.844 109.161 230.316 109.161ZM230.471 107.904C231.045 107.904 231.55 107.771 231.986 107.507C232.434 107.232 232.778 106.847 233.019 106.354C233.261 105.86 233.381 105.286 233.381 104.632C233.381 103.977 233.261 103.409 233.019 102.927C232.778 102.433 232.434 102.054 231.986 101.79C231.55 101.515 231.045 101.377 230.471 101.377C229.92 101.377 229.42 101.515 228.973 101.79C228.536 102.054 228.192 102.433 227.939 102.927C227.698 103.409 227.578 103.977 227.578 104.632C227.578 105.286 227.698 105.86 227.939 106.354C228.192 106.847 228.536 107.232 228.973 107.507C229.42 107.771 229.92 107.904 230.471 107.904ZM237.427 108.954V100.326H238.873V108.954H237.427ZM238.15 98.4665C237.863 98.4665 237.622 98.3746 237.427 98.1909C237.243 97.9958 237.151 97.7547 237.151 97.4677C237.151 97.1807 237.243 96.951 237.427 96.7788C237.622 96.5951 237.863 96.5033 238.15 96.5033C238.426 96.5033 238.661 96.5951 238.856 96.7788C239.051 96.951 239.149 97.1807 239.149 97.4677C239.149 97.7547 239.051 97.9958 238.856 98.1909C238.661 98.3746 238.426 98.4665 238.15 98.4665ZM241.392 108.954V100.326H242.701L242.787 101.842C243.062 101.302 243.453 100.883 243.958 100.585C244.475 100.275 245.06 100.12 245.715 100.12C246.392 100.12 246.977 100.252 247.471 100.516C247.965 100.78 248.349 101.187 248.625 101.738C248.9 102.29 249.038 102.984 249.038 103.822V108.954H247.592V103.977C247.592 103.116 247.402 102.467 247.023 102.031C246.644 101.583 246.099 101.36 245.387 101.36C244.905 101.36 244.469 101.48 244.079 101.721C243.7 101.951 243.395 102.29 243.166 102.737C242.948 103.185 242.839 103.736 242.839 104.39V108.954H241.392ZM254.691 112.949C253.91 112.949 253.221 112.846 252.624 112.639C252.027 112.444 251.562 112.14 251.229 111.727C250.896 111.313 250.73 110.802 250.73 110.194C250.73 109.93 250.782 109.649 250.885 109.35C251 109.063 251.189 108.776 251.453 108.489C251.729 108.202 252.113 107.944 252.607 107.714L253.589 108.3C252.992 108.552 252.601 108.839 252.418 109.161C252.234 109.482 252.142 109.781 252.142 110.056C252.142 110.435 252.251 110.751 252.469 111.003C252.687 111.256 252.986 111.445 253.365 111.572C253.755 111.698 254.197 111.761 254.691 111.761C255.173 111.761 255.592 111.686 255.948 111.537C256.304 111.399 256.579 111.204 256.774 110.952C256.97 110.711 257.067 110.418 257.067 110.073C257.067 109.683 256.918 109.35 256.619 109.075C256.332 108.81 255.776 108.655 254.949 108.61C254.26 108.564 253.686 108.5 253.227 108.42C252.779 108.34 252.406 108.248 252.108 108.145C251.809 108.03 251.557 107.904 251.35 107.766C251.155 107.628 250.977 107.484 250.816 107.335V106.939L252.486 105.269L253.726 105.716L252.022 107.284L252.245 106.681C252.372 106.773 252.492 106.859 252.607 106.939C252.722 107.008 252.877 107.077 253.072 107.146C253.267 107.203 253.537 107.255 253.881 107.301C254.226 107.347 254.691 107.393 255.276 107.439C256.045 107.496 256.665 107.634 257.136 107.852C257.618 108.07 257.963 108.363 258.169 108.73C258.387 109.097 258.497 109.528 258.497 110.022C258.497 110.515 258.359 110.98 258.083 111.417C257.819 111.864 257.406 112.232 256.843 112.519C256.292 112.806 255.575 112.949 254.691 112.949ZM254.674 106.25C253.95 106.25 253.336 106.113 252.831 105.837C252.326 105.561 251.941 105.194 251.677 104.735C251.413 104.264 251.281 103.748 251.281 103.185C251.281 102.611 251.413 102.094 251.677 101.635C251.941 101.176 252.326 100.809 252.831 100.533C253.336 100.257 253.95 100.12 254.674 100.12C255.397 100.12 256.011 100.257 256.516 100.533C257.021 100.809 257.406 101.176 257.67 101.635C257.934 102.094 258.066 102.611 258.066 103.185C258.066 103.748 257.934 104.264 257.67 104.735C257.406 105.194 257.021 105.561 256.516 105.837C256.011 106.113 255.397 106.25 254.674 106.25ZM254.674 105.062C255.282 105.062 255.764 104.901 256.12 104.58C256.487 104.258 256.671 103.793 256.671 103.185C256.671 102.577 256.487 102.117 256.12 101.807C255.764 101.486 255.282 101.325 254.674 101.325C254.065 101.325 253.571 101.486 253.193 101.807C252.825 102.117 252.641 102.577 252.641 103.185C252.641 103.793 252.825 104.258 253.193 104.58C253.571 104.901 254.065 105.062 254.674 105.062ZM256.068 101.549L255.638 100.326H259.185V101.411L256.068 101.549ZM261.349 109.04C261.062 109.04 260.821 108.948 260.626 108.765C260.442 108.569 260.351 108.334 260.351 108.058C260.351 107.783 260.442 107.553 260.626 107.37C260.821 107.174 261.062 107.077 261.349 107.077C261.636 107.077 261.872 107.174 262.055 107.37C262.239 107.553 262.331 107.783 262.331 108.058C262.331 108.334 262.239 108.569 262.055 108.765C261.872 108.948 261.636 109.04 261.349 109.04Z" fill="black"/>
</g>
<defs>
<clipPath id="clip0_153_943">
<rect width="353" height="300" fill="white"/>
</clipPath>
<clipPath id="clip1_153_943">
<rect width="327.196" height="41.8221" fill="white" transform="translate(29.9019 279.755)"/>
</clipPath>
<clipPath id="clip2_153_943">
<rect width="327.196" height="41.8221" fill="white" transform="translate(29.9019 208.411)"/>
</clipPath>
<clipPath id="clip3_153_943">
<rect width="327.196" height="41.8221" fill="white" transform="translate(29.9019 137.068)"/>
</clipPath>
</defs>
</svg>
