<svg width="585" height="300" viewBox="0 0 585 300" fill="none" xmlns="http://www.w3.org/2000/svg">
<g clip-path="url(#clip0_153_496)">
<rect width="585" height="300" fill="white"/>
<g clip-path="url(#clip1_153_496)">
<rect width="585" height="406.215" fill="#F8F8F8"/>
<g clip-path="url(#clip2_153_496)">
<path fill-rule="evenodd" clip-rule="evenodd" d="M28.4288 23.3748C28.4288 21.2843 30.1288 19.5843 32.2193 19.5843C34.3097 19.5843 36.0098 21.2843 36.0098 23.3748C36.0098 25.4652 34.3097 27.1653 32.2193 27.1653C30.1288 27.1653 28.4288 25.4652 28.4288 23.3748M38.3517 28.6139L36.2069 26.4685C36.8721 25.6131 37.2733 24.541 37.2733 23.3748C37.2733 20.5881 35.0059 18.3208 32.2193 18.3208C29.4326 18.3208 27.1653 20.5881 27.1653 23.3748C27.1653 26.1614 29.4326 28.4288 32.2193 28.4288C33.3855 28.4288 34.4576 28.0276 35.313 27.3624L37.4584 29.5072C37.5816 29.6304 37.7433 29.6923 37.905 29.6923C38.0668 29.6923 38.2285 29.6304 38.3517 29.5072C38.5987 29.2602 38.5987 28.8609 38.3517 28.6139" fill="black"/>
<path opacity="0.4" d="M48.148 26.7951C47.694 26.7951 47.299 26.7126 46.9629 26.5475C46.6268 26.3824 46.3673 26.1524 46.1846 25.8576C46.0018 25.5628 45.9104 25.2208 45.9104 24.8316H46.6887C46.6887 25.0734 46.7447 25.2974 46.8567 25.5038C46.9688 25.7043 47.1309 25.8664 47.3432 25.9902C47.5613 26.1082 47.8296 26.1671 48.148 26.1671C48.4252 26.1671 48.661 26.1229 48.8556 26.0345C49.0561 25.9401 49.2064 25.8134 49.3067 25.6542C49.4128 25.495 49.4659 25.3151 49.4659 25.1146C49.4659 24.8906 49.4157 24.7048 49.3155 24.5574C49.2212 24.4041 49.0885 24.2803 48.9175 24.186C48.7465 24.0857 48.549 23.9973 48.3249 23.9206C48.1009 23.844 47.8591 23.7644 47.5997 23.6818C47.0808 23.5167 46.7034 23.3104 46.4676 23.0627C46.2376 22.8092 46.1226 22.4849 46.1226 22.0898C46.1226 21.7537 46.1993 21.4589 46.3526 21.2054C46.5118 20.9518 46.7359 20.7543 47.0248 20.6128C47.3196 20.4654 47.6675 20.3917 48.0684 20.3917C48.4635 20.3917 48.8055 20.4654 49.0944 20.6128C49.3892 20.7602 49.6192 20.9636 49.7843 21.2231C49.9494 21.4766 50.0319 21.7714 50.0319 22.1075H49.2536C49.2536 21.9365 49.2094 21.7685 49.1209 21.6034C49.0325 21.4383 48.8969 21.3027 48.7141 21.1965C48.5372 21.0845 48.3131 21.0285 48.0419 21.0285C47.8178 21.0226 47.6174 21.0609 47.4405 21.1435C47.2695 21.2201 47.1339 21.3321 47.0336 21.4796C46.9393 21.627 46.8921 21.8068 46.8921 22.0191C46.8921 22.2195 46.9334 22.3817 47.0159 22.5055C47.1044 22.6293 47.2282 22.7355 47.3874 22.8239C47.5525 22.9065 47.7441 22.9831 47.9623 23.0539C48.1805 23.1246 48.4222 23.2042 48.6875 23.2927C48.9883 23.3929 49.2536 23.5167 49.4836 23.6641C49.7194 23.8057 49.9022 23.9884 50.0319 24.2125C50.1675 24.4366 50.2353 24.7225 50.2353 25.0704C50.2353 25.3652 50.1557 25.6453 49.9965 25.9106C49.8432 26.1701 49.6133 26.3824 49.3067 26.5475C49.0001 26.7126 48.6138 26.7951 48.148 26.7951ZM53.2242 26.7951C52.8115 26.7951 52.4459 26.6949 52.1275 26.4944C51.8091 26.2939 51.5585 26.0109 51.3757 25.6453C51.1988 25.2797 51.1104 24.8523 51.1104 24.3629C51.1104 23.8735 51.1988 23.446 51.3757 23.0804C51.5585 22.7148 51.8091 22.4318 52.1275 22.2313C52.4518 22.0309 52.8233 21.9306 53.2419 21.9306C53.69 21.9306 54.0644 22.0309 54.3652 22.2313C54.6659 22.4318 54.8929 22.7001 55.0462 23.0362C55.1995 23.3723 55.2761 23.7408 55.2761 24.1418C55.2761 24.2007 55.2761 24.2597 55.2761 24.3186C55.2761 24.3776 55.2732 24.4484 55.2673 24.5309H51.6676V23.956H54.5509C54.5391 23.502 54.4064 23.1571 54.1529 22.9212C53.9052 22.6795 53.5957 22.5586 53.2242 22.5586C52.9766 22.5586 52.7466 22.6205 52.5343 22.7443C52.328 22.8622 52.1599 23.0391 52.0302 23.275C51.9005 23.5108 51.8356 23.8057 51.8356 24.1594V24.4071C51.8356 24.7962 51.9005 25.1235 52.0302 25.3888C52.1599 25.6483 52.328 25.8428 52.5343 25.9726C52.7466 26.1023 52.9766 26.1671 53.2242 26.1671C53.5544 26.1671 53.8139 26.1052 54.0025 25.9814C54.1912 25.8517 54.3298 25.6689 54.4182 25.433H55.1523C55.0816 25.6925 54.9577 25.9254 54.7809 26.1318C54.6099 26.3381 54.3917 26.5003 54.1264 26.6182C53.8669 26.7361 53.5662 26.7951 53.2242 26.7951ZM57.7562 26.7951C57.4024 26.7951 57.1076 26.7302 56.8717 26.6005C56.6359 26.4649 56.459 26.288 56.3411 26.0699C56.2231 25.8458 56.1642 25.607 56.1642 25.3534C56.1642 25.0468 56.2408 24.7874 56.3941 24.5751C56.5533 24.357 56.7745 24.1919 57.0575 24.0798C57.3405 23.9678 57.6707 23.9118 58.0481 23.9118H59.2067C59.2067 23.6111 59.1713 23.3605 59.1006 23.16C59.0298 22.9595 58.9148 22.8092 58.7556 22.7089C58.5964 22.6087 58.3842 22.5586 58.1188 22.5586C57.8535 22.5586 57.6265 22.6264 57.4378 22.762C57.2491 22.8917 57.1312 23.0863 57.084 23.3457H56.3234C56.3588 23.0391 56.4619 22.7826 56.6329 22.5763C56.8039 22.364 57.0192 22.2048 57.2786 22.0987C57.5439 21.9866 57.824 21.9306 58.1188 21.9306C58.5375 21.9306 58.8824 22.0073 59.1536 22.1606C59.4249 22.308 59.6253 22.5173 59.755 22.7885C59.8848 23.0539 59.9496 23.3693 59.9496 23.7349V26.689H59.2863L59.2421 25.893C59.1831 26.0168 59.1065 26.1347 59.0121 26.2467C58.9237 26.3529 58.8175 26.4472 58.6937 26.5298C58.5699 26.6123 58.4284 26.6772 58.2692 26.7243C58.1159 26.7715 57.9449 26.7951 57.7562 26.7951ZM57.8623 26.1671C58.0569 26.1671 58.2367 26.1229 58.4018 26.0345C58.5669 25.946 58.7085 25.8281 58.8264 25.6807C58.9502 25.5274 59.0445 25.3564 59.1094 25.1677C59.1743 24.979 59.2067 24.7815 59.2067 24.5751V24.4867H58.11C57.8328 24.4867 57.6058 24.5221 57.4289 24.5928C57.258 24.6636 57.1341 24.7638 57.0575 24.8935C56.9808 25.0174 56.9425 25.1589 56.9425 25.3181C56.9425 25.4891 56.9779 25.6394 57.0486 25.7691C57.1194 25.893 57.2226 25.9902 57.3582 26.061C57.4997 26.1318 57.6677 26.1671 57.8623 26.1671ZM61.1771 26.689V22.0368H61.8493L61.9023 22.8858C62.0085 22.6736 62.147 22.4967 62.318 22.3552C62.489 22.2137 62.6954 22.1075 62.9371 22.0368C63.1848 21.966 63.4619 21.9306 63.7685 21.9306V22.7089H63.3086C63.1317 22.7089 62.9607 22.7325 62.7956 22.7797C62.6305 22.8269 62.4802 22.9035 62.3446 23.0097C62.2148 23.1158 62.1116 23.2602 62.035 23.443C61.9583 23.6258 61.92 23.8558 61.92 24.1329V26.689H61.1771ZM66.4669 26.7951C66.0424 26.7951 65.665 26.6949 65.3348 26.4944C65.0046 26.288 64.7452 26.002 64.5565 25.6365C64.3678 25.2709 64.2735 24.8464 64.2735 24.3629C64.2735 23.8735 64.3678 23.4489 64.5565 23.0893C64.7452 22.7237 65.0046 22.4407 65.3348 22.2402C65.665 22.0338 66.0424 21.9306 66.4669 21.9306C66.9976 21.9306 67.4398 22.0721 67.7936 22.3552C68.1533 22.6382 68.3832 23.0185 68.4835 23.4961H67.7228C67.658 23.2013 67.5076 22.9743 67.2718 22.8151C67.0418 22.65 66.7706 22.5674 66.4581 22.5674C66.1868 22.5674 65.9421 22.6352 65.724 22.7709C65.5117 22.9065 65.3437 23.1069 65.2198 23.3723C65.096 23.6376 65.0341 23.9678 65.0341 24.3629C65.0341 24.6577 65.0695 24.9201 65.1402 25.15C65.211 25.3741 65.3083 25.5628 65.4321 25.7161C65.5618 25.8635 65.7122 25.9755 65.8832 26.0522C66.0601 26.1288 66.2517 26.1671 66.4581 26.1671C66.6703 26.1671 66.862 26.1318 67.033 26.061C67.2099 25.9844 67.3573 25.8753 67.4752 25.7338C67.599 25.5922 67.6816 25.4242 67.7228 25.2296H68.4835C68.3891 25.6954 68.1592 26.0728 67.7936 26.3617C67.4339 26.6506 66.9917 26.7951 66.4669 26.7951ZM69.5638 26.689V20.3209H70.3067V22.7885C70.46 22.5232 70.6694 22.3139 70.9347 22.1606C71.2 22.0073 71.486 21.9306 71.7926 21.9306C72.1523 21.9306 72.4559 21.9984 72.7036 22.1341C72.9571 22.2638 73.1488 22.4642 73.2785 22.7355C73.4141 23.0067 73.4819 23.3516 73.4819 23.7703V26.689H72.7478V23.8499C72.7478 23.4253 72.6476 23.1069 72.4471 22.8947C72.2466 22.6765 71.9754 22.5674 71.6334 22.5674C71.3917 22.5674 71.1705 22.6264 70.9701 22.7443C70.7696 22.8564 70.6075 23.0244 70.4836 23.2485C70.3657 23.4725 70.3067 23.7437 70.3067 24.0621V26.689H69.5638Z" fill="black"/>
</g>
<rect x="25.27" y="107.397" width="899.611" height="499.082" rx="6.3175" fill="white"/>
<g opacity="0.1">
<path fill-rule="evenodd" clip-rule="evenodd" d="M82.1274 170.888C82.1274 170.714 82.2689 170.572 82.4433 170.572H899.296C899.47 170.572 899.611 170.714 899.611 170.888V170.888C899.611 171.063 899.47 171.204 899.295 171.204H82.4433C82.2688 171.204 82.1274 171.063 82.1274 170.888V170.888Z" fill="black"/>
<path fill-rule="evenodd" clip-rule="evenodd" d="M82.1274 232.8C82.1274 232.625 82.2689 232.484 82.4433 232.484H899.296C899.47 232.484 899.611 232.625 899.611 232.8V232.8C899.611 232.974 899.47 233.116 899.295 233.116H82.4433C82.2688 233.116 82.1274 232.974 82.1274 232.8V232.8Z" fill="black"/>
<path fill-rule="evenodd" clip-rule="evenodd" d="M82.1274 294.711C82.1274 294.537 82.2689 294.395 82.4433 294.395H899.296C899.47 294.395 899.611 294.537 899.611 294.711V294.711C899.611 294.886 899.47 295.027 899.295 295.027H82.4433C82.2688 295.027 82.1274 294.886 82.1274 294.711V294.711Z" fill="black"/>
<path fill-rule="evenodd" clip-rule="evenodd" d="M82.4434 170.572C82.6179 170.572 82.7593 170.714 82.7593 170.888V542.357C82.7593 542.531 82.6179 542.673 82.4434 542.673V542.673C82.2689 542.673 82.1275 542.531 82.1275 542.357V170.888C82.1275 170.714 82.2689 170.572 82.4434 170.572V170.572Z" fill="black"/>
<path fill-rule="evenodd" clip-rule="evenodd" d="M150.672 170.572C150.847 170.572 150.988 170.714 150.988 170.888V542.357C150.988 542.531 150.847 542.673 150.672 542.673V542.673C150.498 542.673 150.357 542.531 150.357 542.357V170.888C150.357 170.714 150.498 170.572 150.672 170.572V170.572Z" fill="black"/>
<path fill-rule="evenodd" clip-rule="evenodd" d="M218.901 170.572C219.076 170.572 219.217 170.714 219.217 170.888V542.357C219.217 542.531 219.076 542.673 218.901 542.673V542.673C218.727 542.673 218.585 542.531 218.585 542.357V170.888C218.585 170.714 218.727 170.572 218.901 170.572V170.572Z" fill="black"/>
<path fill-rule="evenodd" clip-rule="evenodd" d="M286.498 170.572C286.673 170.572 286.814 170.714 286.814 170.888V542.357C286.814 542.531 286.673 542.673 286.498 542.673V542.673C286.324 542.673 286.182 542.531 286.182 542.357V170.888C286.182 170.714 286.324 170.572 286.498 170.572V170.572Z" fill="black"/>
<path fill-rule="evenodd" clip-rule="evenodd" d="M354.728 170.572C354.902 170.572 355.043 170.714 355.043 170.888V542.357C355.043 542.531 354.902 542.673 354.728 542.673V542.673C354.553 542.673 354.412 542.531 354.412 542.357V170.888C354.412 170.714 354.553 170.572 354.728 170.572V170.572Z" fill="black"/>
<path fill-rule="evenodd" clip-rule="evenodd" d="M422.956 170.572C423.131 170.572 423.272 170.714 423.272 170.888V542.357C423.272 542.531 423.131 542.673 422.956 542.673V542.673C422.782 542.673 422.64 542.531 422.64 542.357V170.888C422.64 170.714 422.782 170.572 422.956 170.572V170.572Z" fill="black"/>
<path fill-rule="evenodd" clip-rule="evenodd" d="M491.185 170.572C491.36 170.572 491.501 170.714 491.501 170.888V542.357C491.501 542.531 491.36 542.673 491.185 542.673V542.673C491.011 542.673 490.869 542.531 490.869 542.357V170.888C490.869 170.714 491.011 170.572 491.185 170.572V170.572Z" fill="black"/>
<path fill-rule="evenodd" clip-rule="evenodd" d="M558.782 170.572C558.957 170.572 559.098 170.714 559.098 170.888V542.357C559.098 542.531 558.957 542.673 558.782 542.673V542.673C558.608 542.673 558.466 542.531 558.466 542.357V170.888C558.466 170.714 558.608 170.572 558.782 170.572V170.572Z" fill="black"/>
</g>
<g clip-path="url(#clip3_153_496)">
<path opacity="0.4" d="M45.6022 173.255L47.8752 167.701H44.4789V167.064H48.6358V167.621L46.3893 173.255H45.6022ZM51.7704 173.361C51.2574 173.361 50.8152 173.228 50.4438 172.963C50.0782 172.692 49.7952 172.317 49.5947 171.84C49.3942 171.356 49.294 170.796 49.294 170.159C49.294 169.523 49.3942 168.965 49.5947 168.488C49.7952 168.004 50.0782 167.63 50.4438 167.364C50.8152 167.093 51.2574 166.958 51.7704 166.958C52.2834 166.958 52.7227 167.093 53.0883 167.364C53.4538 167.63 53.7339 168.004 53.9285 168.488C54.129 168.965 54.2292 169.523 54.2292 170.159C54.2292 170.796 54.129 171.356 53.9285 171.84C53.7339 172.317 53.4538 172.692 53.0883 172.963C52.7227 173.228 52.2834 173.361 51.7704 173.361ZM51.7704 172.707C52.0947 172.707 52.3836 172.606 52.6372 172.406C52.8907 172.199 53.0912 171.908 53.2386 171.53C53.3919 171.147 53.4686 170.69 53.4686 170.159C53.4686 169.623 53.3919 169.166 53.2386 168.788C53.0912 168.411 52.8907 168.122 52.6372 167.922C52.3836 167.721 52.0947 167.621 51.7704 167.621C51.4402 167.621 51.1454 167.721 50.886 167.922C50.6265 168.122 50.4231 168.411 50.2757 168.788C50.1283 169.166 50.0546 169.623 50.0546 170.159C50.0546 170.69 50.1283 171.147 50.2757 171.53C50.4231 171.908 50.6265 172.199 50.886 172.406C51.1454 172.606 51.4402 172.707 51.7704 172.707ZM57.5746 173.361C57.0616 173.361 56.6194 173.228 56.248 172.963C55.8824 172.692 55.5994 172.317 55.3989 171.84C55.1984 171.356 55.0982 170.796 55.0982 170.159C55.0982 169.523 55.1984 168.965 55.3989 168.488C55.5994 168.004 55.8824 167.63 56.248 167.364C56.6194 167.093 57.0616 166.958 57.5746 166.958C58.0876 166.958 58.5269 167.093 58.8925 167.364C59.258 167.63 59.5381 168.004 59.7327 168.488C59.9332 168.965 60.0334 169.523 60.0334 170.159C60.0334 170.796 59.9332 171.356 59.7327 171.84C59.5381 172.317 59.258 172.692 58.8925 172.963C58.5269 173.228 58.0876 173.361 57.5746 173.361ZM57.5746 172.707C57.8989 172.707 58.1878 172.606 58.4414 172.406C58.6949 172.199 58.8954 171.908 59.0428 171.53C59.1961 171.147 59.2728 170.69 59.2728 170.159C59.2728 169.623 59.1961 169.166 59.0428 168.788C58.8954 168.411 58.6949 168.122 58.4414 167.922C58.1878 167.721 57.8989 167.621 57.5746 167.621C57.2444 167.621 56.9496 167.721 56.6902 167.922C56.4307 168.122 56.2273 168.411 56.0799 168.788C55.9325 169.166 55.8588 169.623 55.8588 170.159C55.8588 170.69 55.9325 171.147 56.0799 171.53C56.2273 171.908 56.4307 172.199 56.6902 172.406C56.9496 172.606 57.2444 172.707 57.5746 172.707Z" fill="black"/>
<path opacity="0.4" d="M47.0969 235.273C46.6546 235.273 46.2802 235.19 45.9736 235.025C45.6729 234.86 45.4312 234.639 45.2484 234.362C45.0715 234.079 44.9418 233.76 44.8592 233.406C44.7767 233.053 44.7354 232.69 44.7354 232.318C44.7354 231.634 44.8268 231.036 45.0096 230.523C45.1983 230.004 45.4695 229.6 45.8233 229.311C46.177 229.017 46.6045 228.869 47.1057 228.869C47.4949 228.869 47.828 228.943 48.1051 229.09C48.3882 229.238 48.6122 229.435 48.7773 229.683C48.9424 229.925 49.0427 230.196 49.078 230.496H48.3882C48.3292 230.184 48.1847 229.942 47.9548 229.771C47.7307 229.6 47.4448 229.515 47.0969 229.515C46.7844 229.515 46.5043 229.612 46.2566 229.807C46.0149 230.001 45.8233 230.296 45.6818 230.691C45.5402 231.08 45.4606 231.578 45.443 232.186C45.443 232.198 45.443 232.209 45.443 232.221C45.443 232.233 45.443 232.245 45.443 232.257C45.5255 232.068 45.6493 231.894 45.8144 231.735C45.9795 231.576 46.18 231.449 46.4158 231.354C46.6517 231.254 46.9111 231.204 47.1942 231.204C47.542 231.204 47.8634 231.287 48.1582 231.452C48.4589 231.617 48.7007 231.85 48.8835 232.15C49.0662 232.445 49.1576 232.793 49.1576 233.194C49.1576 233.542 49.0721 233.875 48.9011 234.193C48.7361 234.512 48.5002 234.771 48.1936 234.972C47.887 235.172 47.5214 235.273 47.0969 235.273ZM47.0438 234.618C47.3032 234.618 47.5332 234.559 47.7337 234.441C47.94 234.323 48.1022 234.161 48.2201 233.955C48.3439 233.742 48.4059 233.501 48.4059 233.229C48.4059 232.952 48.3439 232.711 48.2201 232.504C48.1022 232.298 47.94 232.139 47.7337 232.027C47.5332 231.909 47.3032 231.85 47.0438 231.85C46.7785 231.85 46.5397 231.912 46.3274 232.035C46.1151 232.153 45.9471 232.318 45.8233 232.531C45.6994 232.737 45.6375 232.973 45.6375 233.238C45.6375 233.51 45.6994 233.751 45.8233 233.964C45.9471 234.17 46.1151 234.332 46.3274 234.45C46.5397 234.562 46.7785 234.618 47.0438 234.618ZM52.6514 235.273C52.1384 235.273 51.6962 235.14 51.3247 234.875C50.9592 234.603 50.6762 234.229 50.4757 233.751C50.2752 233.268 50.175 232.708 50.175 232.071C50.175 231.434 50.2752 230.877 50.4757 230.399C50.6762 229.916 50.9592 229.541 51.3247 229.276C51.6962 229.005 52.1384 228.869 52.6514 228.869C53.1644 228.869 53.6037 229.005 53.9693 229.276C54.3348 229.541 54.6149 229.916 54.8095 230.399C55.01 230.877 55.1102 231.434 55.1102 232.071C55.1102 232.708 55.01 233.268 54.8095 233.751C54.6149 234.229 54.3348 234.603 53.9693 234.875C53.6037 235.14 53.1644 235.273 52.6514 235.273ZM52.6514 234.618C52.9757 234.618 53.2646 234.518 53.5182 234.317C53.7717 234.111 53.9722 233.819 54.1196 233.442C54.2729 233.058 54.3496 232.601 54.3496 232.071C54.3496 231.534 54.2729 231.077 54.1196 230.7C53.9722 230.323 53.7717 230.034 53.5182 229.833C53.2646 229.633 52.9757 229.532 52.6514 229.532C52.3212 229.532 52.0264 229.633 51.767 229.833C51.5075 230.034 51.3041 230.323 51.1567 230.7C51.0093 231.077 50.9356 231.534 50.9356 232.071C50.9356 232.601 51.0093 233.058 51.1567 233.442C51.3041 233.819 51.5075 234.111 51.767 234.317C52.0264 234.518 52.3212 234.618 52.6514 234.618ZM58.4556 235.273C57.9426 235.273 57.5004 235.14 57.1289 234.875C56.7634 234.603 56.4803 234.229 56.2799 233.751C56.0794 233.268 55.9792 232.708 55.9792 232.071C55.9792 231.434 56.0794 230.877 56.2799 230.399C56.4803 229.916 56.7634 229.541 57.1289 229.276C57.5004 229.005 57.9426 228.869 58.4556 228.869C58.9686 228.869 59.4079 229.005 59.7734 229.276C60.139 229.541 60.4191 229.916 60.6137 230.399C60.8142 230.877 60.9144 231.434 60.9144 232.071C60.9144 232.708 60.8142 233.268 60.6137 233.751C60.4191 234.229 60.139 234.603 59.7734 234.875C59.4079 235.14 58.9686 235.273 58.4556 235.273ZM58.4556 234.618C58.7799 234.618 59.0688 234.518 59.3224 234.317C59.5759 234.111 59.7764 233.819 59.9238 233.442C60.0771 233.058 60.1538 232.601 60.1538 232.071C60.1538 231.534 60.0771 231.077 59.9238 230.7C59.7764 230.323 59.5759 230.034 59.3224 229.833C59.0688 229.633 58.7799 229.532 58.4556 229.532C58.1254 229.532 57.8306 229.633 57.5712 229.833C57.3117 230.034 57.1083 230.323 56.9609 230.7C56.8135 231.077 56.7398 231.534 56.7398 232.071C56.7398 232.601 56.8135 233.058 56.9609 233.442C57.1083 233.819 57.3117 234.111 57.5712 234.317C57.8306 234.518 58.1254 234.618 58.4556 234.618Z" fill="black"/>
<path opacity="0.4" d="M46.9465 297.184C46.5338 297.184 46.1741 297.11 45.8675 296.963C45.5668 296.815 45.328 296.618 45.1511 296.37C44.9801 296.117 44.874 295.828 44.8327 295.504H45.5579C45.6228 295.81 45.7731 296.061 46.009 296.255C46.2507 296.45 46.5662 296.547 46.9554 296.547C47.2443 296.547 47.489 296.482 47.6895 296.353C47.8958 296.217 48.055 296.034 48.1671 295.804C48.2791 295.568 48.3351 295.306 48.3351 295.017C48.3351 294.728 48.2791 294.475 48.1671 294.256C48.0609 294.032 47.9076 293.858 47.7071 293.735C47.5067 293.605 47.2708 293.54 46.9996 293.54C46.6753 293.54 46.3982 293.605 46.1682 293.735C45.9441 293.864 45.7702 294.024 45.6464 294.212H44.9123L45.381 290.887H48.7066V291.532H45.9559L45.6375 293.469C45.7849 293.304 45.9795 293.172 46.2213 293.071C46.4689 292.965 46.7549 292.912 47.0792 292.912C47.3799 292.912 47.6511 292.965 47.8929 293.071C48.1346 293.177 48.341 293.328 48.512 293.522C48.6889 293.711 48.8215 293.932 48.91 294.186C49.0043 294.439 49.0515 294.713 49.0515 295.008C49.0515 295.303 49.0014 295.583 48.9011 295.848C48.8068 296.108 48.6682 296.338 48.4855 296.538C48.3086 296.739 48.0904 296.898 47.831 297.016C47.5715 297.128 47.2767 297.184 46.9465 297.184ZM52.496 297.184C51.983 297.184 51.5407 297.051 51.1693 296.786C50.8037 296.515 50.5207 296.14 50.3202 295.663C50.1197 295.179 50.0195 294.619 50.0195 293.982C50.0195 293.346 50.1197 292.788 50.3202 292.311C50.5207 291.827 50.8037 291.453 51.1693 291.187C51.5407 290.916 51.983 290.781 52.496 290.781C53.0089 290.781 53.4482 290.916 53.8138 291.187C54.1794 291.453 54.4594 291.827 54.654 292.311C54.8545 292.788 54.9547 293.346 54.9547 293.982C54.9547 294.619 54.8545 295.179 54.654 295.663C54.4594 296.14 54.1794 296.515 53.8138 296.786C53.4482 297.051 53.0089 297.184 52.496 297.184ZM52.496 296.53C52.8202 296.53 53.1092 296.429 53.3627 296.229C53.6163 296.022 53.8167 295.731 53.9641 295.353C54.1174 294.97 54.1941 294.513 54.1941 293.982C54.1941 293.446 54.1174 292.989 53.9641 292.611C53.8167 292.234 53.6163 291.945 53.3627 291.745C53.1092 291.544 52.8202 291.444 52.496 291.444C52.1658 291.444 51.8709 291.544 51.6115 291.745C51.3521 291.945 51.1486 292.234 51.0012 292.611C50.8538 292.989 50.7801 293.446 50.7801 293.982C50.7801 294.513 50.8538 294.97 51.0012 295.353C51.1486 295.731 51.3521 296.022 51.6115 296.229C51.8709 296.429 52.1658 296.53 52.496 296.53ZM58.3002 297.184C57.7872 297.184 57.3449 297.051 56.9735 296.786C56.6079 296.515 56.3249 296.14 56.1244 295.663C55.9239 295.179 55.8237 294.619 55.8237 293.982C55.8237 293.346 55.9239 292.788 56.1244 292.311C56.3249 291.827 56.6079 291.453 56.9735 291.187C57.3449 290.916 57.7872 290.781 58.3002 290.781C58.8131 290.781 59.2524 290.916 59.618 291.187C59.9836 291.453 60.2636 291.827 60.4582 292.311C60.6587 292.788 60.7589 293.346 60.7589 293.982C60.7589 294.619 60.6587 295.179 60.4582 295.663C60.2636 296.14 59.9836 296.515 59.618 296.786C59.2524 297.051 58.8131 297.184 58.3002 297.184ZM58.3002 296.53C58.6244 296.53 58.9134 296.429 59.1669 296.229C59.4205 296.022 59.6209 295.731 59.7683 295.353C59.9216 294.97 59.9983 294.513 59.9983 293.982C59.9983 293.446 59.9216 292.989 59.7683 292.611C59.6209 292.234 59.4205 291.945 59.1669 291.745C58.9134 291.544 58.6244 291.444 58.3002 291.444C57.97 291.444 57.6751 291.544 57.4157 291.745C57.1563 291.945 56.9528 292.234 56.8054 292.611C56.658 292.989 56.5843 293.446 56.5843 293.982C56.5843 294.513 56.658 294.97 56.8054 295.353C56.9528 295.731 57.1563 296.022 57.4157 296.229C57.6751 296.429 57.97 296.53 58.3002 296.53Z" fill="black"/>
</g>
<path d="M27.0389 88.1749V70.4859H29.5659V78.168L36.6415 70.4859H39.775L33.129 77.6373L39.9266 88.1749H36.8437L31.2843 79.5326L29.5659 81.352V88.1749H27.0389ZM45.5938 88.4782C44.5493 88.4782 43.6817 88.3097 42.991 87.9728C42.3003 87.619 41.7865 87.1473 41.4495 86.5576C41.1126 85.968 40.9441 85.3278 40.9441 84.6371C40.9441 83.8116 41.1631 83.1041 41.6011 82.5145C42.0392 81.9248 42.6625 81.47 43.4711 81.1499C44.2798 80.8298 45.2569 80.6697 46.4024 80.6697H49.7128C49.7128 79.9453 49.5949 79.3473 49.359 78.8756C49.14 78.387 48.8115 78.0248 48.3735 77.789C47.9523 77.5531 47.4217 77.4352 46.7815 77.4352C46.0234 77.4352 45.3579 77.6205 44.7852 77.9911C44.2292 78.3618 43.8839 78.9177 43.7491 79.6589H41.2221C41.3232 78.7324 41.6348 77.9574 42.1571 77.3341C42.6793 76.6939 43.3448 76.2054 44.1534 75.8684C44.9789 75.5147 45.8549 75.3378 46.7815 75.3378C47.9608 75.3378 48.9547 75.5484 49.7633 75.9695C50.5888 76.3907 51.2037 76.9887 51.6081 77.7637C52.0292 78.5218 52.2398 79.4231 52.2398 80.4676V88.1749H50.0666L49.8392 86.027C49.6707 86.3808 49.4517 86.7093 49.1821 87.0125C48.9126 87.2989 48.6009 87.5516 48.2471 87.7706C47.9102 87.9896 47.5227 88.1581 47.0847 88.276C46.6467 88.4108 46.1497 88.4782 45.5938 88.4782ZM46.0992 86.4313C46.6551 86.4313 47.1521 86.3218 47.5901 86.1028C48.0281 85.8838 48.3988 85.589 48.702 85.2183C49.0221 84.8309 49.2579 84.4097 49.4096 83.9548C49.578 83.4831 49.6707 82.9862 49.6875 82.4639H46.6551C45.9307 82.4639 45.3411 82.5481 44.8862 82.7166C44.4314 82.8851 44.1029 83.1209 43.9007 83.4242C43.7154 83.7274 43.6227 84.0812 43.6227 84.4855C43.6227 84.873 43.7154 85.2183 43.9007 85.5216C44.1029 85.808 44.3893 86.0354 44.7599 86.2039C45.1305 86.3555 45.577 86.4313 46.0992 86.4313ZM54.4833 88.1749V86.1281L61.2809 77.7384H54.6097V75.641H64.1112V77.6879L57.3135 86.0775H64.2375V88.1749H54.4833ZM71.1352 88.4782C70.0907 88.4782 69.2231 88.3097 68.5324 87.9728C67.8417 87.619 67.3279 87.1473 66.991 86.5576C66.654 85.968 66.4856 85.3278 66.4856 84.6371C66.4856 83.8116 66.7046 83.1041 67.1426 82.5145C67.5806 81.9248 68.2039 81.47 69.0126 81.1499C69.8212 80.8298 70.7983 80.6697 71.9439 80.6697H75.2542C75.2542 79.9453 75.1363 79.3473 74.9005 78.8756C74.6815 78.387 74.3529 78.0248 73.9149 77.789C73.4938 77.5531 72.9631 77.4352 72.3229 77.4352C71.5648 77.4352 70.8994 77.6205 70.3266 77.9911C69.7707 78.3618 69.4253 78.9177 69.2905 79.6589H66.7635C66.8646 78.7324 67.1763 77.9574 67.6985 77.3341C68.2208 76.6939 68.8862 76.2054 69.6948 75.8684C70.5203 75.5147 71.3964 75.3378 72.3229 75.3378C73.5022 75.3378 74.4961 75.5484 75.3048 75.9695C76.1303 76.3907 76.7452 76.9887 77.1495 77.7637C77.5707 78.5218 77.7812 79.4231 77.7812 80.4676V88.1749H75.608L75.3806 86.027C75.2121 86.3808 74.9931 86.7093 74.7236 87.0125C74.454 87.2989 74.1424 87.5516 73.7886 87.7706C73.4516 87.9896 73.0642 88.1581 72.6262 88.276C72.1882 88.4108 71.6912 88.4782 71.1352 88.4782ZM71.6406 86.4313C72.1966 86.4313 72.6936 86.3218 73.1316 86.1028C73.5696 85.8838 73.9402 85.589 74.2434 85.2183C74.5635 84.8309 74.7994 84.4097 74.951 83.9548C75.1195 83.4831 75.2121 82.9862 75.229 82.4639H72.1966C71.4722 82.4639 70.8825 82.5481 70.4277 82.7166C69.9728 82.8851 69.6443 83.1209 69.4421 83.4242C69.2568 83.7274 69.1642 84.0812 69.1642 84.4855C69.1642 84.873 69.2568 85.2183 69.4421 85.5216C69.6443 85.808 69.9307 86.0354 70.3013 86.2039C70.672 86.3555 71.1184 86.4313 71.6406 86.4313ZM88.8692 88.1749L82.9813 81.2762L88.2628 75.641H91.3204L85.0282 82.2365L85.0535 80.3665L92.0533 88.1749H88.8692ZM80.8586 88.1749V70.0311H83.3856V88.1749H80.8586ZM94.1353 88.1749V70.0311H96.6623V77.7132C97.0834 76.9719 97.6646 76.3907 98.4059 75.9695C99.164 75.5484 100.006 75.3378 100.933 75.3378C101.91 75.3378 102.761 75.5484 103.485 75.9695C104.21 76.3738 104.765 76.9972 105.153 77.8395C105.557 78.665 105.759 79.7011 105.759 80.9477V88.1749H103.258V81.2004C103.258 79.9875 103.005 79.0693 102.5 78.446C102.011 77.8058 101.261 77.4857 100.251 77.4857C99.5767 77.4857 98.9618 77.6542 98.4059 77.9911C97.8668 78.3112 97.4372 78.7829 97.1171 79.4062C96.8139 80.0296 96.6623 80.7877 96.6623 81.6805V88.1749H94.1353ZM113.746 88.4782C112.718 88.4782 111.792 88.3013 110.966 87.9475C110.158 87.5937 109.509 87.1052 109.021 86.4818C108.532 85.8417 108.237 85.092 108.136 84.2328H110.688C110.79 84.6371 110.966 85.0078 111.219 85.3447C111.472 85.6816 111.809 85.9512 112.23 86.1533C112.651 86.3386 113.157 86.4313 113.746 86.4313C114.302 86.4313 114.757 86.3555 115.111 86.2039C115.465 86.0354 115.726 85.8164 115.894 85.5468C116.063 85.2773 116.147 84.9993 116.147 84.7129C116.147 84.2581 116.029 83.9127 115.793 83.6769C115.557 83.441 115.212 83.2557 114.757 83.1209C114.319 82.9693 113.788 82.8261 113.165 82.6913C112.66 82.5734 112.137 82.4302 111.598 82.2618C111.059 82.0933 110.571 81.8827 110.133 81.63C109.695 81.3605 109.341 81.0235 109.071 80.6192C108.802 80.2149 108.667 79.7263 108.667 79.1535C108.667 78.4123 108.852 77.7553 109.223 77.1825C109.61 76.6097 110.158 76.1633 110.865 75.8432C111.573 75.5062 112.415 75.3378 113.392 75.3378C114.774 75.3378 115.894 75.6747 116.753 76.3486C117.629 77.0056 118.135 77.9574 118.269 79.2041H115.844C115.759 78.6313 115.507 78.1849 115.085 77.8648C114.664 77.5447 114.092 77.3846 113.367 77.3846C112.643 77.3846 112.095 77.5278 111.725 77.8142C111.354 78.1006 111.169 78.4713 111.169 78.9261C111.169 79.2294 111.278 79.4905 111.497 79.7095C111.733 79.9285 112.061 80.1138 112.483 80.2654C112.921 80.417 113.434 80.5602 114.024 80.695C114.85 80.8803 115.608 81.0993 116.298 81.352C117.006 81.6047 117.579 81.9754 118.017 82.4639C118.472 82.9356 118.699 83.6179 118.699 84.5108C118.716 85.2689 118.522 85.9512 118.118 86.5576C117.714 87.1641 117.141 87.6358 116.399 87.9728C115.658 88.3097 114.774 88.4782 113.746 88.4782ZM126.239 88.1749C125.43 88.1749 124.731 88.0486 124.142 87.7959C123.552 87.5432 123.097 87.122 122.777 86.5324C122.457 85.9427 122.297 85.1425 122.297 84.1317V77.7384H120.149V75.641H122.297L122.6 72.5075H124.824V75.641H128.412V77.7384H124.824V84.157C124.824 84.8814 124.975 85.3784 125.279 85.6479C125.582 85.9006 126.104 86.027 126.845 86.027H128.235V88.1749H126.239ZM135.199 88.4782C134.154 88.4782 133.286 88.3097 132.596 87.9728C131.905 87.619 131.391 87.1473 131.054 86.5576C130.717 85.968 130.549 85.3278 130.549 84.6371C130.549 83.8116 130.768 83.1041 131.206 82.5145C131.644 81.9248 132.267 81.47 133.076 81.1499C133.885 80.8298 134.862 80.6697 136.007 80.6697H139.318C139.318 79.9453 139.2 79.3473 138.964 78.8756C138.745 78.387 138.416 78.0248 137.978 77.789C137.557 77.5531 137.026 77.4352 136.386 77.4352C135.628 77.4352 134.963 77.6205 134.39 77.9911C133.834 78.3618 133.489 78.9177 133.354 79.6589H130.827C130.928 78.7324 131.24 77.9574 131.762 77.3341C132.284 76.6939 132.95 76.2054 133.758 75.8684C134.584 75.5147 135.46 75.3378 136.386 75.3378C137.566 75.3378 138.559 75.5484 139.368 75.9695C140.194 76.3907 140.809 76.9887 141.213 77.7637C141.634 78.5218 141.845 79.4231 141.845 80.4676V88.1749H139.671L139.444 86.027C139.275 86.3808 139.056 86.7093 138.787 87.0125C138.517 87.2989 138.206 87.5516 137.852 87.7706C137.515 87.9896 137.128 88.1581 136.69 88.276C136.252 88.4108 135.755 88.4782 135.199 88.4782ZM135.704 86.4313C136.26 86.4313 136.757 86.3218 137.195 86.1028C137.633 85.8838 138.004 85.589 138.307 85.2183C138.627 84.8309 138.863 84.4097 139.014 83.9548C139.183 83.4831 139.275 82.9862 139.292 82.4639H136.26C135.536 82.4639 134.946 82.5481 134.491 82.7166C134.036 82.8851 133.708 83.1209 133.505 83.4242C133.32 83.7274 133.228 84.0812 133.228 84.4855C133.228 84.873 133.32 85.2183 133.505 85.5216C133.708 85.808 133.994 86.0354 134.365 86.2039C134.735 86.3555 135.182 86.4313 135.704 86.4313ZM144.922 88.1749V75.641H147.171L147.348 77.8395C147.752 77.0646 148.325 76.4581 149.066 76.0201C149.808 75.5652 150.667 75.3378 151.644 75.3378C152.655 75.3378 153.522 75.5484 154.247 75.9695C154.971 76.3738 155.527 76.9887 155.914 77.8142C156.319 78.6397 156.521 79.6842 156.521 80.9477V88.1749H153.994V81.2004C153.994 79.9875 153.733 79.0693 153.211 78.446C152.705 77.8058 151.955 77.4857 150.962 77.4857C150.288 77.4857 149.681 77.6542 149.142 77.9911C148.62 78.3112 148.207 78.7829 147.904 79.4062C147.601 80.0296 147.449 80.7877 147.449 81.6805V88.1749H144.922Z" fill="black"/>
<path d="M48 141.029C47.3514 141.029 46.7871 140.911 46.3069 140.675C45.8268 140.439 45.4562 140.11 45.1951 139.689C44.9339 139.268 44.8034 138.78 44.8034 138.224H45.9153C45.9153 138.569 45.9953 138.889 46.1553 139.184C46.3154 139.47 46.547 139.702 46.8502 139.879C47.1619 140.047 47.5452 140.131 48 140.131C48.3959 140.131 48.7329 140.068 49.0108 139.942C49.2972 139.807 49.512 139.626 49.6552 139.399C49.8068 139.171 49.8826 138.914 49.8826 138.628C49.8826 138.291 49.8068 138.017 49.6552 137.807C49.512 137.588 49.3141 137.411 49.0614 137.276C48.8171 137.133 48.5307 137.011 48.2022 136.91C47.8737 136.8 47.5241 136.686 47.1535 136.568C46.4459 136.333 45.9279 136.038 45.5994 135.684C45.2709 135.33 45.1066 134.871 45.1066 134.307C45.1066 133.827 45.2161 133.405 45.4351 133.043C45.6626 132.681 45.9826 132.399 46.3954 132.197C46.8166 131.986 47.3135 131.881 47.8863 131.881C48.4507 131.881 48.9392 131.986 49.352 132.197C49.7731 132.407 50.1017 132.698 50.3375 133.069C50.5734 133.431 50.6913 133.852 50.6913 134.332H49.5794C49.5794 134.088 49.5162 133.848 49.3899 133.612C49.2635 133.376 49.0698 133.182 48.8087 133.031C48.556 132.871 48.2359 132.791 47.8484 132.791C47.5283 132.782 47.2419 132.837 46.9892 132.955C46.745 133.064 46.5512 133.224 46.408 133.435C46.2732 133.646 46.2059 133.902 46.2059 134.206C46.2059 134.492 46.2648 134.724 46.3828 134.901C46.5091 135.077 46.686 135.229 46.9134 135.355C47.1493 135.473 47.423 135.583 47.7347 135.684C48.0464 135.785 48.3917 135.899 48.7708 136.025C49.2004 136.168 49.5794 136.345 49.9079 136.556C50.2448 136.758 50.506 137.019 50.6913 137.339C50.885 137.659 50.9819 138.068 50.9819 138.565C50.9819 138.986 50.8682 139.386 50.6407 139.765C50.4217 140.136 50.0932 140.439 49.6552 140.675C49.2172 140.911 48.6655 141.029 48 141.029ZM55.3161 141.029C54.718 141.029 54.1831 140.89 53.7114 140.612C53.2397 140.334 52.8691 139.942 52.5996 139.437C52.33 138.931 52.1952 138.337 52.1952 137.655C52.1952 136.973 52.33 136.379 52.5996 135.873C52.8775 135.368 53.2524 134.976 53.7241 134.698C54.2042 134.42 54.7433 134.281 55.3414 134.281C55.9478 134.281 56.4827 134.42 56.946 134.698C57.4177 134.976 57.7883 135.368 58.0579 135.873C58.3274 136.379 58.4622 136.973 58.4622 137.655C58.4622 138.337 58.3232 138.931 58.0452 139.437C57.7757 139.942 57.4051 140.334 56.9334 140.612C56.4617 140.89 55.9226 141.029 55.3161 141.029ZM55.3161 140.119C55.6867 140.119 56.0279 140.03 56.3395 139.854C56.6512 139.668 56.8997 139.39 57.085 139.02C57.2787 138.649 57.3756 138.194 57.3756 137.655C57.3756 137.108 57.2829 136.653 57.0976 136.29C56.9123 135.928 56.6638 135.654 56.3522 135.469C56.0489 135.284 55.712 135.191 55.3414 135.191C54.9792 135.191 54.638 135.284 54.3179 135.469C54.0063 135.654 53.7536 135.928 53.5598 136.29C53.3745 136.653 53.2819 137.108 53.2819 137.655C53.2819 138.194 53.3745 138.649 53.5598 139.02C53.7536 139.39 54.002 139.668 54.3053 139.854C54.6169 140.03 54.9539 140.119 55.3161 140.119ZM62.3001 141.029C61.8115 141.029 61.3819 140.932 61.0113 140.738C60.6491 140.544 60.3669 140.249 60.1648 139.854C59.971 139.458 59.8742 138.961 59.8742 138.363V134.433H60.9355V138.249C60.9355 138.872 61.0745 139.34 61.3525 139.651C61.6304 139.963 62.0263 140.119 62.5401 140.119C62.8855 140.119 63.1972 140.035 63.4751 139.866C63.7531 139.698 63.9721 139.453 64.1321 139.133C64.3006 138.813 64.3848 138.422 64.3848 137.958V134.433H65.4462V140.877H64.4859L64.4228 139.778C64.2374 140.174 63.9553 140.481 63.5762 140.7C63.2056 140.919 62.7802 141.029 62.3001 141.029ZM69.7448 140.877C69.3658 140.877 69.0373 140.818 68.7593 140.7C68.4813 140.582 68.2666 140.384 68.1149 140.106C67.9717 139.82 67.9001 139.437 67.9001 138.956V135.33H66.7756V134.433H67.9001L68.0391 132.866H68.9615V134.433H70.8188V135.33H68.9615V138.956C68.9615 139.352 69.0415 139.622 69.2015 139.765C69.3616 139.9 69.6438 139.967 70.0481 139.967H70.7556V140.877H69.7448ZM72.2274 140.877V131.78H73.2888V135.507C73.4993 135.128 73.7942 134.829 74.1732 134.61C74.5607 134.391 74.9819 134.281 75.4367 134.281C75.9253 134.281 76.3506 134.378 76.7128 134.572C77.0751 134.766 77.353 135.065 77.5468 135.469C77.7405 135.865 77.8374 136.37 77.8374 136.985V140.877H76.7887V137.099C76.7887 136.467 76.6497 135.991 76.3717 135.671C76.1022 135.351 75.7147 135.191 75.2093 135.191C74.8471 135.191 74.5186 135.28 74.2238 135.457C73.9374 135.625 73.7099 135.873 73.5415 136.202C73.373 136.531 73.2888 136.931 73.2888 137.402V140.877H72.2274ZM85.7816 141.029C85.133 141.029 84.5687 140.911 84.0885 140.675C83.6084 140.439 83.2378 140.11 82.9766 139.689C82.7155 139.268 82.585 138.78 82.585 138.224H83.6968C83.6968 138.569 83.7769 138.889 83.9369 139.184C84.0969 139.47 84.3286 139.702 84.6318 139.879C84.9435 140.047 85.3268 140.131 85.7816 140.131C86.1775 140.131 86.5144 140.068 86.7924 139.942C87.0788 139.807 87.2936 139.626 87.4368 139.399C87.5884 139.171 87.6642 138.914 87.6642 138.628C87.6642 138.291 87.5884 138.017 87.4368 137.807C87.2936 137.588 87.0957 137.411 86.843 137.276C86.5987 137.133 86.3123 137.011 85.9838 136.91C85.6553 136.8 85.3057 136.686 84.9351 136.568C84.2275 136.333 83.7095 136.038 83.381 135.684C83.0525 135.33 82.8882 134.871 82.8882 134.307C82.8882 133.827 82.9977 133.405 83.2167 133.043C83.4441 132.681 83.7642 132.399 84.177 132.197C84.5981 131.986 85.0951 131.881 85.6679 131.881C86.2323 131.881 86.7208 131.986 87.1336 132.197C87.5547 132.407 87.8832 132.698 88.1191 133.069C88.3549 133.431 88.4729 133.852 88.4729 134.332H87.361C87.361 134.088 87.2978 133.848 87.1715 133.612C87.0451 133.376 86.8514 133.182 86.5903 133.031C86.3376 132.871 86.0175 132.791 85.63 132.791C85.3099 132.782 85.0235 132.837 84.7708 132.955C84.5265 133.064 84.3328 133.224 84.1896 133.435C84.0548 133.646 83.9874 133.902 83.9874 134.206C83.9874 134.492 84.0464 134.724 84.1643 134.901C84.2907 135.077 84.4676 135.229 84.695 135.355C84.9309 135.473 85.2046 135.583 85.5163 135.684C85.8279 135.785 86.1733 135.899 86.5523 136.025C86.9819 136.168 87.361 136.345 87.6895 136.556C88.0264 136.758 88.2876 137.019 88.4729 137.339C88.6666 137.659 88.7635 138.068 88.7635 138.565C88.7635 138.986 88.6498 139.386 88.4223 139.765C88.2033 140.136 87.8748 140.439 87.4368 140.675C86.9988 140.911 86.4471 141.029 85.7816 141.029ZM94.159 140.877L91.1266 137.364L93.9189 134.433H95.2203L92.0237 137.743L92.0363 136.985L95.511 140.877H94.159ZM90.2422 140.877V131.78H91.3035V140.877H90.2422ZM97.3166 143.657L98.858 140.169H98.4916L95.9899 134.433H97.1397L99.2118 139.373L101.385 134.433H102.484L98.4285 143.657H97.3166ZM103.63 140.877V131.78H104.691V140.877H103.63ZM108.528 141.029C108.014 141.029 107.584 140.94 107.239 140.763C106.902 140.578 106.649 140.334 106.481 140.03C106.312 139.719 106.228 139.386 106.228 139.032C106.228 138.603 106.337 138.24 106.556 137.946C106.784 137.642 107.1 137.411 107.504 137.251C107.917 137.091 108.397 137.011 108.945 137.011H110.625C110.625 136.606 110.566 136.269 110.448 136C110.33 135.73 110.153 135.528 109.917 135.393C109.69 135.25 109.399 135.179 109.046 135.179C108.65 135.179 108.309 135.28 108.022 135.482C107.736 135.684 107.559 135.975 107.491 136.354H106.405C106.455 135.907 106.607 135.532 106.86 135.229C107.112 134.917 107.433 134.682 107.82 134.522C108.207 134.362 108.616 134.281 109.046 134.281C109.635 134.281 110.124 134.391 110.511 134.61C110.907 134.821 111.202 135.12 111.396 135.507C111.589 135.886 111.686 136.337 111.686 136.859V140.877H110.739L110.676 139.752C110.591 139.929 110.482 140.098 110.347 140.258C110.221 140.409 110.069 140.544 109.892 140.662C109.715 140.772 109.513 140.86 109.286 140.927C109.067 140.995 108.814 141.029 108.528 141.029ZM108.692 140.131C108.987 140.131 109.252 140.073 109.488 139.955C109.724 139.828 109.926 139.66 110.094 139.449C110.271 139.23 110.402 138.99 110.486 138.729C110.579 138.459 110.625 138.181 110.625 137.895V137.832H109.033C108.629 137.832 108.3 137.882 108.047 137.984C107.795 138.085 107.614 138.224 107.504 138.4C107.395 138.569 107.34 138.763 107.34 138.982C107.34 139.218 107.39 139.424 107.491 139.601C107.601 139.769 107.757 139.9 107.959 139.993C108.161 140.085 108.405 140.131 108.692 140.131ZM113.732 140.877V133.523C113.732 133.119 113.799 132.791 113.934 132.538C114.069 132.277 114.267 132.087 114.528 131.969C114.797 131.843 115.126 131.78 115.513 131.78H116.297V132.689H115.678C115.358 132.689 115.13 132.753 114.995 132.879C114.861 133.005 114.793 133.229 114.793 133.549V140.877H113.732ZM112.734 135.33V134.433H116.436V135.33H112.734ZM120.33 141.029C119.731 141.029 119.197 140.89 118.725 140.612C118.253 140.334 117.883 139.942 117.613 139.437C117.343 138.931 117.209 138.337 117.209 137.655C117.209 136.973 117.343 136.379 117.613 135.873C117.891 135.368 118.266 134.976 118.738 134.698C119.218 134.42 119.757 134.281 120.355 134.281C120.961 134.281 121.496 134.42 121.959 134.698C122.431 134.976 122.802 135.368 123.071 135.873C123.341 136.379 123.476 136.973 123.476 137.655C123.476 138.337 123.337 138.931 123.059 139.437C122.789 139.942 122.419 140.334 121.947 140.612C121.475 140.89 120.936 141.029 120.33 141.029ZM120.33 140.119C120.7 140.119 121.041 140.03 121.353 139.854C121.665 139.668 121.913 139.39 122.098 139.02C122.292 138.649 122.389 138.194 122.389 137.655C122.389 137.108 122.296 136.653 122.111 136.29C121.926 135.928 121.677 135.654 121.366 135.469C121.062 135.284 120.725 135.191 120.355 135.191C119.993 135.191 119.651 135.284 119.331 135.469C119.02 135.654 118.767 135.928 118.573 136.29C118.388 136.653 118.295 137.108 118.295 137.655C118.295 138.194 118.388 138.649 118.573 139.02C118.767 139.39 119.015 139.668 119.319 139.854C119.63 140.03 119.967 140.119 120.33 140.119ZM124.976 140.877V134.433H125.936L126.012 135.646C126.155 135.351 126.341 135.103 126.568 134.901C126.804 134.698 127.082 134.547 127.402 134.446C127.73 134.336 128.101 134.281 128.514 134.281V135.393H128.059C127.789 135.393 127.533 135.431 127.288 135.507C127.044 135.574 126.825 135.688 126.631 135.848C126.446 136 126.299 136.21 126.189 136.48C126.088 136.75 126.037 137.086 126.037 137.491V140.877H124.976ZM132.241 140.877C131.862 140.877 131.534 140.818 131.256 140.7C130.978 140.582 130.763 140.384 130.611 140.106C130.468 139.82 130.396 139.437 130.396 138.956V135.33H129.272V134.433H130.396L130.535 132.866H131.458V134.433H133.315V135.33H131.458V138.956C131.458 139.352 131.538 139.622 131.698 139.765C131.858 139.9 132.14 139.967 132.544 139.967H133.252V140.877H132.241Z" fill="black"/>
<path d="M82.759 418.218C120.373 418.155 123.286 350.981 151.304 346.831C179.322 342.68 194.28 512.061 219.217 503.504C244.154 494.948 253.615 256.239 286.498 244.171C319.381 232.103 325.113 406.91 354.727 410.321C384.341 413.733 392.699 322.192 423.272 322.192C453.845 322.192 458.559 500.017 490.869 496.871C523.18 493.725 524.408 288.078 559.098 288.078C593.788 288.078 596.512 522.063 627.011 530.67C657.51 539.276 663.576 448.634 694.924 418.218C726.273 387.802 734.128 236.51 763.469 231.22C792.81 225.931 806.41 405.669 831.698 418.218C856.986 430.767 898.979 233.116 898.979 233.116" stroke="#FF3A29" stroke-width="2.527" stroke-linecap="round"/>
<path d="M82.759 231.22C117.238 231.335 125.747 260.94 150.356 264.703C174.966 268.466 190.512 219.883 218.585 218.27C246.658 216.656 261.512 280.665 286.498 277.338C311.484 274.012 321.464 245.072 354.411 240.381C387.359 235.689 392.968 282.961 422.64 284.287C452.313 285.613 460.236 178.153 490.869 178.153C521.502 178.153 526.408 251.08 558.782 249.857C591.157 248.634 592.253 208.162 627.011 208.162C661.769 208.162 664.681 244.3 695.24 247.646C725.799 250.992 731.743 289.162 763.153 277.338C794.564 265.514 801.352 220.326 830.75 218.27C860.149 216.213 874.046 294.395 898.979 294.395" stroke="#34B53A" stroke-width="2.527" stroke-linecap="round"/>
<path d="M82.759 299.449C116.611 299.574 125.747 320.334 150.356 324.088C174.966 327.841 190.512 386.345 218.585 384.736C246.658 383.126 261.828 295.186 286.814 291.868C311.8 288.551 322.095 323.397 355.043 318.718C387.991 314.039 393.6 278.227 423.272 279.549C452.944 280.872 460.236 301.029 490.869 301.029C521.502 301.029 526.724 258.974 559.098 257.754C591.472 256.534 592.253 327.878 627.011 327.878C661.769 327.878 664.681 377.608 695.24 380.945C725.799 384.282 732.059 302.082 763.469 290.289C794.88 278.496 801.668 362.464 831.066 360.413C860.465 358.362 874.046 294.395 898.979 294.395" stroke="#FFB200" stroke-width="2.527" stroke-linecap="round"/>
</g>
</g>
<defs>
<clipPath id="clip0_153_496">
<rect width="585" height="300" fill="white"/>
</clipPath>
<clipPath id="clip1_153_496">
<rect width="585" height="406.215" fill="white"/>
</clipPath>
<clipPath id="clip2_153_496">
<rect width="48.6447" height="15.162" fill="white" transform="translate(25.27 16.4255)"/>
</clipPath>
<clipPath id="clip3_153_496">
<rect width="18.3207" height="384.104" fill="white" transform="translate(44.2224 164.255)"/>
</clipPath>
</defs>
</svg>
