<svg width="176" height="46" viewBox="0 0 176 46" fill="none" xmlns="http://www.w3.org/2000/svg">
<mask id="mask0_37_1675" style="mask-type:alpha" maskUnits="userSpaceOnUse" x="0" y="4" width="37" height="38">
<rect y="4.55298" width="36.8942" height="36.8942" fill="#D9D9D9"/>
</mask>
<g mask="url(#mask0_37_1675)">
<path d="M8.41137 36.2255C7.53411 36.2255 6.78316 35.9132 6.15852 35.2885C5.53388 34.6639 5.22156 33.9129 5.22156 33.0357V12.9645C5.22156 12.0872 5.53388 11.3363 6.15852 10.7116C6.78316 10.087 7.53411 9.77466 8.41137 9.77466H28.4826C29.3598 9.77466 30.1108 10.087 30.7354 10.7116C31.3601 11.3363 31.6724 12.0872 31.6724 12.9645V33.0357C31.6724 33.9129 31.3601 34.6639 30.7354 35.2885C30.1108 35.9132 29.3598 36.2255 28.4826 36.2255H8.41137ZM15.6799 33.0357V23.9224H8.41137V33.0357H15.6799ZM18.447 33.0357H28.4826V23.9224H18.447V33.0357ZM8.41137 21.1554H28.4826V12.9645H8.41137V21.1554Z" fill="white"/>
</g>
<path d="M52.5026 34V16.3776H46.3044V12.7316H62.7115V16.3776H56.5132V34H52.5026ZM67.0245 34.4254C65.9509 34.4254 64.9888 34.2431 64.1381 33.8785C63.2873 33.4936 62.6088 32.9467 62.1024 32.2378C61.6162 31.5086 61.3732 30.6274 61.3732 29.5944C61.3732 28.5614 61.6162 27.7005 62.1024 27.0118C62.6088 26.3029 63.2975 25.7762 64.1684 25.4319C65.0597 25.0673 66.0725 24.885 67.2068 24.885H71.3389V24.0342C71.3389 23.3253 71.1161 22.748 70.6705 22.3024C70.2249 21.8365 69.5159 21.6036 68.5437 21.6036C67.5916 21.6036 66.8827 21.8264 66.4168 22.272C65.9509 22.6974 65.6471 23.2544 65.5053 23.9431L61.9808 22.7581C62.2239 21.9884 62.6088 21.2896 63.1354 20.6617C63.6823 20.0135 64.4014 19.497 65.2926 19.1121C66.2041 18.707 67.3081 18.5044 68.6044 18.5044C70.5895 18.5044 72.1593 19.0007 73.3139 19.9932C74.4684 20.9858 75.0457 22.4239 75.0457 24.3077V29.9286C75.0457 30.5363 75.3293 30.8401 75.8965 30.8401H77.1118V34H74.5596C73.8101 34 73.1923 33.8177 72.7062 33.4531C72.2201 33.0885 71.977 32.6024 71.977 31.9947V31.9643H71.3997C71.3187 32.2074 71.1364 32.5315 70.8528 32.9366C70.5692 33.3214 70.1236 33.6658 69.5159 33.9696C68.9083 34.2735 68.0778 34.4254 67.0245 34.4254ZM67.6929 31.3263C68.7665 31.3263 69.6375 31.0325 70.3059 30.4451C70.9946 29.8375 71.3389 29.0374 71.3389 28.0448V27.741H67.4802C66.7713 27.741 66.2143 27.8929 65.8092 28.1968C65.404 28.5006 65.2015 28.926 65.2015 29.4729C65.2015 30.0198 65.4142 30.4654 65.8395 30.8097C66.2649 31.1541 66.8827 31.3263 67.6929 31.3263ZM88.3575 34.4254C87.0003 34.4254 85.9572 34.1924 85.228 33.7265C84.4988 33.2607 83.962 32.7442 83.6177 32.177H83.0707V34H79.3032V12.7316H83.1315V20.6617H83.6784C83.9012 20.2971 84.1949 19.9527 84.5595 19.6286C84.9444 19.3045 85.4407 19.0412 86.0483 18.8387C86.6763 18.6158 87.446 18.5044 88.3575 18.5044C89.5728 18.5044 90.697 18.8083 91.73 19.4159C92.7631 20.0034 93.5936 20.8743 94.2215 22.0289C94.8494 23.1835 95.1634 24.5811 95.1634 26.2218V26.708C95.1634 28.3487 94.8494 29.7463 94.2215 30.9009C93.5936 32.0555 92.7631 32.9366 91.73 33.5442C90.697 34.1317 89.5728 34.4254 88.3575 34.4254ZM87.2029 31.0832C88.3777 31.0832 89.3601 30.7085 90.1501 29.959C90.9401 29.1893 91.335 28.0752 91.335 26.6168V26.313C91.335 24.8546 90.9401 23.7506 90.1501 23.0012C89.3804 22.2315 88.398 21.8466 87.2029 21.8466C86.0281 21.8466 85.0457 22.2315 84.2557 23.0012C83.4657 23.7506 83.0707 24.8546 83.0707 26.313V26.6168C83.0707 28.0752 83.4657 29.1893 84.2557 29.959C85.0457 30.7085 86.0281 31.0832 87.2029 31.0832ZM98.0709 34V12.7316H101.899V34H98.0709ZM112.401 34.4254C110.902 34.4254 109.575 34.1114 108.42 33.4835C107.286 32.8353 106.395 31.9339 105.747 30.7794C105.119 29.6045 104.805 28.2271 104.805 26.6472V26.2826C104.805 24.7027 105.119 23.3354 105.747 22.1808C106.374 21.006 107.256 20.1046 108.39 19.4767C109.524 18.8285 110.841 18.5044 112.34 18.5044C113.818 18.5044 115.105 18.8387 116.198 19.5071C117.292 20.1553 118.143 21.0668 118.751 22.2416C119.358 23.3962 119.662 24.7432 119.662 26.2826V27.5891H108.694C108.734 28.6221 109.119 29.4627 109.848 30.1109C110.578 30.7591 111.469 31.0832 112.522 31.0832C113.596 31.0832 114.386 30.8502 114.892 30.3844C115.398 29.9185 115.783 29.402 116.047 28.8348L119.176 30.4755C118.892 31.0022 118.477 31.5795 117.93 32.2074C117.404 32.815 116.695 33.3417 115.803 33.7873C114.912 34.2127 113.778 34.4254 112.401 34.4254ZM108.724 24.733H115.773C115.692 23.8621 115.338 23.1632 114.71 22.6366C114.102 22.1099 113.302 21.8466 112.309 21.8466C111.276 21.8466 110.456 22.1099 109.848 22.6366C109.241 23.1632 108.866 23.8621 108.724 24.733ZM129.693 34.4254C128.235 34.4254 126.908 34.1013 125.713 33.4531C124.538 32.7847 123.596 31.8225 122.887 30.5667C122.199 29.2906 121.854 27.741 121.854 25.918V20.8136C121.854 18.0791 122.624 15.9826 124.163 14.5242C125.703 13.0455 127.789 12.3062 130.422 12.3062C133.035 12.3062 135.051 13.005 136.469 14.4027C137.907 15.7801 138.626 17.6537 138.626 20.0236V20.1451H134.676V19.9021C134.676 19.1526 134.514 18.4741 134.19 17.8664C133.886 17.2587 133.42 16.7827 132.792 16.4384C132.164 16.0738 131.374 15.8915 130.422 15.8915C129.005 15.8915 127.89 16.327 127.08 17.198C126.27 18.0689 125.865 19.2539 125.865 20.7528V25.9788C125.865 27.4574 126.27 28.6525 127.08 29.564C127.89 30.4553 129.025 30.9009 130.483 30.9009C131.942 30.9009 133.005 30.516 133.673 29.7463C134.342 28.9766 134.676 28.0043 134.676 26.8295V26.5257H129.632V23.1227H138.626V34H134.919V31.9643H134.372C134.23 32.3087 133.998 32.6733 133.673 33.0581C133.37 33.443 132.904 33.7671 132.276 34.0304C131.648 34.2937 130.787 34.4254 129.693 34.4254ZM148.838 34.4254C147.339 34.4254 146.012 34.1114 144.858 33.4835C143.724 32.8353 142.832 31.9339 142.184 30.7794C141.556 29.6045 141.242 28.2271 141.242 26.6472V26.2826C141.242 24.7027 141.556 23.3354 142.184 22.1808C142.812 21.006 143.693 20.1046 144.827 19.4767C145.962 18.8285 147.278 18.5044 148.777 18.5044C150.256 18.5044 151.542 18.8387 152.636 19.5071C153.73 20.1553 154.581 21.0668 155.188 22.2416C155.796 23.3962 156.1 24.7432 156.1 26.2826V27.5891H145.131C145.172 28.6221 145.557 29.4627 146.286 30.1109C147.015 30.7591 147.906 31.0832 148.96 31.0832C150.033 31.0832 150.823 30.8502 151.33 30.3844C151.836 29.9185 152.221 29.402 152.484 28.8348L155.614 30.4755C155.33 31.0022 154.915 31.5795 154.368 32.2074C153.841 32.815 153.132 33.3417 152.241 33.7873C151.35 34.2127 150.215 34.4254 148.838 34.4254ZM145.162 24.733H152.211C152.13 23.8621 151.775 23.1632 151.147 22.6366C150.54 22.1099 149.739 21.8466 148.747 21.8466C147.714 21.8466 146.894 22.1099 146.286 22.6366C145.678 23.1632 145.303 23.8621 145.162 24.733ZM158.9 34V18.9298H162.667V20.9047H163.214C163.457 20.3781 163.913 19.8818 164.581 19.4159C165.25 18.9298 166.262 18.6867 167.62 18.6867C168.794 18.6867 169.817 18.9602 170.688 19.5071C171.58 20.0337 172.268 20.7731 172.754 21.7251C173.241 22.6568 173.484 23.7506 173.484 25.0065V34H169.655V25.3103C169.655 24.176 169.372 23.3253 168.805 22.7581C168.258 22.191 167.468 21.9074 166.435 21.9074C165.26 21.9074 164.348 22.3024 163.7 23.0923C163.052 23.8621 162.728 24.9457 162.728 26.3434V34H158.9Z" fill="white"/>
</svg>
