<svg width="548" height="381" viewBox="0 0 548 381" fill="none" xmlns="http://www.w3.org/2000/svg">
<g clip-path="url(#clip0_410_5382)">
<rect width="547.247" height="380" transform="translate(0.376465 0.5)" fill="#F8F8F8"/>
<g clip-path="url(#clip1_410_5382)">
<path fill-rule="evenodd" clip-rule="evenodd" d="M26.9705 22.3663C26.9705 20.4107 28.5609 18.8204 30.5164 18.8204C32.472 18.8204 34.0623 20.4107 34.0623 22.3663C34.0623 24.3218 32.472 25.9121 30.5164 25.9121C28.5609 25.9121 26.9705 24.3218 26.9705 22.3663M36.2531 27.2673L34.2467 25.2603C34.869 24.4601 35.2443 23.4572 35.2443 22.3663C35.2443 19.7595 33.1232 17.6384 30.5164 17.6384C27.9096 17.6384 25.7886 19.7595 25.7886 22.3663C25.7886 24.9731 27.9096 27.0941 30.5164 27.0941C31.6074 27.0941 32.6103 26.7188 33.4104 26.0965L35.4174 28.1029C35.5326 28.2181 35.6839 28.2761 35.8352 28.2761C35.9865 28.2761 36.1378 28.2181 36.2531 28.1029C36.4841 27.8718 36.4841 27.4983 36.2531 27.2673" fill="black"/>
<path opacity="0.4" d="M45.4174 26.1467C44.9927 26.1467 44.6231 26.0695 44.3087 25.915C43.9943 25.7606 43.7516 25.5455 43.5806 25.2697C43.4096 24.9939 43.3241 24.674 43.3241 24.3099H44.0522C44.0522 24.5361 44.1046 24.7457 44.2094 24.9387C44.3142 25.1263 44.4659 25.278 44.6645 25.3938C44.8686 25.5041 45.1195 25.5593 45.4174 25.5593C45.6766 25.5593 45.8973 25.5179 46.0793 25.4352C46.2668 25.3469 46.4075 25.2283 46.5012 25.0794C46.6005 24.9305 46.6502 24.7622 46.6502 24.5747C46.6502 24.3651 46.6033 24.1914 46.5095 24.0535C46.4213 23.91 46.2972 23.7942 46.1372 23.706C45.9772 23.6122 45.7925 23.5295 45.5829 23.4578C45.3733 23.386 45.1471 23.3116 44.9044 23.2344C44.419 23.0799 44.066 22.8869 43.8454 22.6552C43.6303 22.418 43.5227 22.1147 43.5227 21.7451C43.5227 21.4307 43.5944 21.1549 43.7378 20.9177C43.8868 20.6805 44.0964 20.4958 44.3666 20.3634C44.6424 20.2255 44.9679 20.1565 45.3429 20.1565C45.7125 20.1565 46.0324 20.2255 46.3027 20.3634C46.5785 20.5013 46.7936 20.6916 46.948 20.9343C47.1025 21.1714 47.1797 21.4472 47.1797 21.7616H46.4516C46.4516 21.6017 46.4102 21.4445 46.3275 21.29C46.2448 21.1356 46.1179 21.0087 45.9469 20.9094C45.7814 20.8046 45.5718 20.7522 45.3181 20.7522C45.1085 20.7467 44.921 20.7826 44.7555 20.8598C44.5955 20.9315 44.4687 21.0363 44.3749 21.1742C44.2866 21.3121 44.2425 21.4803 44.2425 21.6789C44.2425 21.8664 44.2811 22.0181 44.3584 22.134C44.4411 22.2498 44.5569 22.3491 44.7059 22.4318C44.8603 22.509 45.0396 22.5807 45.2436 22.6469C45.4477 22.7131 45.6739 22.7876 45.9221 22.8703C46.2034 22.9641 46.4516 23.0799 46.6667 23.2178C46.8874 23.3502 47.0583 23.5212 47.1797 23.7308C47.3066 23.9404 47.37 24.2079 47.37 24.5333C47.37 24.8091 47.2955 25.0711 47.1466 25.3193C47.0032 25.562 46.7881 25.7606 46.5012 25.915C46.2144 26.0695 45.8531 26.1467 45.4174 26.1467ZM50.166 26.1467C49.7799 26.1467 49.4379 26.0529 49.14 25.8654C48.8422 25.6779 48.6078 25.4131 48.4368 25.0711C48.2713 24.7291 48.1886 24.3292 48.1886 23.8714C48.1886 23.4136 48.2713 23.0137 48.4368 22.6717C48.6078 22.3298 48.8422 22.065 49.14 21.8775C49.4434 21.6899 49.7909 21.5962 50.1825 21.5962C50.6017 21.5962 50.952 21.6899 51.2333 21.8775C51.5146 22.065 51.727 22.316 51.8704 22.6304C52.0138 22.9448 52.0855 23.2895 52.0855 23.6646C52.0855 23.7198 52.0855 23.7749 52.0855 23.8301C52.0855 23.8852 52.0827 23.9514 52.0772 24.0286H48.7098V23.4908H51.407C51.396 23.0661 51.2719 22.7435 51.0347 22.5228C50.8031 22.2967 50.5135 22.1836 50.166 22.1836C49.9343 22.1836 49.7192 22.2415 49.5206 22.3573C49.3276 22.4677 49.1704 22.6331 49.049 22.8538C48.9277 23.0744 48.867 23.3502 48.867 23.6811V23.9128C48.867 24.2768 48.9277 24.583 49.049 24.8312C49.1704 25.0739 49.3276 25.2559 49.5206 25.3773C49.7192 25.4986 49.9343 25.5593 50.166 25.5593C50.4749 25.5593 50.7176 25.5014 50.8941 25.3855C51.0706 25.2642 51.2002 25.0932 51.2829 24.8726H51.9697C51.9035 25.1153 51.7876 25.3331 51.6222 25.5262C51.4622 25.7192 51.2581 25.8709 51.0099 25.9812C50.7672 26.0916 50.4859 26.1467 50.166 26.1467ZM54.4055 26.1467C54.0745 26.1467 53.7988 26.086 53.5781 25.9647C53.3575 25.8378 53.192 25.6723 53.0817 25.4683C52.9714 25.2587 52.9162 25.0353 52.9162 24.7981C52.9162 24.5113 52.9879 24.2686 53.1313 24.07C53.2803 23.8659 53.4871 23.7115 53.7519 23.6067C54.0166 23.5019 54.3255 23.4495 54.6785 23.4495H55.7624C55.7624 23.1682 55.7293 22.9337 55.6631 22.7462C55.5969 22.5587 55.4894 22.418 55.3404 22.3243C55.1915 22.2305 54.9929 22.1836 54.7447 22.1836C54.4965 22.1836 54.2841 22.247 54.1076 22.3739C53.9311 22.4952 53.8208 22.6773 53.7767 22.92H53.0652C53.0982 22.6331 53.1948 22.3932 53.3547 22.2001C53.5147 22.0016 53.716 21.8526 53.9587 21.7534C54.2069 21.6486 54.4689 21.5962 54.7447 21.5962C55.1363 21.5962 55.459 21.6679 55.7127 21.8113C55.9665 21.9492 56.154 22.145 56.2754 22.3987C56.3967 22.6469 56.4574 22.942 56.4574 23.284V26.0474H55.8368L55.7955 25.3028C55.7403 25.4186 55.6686 25.5289 55.5804 25.6337C55.4976 25.733 55.3983 25.8213 55.2825 25.8985C55.1667 25.9757 55.0343 26.0364 54.8854 26.0805C54.742 26.1246 54.582 26.1467 54.4055 26.1467ZM54.5048 25.5593C54.6868 25.5593 54.855 25.5179 55.0095 25.4352C55.1639 25.3524 55.2963 25.2421 55.4066 25.1042C55.5224 24.9608 55.6107 24.8009 55.6714 24.6243C55.732 24.4478 55.7624 24.2631 55.7624 24.07V23.9873H54.7364C54.4772 23.9873 54.2648 24.0204 54.0994 24.0866C53.9394 24.1527 53.8236 24.2465 53.7519 24.3679C53.6802 24.4837 53.6443 24.6161 53.6443 24.765C53.6443 24.925 53.6774 25.0656 53.7436 25.187C53.8098 25.3028 53.9063 25.3938 54.0332 25.46C54.1656 25.5262 54.3228 25.5593 54.5048 25.5593ZM57.6056 26.0474V21.6954H58.2344L58.2841 22.4897C58.3833 22.2912 58.513 22.1257 58.6729 21.9933C58.8329 21.8609 59.0259 21.7616 59.2521 21.6954C59.4837 21.6293 59.743 21.5962 60.0298 21.5962V22.3243H59.5996C59.4341 22.3243 59.2741 22.3463 59.1197 22.3904C58.9653 22.4346 58.8246 22.5063 58.6977 22.6056C58.5764 22.7048 58.4799 22.84 58.4082 23.011C58.3365 23.182 58.3006 23.3971 58.3006 23.6563V26.0474H57.6056ZM62.5541 26.1467C62.1569 26.1467 61.8039 26.0529 61.495 25.8654C61.1861 25.6723 60.9435 25.4048 60.7669 25.0629C60.5904 24.7209 60.5022 24.3237 60.5022 23.8714C60.5022 23.4136 60.5904 23.0165 60.7669 22.68C60.9435 22.338 61.1861 22.0733 61.495 21.8857C61.8039 21.6927 62.1569 21.5962 62.5541 21.5962C63.0505 21.5962 63.4642 21.7285 63.7951 21.9933C64.1316 22.2581 64.3467 22.6138 64.4405 23.0606H63.7289C63.6683 22.7848 63.5276 22.5725 63.307 22.4235C63.0919 22.2691 62.8381 22.1919 62.5458 22.1919C62.2921 22.1919 62.0632 22.2553 61.8591 22.3822C61.6605 22.509 61.5033 22.6966 61.3875 22.9448C61.2716 23.193 61.2137 23.5019 61.2137 23.8714C61.2137 24.1472 61.2468 24.3927 61.313 24.6078C61.3792 24.8174 61.4702 24.9939 61.586 25.1373C61.7074 25.2752 61.848 25.38 62.008 25.4517C62.1735 25.5234 62.3527 25.5593 62.5458 25.5593C62.7444 25.5593 62.9236 25.5262 63.0836 25.46C63.2491 25.3883 63.387 25.2862 63.4973 25.1539C63.6131 25.0215 63.6903 24.8643 63.7289 24.6823H64.4405C64.3522 25.118 64.1371 25.471 63.7951 25.7413C63.4587 26.0116 63.045 26.1467 62.5541 26.1467ZM65.4511 26.0474V20.0903H66.1461V22.3987C66.2895 22.1505 66.4853 21.9547 66.7335 21.8113C66.9817 21.6679 67.2493 21.5962 67.5361 21.5962C67.8725 21.5962 68.1566 21.6596 68.3883 21.7865C68.6255 21.9078 68.8047 22.0953 68.9261 22.3491C69.0529 22.6028 69.1164 22.9255 69.1164 23.3171V26.0474H68.4296V23.3916C68.4296 22.9944 68.3359 22.6966 68.1483 22.498C67.9608 22.2939 67.7071 22.1919 67.3872 22.1919C67.161 22.1919 66.9542 22.247 66.7666 22.3573C66.5791 22.4621 66.4274 22.6193 66.3116 22.8289C66.2013 23.0385 66.1461 23.2923 66.1461 23.5901V26.0474H65.4511Z" fill="black"/>
</g>
<rect x="24.0156" y="100.967" width="841.555" height="466.874" rx="5.9098" fill="white"/>
<g opacity="0.1">
<path fill-rule="evenodd" clip-rule="evenodd" d="M77.2039 160.36C77.2039 160.197 77.3362 160.065 77.4993 160.065H841.636C841.8 160.065 841.932 160.197 841.932 160.36V160.36C841.932 160.523 841.799 160.655 841.636 160.655H77.4993C77.3361 160.655 77.2039 160.523 77.2039 160.36V160.36Z" fill="black"/>
<path fill-rule="evenodd" clip-rule="evenodd" d="M77.2039 218.276C77.2039 218.113 77.3362 217.981 77.4993 217.981H841.636C841.8 217.981 841.932 218.113 841.932 218.276V218.276C841.932 218.439 841.799 218.572 841.636 218.572H77.4993C77.3361 218.572 77.2039 218.439 77.2039 218.276V218.276Z" fill="black"/>
<path fill-rule="evenodd" clip-rule="evenodd" d="M77.2039 276.192C77.2039 276.029 77.3362 275.897 77.4993 275.897H841.636C841.8 275.897 841.932 276.029 841.932 276.192V276.192C841.932 276.355 841.799 276.488 841.636 276.488H77.4993C77.3361 276.488 77.2039 276.355 77.2039 276.192V276.192Z" fill="black"/>
<path fill-rule="evenodd" clip-rule="evenodd" d="M77.2039 334.108C77.2039 333.945 77.3362 333.813 77.4993 333.813H841.636C841.8 333.813 841.932 333.945 841.932 334.108V334.108C841.932 334.271 841.799 334.404 841.636 334.404H77.4993C77.3361 334.404 77.2039 334.271 77.2039 334.108V334.108Z" fill="black"/>
<path fill-rule="evenodd" clip-rule="evenodd" d="M77.4992 160.065C77.6624 160.065 77.7947 160.197 77.7947 160.36V507.856C77.7947 508.019 77.6624 508.152 77.4992 508.152V508.152C77.336 508.152 77.2037 508.019 77.2037 507.856V160.36C77.2037 160.197 77.336 160.065 77.4992 160.065V160.065Z" fill="black"/>
<path fill-rule="evenodd" clip-rule="evenodd" d="M141.325 160.065C141.488 160.065 141.621 160.197 141.621 160.36V507.856C141.621 508.019 141.488 508.152 141.325 508.152V508.152C141.162 508.152 141.03 508.019 141.03 507.856V160.36C141.03 160.197 141.162 160.065 141.325 160.065V160.065Z" fill="black"/>
<path fill-rule="evenodd" clip-rule="evenodd" d="M205.151 160.065C205.314 160.065 205.447 160.197 205.447 160.36V507.856C205.447 508.019 205.314 508.152 205.151 508.152V508.152C204.988 508.152 204.856 508.019 204.856 507.856V160.36C204.856 160.197 204.988 160.065 205.151 160.065V160.065Z" fill="black"/>
<path fill-rule="evenodd" clip-rule="evenodd" d="M268.386 160.065C268.549 160.065 268.681 160.197 268.681 160.36V507.856C268.681 508.019 268.549 508.152 268.386 508.152V508.152C268.222 508.152 268.09 508.019 268.09 507.856V160.36C268.09 160.197 268.222 160.065 268.386 160.065V160.065Z" fill="black"/>
<path fill-rule="evenodd" clip-rule="evenodd" d="M332.212 160.065C332.375 160.065 332.507 160.197 332.507 160.36V507.856C332.507 508.019 332.375 508.152 332.212 508.152V508.152C332.048 508.152 331.916 508.019 331.916 507.856V160.36C331.916 160.197 332.048 160.065 332.212 160.065V160.065Z" fill="black"/>
<path fill-rule="evenodd" clip-rule="evenodd" d="M396.038 160.065C396.201 160.065 396.333 160.197 396.333 160.36V507.856C396.333 508.019 396.201 508.152 396.038 508.152V508.152C395.874 508.152 395.742 508.019 395.742 507.856V160.36C395.742 160.197 395.874 160.065 396.038 160.065V160.065Z" fill="black"/>
<path fill-rule="evenodd" clip-rule="evenodd" d="M459.863 160.065C460.026 160.065 460.159 160.197 460.159 160.36V507.856C460.159 508.019 460.026 508.152 459.863 508.152V508.152C459.7 508.152 459.568 508.019 459.568 507.856V160.36C459.568 160.197 459.7 160.065 459.863 160.065V160.065Z" fill="black"/>
<path fill-rule="evenodd" clip-rule="evenodd" d="M523.098 160.065C523.261 160.065 523.394 160.197 523.394 160.36V507.856C523.394 508.019 523.261 508.152 523.098 508.152V508.152C522.935 508.152 522.803 508.019 522.803 507.856V160.36C522.803 160.197 522.935 160.065 523.098 160.065V160.065Z" fill="black"/>
</g>
<g clip-path="url(#clip2_410_5382)">
<path opacity="0.4" d="M43.0358 163.155L45.1622 157.959H41.9851V157.363H45.8737V157.884L43.7722 163.155H43.0358ZM48.806 163.254C48.3261 163.254 47.9125 163.13 47.565 162.882C47.223 162.628 46.9582 162.278 46.7707 161.831C46.5832 161.379 46.4894 160.855 46.4894 160.259C46.4894 159.663 46.5832 159.142 46.7707 158.695C46.9582 158.243 47.223 157.893 47.565 157.644C47.9125 157.391 48.3261 157.264 48.806 157.264C49.2859 157.264 49.6968 157.391 50.0388 157.644C50.3808 157.893 50.6428 158.243 50.8248 158.695C51.0123 159.142 51.1061 159.663 51.1061 160.259C51.1061 160.855 51.0123 161.379 50.8248 161.831C50.6428 162.278 50.3808 162.628 50.0388 162.882C49.6968 163.13 49.2859 163.254 48.806 163.254ZM48.806 162.642C49.1094 162.642 49.3797 162.548 49.6168 162.36C49.854 162.167 50.0416 161.894 50.1795 161.541C50.3229 161.183 50.3946 160.755 50.3946 160.259C50.3946 159.757 50.3229 159.33 50.1795 158.976C50.0416 158.623 49.854 158.353 49.6168 158.166C49.3797 157.978 49.1094 157.884 48.806 157.884C48.4971 157.884 48.2213 157.978 47.9787 158.166C47.736 158.353 47.5457 158.623 47.4078 158.976C47.2699 159.33 47.2009 159.757 47.2009 160.259C47.2009 160.755 47.2699 161.183 47.4078 161.541C47.5457 161.894 47.736 162.167 47.9787 162.36C48.2213 162.548 48.4971 162.642 48.806 162.642ZM54.2357 163.254C53.7558 163.254 53.3421 163.13 52.9946 162.882C52.6526 162.628 52.3879 162.278 52.2003 161.831C52.0128 161.379 51.919 160.855 51.919 160.259C51.919 159.663 52.0128 159.142 52.2003 158.695C52.3879 158.243 52.6526 157.893 52.9946 157.644C53.3421 157.391 53.7558 157.264 54.2357 157.264C54.7155 157.264 55.1265 157.391 55.4684 157.644C55.8104 157.893 56.0724 158.243 56.2544 158.695C56.442 159.142 56.5357 159.663 56.5357 160.259C56.5357 160.855 56.442 161.379 56.2544 161.831C56.0724 162.278 55.8104 162.628 55.4684 162.882C55.1265 163.13 54.7155 163.254 54.2357 163.254ZM54.2357 162.642C54.539 162.642 54.8093 162.548 55.0465 162.36C55.2837 162.167 55.4712 161.894 55.6091 161.541C55.7525 161.183 55.8242 160.755 55.8242 160.259C55.8242 159.757 55.7525 159.33 55.6091 158.976C55.4712 158.623 55.2837 158.353 55.0465 158.166C54.8093 157.978 54.539 157.884 54.2357 157.884C53.9268 157.884 53.651 157.978 53.4083 158.166C53.1656 158.353 52.9753 158.623 52.8374 158.976C52.6995 159.33 52.6306 159.757 52.6306 160.259C52.6306 160.755 52.6995 161.183 52.8374 161.541C52.9753 161.894 53.1656 162.167 53.4083 162.36C53.651 162.548 53.9268 162.642 54.2357 162.642Z" fill="black"/>
<path opacity="0.4" d="M44.4341 221.17C44.0204 221.17 43.6701 221.093 43.3833 220.938C43.102 220.784 42.8759 220.577 42.7049 220.318C42.5394 220.053 42.418 219.755 42.3408 219.424C42.2636 219.093 42.225 218.754 42.225 218.407C42.225 217.767 42.3105 217.207 42.4815 216.727C42.658 216.242 42.9117 215.864 43.2427 215.594C43.5736 215.318 43.9735 215.18 44.4423 215.18C44.8064 215.18 45.118 215.249 45.3773 215.387C45.642 215.525 45.8516 215.709 46.0061 215.941C46.1605 216.167 46.2543 216.421 46.2874 216.702H45.642C45.5869 216.41 45.4517 216.184 45.2366 216.024C45.027 215.864 44.7595 215.784 44.4341 215.784C44.1417 215.784 43.8797 215.875 43.6481 216.057C43.4219 216.239 43.2427 216.515 43.1103 216.884C42.9779 217.248 42.9034 217.714 42.8869 218.282C42.8869 218.294 42.8869 218.305 42.8869 218.316C42.8869 218.327 42.8869 218.338 42.8869 218.349C42.9641 218.172 43.0799 218.009 43.2344 217.861C43.3888 217.712 43.5764 217.593 43.797 217.505C44.0176 217.411 44.2603 217.364 44.5251 217.364C44.8505 217.364 45.1511 217.441 45.4269 217.596C45.7082 217.75 45.9344 217.968 46.1054 218.249C46.2764 218.525 46.3619 218.851 46.3619 219.226C46.3619 219.551 46.2819 219.863 46.1219 220.161C45.9675 220.458 45.7468 220.701 45.46 220.889C45.1732 221.076 44.8312 221.17 44.4341 221.17ZM44.3844 220.558C44.6271 220.558 44.8422 220.503 45.0298 220.392C45.2228 220.282 45.3745 220.13 45.4848 219.937C45.6007 219.739 45.6586 219.513 45.6586 219.259C45.6586 219 45.6007 218.773 45.4848 218.58C45.3745 218.387 45.2228 218.238 45.0298 218.134C44.8422 218.023 44.6271 217.968 44.3844 217.968C44.1362 217.968 43.9128 218.026 43.7143 218.142C43.5157 218.252 43.3585 218.407 43.2427 218.605C43.1268 218.798 43.0689 219.019 43.0689 219.267C43.0689 219.521 43.1268 219.747 43.2427 219.946C43.3585 220.139 43.5157 220.29 43.7143 220.401C43.9128 220.505 44.1362 220.558 44.3844 220.558ZM49.6302 221.17C49.1503 221.17 48.7366 221.046 48.3891 220.798C48.0471 220.544 47.7824 220.194 47.5948 219.747C47.4073 219.295 47.3135 218.771 47.3135 218.175C47.3135 217.579 47.4073 217.058 47.5948 216.611C47.7824 216.159 48.0471 215.809 48.3891 215.56C48.7366 215.307 49.1503 215.18 49.6302 215.18C50.11 215.18 50.521 215.307 50.8629 215.56C51.2049 215.809 51.4669 216.159 51.649 216.611C51.8365 217.058 51.9303 217.579 51.9303 218.175C51.9303 218.771 51.8365 219.295 51.649 219.747C51.4669 220.194 51.2049 220.544 50.8629 220.798C50.521 221.046 50.11 221.17 49.6302 221.17ZM49.6302 220.558C49.9335 220.558 50.2038 220.464 50.441 220.276C50.6782 220.083 50.8657 219.81 51.0036 219.457C51.147 219.099 51.2187 218.671 51.2187 218.175C51.2187 217.673 51.147 217.246 51.0036 216.893C50.8657 216.54 50.6782 216.269 50.441 216.082C50.2038 215.894 49.9335 215.8 49.6302 215.8C49.3213 215.8 49.0455 215.894 48.8028 216.082C48.5601 216.269 48.3698 216.54 48.2319 216.893C48.094 217.246 48.0251 217.673 48.0251 218.175C48.0251 218.671 48.094 219.099 48.2319 219.457C48.3698 219.81 48.5601 220.083 48.8028 220.276C49.0455 220.464 49.3213 220.558 49.6302 220.558ZM55.0598 221.17C54.5799 221.17 54.1662 221.046 53.8187 220.798C53.4768 220.544 53.212 220.194 53.0245 219.747C52.8369 219.295 52.7432 218.771 52.7432 218.175C52.7432 217.579 52.8369 217.058 53.0245 216.611C53.212 216.159 53.4768 215.809 53.8187 215.56C54.1662 215.307 54.5799 215.18 55.0598 215.18C55.5397 215.18 55.9506 215.307 56.2926 215.56C56.6346 215.809 56.8966 216.159 57.0786 216.611C57.2661 217.058 57.3599 217.579 57.3599 218.175C57.3599 218.771 57.2661 219.295 57.0786 219.747C56.8966 220.194 56.6346 220.544 56.2926 220.798C55.9506 221.046 55.5397 221.17 55.0598 221.17ZM55.0598 220.558C55.3632 220.558 55.6334 220.464 55.8706 220.276C56.1078 220.083 56.2953 219.81 56.4332 219.457C56.5766 219.099 56.6483 218.671 56.6483 218.175C56.6483 217.673 56.5766 217.246 56.4332 216.893C56.2953 216.54 56.1078 216.269 55.8706 216.082C55.6334 215.894 55.3632 215.8 55.0598 215.8C54.7509 215.8 54.4751 215.894 54.2324 216.082C53.9897 216.269 53.7994 216.54 53.6615 216.893C53.5236 217.246 53.4547 217.673 53.4547 218.175C53.4547 218.671 53.5236 219.099 53.6615 219.457C53.7994 219.81 53.9897 220.083 54.2324 220.276C54.4751 220.464 54.7509 220.558 55.0598 220.558Z" fill="black"/>
<path opacity="0.4" d="M44.2934 279.086C43.9073 279.086 43.5709 279.017 43.284 278.879C43.0027 278.741 42.7793 278.557 42.6139 278.325C42.4539 278.088 42.3546 277.817 42.316 277.514H42.9944C43.0551 277.801 43.1958 278.035 43.4164 278.217C43.6426 278.399 43.9377 278.49 44.3017 278.49C44.572 278.49 44.8009 278.43 44.9884 278.308C45.1815 278.181 45.3304 278.01 45.4352 277.795C45.54 277.575 45.5924 277.329 45.5924 277.059C45.5924 276.789 45.54 276.552 45.4352 276.347C45.3359 276.138 45.1925 275.975 45.005 275.859C44.8174 275.738 44.5968 275.677 44.3431 275.677C44.0397 275.677 43.7805 275.738 43.5653 275.859C43.3557 275.981 43.193 276.13 43.0772 276.306H42.3905L42.829 273.195H45.9399V273.799H43.3668L43.0689 275.611C43.2068 275.457 43.3888 275.333 43.615 275.239C43.8466 275.139 44.1142 275.09 44.4175 275.09C44.6988 275.09 44.9526 275.139 45.1787 275.239C45.4049 275.338 45.5979 275.479 45.7579 275.661C45.9233 275.837 46.0475 276.044 46.1302 276.281C46.2184 276.518 46.2626 276.775 46.2626 277.051C46.2626 277.326 46.2157 277.588 46.1219 277.837C46.0337 278.079 45.904 278.295 45.733 278.482C45.5676 278.67 45.3635 278.819 45.1208 278.929C44.8781 279.034 44.6023 279.086 44.2934 279.086ZM49.4847 279.086C49.0049 279.086 48.5912 278.962 48.2437 278.714C47.9017 278.46 47.6369 278.11 47.4494 277.663C47.2619 277.211 47.1681 276.687 47.1681 276.091C47.1681 275.495 47.2619 274.974 47.4494 274.527C47.6369 274.075 47.9017 273.725 48.2437 273.476C48.5912 273.223 49.0049 273.096 49.4847 273.096C49.9646 273.096 50.3755 273.223 50.7175 273.476C51.0595 273.725 51.3215 274.075 51.5035 274.527C51.6911 274.974 51.7848 275.495 51.7848 276.091C51.7848 276.687 51.6911 277.211 51.5035 277.663C51.3215 278.11 51.0595 278.46 50.7175 278.714C50.3755 278.962 49.9646 279.086 49.4847 279.086ZM49.4847 278.474C49.7881 278.474 50.0584 278.38 50.2956 278.192C50.5327 277.999 50.7203 277.726 50.8582 277.373C51.0016 277.015 51.0733 276.587 51.0733 276.091C51.0733 275.589 51.0016 275.162 50.8582 274.809C50.7203 274.456 50.5327 274.185 50.2956 273.998C50.0584 273.81 49.7881 273.716 49.4847 273.716C49.1758 273.716 48.9001 273.81 48.6574 273.998C48.4147 274.185 48.2244 274.456 48.0865 274.809C47.9486 275.162 47.8796 275.589 47.8796 276.091C47.8796 276.587 47.9486 277.015 48.0865 277.373C48.2244 277.726 48.4147 277.999 48.6574 278.192C48.9001 278.38 49.1758 278.474 49.4847 278.474ZM54.9144 279.086C54.4345 279.086 54.0208 278.962 53.6733 278.714C53.3313 278.46 53.0666 278.11 52.879 277.663C52.6915 277.211 52.5977 276.687 52.5977 276.091C52.5977 275.495 52.6915 274.974 52.879 274.527C53.0666 274.075 53.3313 273.725 53.6733 273.476C54.0208 273.223 54.4345 273.096 54.9144 273.096C55.3942 273.096 55.8052 273.223 56.1471 273.476C56.4891 273.725 56.7511 274.075 56.9331 274.527C57.1207 274.974 57.2144 275.495 57.2144 276.091C57.2144 276.687 57.1207 277.211 56.9331 277.663C56.7511 278.11 56.4891 278.46 56.1471 278.714C55.8052 278.962 55.3942 279.086 54.9144 279.086ZM54.9144 278.474C55.2177 278.474 55.488 278.38 55.7252 278.192C55.9624 277.999 56.1499 277.726 56.2878 277.373C56.4312 277.015 56.5029 276.587 56.5029 276.091C56.5029 275.589 56.4312 275.162 56.2878 274.809C56.1499 274.456 55.9624 274.185 55.7252 273.998C55.488 273.81 55.2177 273.716 54.9144 273.716C54.6055 273.716 54.3297 273.81 54.087 273.998C53.8443 274.185 53.654 274.456 53.5161 274.809C53.3782 275.162 53.3093 275.589 53.3093 276.091C53.3093 276.587 53.3782 277.015 53.5161 277.373C53.654 277.726 53.8443 277.999 54.087 278.192C54.3297 278.38 54.6055 278.474 54.9144 278.474Z" fill="black"/>
<path opacity="0.4" d="M45.0215 336.903V335.662H42.0843V335.124L44.8974 331.111H45.7082V335.05H46.5687V335.662H45.7082V336.903H45.0215ZM42.8538 335.05H45.0546V331.881L42.8538 335.05ZM49.5494 337.002C49.0695 337.002 48.6558 336.878 48.3083 336.63C47.9663 336.376 47.7016 336.026 47.514 335.579C47.3265 335.127 47.2327 334.603 47.2327 334.007C47.2327 333.411 47.3265 332.89 47.514 332.443C47.7016 331.991 47.9663 331.641 48.3083 331.393C48.6558 331.139 49.0695 331.012 49.5494 331.012C50.0292 331.012 50.4402 331.139 50.7822 331.393C51.1241 331.641 51.3861 331.991 51.5682 332.443C51.7557 332.89 51.8495 333.411 51.8495 334.007C51.8495 334.603 51.7557 335.127 51.5682 335.579C51.3861 336.026 51.1241 336.376 50.7822 336.63C50.4402 336.878 50.0292 337.002 49.5494 337.002ZM49.5494 336.39C49.8527 336.39 50.123 336.296 50.3602 336.109C50.5974 335.916 50.7849 335.642 50.9228 335.289C51.0662 334.931 51.1379 334.503 51.1379 334.007C51.1379 333.505 51.0662 333.078 50.9228 332.725C50.7849 332.372 50.5974 332.101 50.3602 331.914C50.123 331.726 49.8527 331.632 49.5494 331.632C49.2405 331.632 48.9647 331.726 48.722 331.914C48.4793 332.101 48.289 332.372 48.1511 332.725C48.0132 333.078 47.9443 333.505 47.9443 334.007C47.9443 334.503 48.0132 334.931 48.1511 335.289C48.289 335.642 48.4793 335.916 48.722 336.109C48.9647 336.296 49.2405 336.39 49.5494 336.39ZM54.979 337.002C54.4991 337.002 54.0854 336.878 53.7379 336.63C53.396 336.376 53.1312 336.026 52.9437 335.579C52.7561 335.127 52.6624 334.603 52.6624 334.007C52.6624 333.411 52.7561 332.89 52.9437 332.443C53.1312 331.991 53.396 331.641 53.7379 331.393C54.0854 331.139 54.4991 331.012 54.979 331.012C55.4589 331.012 55.8698 331.139 56.2118 331.393C56.5538 331.641 56.8158 331.991 56.9978 332.443C57.1853 332.89 57.2791 333.411 57.2791 334.007C57.2791 334.603 57.1853 335.127 56.9978 335.579C56.8158 336.026 56.5538 336.376 56.2118 336.63C55.8698 336.878 55.4589 337.002 54.979 337.002ZM54.979 336.39C55.2824 336.39 55.5526 336.296 55.7898 336.109C56.027 335.916 56.2145 335.642 56.3524 335.289C56.4958 334.931 56.5675 334.503 56.5675 334.007C56.5675 333.505 56.4958 333.078 56.3524 332.725C56.2145 332.372 56.027 332.101 55.7898 331.914C55.5526 331.726 55.2824 331.632 54.979 331.632C54.6701 331.632 54.3943 331.726 54.1516 331.914C53.9089 332.101 53.7186 332.372 53.5807 332.725C53.4428 333.078 53.3739 333.505 53.3739 334.007C53.3739 334.503 53.4428 334.931 53.5807 335.289C53.7186 335.642 53.9089 335.916 54.1516 336.109C54.3943 336.296 54.6701 336.39 54.979 336.39Z" fill="black"/>
</g>
<path d="M25.7176 83.598V67.0505H28.0816V74.2368L34.7005 67.0505H37.6554L31.5092 73.6222L37.7736 83.598H34.8897L29.8309 75.4661L28.0816 77.3336V83.598H25.7176ZM43.168 83.8816C42.1751 83.8816 41.3557 83.724 40.7095 83.4088C40.0634 83.0779 39.5827 82.6366 39.2675 82.0851C38.9523 81.5335 38.7947 80.9346 38.7947 80.2885C38.7947 79.5163 38.9917 78.8544 39.3857 78.3028C39.7955 77.7512 40.3786 77.3257 41.135 77.0263C41.9072 76.7268 42.8292 76.5771 43.9008 76.5771H46.9975C46.9975 75.8995 46.8872 75.34 46.6666 74.8987C46.4617 74.4575 46.1544 74.1265 45.7447 73.9059C45.3349 73.6695 44.8385 73.5513 44.2554 73.5513C43.5305 73.5513 42.9001 73.7247 42.3643 74.0714C41.8442 74.4181 41.529 74.9303 41.4187 75.6079H39.0548C39.1493 74.7569 39.4409 74.032 39.9294 73.4331C40.418 72.8342 41.0405 72.3772 41.7969 72.062C42.5691 71.7468 43.3886 71.5893 44.2554 71.5893C45.3586 71.5893 46.2884 71.7862 47.0448 72.1802C47.8013 72.5742 48.3765 73.1258 48.7705 73.835C49.1645 74.5442 49.3615 75.3952 49.3615 76.388V83.598H47.3048L47.1157 81.5886C46.9581 81.9038 46.7533 82.2032 46.5011 82.4869C46.2647 82.7706 45.9811 83.0149 45.6501 83.2197C45.3349 83.4246 44.9646 83.5822 44.5391 83.6925C44.1293 83.8186 43.6723 83.8816 43.168 83.8816ZM43.6171 81.9669C44.1372 81.9669 44.6021 81.8644 45.0118 81.6595C45.4216 81.4547 45.7683 81.1789 46.052 80.8322C46.3356 80.4697 46.5484 80.0757 46.6902 79.6502C46.8478 79.209 46.9345 78.744 46.9503 78.2555H44.1372C43.4438 78.2555 42.8843 78.3343 42.4588 78.4919C42.0491 78.6495 41.7496 78.8701 41.5605 79.1538C41.3714 79.4375 41.2769 79.7684 41.2769 80.1466C41.2769 80.5091 41.3635 80.8322 41.5369 81.1158C41.726 81.3838 41.9939 81.5965 42.3406 81.7541C42.6873 81.8959 43.1128 81.9669 43.6171 81.9669ZM51.5289 83.598V81.6832L57.8642 73.835H51.6471V71.8729H60.5354V73.7877L54.1765 81.6359H60.6536V83.598H51.5289ZM67.1996 83.8816C66.2068 83.8816 65.3873 83.724 64.7412 83.4088C64.095 83.0779 63.6143 82.6366 63.2992 82.0851C62.984 81.5335 62.8264 80.9346 62.8264 80.2885C62.8264 79.5163 63.0234 78.8544 63.4174 78.3028C63.8271 77.7512 64.4102 77.3257 65.1667 77.0263C65.9389 76.7268 66.8608 76.5771 67.9324 76.5771H71.0292C71.0292 75.8995 70.9189 75.34 70.6982 74.8987C70.4934 74.4575 70.186 74.1265 69.7763 73.9059C69.3666 73.6695 68.8701 73.5513 68.287 73.5513C67.5621 73.5513 66.9317 73.7247 66.3959 74.0714C65.8758 74.4181 65.5606 74.9303 65.4503 75.6079H63.0864C63.181 74.7569 63.4725 74.032 63.9611 73.4331C64.4496 72.8342 65.0721 72.3772 65.8286 72.062C66.6008 71.7468 67.4203 71.5893 68.287 71.5893C69.3902 71.5893 70.32 71.7862 71.0765 72.1802C71.8329 72.5742 72.4081 73.1258 72.8021 73.835C73.1961 74.5442 73.3931 75.3952 73.3931 76.388V83.598H71.3365L71.1474 81.5886C70.9898 81.9038 70.7849 82.2032 70.5328 82.4869C70.2964 82.7706 70.0127 83.0149 69.6817 83.2197C69.3666 83.4246 68.9962 83.5822 68.5707 83.6925C68.161 83.8186 67.7039 83.8816 67.1996 83.8816ZM67.6488 81.9669C68.1688 81.9669 68.6337 81.8644 69.0435 81.6595C69.4532 81.4547 69.7999 81.1789 70.0836 80.8322C70.3673 80.4697 70.58 80.0757 70.7219 79.6502C70.8795 79.209 70.9661 78.744 70.9819 78.2555H68.1688C67.4754 78.2555 66.916 78.3343 66.4905 78.4919C66.0807 78.6495 65.7813 78.8701 65.5922 79.1538C65.403 79.4375 65.3085 79.7684 65.3085 80.1466C65.3085 80.5091 65.3952 80.8322 65.5685 81.1158C65.7576 81.3838 66.0255 81.5965 66.3723 81.7541C66.719 81.8959 67.1445 81.9669 67.6488 81.9669ZM83.8579 83.598L78.3499 77.1445L83.2905 71.8729H86.1509L80.2647 78.0428L80.2884 76.2698L86.8364 83.598H83.8579ZM76.3642 83.598V66.5777H78.7282V83.598H76.3642ZM88.8302 83.598V66.5777H91.1941V73.7877C91.5881 73.0943 92.1318 72.5585 92.8253 72.1802C93.5187 71.7862 94.3066 71.5893 95.1892 71.5893C96.1032 71.5893 96.8991 71.7862 97.5767 72.1802C98.2544 72.5585 98.7744 73.1337 99.1369 73.9059C99.4994 74.6781 99.6806 75.6473 99.6806 76.8135V83.598H97.3403V77.0499C97.3403 75.9152 97.1118 75.0563 96.6548 74.4732C96.1978 73.8901 95.4965 73.5986 94.5509 73.5986C93.9205 73.5986 93.3453 73.7562 92.8253 74.0714C92.3209 74.3708 91.9191 74.8121 91.6197 75.3952C91.336 75.9625 91.1941 76.6717 91.1941 77.5227V83.598H88.8302ZM107.268 83.8816C106.307 83.8816 105.44 83.7162 104.668 83.3852C103.911 83.0543 103.304 82.5894 102.847 81.9905C102.39 81.3916 102.115 80.6982 102.02 79.9102H104.408C104.502 80.2885 104.668 80.6352 104.904 80.9504C105.14 81.2498 105.456 81.4941 105.85 81.6832C106.259 81.8723 106.732 81.9669 107.268 81.9669C107.788 81.9669 108.213 81.8959 108.544 81.7541C108.875 81.5965 109.12 81.3916 109.277 81.1395C109.435 80.8873 109.514 80.6194 109.514 80.3358C109.514 79.9102 109.403 79.5872 109.183 79.3665C108.962 79.1459 108.639 78.9726 108.213 78.8465C107.804 78.7046 107.315 78.5786 106.748 78.4683C106.259 78.3579 105.763 78.224 105.259 78.0664C104.754 77.9088 104.297 77.7118 103.887 77.4754C103.478 77.2233 103.147 76.9081 102.895 76.5298C102.642 76.1516 102.516 75.6946 102.516 75.1588C102.516 74.4654 102.69 73.8507 103.036 73.3149C103.399 72.7791 103.911 72.3615 104.573 72.062C105.235 71.7468 106.023 71.5893 106.937 71.5893C108.229 71.5893 109.277 71.9044 110.081 72.5348C110.9 73.1494 111.373 74.032 111.499 75.1824H109.23C109.151 74.6623 108.915 74.2526 108.521 73.9532C108.127 73.6537 107.591 73.504 106.913 73.504C106.251 73.504 105.739 73.638 105.377 73.9059C105.03 74.1738 104.857 74.5284 104.857 74.9697C104.857 75.2376 104.959 75.474 105.164 75.6788C105.385 75.8837 105.692 76.0649 106.086 76.2225C106.496 76.3644 106.976 76.4983 107.528 76.6244C108.3 76.782 109.017 76.979 109.679 77.2154C110.341 77.436 110.877 77.7748 111.287 78.2319C111.696 78.6731 111.901 79.3193 111.901 80.1703C111.917 80.8952 111.736 81.5414 111.357 82.1087C110.979 82.6603 110.443 83.0937 109.75 83.4088C109.057 83.724 108.229 83.8816 107.268 83.8816ZM119.047 83.598C118.29 83.598 117.636 83.4798 117.085 83.2434C116.533 83.007 116.108 82.613 115.808 82.0614C115.509 81.5098 115.359 80.7613 115.359 79.8157V73.8586H113.35V71.8729H115.359L115.666 68.9417H117.723V71.8729H121.08V73.8586H117.723V79.8393C117.723 80.517 117.865 80.9819 118.149 81.234C118.432 81.4704 118.921 81.5886 119.614 81.5886H120.938V83.598H119.047ZM127.613 83.8816C126.621 83.8816 125.801 83.724 125.155 83.4088C124.509 83.0779 124.028 82.6366 123.713 82.0851C123.398 81.5335 123.24 80.9346 123.24 80.2885C123.24 79.5163 123.437 78.8544 123.831 78.3028C124.241 77.7512 124.824 77.3257 125.58 77.0263C126.353 76.7268 127.275 76.5771 128.346 76.5771H131.443C131.443 75.8995 131.333 75.34 131.112 74.8987C130.907 74.4575 130.6 74.1265 130.19 73.9059C129.78 73.6695 129.284 73.5513 128.701 73.5513C127.976 73.5513 127.346 73.7247 126.81 74.0714C126.29 74.4181 125.974 74.9303 125.864 75.6079H123.5C123.595 74.7569 123.886 74.032 124.375 73.4331C124.863 72.8342 125.486 72.3772 126.242 72.062C127.015 71.7468 127.834 71.5893 128.701 71.5893C129.804 71.5893 130.734 71.7862 131.49 72.1802C132.247 72.5742 132.822 73.1258 133.216 73.835C133.61 74.5442 133.807 75.3952 133.807 76.388V83.598H131.75L131.561 81.5886C131.404 81.9038 131.199 82.2032 130.947 82.4869C130.71 82.7706 130.427 83.0149 130.096 83.2197C129.78 83.4246 129.41 83.5822 128.985 83.6925C128.575 83.8186 128.118 83.8816 127.613 83.8816ZM128.063 81.9669C128.583 81.9669 129.048 81.8644 129.457 81.6595C129.867 81.4547 130.214 81.1789 130.497 80.8322C130.781 80.4697 130.994 80.0757 131.136 79.6502C131.293 79.209 131.38 78.744 131.396 78.2555H128.583C127.889 78.2555 127.33 78.3343 126.904 78.4919C126.495 78.6495 126.195 78.8701 126.006 79.1538C125.817 79.4375 125.722 79.7684 125.722 80.1466C125.722 80.5091 125.809 80.8322 125.982 81.1158C126.171 81.3838 126.439 81.5965 126.786 81.7541C127.133 81.8959 127.558 81.9669 128.063 81.9669ZM136.778 83.598V71.8729H138.882L139.047 73.9295C139.426 73.2046 139.961 72.6373 140.655 72.2275C141.348 71.802 142.152 71.5893 143.066 71.5893C144.012 71.5893 144.823 71.7862 145.501 72.1802C146.179 72.5585 146.699 73.1337 147.061 73.9059C147.439 74.6781 147.628 75.6473 147.628 76.8135V83.598H145.288V77.0499C145.288 75.9152 145.044 75.0563 144.555 74.4732C144.083 73.8901 143.373 73.5986 142.428 73.5986C141.797 73.5986 141.23 73.7562 140.726 74.0714C140.237 74.3708 139.851 74.8121 139.568 75.3952C139.284 75.9625 139.142 76.6717 139.142 77.5227V83.598H136.778Z" fill="black"/>
<path d="M45.2789 133.202C44.6722 133.202 44.1443 133.091 43.6951 132.871C43.246 132.65 42.8993 132.343 42.655 131.949C42.4107 131.555 42.2886 131.098 42.2886 130.578H43.3287C43.3287 130.901 43.4036 131.2 43.5533 131.476C43.703 131.744 43.9197 131.961 44.2033 132.126C44.4949 132.284 44.8534 132.363 45.2789 132.363C45.6493 132.363 45.9645 132.303 46.2245 132.185C46.4924 132.059 46.6933 131.89 46.8273 131.677C46.9691 131.464 47.0401 131.224 47.0401 130.956C47.0401 130.641 46.9731 130.385 46.8391 130.188C46.7052 129.983 46.52 129.817 46.2836 129.691C46.0551 129.565 45.7872 129.455 45.4799 129.36C45.1804 129.258 44.8574 129.148 44.5107 129.029C43.8409 128.809 43.3484 128.533 43.0332 128.202C42.7259 127.871 42.5722 127.442 42.5722 126.914C42.5722 126.465 42.6747 126.071 42.8796 125.732C43.0923 125.393 43.3917 125.129 43.7778 124.94C44.1718 124.743 44.6367 124.644 45.1726 124.644C45.7005 124.644 46.1575 124.743 46.5436 124.94C46.9376 125.137 47.2449 125.409 47.4656 125.755C47.6862 126.094 47.7965 126.488 47.7965 126.937H46.7564C46.7564 126.709 46.6973 126.484 46.5791 126.264C46.4609 126.043 46.2797 125.862 46.0354 125.72C45.799 125.57 45.4996 125.495 45.1371 125.495C44.8377 125.487 44.5698 125.539 44.3334 125.649C44.1049 125.751 43.9236 125.901 43.7897 126.098C43.6636 126.295 43.6005 126.535 43.6005 126.819C43.6005 127.087 43.6557 127.304 43.766 127.469C43.8842 127.635 44.0497 127.777 44.2624 127.895C44.4831 128.005 44.7392 128.107 45.0307 128.202C45.3223 128.297 45.6453 128.403 45.9999 128.521C46.4018 128.655 46.7564 128.821 47.0637 129.018C47.3789 129.207 47.6232 129.451 47.7965 129.75C47.9777 130.05 48.0684 130.432 48.0684 130.897C48.0684 131.291 47.962 131.665 47.7492 132.02C47.5444 132.366 47.237 132.65 46.8273 132.871C46.4176 133.091 45.9014 133.202 45.2789 133.202ZM52.1344 133.202C51.567 133.202 51.0627 133.072 50.6215 132.812C50.1802 132.552 49.8335 132.185 49.5814 131.712C49.3371 131.232 49.215 130.672 49.215 130.034C49.215 129.38 49.341 128.817 49.5932 128.344C49.8453 127.871 50.192 127.505 50.6333 127.245C51.0824 126.985 51.5907 126.855 52.158 126.855C52.7254 126.855 53.2297 126.985 53.6709 127.245C54.1122 127.505 54.455 127.871 54.6992 128.344C54.9514 128.817 55.0775 129.376 55.0775 130.022C55.0775 130.668 54.9514 131.232 54.6992 131.712C54.4471 132.185 54.0964 132.552 53.6473 132.812C53.206 133.072 52.7017 133.202 52.1344 133.202ZM52.1344 132.351C52.489 132.351 52.812 132.264 53.1036 132.091C53.3951 131.917 53.6276 131.657 53.801 131.311C53.9743 130.964 54.061 130.534 54.061 130.022C54.061 129.502 53.9743 129.073 53.801 128.734C53.6355 128.387 53.407 128.131 53.1154 127.966C52.8239 127.792 52.5047 127.706 52.158 127.706C51.8113 127.706 51.4922 127.792 51.2006 127.966C50.9091 128.131 50.6727 128.387 50.4915 128.734C50.3181 129.081 50.2314 129.51 50.2314 130.022C50.2314 130.534 50.3181 130.964 50.4915 131.311C50.6648 131.657 50.8933 131.917 51.177 132.091C51.4686 132.264 51.7877 132.351 52.1344 132.351ZM58.691 133.202C58.234 133.202 57.8321 133.115 57.4854 132.942C57.1466 132.76 56.8826 132.485 56.6935 132.114C56.5123 131.744 56.4217 131.283 56.4217 130.731V126.996H57.4145V130.625C57.4145 131.2 57.5445 131.634 57.8046 131.925C58.0725 132.209 58.4428 132.351 58.9156 132.351C59.2387 132.351 59.5302 132.276 59.7903 132.126C60.0503 131.969 60.2552 131.744 60.4049 131.452C60.5625 131.153 60.6413 130.787 60.6413 130.353V126.996H61.6341V133.06H60.7358L60.6767 132.043C60.4955 132.406 60.2315 132.69 59.8848 132.894C59.5381 133.099 59.1402 133.202 58.691 133.202ZM65.6669 133.06C65.3123 133.06 65.005 133.005 64.745 132.894C64.4849 132.784 64.284 132.599 64.1422 132.339C64.0082 132.071 63.9412 131.712 63.9412 131.263V127.836H62.8775V126.996H63.9412L64.0713 125.507H64.9341V126.996H66.6834V127.836H64.9341V131.263C64.9341 131.634 65.0089 131.886 65.1587 132.02C65.3084 132.146 65.5723 132.209 65.9506 132.209H66.6243V133.06H65.6669ZM68.0005 133.06V124.55H68.9934V128.001C69.1983 127.639 69.478 127.359 69.8326 127.162C70.1872 126.957 70.5733 126.855 70.9909 126.855C71.4637 126.855 71.8655 126.945 72.1965 127.126C72.5353 127.308 72.7954 127.583 72.9766 127.954C73.1578 128.324 73.2484 128.793 73.2484 129.36V133.06H72.2674V129.467C72.2674 128.884 72.1374 128.446 71.8774 128.155C71.6173 127.855 71.2509 127.706 70.7781 127.706C70.4551 127.706 70.1556 127.784 69.8799 127.942C69.6119 128.1 69.3952 128.332 69.2298 128.639C69.0722 128.939 68.9934 129.309 68.9934 129.75V133.06H68.0005ZM80.6916 133.202C80.0848 133.202 79.5569 133.091 79.1077 132.871C78.6586 132.65 78.3119 132.343 78.0676 131.949C77.8233 131.555 77.7012 131.098 77.7012 130.578H78.7413C78.7413 130.901 78.8162 131.2 78.9659 131.476C79.1156 131.744 79.3323 131.961 79.616 132.126C79.9075 132.284 80.266 132.363 80.6916 132.363C81.0619 132.363 81.3771 132.303 81.6371 132.185C81.905 132.059 82.106 131.89 82.2399 131.677C82.3818 131.464 82.4527 131.224 82.4527 130.956C82.4527 130.641 82.3857 130.385 82.2517 130.188C82.1178 129.983 81.9326 129.817 81.6962 129.691C81.4677 129.565 81.1998 129.455 80.8925 129.36C80.5931 129.258 80.27 129.148 79.9233 129.029C79.2535 128.809 78.761 128.533 78.4458 128.202C78.1385 127.871 77.9849 127.442 77.9849 126.914C77.9849 126.465 78.0873 126.071 78.2922 125.732C78.5049 125.393 78.8044 125.129 79.1905 124.94C79.5845 124.743 80.0494 124.644 80.5852 124.644C81.1131 124.644 81.5701 124.743 81.9562 124.94C82.3502 125.137 82.6575 125.409 82.8782 125.755C83.0988 126.094 83.2091 126.488 83.2091 126.937H82.169C82.169 126.709 82.1099 126.484 81.9917 126.264C81.8735 126.043 81.6923 125.862 81.448 125.72C81.2116 125.57 80.9122 125.495 80.5497 125.495C80.2503 125.487 79.9824 125.539 79.746 125.649C79.5175 125.751 79.3362 125.901 79.2023 126.098C79.0762 126.295 79.0132 126.535 79.0132 126.819C79.0132 127.087 79.0683 127.304 79.1786 127.469C79.2968 127.635 79.4623 127.777 79.6751 127.895C79.8957 128.005 80.1518 128.107 80.4433 128.202C80.7349 128.297 81.058 128.403 81.4125 128.521C81.8144 128.655 82.169 128.821 82.4763 129.018C82.7915 129.207 83.0358 129.451 83.2091 129.75C83.3904 130.05 83.481 130.432 83.481 130.897C83.481 131.291 83.3746 131.665 83.1618 132.02C82.957 132.366 82.6497 132.65 82.2399 132.871C81.8302 133.091 81.3141 133.202 80.6916 133.202ZM88.5399 133.06L85.7032 129.762L88.3271 126.996H89.5445L86.5423 130.117L86.5542 129.408L89.8046 133.06H88.5399ZM84.8758 133.06V124.55H85.8686V133.06H84.8758ZM91.517 135.66L92.9472 132.398H92.6044L90.2759 126.996H91.3515L93.2899 131.642L95.3111 126.996H96.3394L92.5453 135.66H91.517ZM97.4226 133.06V124.55H98.4154V133.06H97.4226ZM102.016 133.202C101.535 133.202 101.134 133.115 100.81 132.942C100.495 132.768 100.259 132.54 100.101 132.256C99.9437 131.965 99.8649 131.653 99.8649 131.322C99.8649 130.921 99.9673 130.578 100.172 130.294C100.385 130.01 100.68 129.794 101.059 129.644C101.437 129.494 101.882 129.419 102.394 129.419H103.954C103.954 129.033 103.903 128.714 103.801 128.462C103.698 128.202 103.537 128.009 103.316 127.883C103.103 127.757 102.832 127.694 102.501 127.694C102.13 127.694 101.811 127.784 101.543 127.966C101.283 128.147 101.122 128.419 101.059 128.781H100.042C100.089 128.364 100.227 128.013 100.456 127.729C100.692 127.446 100.992 127.229 101.354 127.079C101.717 126.929 102.099 126.855 102.501 126.855C103.052 126.855 103.509 126.957 103.872 127.162C104.234 127.359 104.502 127.639 104.675 128.001C104.857 128.356 104.947 128.773 104.947 129.254V133.06H104.061L104.002 131.996C103.923 132.162 103.821 132.319 103.694 132.469C103.576 132.611 103.434 132.737 103.269 132.847C103.111 132.957 102.926 133.044 102.713 133.107C102.501 133.17 102.268 133.202 102.016 133.202ZM102.158 132.363C102.426 132.363 102.67 132.303 102.891 132.185C103.119 132.067 103.312 131.909 103.47 131.712C103.627 131.515 103.746 131.295 103.824 131.051C103.911 130.798 103.954 130.538 103.954 130.27V130.188H102.477C102.099 130.188 101.791 130.235 101.555 130.33C101.327 130.424 101.161 130.554 101.059 130.72C100.956 130.885 100.905 131.07 100.905 131.275C100.905 131.496 100.952 131.689 101.047 131.854C101.141 132.012 101.283 132.138 101.472 132.233C101.661 132.319 101.89 132.363 102.158 132.363ZM106.896 133.06V126.181C106.896 125.803 106.959 125.495 107.085 125.259C107.211 125.015 107.396 124.837 107.641 124.727C107.893 124.609 108.2 124.55 108.563 124.55H109.331V125.401H108.716C108.417 125.401 108.204 125.464 108.078 125.59C107.952 125.708 107.889 125.917 107.889 126.216V133.06H106.896ZM105.962 127.836V126.996H109.449V127.836H105.962ZM113.091 133.202C112.523 133.202 112.019 133.072 111.578 132.812C111.137 132.552 110.79 132.185 110.538 131.712C110.293 131.232 110.171 130.672 110.171 130.034C110.171 129.38 110.297 128.817 110.55 128.344C110.802 127.871 111.148 127.505 111.59 127.245C112.039 126.985 112.547 126.855 113.114 126.855C113.682 126.855 114.186 126.985 114.627 127.245C115.069 127.505 115.411 127.871 115.656 128.344C115.908 128.817 116.034 129.376 116.034 130.022C116.034 130.668 115.908 131.232 115.656 131.712C115.403 132.185 115.053 132.552 114.604 132.812C114.162 133.072 113.658 133.202 113.091 133.202ZM113.091 132.351C113.445 132.351 113.768 132.264 114.06 132.091C114.351 131.917 114.584 131.657 114.757 131.311C114.931 130.964 115.017 130.534 115.017 130.022C115.017 129.502 114.931 129.073 114.757 128.734C114.592 128.387 114.363 128.131 114.072 127.966C113.78 127.792 113.461 127.706 113.114 127.706C112.768 127.706 112.449 127.792 112.157 127.966C111.865 128.131 111.629 128.387 111.448 128.734C111.274 129.081 111.188 129.51 111.188 130.022C111.188 130.534 111.274 130.964 111.448 131.311C111.621 131.657 111.85 131.917 112.133 132.091C112.425 132.264 112.744 132.351 113.091 132.351ZM117.449 133.06V126.996H118.347L118.43 128.131C118.564 127.855 118.737 127.623 118.95 127.434C119.171 127.245 119.435 127.103 119.742 127.008C120.057 126.906 120.408 126.855 120.794 126.855V127.895H120.321C120.077 127.895 119.84 127.926 119.612 127.989C119.391 128.052 119.19 128.159 119.009 128.308C118.836 128.45 118.698 128.647 118.595 128.899C118.493 129.152 118.442 129.463 118.442 129.833V133.06H117.449ZM124.303 133.06C123.949 133.06 123.641 133.005 123.381 132.894C123.121 132.784 122.92 132.599 122.778 132.339C122.645 132.071 122.578 131.712 122.578 131.263V127.836H121.514V126.996H122.578L122.708 125.507H123.57V126.996H125.32V127.836H123.57V131.263C123.57 131.634 123.645 131.886 123.795 132.02C123.945 132.146 124.209 132.209 124.587 132.209H125.261V133.06H124.303Z" fill="black"/>
<path d="M77.7947 391.729C112.981 391.669 115.706 328.83 141.916 324.948C168.126 321.065 182.119 479.515 205.446 471.511C228.774 463.506 237.625 240.203 268.386 228.914C299.146 217.625 304.509 381.15 332.211 384.341C359.914 387.532 367.733 301.9 396.333 301.9C424.932 301.9 429.342 468.248 459.568 465.306C489.793 462.363 490.942 269.987 523.393 269.987C555.845 269.987 558.393 488.872 586.924 496.923C615.454 504.974 621.128 420.182 650.454 391.729C679.78 363.275 687.128 221.747 714.575 216.799C742.023 211.85 754.746 379.989 778.401 391.729C802.057 403.468 841.341 218.572 841.341 218.572" stroke="#FF3A29" stroke-width="2.36392" stroke-linecap="round"/>
<path d="M77.7947 461.464C112.981 461.412 118.331 364.855 141.325 360.998C164.319 357.14 178.921 392.734 205.151 394.388C231.381 396.042 244.745 365.271 268.09 368.68C291.435 372.09 301.427 450.45 332.211 455.259C362.996 460.068 368.609 406.976 396.333 405.617C424.057 404.257 430.946 449.645 459.568 449.645C488.189 449.645 492.849 370.086 523.098 371.34C553.347 372.593 554.448 454.372 586.924 454.372C619.4 454.372 622.493 361.177 651.045 357.747C679.598 354.318 685.227 390.541 714.575 402.662C743.924 414.782 750.637 482.996 778.106 485.103C805.574 487.211 818.044 507.561 841.341 507.561" stroke="#4339F2" stroke-width="2.36392" stroke-linecap="round"/>
<path d="M77.7947 216.799C110.049 216.906 118.008 244.6 141.03 248.121C164.051 251.641 178.594 206.193 204.855 204.684C231.117 203.174 245.012 263.052 268.386 259.94C291.759 256.828 301.095 229.756 331.916 225.368C362.737 220.979 367.984 265.2 395.742 266.441C423.499 267.681 430.912 167.156 459.568 167.156C488.224 167.156 492.813 235.376 523.098 234.233C553.383 233.089 554.409 195.228 586.924 195.228C619.439 195.228 622.163 229.034 650.75 232.164C679.337 235.294 684.896 271.001 714.28 259.94C743.663 248.879 750.013 206.607 777.515 204.684C805.016 202.76 818.016 275.897 841.341 275.897" stroke="#34B53A" stroke-width="2.36392" stroke-linecap="round"/>
<path d="M77.7947 280.624C109.462 280.741 118.008 300.162 141.03 303.673C164.051 307.184 178.594 361.912 204.855 360.407C231.117 358.901 245.308 276.636 268.681 273.533C292.055 270.429 301.686 303.026 332.507 298.649C363.328 294.272 368.575 260.771 396.333 262.009C424.09 263.246 430.912 282.102 459.568 282.102C488.224 282.102 493.108 242.761 523.393 241.62C553.678 240.479 554.409 307.219 586.924 307.219C619.439 307.219 622.163 353.739 650.75 356.861C679.337 359.983 685.192 283.088 714.575 272.055C743.959 261.023 750.309 339.573 777.81 337.654C805.312 335.735 818.016 275.897 841.341 275.897" stroke="#FFB200" stroke-width="2.36392" stroke-linecap="round"/>
</g>
<defs>
<clipPath id="clip0_410_5382">
<rect width="547.247" height="380" fill="white" transform="translate(0.376465 0.5)"/>
</clipPath>
<clipPath id="clip1_410_5382">
<rect width="45.5054" height="14.1835" fill="white" transform="translate(24.0156 15.8655)"/>
</clipPath>
<clipPath id="clip2_410_5382">
<rect width="17.1384" height="359.316" fill="white" transform="translate(41.7451 154.155)"/>
</clipPath>
</defs>
</svg>
