<svg width="1550" height="53" viewBox="0 0 1550 53" fill="none" xmlns="http://www.w3.org/2000/svg">
<path d="M31.8254 32.5657L32.881 30.1139C34.0218 30.9652 35.5371 31.4079 37.0354 31.4079C38.1422 31.4079 38.8402 30.9822 38.8402 30.3352C38.8232 28.5304 32.217 29.9436 32.1659 25.4146C32.1489 23.1161 34.192 21.3453 37.0865 21.3453C38.8062 21.3453 40.5258 21.771 41.7517 22.7415L40.7642 25.2443C39.6405 24.5292 38.2443 24.0184 36.9163 24.0184C36.0139 24.0184 35.4179 24.4441 35.4179 24.9889C35.435 26.7597 42.0923 25.7892 42.1604 30.1139C42.1604 32.4635 40.1683 34.1151 37.3079 34.1151C35.2136 34.1151 33.2896 33.6213 31.8254 32.5657ZM72.3311 29.2285C71.8033 30.1479 70.8157 30.7779 69.675 30.7779C67.9894 30.7779 66.6273 29.4158 66.6273 27.7302C66.6273 26.0446 67.9894 24.6825 69.675 24.6825C70.8157 24.6825 71.8033 25.3125 72.3311 26.2319L75.2426 24.6144C74.1529 22.6734 72.0587 21.3453 69.675 21.3453C66.1505 21.3453 63.2901 24.2057 63.2901 27.7302C63.2901 31.2547 66.1505 34.1151 69.675 34.1151C72.0757 34.1151 74.1529 32.8041 75.2426 30.846L72.3311 29.2285V29.2285ZM43.6246 16.0501H47.2683V33.8767H43.6246V16.0501ZM76.6728 16.0501V33.8767H80.3165V28.5304L84.6412 33.8767H89.3064L83.8069 27.5259L88.8977 21.6007H84.4368L80.3165 26.5213V16.0501H76.6728ZM58.0971 29.2626C57.5692 30.1309 56.4795 30.7779 55.2537 30.7779C53.568 30.7779 52.2059 29.4158 52.2059 27.7302C52.2059 26.0446 53.568 24.6825 55.2537 24.6825C56.4795 24.6825 57.5692 25.3635 58.0971 26.2489V29.2626ZM58.0971 21.6007V23.0479C57.5011 22.0434 56.0198 21.3453 54.4704 21.3453C51.2695 21.3453 48.7496 24.1717 48.7496 27.7132C48.7496 31.2547 51.2695 34.1151 54.4704 34.1151C56.0198 34.1151 57.5011 33.417 58.0971 32.4124V33.8597H61.7407V21.6007H58.0971Z" fill="black"/>
<path d="M9.29977 29.245C9.29977 30.488 8.29521 31.4925 7.05229 31.4925C5.80937 31.4925 4.80481 30.488 4.80481 29.245C4.80481 28.0021 5.80937 26.9976 7.05229 26.9976H9.29977V29.245ZM10.4235 29.245C10.4235 28.0021 11.4281 26.9976 12.671 26.9976C13.9139 26.9976 14.9185 28.0021 14.9185 29.245V34.8637C14.9185 36.1067 13.9139 37.1112 12.671 37.1112C11.4281 37.1112 10.4235 36.1067 10.4235 34.8637V29.245Z" fill="#E01E5A"/>
<path d="M12.6707 20.2214C11.4278 20.2214 10.4233 19.2168 10.4233 17.9739C10.4233 16.731 11.4278 15.7264 12.6707 15.7264C13.9137 15.7264 14.9182 16.731 14.9182 17.9739V20.2214H12.6707ZM12.6707 21.3622C13.9137 21.3622 14.9182 22.3667 14.9182 23.6096C14.9182 24.8526 13.9137 25.8571 12.6707 25.8571H7.03502C5.79209 25.8571 4.78754 24.8526 4.78754 23.6096C4.78754 22.3667 5.79209 21.3622 7.03502 21.3622H12.6707Z" fill="#36C5F0"/>
<path d="M21.6781 23.6095C21.6781 22.3666 22.6826 21.362 23.9256 21.362C25.1685 21.362 26.173 22.3666 26.173 23.6095C26.173 24.8524 25.1685 25.857 23.9256 25.857H21.6781V23.6095ZM20.5543 23.6095C20.5543 24.8524 19.5498 25.857 18.3069 25.857C17.0639 25.857 16.0594 24.8524 16.0594 23.6095V17.9738C16.0594 16.7309 17.0639 15.7263 18.3069 15.7263C19.5498 15.7263 20.5543 16.7309 20.5543 17.9738V23.6095V23.6095Z" fill="#2EB67D"/>
<path d="M18.3069 32.6163C19.5498 32.6163 20.5543 33.6208 20.5543 34.8637C20.5543 36.1067 19.5498 37.1112 18.3069 37.1112C17.0639 37.1112 16.0594 36.1067 16.0594 34.8637V32.6163H18.3069ZM18.3069 31.4925C17.0639 31.4925 16.0594 30.488 16.0594 29.245C16.0594 28.0021 17.0639 26.9976 18.3069 26.9976H23.9426C25.1855 26.9976 26.1901 28.0021 26.1901 29.245C26.1901 30.488 25.1855 31.4925 23.9426 31.4925H18.3069Z" fill="#ECB22E"/>
<path opacity="0.6" d="M208.384 19.8383V16.4329H204.276V19.8383H194.835V20.0772C194.04 19.7618 193.192 19.6039 192.337 19.6122C190.522 19.6122 188.961 20.249 187.696 21.5039C187.295 21.899 186.946 22.3436 186.657 22.827C186.424 22.2654 186.096 21.7479 185.688 21.2966C184.654 20.1621 183.242 19.5865 181.486 19.5865C180.943 19.5826 180.403 19.6567 179.882 19.8067V16.4171H175.774V18.8954C175.251 18.3161 174.645 17.8171 173.977 17.4143C172.696 16.6162 171.218 16.1921 169.71 16.19C167.396 16.19 165.407 16.9927 163.795 18.5764C163.402 18.962 163.047 19.3846 162.735 19.8383H159.033L157.415 23.9624L155.798 19.8383H153.462V16.6264H151.113L145.22 24.0385L139.29 16.6264H136.965V32.4349H141.29V25.8582L144.359 29.7908H145.998L149.138 25.8285V31.5345C148.992 31.6703 148.857 31.8183 148.736 31.9768C148.399 32.4207 148.182 32.9435 148.104 33.4953C148.087 33.6109 148.077 33.7284 148.07 33.8557L148.064 34.0532V34.0808C148.067 34.19 148.077 34.2988 148.094 34.4067C148.146 34.7196 148.249 35.0221 148.398 35.3022C148.671 35.8175 149.081 36.2478 149.582 36.5463C150.007 36.7979 150.476 36.9655 150.965 37.0399C151.253 37.0882 151.545 37.112 151.837 37.111C151.948 37.111 152.061 37.111 152.173 37.1021C152.339 37.0952 152.533 37.0794 152.723 37.0567C152.927 37.0322 153.13 36.9967 153.33 36.9501C154.092 36.7633 154.814 36.4437 155.465 36.0062L155.475 35.9993C156.084 35.6068 156.63 35.124 157.094 34.5676C157.272 34.3545 157.437 34.131 157.588 33.8982C158.367 33.9772 159.168 34.0591 159.928 34.1529C161.268 34.3129 162.644 34.5024 164.133 34.7305L165.13 34.8875C166.216 35.0593 167.342 35.237 168.462 35.3812C171.453 35.7682 174.427 36.0269 177.304 36.1503C180.281 36.2781 183.262 36.2415 186.234 36.0407C189.51 35.8028 192.404 35.3772 195.079 34.7394C198.621 33.8992 201.514 32.895 203.676 31.7556L204.279 31.4387V32.4339H208.387V23.8163H210.689V19.8383H208.384ZM139.216 30.3615H139.038V19.6309L139.137 19.7573L139.211 22.8635C139.211 22.9317 139.211 22.9988 139.211 23.061L139.216 30.3615ZM149.338 22.2267C149.26 22.3333 149.188 22.4242 149.123 22.5081L145.185 27.4755L141.309 22.518L141.295 22.5012C141.23 22.4212 141.158 22.3284 141.082 22.2237L140.764 21.7883L145.225 27.3639L149.651 21.7962L149.338 22.2267ZM151.214 23.062C151.214 22.9958 151.214 22.9267 151.214 22.8556L151.272 19.7593L151.389 19.6122V19.8383H151.344L151.389 19.9508V30.3615H151.212L151.214 23.062ZM155.212 29.3741L155.148 29.5459L155.031 29.8323C154.916 29.8323 154.803 29.8352 154.693 29.8412H154.682C154.346 29.8569 154.045 29.8777 153.762 29.9043C153.663 29.9122 153.564 29.9221 153.466 29.9349V25.0594L155.214 29.3692C155.214 29.3692 155.209 29.3722 155.209 29.3741H155.212ZM160.487 30.2627C160.104 30.2154 159.715 30.1709 159.329 30.1295C159.475 29.7651 159.576 29.4985 159.625 29.3751L161.384 25.0397C161.495 27.0313 162.359 28.9062 163.801 30.2845C163.994 30.4731 164.196 30.6498 164.394 30.8167C163.016 30.5965 161.735 30.4148 160.484 30.2578L160.487 30.2627ZM164.535 27.9711C163.804 26.9541 163.435 25.7683 163.435 24.4344C163.435 23.1005 163.805 21.9107 164.537 20.8918C163.837 21.9167 163.483 23.1035 163.483 24.4344C163.483 25.7654 163.832 26.9443 164.531 27.9691L164.535 27.9711ZM175.778 26.1327H173.497L173.082 26.8376C172.786 27.3372 172.324 27.7618 171.7 28.0995C171.091 28.4398 170.407 28.6211 169.71 28.6267C168.515 28.6267 167.576 28.2426 166.756 27.4182C165.937 26.5937 165.553 25.6409 165.553 24.4344C165.553 23.2279 165.936 22.2731 166.758 21.4437C167.581 20.6143 168.515 20.2283 169.71 20.2283C170.379 20.2347 171.036 20.4089 171.621 20.7348C172.223 21.0577 172.67 21.4654 172.951 21.9463L173.365 22.6532H175.774L175.778 26.1327ZM177.851 25.0466V23.7235L178.333 23.3147C178.066 23.8539 177.901 24.4382 177.847 25.0377L177.851 25.0466ZM183.084 31.3024H179.882V25.8108C179.882 24.9932 180.04 24.3692 180.34 24.0059C180.507 23.8084 180.788 23.5734 181.486 23.5734C182.163 23.5734 182.449 23.8064 182.622 24.0089C182.926 24.3663 183.08 24.9281 183.08 25.6804L183.084 31.3024ZM194.16 28.0096C193.667 28.5171 193.119 28.7432 192.392 28.7432C192.062 28.7533 191.734 28.6933 191.429 28.5671C191.125 28.441 190.85 28.2517 190.624 28.0116C190.13 27.5051 189.895 26.9186 189.895 26.1672C189.895 25.4158 190.127 24.8264 190.626 24.3159C190.858 24.0836 191.133 23.8994 191.437 23.7736C191.74 23.6479 192.065 23.5832 192.393 23.5832C192.722 23.5832 193.047 23.6479 193.35 23.7736C193.654 23.8994 193.929 24.0836 194.161 24.3159C194.655 24.8224 194.891 25.4089 194.891 26.1603C194.891 26.9117 194.655 27.4903 194.156 28.0007L194.16 28.0096ZM196.874 28.132L196.287 28.6405C196.573 28.1785 196.771 27.6682 196.874 27.1348V28.132ZM196.874 25.1828C196.769 24.635 196.562 24.1119 196.263 23.6406L196.874 24.1728V25.1828ZM200.132 25.3329V24.0286L200.649 23.5636C200.361 24.1105 200.184 24.7086 200.126 25.324L200.132 25.3329ZM204.279 28.213L202.412 29.069C202.331 29.1066 202.248 29.1441 202.163 29.1806V26.0398C202.163 25.1413 202.423 24.5736 202.543 24.4463C202.938 24.0592 203.287 23.8598 203.615 23.8341L203.842 23.8163H204.279V28.213Z" fill="white"/>
<path opacity="0.6" d="M222.428 21.5515L222.033 22.3167L221.908 21.5515H218.115L218.141 21.6808C217.705 21.4795 217.23 21.3754 216.75 21.3757C216.666 21.3757 216.583 21.3757 216.503 21.3836L216.792 19.8354H213.139L211.484 28.7749H214.644C214.97 28.8935 215.315 28.9533 215.663 28.9517C216.38 28.9432 217.082 28.7509 217.704 28.3932C218.325 28.0355 218.844 27.5245 219.211 26.9088L219.289 27.2919L217.383 30.491H221.448L226.463 21.5515H222.428Z" fill="white"/>
<path fill-rule="evenodd" clip-rule="evenodd" d="M215.544 20.8485H214.004L212.732 27.7195H214.211L214.31 27.1725C214.458 27.5438 214.941 27.8962 215.665 27.8962C216.973 27.8962 218.439 26.9681 218.782 25.1129C219.144 23.1639 217.827 22.3937 216.75 22.3937C216.163 22.3802 215.593 22.589 215.154 22.9782L215.219 22.5833L215.544 20.8485ZM216.222 23.8274C216.982 23.8274 217.363 24.4672 217.241 25.1257V25.1356C217.112 25.8129 216.491 26.4527 215.701 26.4527C214.931 26.4527 214.56 25.8406 214.699 25.1257C214.811 24.4859 215.405 23.8274 216.222 23.8274Z" fill="#231F20"/>
<path d="M219.386 22.5655L220.388 27.4549L219.211 29.4316H220.844L224.695 22.5655H223.062L221.522 25.5533L221.028 22.5655H219.386Z" fill="#231F20"/>
<path d="M173.519 30.407C172.376 31.1197 171.057 31.4993 169.71 31.503C167.679 31.503 165.934 30.8049 164.522 29.4206C163.11 28.0364 162.394 26.3174 162.394 24.3111C162.394 22.3048 163.111 20.5818 164.522 19.1966C165.933 17.8113 167.678 17.1083 169.71 17.1083C171.027 17.1097 172.318 17.4798 173.437 18.1767C174.609 18.8954 175.46 19.8245 175.965 20.9412L176.214 21.4981H173.957L173.844 21.3006C173.465 20.6539 172.884 20.1158 172.115 19.7011C171.377 19.2921 170.549 19.0751 169.706 19.0702C168.237 19.0702 167.032 19.5659 166.019 20.5878C165.006 21.6097 164.512 22.8271 164.512 24.3081C164.512 25.7891 165.008 27.0085 166.021 28.0285C167.034 29.0484 168.24 29.5421 169.709 29.5421C170.578 29.5372 171.433 29.3131 172.193 28.8904C172.988 28.4609 173.58 27.906 173.975 27.2415L174.089 27.0441H176.346L176.096 27.597C175.584 28.7285 174.717 29.6764 173.519 30.407Z" fill="#231F20"/>
<path d="M179.542 23.221C179.079 23.7838 178.845 24.6132 178.845 25.6894V31.2759H176.811V17.3305H178.845V21.3964C179.544 20.803 180.429 20.5019 181.486 20.5019C182.938 20.5019 184.102 20.9748 184.92 21.8733C185.737 22.7718 186.151 24.0238 186.151 25.5937V31.2729H184.117V25.5561C184.117 24.551 183.87 23.7503 183.411 23.2122C182.952 22.674 182.322 22.4124 181.486 22.4124C180.628 22.4124 179.992 22.677 179.542 23.221Z" fill="#231F20"/>
<path fill-rule="evenodd" clip-rule="evenodd" d="M192.337 31.503C193.719 31.503 194.904 31.0764 195.871 30.2391V31.2759H197.906V20.7536H195.871V21.7983C194.903 20.9551 193.716 20.5275 192.337 20.5275C190.805 20.5275 189.489 21.0627 188.425 22.1192C187.36 23.1756 186.819 24.4888 186.819 26.0192C186.819 27.5496 187.359 28.8559 188.425 29.9113C189.49 30.9668 190.805 31.503 192.337 31.503ZM188.854 26.037C188.854 25.0101 189.19 24.1679 189.88 23.461C190.209 23.1303 190.6 22.8678 191.03 22.6887C191.461 22.5096 191.923 22.4174 192.389 22.4174C192.855 22.4174 193.317 22.5096 193.748 22.6887C194.178 22.8678 194.569 23.1303 194.898 23.461C195.589 24.165 195.924 25.0062 195.924 26.0281C195.924 27.05 195.588 27.8971 194.897 28.6041C194.568 28.9348 194.177 29.1972 193.747 29.3763C193.316 29.5553 192.855 29.6475 192.389 29.6475C191.922 29.6475 191.461 29.5553 191.03 29.3763C190.6 29.1972 190.209 28.9348 189.88 28.6041C189.189 27.9041 188.854 27.0638 188.854 26.037Z" fill="#231F20"/>
<path fill-rule="evenodd" clip-rule="evenodd" d="M207.347 17.3483V20.7537H209.652V22.6583H207.35V31.2759H205.315V22.6583H203.803L203.536 22.679C202.952 22.7244 202.387 23.0236 201.808 23.5933C201.396 24.0119 201.126 24.9252 201.126 25.9185V30.5887C201.745 30.3629 202.318 30.1296 202.844 29.8886L203.385 29.6398L203.408 30.6114L203.193 30.7249C201.108 31.8229 198.295 32.7964 194.84 33.6169C192.218 34.2419 189.379 34.6585 186.159 34.8925C183.224 35.0896 180.281 35.1249 177.343 34.9982C174.498 34.8758 171.555 34.62 168.593 34.2369C167.482 34.0918 166.364 33.9151 165.278 33.7433L164.291 33.5883C162.783 33.3572 161.394 33.1667 160.045 33.0047C159.147 32.8932 158.211 32.7994 157.305 32.7086L157.304 32.7085L157.024 32.6789C156.824 33.074 156.58 33.4455 156.297 33.7867C155.897 34.2658 155.425 34.681 154.899 35.0179C154.35 35.3889 153.74 35.6603 153.097 35.8197C152.934 35.8572 152.77 35.8862 152.604 35.9066C152.456 35.9233 152.285 35.9391 152.131 35.9451C152.033 35.953 151.937 35.953 151.844 35.953C151.61 35.954 151.376 35.9351 151.144 35.8967C150.785 35.843 150.44 35.721 150.127 35.5373C149.787 35.3367 149.509 35.0464 149.323 34.698C149.226 34.5168 149.159 34.3211 149.125 34.1185C149.115 34.0574 149.11 33.9957 149.108 33.9338V33.7877C149.113 33.6979 149.121 33.609 149.134 33.5211C149.186 33.1454 149.333 32.7893 149.562 32.4864C150.013 31.8969 150.648 31.6027 151.209 31.3914C151.324 31.3509 151.441 31.3134 151.558 31.2769H150.176V22.7155C150.093 22.8301 150.008 22.9426 149.926 23.0413L145.496 28.6327H144.864L140.495 23.0325C140.415 22.9337 140.332 22.8291 140.253 22.7175V31.2769H138.002V17.5418H138.792L145.222 25.5798L151.616 17.5418H152.428V31.0419C152.492 31.03 152.557 31.0175 152.623 31.0049C152.731 30.9841 152.842 30.9628 152.955 30.9431C153.252 30.8852 153.552 30.8427 153.854 30.8158C154.143 30.7881 154.433 30.7694 154.729 30.7555C155.04 30.7457 155.365 30.7457 155.717 30.7457C155.815 30.5186 155.966 30.1592 156.112 29.7998L156.181 29.6142C156.22 29.5065 156.261 29.3979 156.302 29.2903L156.324 29.235L152.882 20.7537H155.091L157.416 26.6778L159.74 20.7537H161.945L158.651 28.8717C158.562 29.1086 158.26 29.9005 157.819 30.8957C158.635 30.9678 159.501 31.0606 160.354 31.1653C161.73 31.3381 163.143 31.5415 164.676 31.7853L165.58 31.933C166.726 32.1207 167.805 32.2975 168.922 32.4508C171.806 32.8606 174.675 33.1459 177.452 33.2999C180.311 33.473 183.176 33.4938 186.036 33.3622C188.876 33.2388 191.703 32.9041 194.493 32.361C196.187 32.0207 197.719 31.6491 199.089 31.2463V20.7537H201.116V21.6275C201.69 21.1111 202.487 20.8297 203.486 20.7931H203.535V20.7537H205.312V17.3483H207.347ZM153.867 32.2692C153.715 32.2573 153.559 32.2524 153.381 32.2524C153.29 32.2524 153.193 32.2534 153.088 32.2622C152.575 32.2715 152.066 32.3448 151.571 32.4804C151.208 32.5861 150.726 32.7885 150.466 33.1578C150.36 33.3096 150.296 33.4867 150.279 33.6712C150.269 33.7468 150.268 33.8233 150.274 33.8993C150.292 33.9755 150.322 34.0483 150.363 34.1145C150.525 34.389 150.865 34.5618 151.299 34.5924C151.53 34.607 151.762 34.5957 151.99 34.5588C152.112 34.5401 152.221 34.5164 152.35 34.4858C152.458 34.4583 152.565 34.4254 152.67 34.387C153.105 34.2251 153.502 33.9762 153.838 33.6554C154.262 33.2786 154.633 32.8469 154.943 32.3718C154.845 32.3629 154.752 32.3541 154.674 32.3452C154.403 32.3136 154.135 32.2869 153.867 32.2692Z" fill="#231F20"/>
<path opacity="0.6" d="M275.314 20.9049C274.03 19.5651 271.957 18.9134 268.962 18.9134C266.982 18.9134 265.234 19.2432 263.751 19.8959L264.64 15.7263H257.21L256.274 20.1269C255.168 19.4357 253.731 19.0655 252.076 19.0655C251.372 19.0646 250.671 19.1538 249.99 19.3311H246.226L246.851 16.3937H229.868L226.486 32.9467H239.919L239.129 36.6651H246.561L247.338 33.0119C248.13 33.2557 248.955 33.375 249.783 33.3653C251.103 33.3716 252.411 33.1085 253.626 32.5922L253.55 32.9477H260.977L261.155 32.1055C262.472 32.9417 264.299 33.3653 266.599 33.3653C271.412 33.3653 274.536 31.5881 276.152 27.9112C276.378 27.3181 276.516 26.695 276.561 26.0619L276.635 24.7487C276.707 23.1906 276.262 21.8972 275.314 20.9049Z" fill="white"/>
<path d="M258.558 17.3928H262.579L262.063 19.8217H258.041L258.558 17.3928Z" fill="#CE1141"/>
<path fill-rule="evenodd" clip-rule="evenodd" d="M245.21 34.9983H241.187L241.978 31.2799H228.527L231.226 18.0523H244.79L244.169 20.9739H235.12L234.689 23.2349H242.665L242.073 26.043H234.096L233.667 28.3504H242.603L244.167 20.9897H248.075L247.785 22.3552H247.823C248.898 21.3116 250.447 20.7241 252.078 20.7241C255.042 20.7241 256.881 22.058 257.055 24.476L257.795 20.9917H261.817L261.02 24.7436C262.24 21.9583 265.137 20.576 268.966 20.576C272.667 20.576 275.112 21.6562 274.975 24.6686H270.807C270.71 23.7523 269.991 23.232 268.459 23.232C266.581 23.232 265.22 24.2756 264.825 26.1348C264.43 27.994 265.309 29.0376 267.244 29.0376C268.696 29.0376 269.806 28.4442 270.374 27.2436H274.628C273.378 30.0842 271.036 31.6936 266.604 31.6936C262.673 31.6936 260.438 30.3765 260.418 27.5753L259.628 31.2759H255.606L256.313 27.9456C255.187 30.1247 252.831 31.6975 249.781 31.6975C247.998 31.6975 246.757 31.1091 246.235 30.3508H246.197L245.21 34.9983ZM250.51 23.54C248.631 23.54 247.427 24.5639 247.089 26.1575C246.75 27.7511 247.518 28.776 249.397 28.776C251.236 28.776 252.435 27.8646 252.798 26.1575C253.162 24.4504 252.35 23.54 250.51 23.54Z" fill="#CE1141"/>
<path d="M323.268 31.914C323.159 31.8507 323.069 31.6958 323.069 31.57V21.2676C323.069 21.1415 323.159 20.9868 323.268 20.9235L332.305 15.7739C332.415 15.7106 332.594 15.7106 332.703 15.7739L341.739 20.924C341.849 20.9873 341.939 21.142 341.939 21.268V31.5704C341.939 31.6961 341.849 31.8509 341.739 31.9144L332.703 37.0641C332.594 37.1274 332.415 37.1274 332.305 37.0641L323.268 31.914ZM350.427 22.2929V26.4716H352.213C353.51 26.4716 354.087 25.9433 354.087 25.0787V23.6858C354.087 22.8214 353.51 22.2929 352.213 22.2929H350.427ZM350.427 27.8005V31.5308C350.427 31.7549 350.369 31.8509 350.167 31.8509H349.288C349.101 31.8509 349.029 31.7549 349.029 31.5308V21.2844C349.029 21.0602 349.101 20.9641 349.288 20.9641H352.213C354.692 20.9641 355.484 22.1168 355.484 23.4296V25.335C355.484 26.6477 354.692 27.8005 352.213 27.8005H350.427ZM358.736 22.2929V26.2154H360.523C361.82 26.2154 362.397 25.7031 362.397 24.8225V23.6858C362.397 22.8214 361.82 22.2929 360.523 22.2929H358.736ZM358.736 27.5443V31.5308C358.736 31.7549 358.679 31.8509 358.477 31.8509H357.598C357.411 31.8509 357.339 31.7549 357.339 31.5308V21.2844C357.339 21.0602 357.411 20.9641 357.598 20.9641H360.523C363.002 20.9641 363.794 22.1168 363.794 23.4296V25.0947C363.794 26.0713 363.348 26.9519 362.108 27.3363L363.838 31.5308C363.91 31.723 363.78 31.8509 363.578 31.8509H362.713C362.512 31.8509 362.483 31.723 362.397 31.5308L360.768 27.5443H358.736ZM371.37 23.5577C371.37 22.6932 370.761 22.1648 369.392 22.1648C368.039 22.1648 367.43 22.6932 367.43 23.5577V29.2573C367.43 30.1219 368.039 30.6502 369.392 30.6502C370.761 30.6502 371.37 30.1219 371.37 29.2573V23.5577ZM365.94 23.3016C365.94 21.9887 366.792 20.8361 369.392 20.8361C372.008 20.8361 372.86 21.9887 372.86 23.3016V29.5136C372.86 30.8264 372.008 31.9791 369.392 31.9791C366.792 31.9791 365.94 30.8264 365.94 29.5136V23.3016ZM380.891 20.9641C381.088 20.9641 381.18 21.0442 381.18 21.2683V21.9887C381.18 22.2129 381.088 22.2929 380.891 22.2929H378.457V31.5308C378.457 31.7549 378.381 31.8509 378.183 31.8509H377.241C377.043 31.8509 376.967 31.7549 376.967 31.5308V22.2929H374.533C374.32 22.2929 374.244 22.2129 374.244 21.9887V21.2683C374.244 21.0442 374.32 20.9641 374.533 20.9641H380.891ZM387.979 23.5577C387.979 22.6932 387.37 22.1648 386.002 22.1648C384.648 22.1648 384.04 22.6932 384.04 23.5577V29.2573C384.04 30.1219 384.648 30.6502 386.002 30.6502C387.37 30.6502 387.979 30.1219 387.979 29.2573V23.5577ZM382.549 23.3016C382.549 21.9887 383.401 20.8361 386.002 20.8361C388.618 20.8361 389.469 21.9887 389.469 23.3016V29.5136C389.469 30.8264 388.618 31.9791 386.002 31.9791C383.401 31.9791 382.549 30.8264 382.549 29.5136V23.3016ZM398.273 31.5467C398.273 31.7549 398.215 31.8509 398.014 31.8509H397.221C397.077 31.8509 397.019 31.8029 396.962 31.7068L393.575 25.1108C393.258 24.5183 393.085 24.022 393.057 23.958V31.5467C393.057 31.7549 392.984 31.8509 392.797 31.8509H391.99C391.803 31.8509 391.731 31.7549 391.731 31.5467V21.2683C391.731 21.0602 391.803 20.9641 391.99 20.9641H392.797C392.912 20.9641 392.984 21.0121 393.028 21.0921L396.501 27.8325C396.702 28.2167 396.947 28.857 396.947 28.857V21.2683C396.947 21.0602 397.034 20.9641 397.221 20.9641H398.014C398.215 20.9641 398.273 21.0602 398.273 21.2683V31.5467ZM400.751 31.8509C400.564 31.8509 400.492 31.7549 400.492 31.5308V21.2844C400.492 21.0602 400.564 20.9641 400.751 20.9641H405.679C405.867 20.9641 405.953 21.0442 405.953 21.2683V21.9887C405.953 22.2129 405.867 22.2929 405.679 22.2929H401.889V25.527H405.42C405.622 25.527 405.708 25.607 405.708 25.8312V26.5196C405.708 26.7278 405.622 26.8238 405.42 26.8238H401.889V30.5222H405.838C406.025 30.5222 406.112 30.5862 406.112 30.8103V31.5467C406.112 31.771 406.025 31.8509 405.838 31.8509H400.751ZM414.054 20.9641C414.241 20.9641 414.328 21.0442 414.328 21.2683V21.9887C414.328 22.2129 414.241 22.2929 414.054 22.2929H411.748V31.5308C411.748 31.7549 411.676 31.8509 411.489 31.8509H410.596C410.408 31.8509 410.336 31.7549 410.336 31.5308V22.2929H408.031C407.829 22.2929 407.757 22.2129 407.757 21.9887V21.2683C407.757 21.0442 407.829 20.9641 408.031 20.9641H414.054Z" fill="#E15B29"/>
<path d="M469.883 26.8635L479.387 36.2195H460.379L469.883 26.8635Z" fill="#FF2638"/>
<path d="M460.379 17.5078L469.883 26.8637L479.387 17.5078H460.379Z" fill="#FFC600"/>
<path d="M469.885 26.8639L479.389 36.2198L488.893 26.8639L479.389 17.5079L469.885 26.8639Z" fill="#0079F2"/>
<path d="M632.379 21.9433C632.379 22.0792 632.191 22.1388 632.102 22.0349C631.407 21.2269 630.259 20.6143 628.687 20.6143C625.285 20.6143 623.351 23.3608 623.351 26.6862C623.351 29.9902 625.285 32.7351 628.687 32.7351C630.28 32.7351 631.525 32.1776 632.298 31.2152C632.385 31.1083 632.579 31.1664 632.579 31.3038V32.3319C632.579 32.4082 632.64 32.4693 632.715 32.4693H634.887C634.964 32.4693 635.025 32.4082 635.025 32.3319V15.8638C635.025 15.7879 634.963 15.7263 634.887 15.7263H632.515C632.44 15.7272 632.379 15.7885 632.379 15.8638V21.9433ZM632.489 26.6862C632.489 28.7636 631.267 30.3919 629.243 30.3919C627.242 30.3919 625.997 28.7621 625.997 26.6862C625.997 24.566 627.242 22.9591 629.243 22.9591C631.267 22.9591 632.489 24.566 632.489 26.6862ZM622.692 20.9198C622.692 20.8487 622.637 20.7895 622.566 20.7839C622.482 20.7774 622.397 20.7733 622.313 20.7717C620.678 20.7717 619.727 21.427 619.203 22.0685C619.114 22.1755 618.911 22.1174 618.911 21.9769V21.0191C618.911 20.9438 618.85 20.8825 618.775 20.8817H616.601C616.526 20.8825 616.465 20.9438 616.465 21.0191V32.3319C616.465 32.4082 616.526 32.4693 616.601 32.4693H618.975C619.05 32.4685 619.111 32.4072 619.111 32.3319V26.4418C619.111 24.2086 620.223 23.2264 622.091 23.2264C622.25 23.2264 622.418 23.2417 622.534 23.2523C622.574 23.2566 622.613 23.2442 622.643 23.2181C622.673 23.192 622.69 23.1545 622.692 23.1149V20.9198ZM611.487 27.0452C611.527 27.0394 611.567 27.0511 611.597 27.0772C611.627 27.1033 611.645 27.1412 611.645 27.1811V27.7585C611.645 29.3211 610.6 30.6608 608.464 30.6608C607.196 30.6608 606.417 30.2361 606.417 29.1424C606.417 28.339 606.952 27.7371 608.576 27.4897L611.487 27.0467V27.0452ZM607.931 32.7366C609.576 32.7366 610.814 32.257 611.616 31.3161C611.703 31.2122 611.894 31.2702 611.9 31.4077C611.932 32.0722 612.026 32.4678 612.045 32.4678H614.35C614.448 32.4678 614.516 32.367 614.486 32.2738C614.325 31.7667 614.223 30.9449 614.223 30.2804V24.9448C614.223 22.2885 612.622 20.6143 609.243 20.6143C605.839 20.6143 604.444 22.3985 604.169 24.3705C604.165 24.4088 604.177 24.4472 604.202 24.4761C604.228 24.5049 604.265 24.5215 604.303 24.5217H606.614C606.682 24.5217 606.737 24.4728 606.752 24.4071C606.967 23.4036 607.783 22.8033 609.176 22.8033C610.754 22.8033 611.645 23.5166 611.645 24.9234V24.983C611.645 25.0512 611.594 25.1091 611.527 25.119L608.309 25.5711C605.263 25.9942 603.885 27.2666 603.885 29.231C603.885 31.2168 605.063 32.7366 607.931 32.7366ZM596.881 32.7366C600.572 32.7366 602.884 29.9459 602.884 26.6877C602.884 23.428 600.572 20.6143 596.881 20.6143C593.212 20.6143 590.901 23.428 590.901 26.6862C590.901 29.9459 593.212 32.7351 596.881 32.7351V32.7366ZM593.547 26.6877C593.547 24.4316 594.969 22.9591 596.881 22.9591C598.817 22.9591 600.239 24.4316 600.239 26.6862C600.239 28.9194 598.817 30.3919 596.881 30.3919C594.969 30.3919 593.547 28.9194 593.547 26.6862V26.6877ZM581.157 22.0349C581.068 22.1388 580.882 22.0792 580.882 21.9433V15.8638C580.882 15.7879 580.821 15.7263 580.745 15.7263H578.372C578.296 15.7263 578.235 15.7879 578.235 15.8638V32.3303C578.235 32.4067 578.296 32.4678 578.372 32.4678H580.545C580.621 32.4678 580.682 32.4067 580.682 32.3303V31.2916C580.682 31.1541 580.871 31.0961 580.957 31.203C581.747 32.173 582.993 32.7366 584.573 32.7366C587.996 32.7366 589.931 29.9902 589.931 26.6877C589.931 23.3608 587.996 20.6143 584.573 20.6143C583.019 20.6143 581.857 21.2269 581.157 22.0349ZM580.792 26.6862C580.792 24.566 582.014 22.9591 584.038 22.9591C586.039 22.9591 587.285 24.566 587.285 26.6862C587.285 28.7636 586.039 30.3919 584.038 30.3919C582.016 30.3919 580.792 28.7621 580.792 26.6862ZM575.988 30.285C575.987 30.2415 575.966 30.2009 575.932 30.174C575.898 30.1472 575.853 30.1369 575.811 30.146C575.658 30.1765 575.423 30.2147 575.166 30.2147C574.254 30.2147 573.877 29.7672 573.877 28.8522V23.1393C573.878 23.064 573.939 23.0034 574.014 23.0034H575.896C575.973 23.0034 576.034 22.9423 576.034 22.8659V21.0222C576.034 20.9463 575.972 20.8847 575.896 20.8847H574.013C573.976 20.8847 573.941 20.8702 573.916 20.8444C573.89 20.8187 573.875 20.7837 573.875 20.7472V18.0084C573.875 17.9331 573.815 17.8718 573.739 17.8709H571.367C571.291 17.8709 571.23 17.9325 571.23 18.0084V20.7488C571.23 20.7852 571.215 20.8202 571.19 20.846C571.164 20.8718 571.129 20.8862 571.092 20.8862H569.611C569.535 20.8862 569.474 20.9469 569.473 21.0222V22.8689C569.473 22.9453 569.534 23.0064 569.611 23.0064H571.092C571.169 23.0064 571.23 23.0675 571.23 23.1424V29.1226C571.23 31.31 572.253 32.5381 574.61 32.5381C575.264 32.5381 575.701 32.4647 575.887 32.4266C575.947 32.4134 575.989 32.3596 575.988 32.2982V30.285ZM557.325 26.6862C557.325 30.0345 559.682 32.7351 563.084 32.7351C566.423 32.7351 568.155 30.4652 568.528 28.4275C568.534 28.3885 568.524 28.3485 568.498 28.3184C568.472 28.2882 568.434 28.2711 568.395 28.2717H565.948C565.885 28.2723 565.83 28.3148 565.813 28.3756C565.471 29.5686 564.445 30.3919 563.061 30.3919C561.171 30.3919 559.971 28.8522 559.971 26.6862C559.971 24.4988 561.171 22.9591 563.061 22.9591C564.445 22.9591 565.471 23.7824 565.813 24.9754C565.83 25.0365 565.885 25.0792 565.948 25.0792H568.395C568.434 25.0798 568.472 25.0627 568.498 25.0326C568.524 25.0025 568.534 24.9625 568.528 24.9234C568.155 22.8857 566.423 20.6159 563.084 20.6159C559.682 20.6159 557.325 23.3165 557.325 26.6862ZM552.869 27.5569C552.869 29.454 551.847 30.4591 550.202 30.4591C548.601 30.4591 547.957 29.4097 547.957 27.8257V21.0191C547.957 20.9432 547.895 20.8817 547.819 20.8817H545.447C545.371 20.8817 545.309 20.9432 545.309 21.0191V28.1831C545.309 30.8838 546.756 32.7351 549.556 32.7351C551.111 32.7351 552.173 32.1501 552.767 31.4245C552.857 31.3145 553.071 31.3772 553.071 31.5192V32.3319C553.071 32.4082 553.132 32.4693 553.208 32.4693H555.379C555.455 32.4693 555.516 32.4082 555.516 32.3319V21.0191C555.516 20.9432 555.455 20.8817 555.379 20.8817H553.007C552.931 20.8817 552.869 20.9432 552.869 21.0191V27.5569ZM540.634 21.9433C540.634 22.0792 540.446 22.1388 540.357 22.0349C539.662 21.2269 538.514 20.6143 536.942 20.6143C533.54 20.6143 531.605 23.3608 531.605 26.6862C531.605 29.9902 533.54 32.7351 536.942 32.7351C538.533 32.7351 539.778 32.1776 540.553 31.2152C540.64 31.1083 540.832 31.1664 540.832 31.3038V32.3319C540.832 32.4082 540.893 32.4693 540.97 32.4693H543.142C543.218 32.4693 543.279 32.4082 543.279 32.3319V15.8638C543.279 15.7879 543.218 15.7263 543.142 15.7263H540.77C540.694 15.7263 540.632 15.7879 540.632 15.8638V21.9433H540.634ZM540.744 26.6862C540.744 28.7636 539.522 30.3919 537.498 30.3919C535.497 30.3919 534.25 28.7621 534.25 26.6862C534.25 24.566 535.497 22.9591 537.498 22.9591C539.52 22.9591 540.744 24.566 540.744 26.6862ZM524.534 32.7366C528.226 32.7366 530.537 29.9459 530.537 26.6877C530.537 23.4265 528.227 20.6143 524.534 20.6143C520.866 20.6143 518.554 23.428 518.554 26.6862C518.554 29.9459 520.866 32.7351 524.534 32.7351V32.7366ZM521.199 26.6877C521.199 24.4316 522.621 22.9591 524.534 22.9591C526.469 22.9591 527.891 24.4316 527.891 26.6862C527.891 28.9194 526.469 30.3919 524.534 30.3919C522.621 30.3919 521.199 28.9194 521.199 26.6862V26.6877ZM518.25 20.9198C518.25 20.8487 518.195 20.7895 518.124 20.7839C518.041 20.7774 517.957 20.7733 517.872 20.7717C516.238 20.7717 515.285 21.427 514.761 22.0685C514.672 22.1755 514.471 22.1174 514.471 21.9769V21.0191C514.471 20.9432 514.409 20.8817 514.333 20.8817H512.161C512.085 20.8817 512.024 20.9432 512.024 21.0191V32.3319C512.024 32.4082 512.085 32.4693 512.161 32.4693H514.533C514.61 32.4693 514.671 32.4082 514.671 32.3319V26.4418C514.671 24.2086 515.781 23.2264 517.649 23.2264C517.81 23.2264 517.976 23.2417 518.092 23.2523C518.132 23.2566 518.171 23.2442 518.201 23.2181C518.231 23.192 518.249 23.1545 518.25 23.1149V20.9198ZM501.34 31.4169C501.34 31.2794 501.53 31.2198 501.62 31.3252C502.318 32.1424 503.48 32.7366 505.032 32.7366C508.455 32.7366 510.391 29.9902 510.391 26.6877C510.391 23.3608 508.455 20.6143 505.032 20.6143C503.451 20.6143 502.205 21.1963 501.415 22.1571C501.329 22.2625 501.14 22.203 501.14 22.0655V21.0191C501.14 20.9432 501.079 20.8817 501.003 20.8817H498.832C498.756 20.8817 498.695 20.9432 498.695 21.0191V36.974C498.695 37.0503 498.756 37.1114 498.832 37.1114H501.204C501.281 37.1114 501.342 37.0503 501.342 36.974V31.4169H501.34ZM501.252 26.6862C501.252 24.5431 502.474 22.9132 504.498 22.9132C506.499 22.9132 507.745 24.5431 507.745 26.6862C507.745 28.7636 506.499 30.3919 504.498 30.3919C502.475 30.3919 501.252 28.7621 501.252 26.6862Z" fill="#000C2C"/>
<path d="M694.227 15.7264H697.242V18.903H694.227V15.7264Z" fill="#525254"/>
<path d="M747.025 15.7264H750.041V18.903H747.025V15.7264Z" fill="#525254"/>
<path d="M687.561 20.0428C685.66 20.0428 684.561 20.8958 684.03 21.485C683.967 20.9774 683.633 20.3187 682.326 20.3187H679.488V23.2891H680.651C680.848 23.2891 680.911 23.3518 680.911 23.5484V37.1115H684.294V32.0209C684.294 31.8835 684.291 31.7552 684.288 31.6402C684.816 32.1254 685.825 32.7937 687.402 32.7937C690.708 32.7937 693.02 30.1727 693.02 26.4188C693.02 22.6054 690.825 20.0428 687.561 20.0428ZM686.874 29.8471C685.052 29.8471 684.225 28.1035 684.225 26.488C684.225 23.9434 685.617 23.0364 686.919 23.0364C688.516 23.0364 689.589 24.4133 689.589 26.4641C689.589 28.8028 688.224 29.8471 686.874 29.8471Z" fill="#231F1F"/>
<path d="M697.473 29.3119V22.125C697.473 20.91 696.887 20.319 695.688 20.319H692.666V23.2893H693.83C694.026 23.2893 694.089 23.352 694.089 23.5483V30.7114C694.089 31.9436 694.657 32.5171 695.871 32.5171H698.897V29.5727H697.733C697.545 29.5727 697.473 29.498 697.473 29.3119Z" fill="#231F1F"/>
<path d="M706.309 20.0428C704.407 20.0428 703.31 20.8958 702.777 21.485C702.714 20.9774 702.381 20.3187 701.074 20.3187H698.235V23.2891H699.399C699.595 23.2891 699.658 23.3518 699.658 23.5484V37.1115H703.043V32.0209C703.043 31.8835 703.039 31.7552 703.035 31.6402C703.561 32.1254 704.573 32.7937 706.149 32.7937C709.456 32.7937 711.766 30.1727 711.766 26.4188C711.766 22.6054 709.573 20.0428 706.309 20.0428ZM705.619 29.8471C703.802 29.8471 702.972 28.1035 702.972 26.488C702.972 23.9434 704.363 23.0364 705.667 23.0364C707.263 23.0364 708.337 24.4133 708.337 26.4641C708.337 28.8028 706.973 29.8471 705.619 29.8471Z" fill="#231F1F"/>
<path d="M718.002 20.0428C714.358 20.0428 711.81 22.6653 711.81 26.4188C711.81 30.1117 714.559 32.7937 718.348 32.7937C721.328 32.7937 723.149 31.0294 723.226 30.9548L723.362 30.8206L721.889 28.375L721.67 28.5824C721.656 28.5929 720.319 29.8251 718.553 29.8251C716.858 29.8251 715.617 28.7906 715.324 27.1675H723.345L723.364 26.9459C723.37 26.9154 723.437 26.1955 723.437 25.8438C723.437 22.3746 721.253 20.0428 718.002 20.0428ZM715.45 24.6581C715.817 23.461 716.735 22.7826 718.002 22.7826C719.02 22.7826 719.805 23.5571 719.943 24.6581H715.45Z" fill="#231F1F"/>
<path d="M735.739 29.3116V17.5322C735.739 16.318 735.146 15.7264 733.931 15.7264H730.908V18.6968H732.072C732.267 18.6968 732.332 18.7601 732.332 18.9567V21.086C731.833 20.635 730.858 20.0428 729.18 20.0428C725.897 20.0428 723.607 22.6653 723.607 26.4188C723.607 30.2322 725.801 32.7937 729.065 32.7937C730.932 32.7937 732.007 31.9271 732.533 31.3239C732.601 31.8504 732.942 32.5169 734.208 32.5169H737.138V29.5727H735.999C735.811 29.5727 735.739 29.4978 735.739 29.3116ZM729.707 29.8471C728.099 29.8471 727.058 28.5011 727.058 26.4188C727.058 24.3949 728.141 23.0364 729.753 23.0364C731.582 23.0364 732.401 24.7222 732.401 26.3968C732.401 28.9419 731.008 29.8471 729.707 29.8471Z" fill="#231F1F"/>
<path d="M744.683 20.1573C743.275 20.1573 741.979 20.9699 741.21 22.2646V21.9858C741.21 20.8805 740.6 20.3185 739.403 20.3185H736.495V23.2892H737.658C737.854 23.2892 737.918 23.3516 737.918 23.5485V32.5173H741.3V27.6352C741.3 26.9922 741.382 26.373 741.542 25.8012C742.051 24.1177 743.404 23.5183 744.499 23.5183C744.887 23.5183 745.17 23.5595 745.174 23.5607L745.457 23.6034V20.241L745.251 20.2061C745.24 20.2041 744.954 20.1573 744.683 20.1573Z" fill="#231F1F"/>
<path d="M750.27 29.3119V22.125C750.27 20.91 749.687 20.319 748.487 20.319H745.752V23.2893H746.627C746.824 23.2893 746.887 23.352 746.887 23.5483V30.7114C746.887 31.9436 747.454 32.5171 748.671 32.5171H751.694V29.5727H750.53C750.342 29.5727 750.27 29.498 750.27 29.3119Z" fill="#231F1F"/>
<path d="M762.98 23.2893V20.319H761.176C760.121 20.319 759.556 20.6843 759.222 21.5826L757.017 27.7413C756.94 27.9699 756.869 28.2257 756.808 28.4714C756.744 28.2246 756.668 27.9655 756.584 27.7367L754.379 21.5805C754.041 20.673 753.494 20.319 752.425 20.319H750.507V23.2893H751.005C751.269 23.2893 751.354 23.3787 751.417 23.544L754.83 32.5171H758.633L762.047 23.544C762.109 23.3787 762.196 23.2893 762.461 23.2893H762.98Z" fill="#231F1F"/>
<path d="M773.851 26.9459C773.854 26.9154 773.923 26.1955 773.923 25.8438C773.923 22.3746 771.738 20.0428 768.486 20.0428C764.842 20.0428 762.296 22.6653 762.296 26.4188C762.296 30.1117 765.042 32.7937 768.832 32.7937C771.812 32.7937 773.635 31.0294 773.71 30.9548L773.848 30.8206L772.378 28.375L772.154 28.5824C772.142 28.5929 770.798 29.8251 769.039 29.8251C767.342 29.8251 766.101 28.7906 765.808 27.1675H773.831L773.851 26.9459ZM765.935 24.6581C766.305 23.461 767.219 22.7826 768.486 22.7826C769.507 22.7826 770.289 23.5571 770.427 24.6581H765.935Z" fill="#231F1F"/>
<path d="M744.682 20.1573C743.589 20.1573 742.571 20.6519 741.806 21.4749C742.452 21.4691 743.102 21.4639 743.751 21.4639C744.322 21.4639 744.888 21.4691 745.456 21.4726V20.241L745.25 20.2061C745.24 20.2041 744.954 20.1573 744.682 20.1573Z" fill="#3B3B3C"/>
<path d="M759.222 21.5826L759.083 21.974C760.391 22.0641 761.688 22.1634 762.981 22.2743V20.319H761.176C760.122 20.319 759.556 20.6843 759.222 21.5826Z" fill="#3B3B3C"/>
<path d="M687.561 20.0428C685.66 20.0428 684.56 20.8958 684.03 21.4847C683.967 20.9774 683.633 20.3187 682.326 20.3187H679.488V23.2891H680.651C680.848 23.2891 680.911 23.3518 680.911 23.5481V31.1064C682.466 30.5656 684.058 30.0443 685.682 29.5431C684.688 28.9742 684.225 27.6958 684.225 26.4877C684.225 23.9434 685.617 23.0364 686.919 23.0364C688.516 23.0364 689.589 24.4133 689.589 26.4641C689.589 27.3255 689.402 28.0086 689.101 28.5307C690.364 28.1729 691.645 27.8259 692.946 27.4919C692.988 27.1454 693.02 26.7888 693.02 26.4188C693.02 22.6054 690.825 20.0428 687.561 20.0428Z" fill="#3B3B3C"/>
<path d="M695.688 20.319H692.666V23.2893H693.83C694.026 23.2893 694.089 23.352 694.089 23.5486V27.2072C695.204 26.9296 696.33 26.6601 697.473 26.4005V22.125C697.473 20.9102 696.887 20.319 695.688 20.319Z" fill="#3B3B3C"/>
<path d="M694.227 15.7264H697.242V18.903H694.227V15.7264Z" fill="#3B3B3C"/>
<path d="M706.309 20.0428C704.408 20.0428 703.31 20.8958 702.778 21.4847C702.714 20.9774 702.382 20.3187 701.075 20.3187H698.235V23.2891H699.399C699.595 23.2891 699.659 23.3518 699.659 23.5481V25.9176C700.803 25.6751 701.963 25.4399 703.129 25.2136C703.517 23.6437 704.615 23.0364 705.667 23.0364C706.62 23.0364 707.378 23.533 707.841 24.363C709.009 24.1684 710.184 23.9808 711.37 23.8034C710.599 21.4807 708.754 20.0428 706.309 20.0428Z" fill="#3B3B3C"/>
<path d="M718.002 20.0428C715.34 20.0428 713.269 21.4447 712.343 23.6628C713.781 23.4558 715.234 23.2624 716.699 23.0829C717.074 22.8874 717.511 22.7829 718.002 22.7829C718.189 22.7829 718.362 22.8177 718.53 22.8656C719.859 22.7152 721.201 22.5767 722.553 22.4498C721.624 20.9411 720.019 20.0428 718.002 20.0428Z" fill="#3B3B3C"/>
<path d="M733.93 15.7264H730.907V18.6968H732.071C732.266 18.6968 732.331 18.7601 732.331 18.9567V21.086C731.832 20.635 730.857 20.0428 729.179 20.0428C727.342 20.0428 725.816 20.8644 724.828 22.2479C728.402 21.9471 732.042 21.7313 735.739 21.6015V17.5322C735.739 16.318 735.145 15.7264 733.93 15.7264Z" fill="#3B3B3C"/>
<path d="M739.403 20.319H736.495V21.5805C738.038 21.5314 739.588 21.4963 741.152 21.4786C740.98 20.7116 740.398 20.319 739.403 20.319Z" fill="#3B3B3C"/>
<path d="M747.025 15.7264H750.041V18.903H747.025V15.7264Z" fill="#3B3B3C"/>
<path d="M748.488 20.319H745.754V21.4748C747.247 21.4882 748.734 21.5155 750.212 21.5558C750.044 20.7296 749.48 20.319 748.488 20.319Z" fill="#3B3B3C"/>
<path d="M752.425 20.319H750.507V21.5648C751.82 21.6038 753.126 21.6517 754.423 21.7109L754.379 21.5805C754.041 20.673 753.494 20.319 752.425 20.319Z" fill="#3B3B3C"/>
<path d="M768.486 20.0428C766.408 20.0428 764.69 20.8975 763.593 22.3261C765.182 22.4655 766.761 22.622 768.322 22.7942C768.563 22.8206 768.799 22.845 769.035 22.8726C770.542 23.0431 772.032 23.2304 773.51 23.432C772.736 21.3381 770.907 20.0428 768.486 20.0428Z" fill="#3B3B3C"/>
<path d="M818.03 19.0298H820.863V25.3252H826.84V19.0298H829.677V34.483H826.84V28.0554H820.863V34.483H818.03V19.0298Z" fill="#45535E"/>
<path d="M838.654 29.4497C838.654 30.7433 837.6 31.796 836.306 31.796C835.013 31.796 833.959 30.7433 833.959 29.4497V22.7965H831.272V29.4497C831.272 32.2253 833.531 34.483 836.306 34.483C839.081 34.483 841.34 32.2253 841.34 29.4497V22.7965H838.654V29.4497Z" fill="#45535E"/>
<path d="M848.842 22.8744C847.509 22.8744 846.578 23.2613 845.68 24.1433V19.0298H842.984V28.5065C842.984 32.0537 845.548 34.483 848.43 34.483C851.633 34.483 854.439 32.0104 854.439 28.6789C854.439 25.3896 851.851 22.8744 848.842 22.8744ZM848.909 31.989C847.082 31.989 845.685 30.4633 845.685 28.6789C845.685 26.8942 847.082 25.368 848.909 25.368C850.456 25.368 851.854 26.8942 851.854 28.6789C851.854 30.4633 850.456 31.989 848.909 31.989Z" fill="#45535E"/>
<path d="M858.967 23.5536C858.967 22.1984 859.87 21.7688 860.859 21.7688C861.655 21.7688 862.708 22.3706 863.395 23.1017L865.158 21.0381C864.277 19.856 862.493 19.0388 861.031 19.0388C858.107 19.0388 856 20.7372 856 23.5536C856 28.7773 862.428 27.1215 862.428 30.0458C862.428 30.9477 861.547 31.7439 860.537 31.7439C858.946 31.7439 858.43 30.9699 857.699 30.1528L855.743 32.1732C856.99 33.6997 858.537 34.474 860.386 34.474C863.159 34.474 865.395 32.7542 865.395 30.0666C865.395 24.2627 858.967 26.0686 858.967 23.5536Z" fill="#45535E"/>
<path d="M872.493 22.723C869.611 22.723 867.046 25.1509 867.046 28.6989V38.2001H869.742V33.0623C870.641 33.9437 871.571 34.3311 872.904 34.3311C875.914 34.3311 878.503 31.8163 878.503 28.527C878.503 25.195 875.695 22.723 872.493 22.723ZM872.972 31.8379C871.145 31.8379 869.748 30.3101 869.748 28.527C869.748 26.7423 871.145 25.2161 872.972 25.2161C874.519 25.2161 875.917 26.7423 875.917 28.527C875.917 30.3101 874.519 31.8379 872.972 31.8379Z" fill="#45535E"/>
<path d="M898.347 31.989C896.756 31.989 896.305 31.3014 896.305 30.2476V25.5829H898.777V23.2186H896.305V20.1012L893.576 21.3262V30.828C893.576 33.2575 895.252 34.483 897.551 34.483C897.895 34.483 898.368 34.4608 898.627 34.3972L899.293 31.9467C898.992 31.9675 898.648 31.989 898.347 31.989Z" fill="#45535E"/>
<path d="M891.237 25.7203C890.72 24.8312 889.993 24.1183 889.084 23.5817C888.405 23.1863 887.701 22.9353 886.907 22.8276V20.0022C887.701 19.6653 888.193 18.9194 888.193 18.0493C888.193 16.8633 887.242 15.9022 886.057 15.9022C884.871 15.9022 883.903 16.8633 883.903 18.0493C883.903 18.9194 884.367 19.6653 885.161 20.0022V22.8288C884.526 22.9206 883.868 23.1185 883.266 23.4226C882.038 22.4899 878.011 19.4302 875.656 17.6431C875.712 17.4417 875.755 17.234 875.755 17.015C875.755 15.7014 874.691 14.6367 873.377 14.6367C872.063 14.6367 870.999 15.7014 870.999 17.015C870.999 18.3285 872.064 19.3935 873.378 19.3935C873.826 19.3935 874.241 19.2624 874.598 19.0469L875.096 19.424L881.927 24.3458C881.565 24.6773 881.229 25.0545 880.96 25.4776C880.415 26.3403 880.082 27.2895 880.082 28.3249V28.5409C880.082 29.2677 880.22 29.9539 880.455 30.5985C880.662 31.1613 880.965 31.673 881.34 32.1357L879.073 34.4084C878.872 34.3342 878.661 34.2936 878.44 34.2936C877.949 34.2936 877.489 34.4853 877.142 34.8318C876.794 35.1793 876.604 35.6407 876.604 36.1318C876.604 36.6227 876.796 37.0842 877.143 37.4313C877.49 37.7786 877.951 37.97 878.443 37.97C878.934 37.97 879.395 37.7786 879.743 37.4313C880.089 37.0842 880.281 36.6226 880.281 36.1318C880.281 35.9418 880.251 35.7564 880.196 35.5802L882.539 33.2366C882.861 33.4585 883.208 33.6454 883.581 33.8065C884.316 34.1246 885.128 34.3184 886.017 34.3184H886.18C887.162 34.3184 888.089 34.0876 888.96 33.6155C889.879 33.1166 890.597 32.4344 891.14 31.5635C891.686 30.6902 891.986 29.7253 891.986 28.6637V28.6107C891.986 27.5665 891.744 26.603 891.237 25.7203ZM888.374 30.6366C887.738 31.3434 887.006 31.7787 886.18 31.7787H886.044C885.572 31.7787 885.11 31.6483 884.658 31.411C884.148 31.1497 883.761 30.777 883.444 30.3051C883.117 29.842 882.939 29.3363 882.939 28.8001V28.6372C882.939 28.1101 883.04 27.6103 883.295 27.1382C883.567 26.6222 883.935 26.221 884.425 25.9019C884.906 25.5851 885.419 25.4297 885.991 25.4297H886.044C886.562 25.4297 887.053 25.5319 887.516 25.7689C887.988 26.0216 888.374 26.3668 888.672 26.8209C888.963 27.2752 889.135 27.7652 889.191 28.299C889.2 28.4099 889.204 28.5236 889.204 28.6322C889.204 29.3566 888.927 30.0275 888.374 30.6366Z" fill="#F8761F"/>
<path d="M961.398 13.3923C963.971 13.3923 966.058 15.4778 966.058 18.0536V31.4936C966.058 34.068 963.972 36.1549 961.398 36.1549H959.32L955.565 39.445V36.1549H948.23C945.656 36.1549 943.57 34.0695 943.57 31.4936V18.0536C943.57 15.4792 945.655 13.3923 948.23 13.3923H961.398ZM1020.61 20.3294C1023.52 20.3294 1024.83 22.1595 1024.83 25.507V25.7984C1024.83 30.4355 1021.98 31.7664 1018.68 31.7664C1018.22 31.7664 1017.72 31.7453 1017.22 31.6828V33.638H1018.62V35.946H1012.69V33.638H1014.08V22.8455H1012.69V20.5376H1017.22V21.3902C1018.24 20.7662 1019.16 20.3294 1020.61 20.3294ZM960.024 18.0342H950.152V20.4625H951.451V29.7709H950.152V32.1992H955.738V29.7709H954.309V26.2634H957.686V23.8351H954.309V20.4625H957.556V21.6766H960.024V18.0342ZM995.154 20.4367C998.234 20.4367 1000.1 22.0584 1000.18 25.7947V27.129H993.142C993.451 28.8335 994.641 29.3258 996.674 29.3258C998.049 29.3258 999.302 29.1206 999.979 28.9976L999.983 31.2845C999.983 31.2845 998.929 31.4524 997.814 31.5815L997.694 31.5952C997.035 31.6695 996.367 31.7278 995.894 31.7278C992.034 31.7278 989.816 30.1267 989.816 26.2461V25.8977C989.816 22.6121 991.562 20.4367 995.154 20.4367ZM1006.77 20.4367C1009.85 20.4367 1011.72 22.0584 1011.8 25.7947V27.129H1004.76C1005.07 28.8335 1006.26 29.3258 1008.29 29.3258C1009.67 29.3258 1010.92 29.1206 1011.6 28.9976L1011.6 31.2845C1011.6 31.2845 1011.36 31.3223 1010.99 31.3758L1010.91 31.3875C1010.58 31.4353 1010.16 31.4934 1009.71 31.548L1009.6 31.5616C1009.54 31.5683 1009.49 31.575 1009.43 31.5815L1009.31 31.5952C1009.25 31.602 1009.19 31.6086 1009.13 31.615L1009.01 31.6277C1008.46 31.6859 1007.91 31.7278 1007.51 31.7278C1003.65 31.7278 1001.43 30.1267 1001.43 26.2461V25.8977C1001.43 22.6121 1003.18 20.4367 1006.77 20.4367ZM987.624 16.2557V28.6118C987.624 29.3417 988.037 29.3583 988.431 29.2807L988.48 29.2706C988.618 29.2407 988.752 29.2022 988.862 29.1826V31.4449H988.856C986.001 32.2119 984.458 31.44 984.455 28.5203V16.2557H987.624ZM982.684 16.2543V20.4196H979.998V18.9222H976.276V22.6447H979.998V25.3518H976.276V29.0738H977.773V31.721H971.485V29.0738H972.982V18.9222H971.485V16.2543H982.684ZM1019.32 22.9085C1018.47 22.9085 1017.7 23.2408 1017.22 23.6358V29.1253C1017.53 29.2504 1018.03 29.3334 1018.66 29.3334C1020.3 29.3334 1021.55 28.4182 1021.55 25.944V25.6739C1021.55 23.8225 1020.74 22.9085 1019.32 22.9085ZM995.195 22.8378C993.861 22.8378 993.204 23.5976 993.101 25.1993H997.228C997.208 23.6186 996.509 22.8378 995.195 22.8378ZM1006.81 22.8378C1005.48 22.8378 1004.82 23.5976 1004.72 25.1993H1008.85C1008.83 23.6186 1008.13 22.8378 1006.81 22.8378Z" fill="#3E81DE"/>
<path d="M1146.49 22.5565C1146.59 20.7598 1147.23 19.2915 1148.24 18.1461V16.6198H1146.9C1144.2 16.6198 1141.91 17.6562 1140.58 19.998H1140.5V16.8775H1133.56V35.908H1140.5V28.2256C1140.5 24.9648 1141.45 22.4786 1145.3 22.4786C1145.72 22.4814 1146.11 22.5055 1146.49 22.5565Z" fill="#717172"/>
<path d="M1199.02 22.4871C1199.6 20.8051 1200.53 19.3071 1201.75 18.105V16.6184H1200.41C1197.71 16.6184 1195.42 17.6548 1194.08 19.9952H1194.01V16.8775H1187.07V35.908H1194.01V28.2256C1194.01 24.9648 1194.96 22.4786 1198.81 22.4786L1199.02 22.4871Z" fill="#717172"/>
<path d="M1160.58 21.7735C1159.51 21.2171 1158.02 20.8461 1156.84 20.8461C1156.04 20.8461 1154.67 21.1774 1154.67 22.1445C1154.67 23.4442 1156.84 23.6283 1157.8 23.818C1161.03 24.4466 1163.48 25.9319 1163.48 29.4517C1163.48 34.4582 1158.79 36.5423 1154.25 36.5423C1151.46 36.5423 1148.72 35.7622 1146.36 34.352L1148.87 29.6372C1150.28 30.6056 1152.64 31.567 1154.36 31.567C1155.24 31.567 1156.53 31.1606 1156.53 30.1214C1156.53 28.6376 1154.36 28.5597 1152.18 28.0047C1150.01 27.4483 1147.84 26.4119 1147.84 22.9982C1147.84 18.3231 1152.18 16.2488 1156.46 16.2488C1158.67 16.2488 1160.89 16.5816 1162.9 17.4721L1160.58 21.7735Z" fill="#717172"/>
<path d="M1222.55 35.908H1215.61V33.7913H1215.54C1214.32 35.6829 1211.91 36.5352 1209.63 36.5352C1203.83 36.5352 1199.75 31.8233 1199.75 26.3694C1199.75 20.9212 1203.76 16.2446 1209.55 16.2446C1211.8 16.2446 1214.16 17.0601 1215.61 18.728V16.8775H1222.55L1222.55 35.908ZM1206.92 26.4104C1206.92 28.8202 1208.56 30.675 1211.38 30.675C1214.2 30.675 1215.84 28.8231 1215.84 26.4104C1215.84 24.0729 1214.2 22.1076 1211.38 22.1076C1208.56 22.1091 1206.92 24.0729 1206.92 26.4104Z" fill="#717172"/>
<path d="M1185.97 27.5261H1171.36C1171.36 30.2686 1172.85 31.751 1175.71 31.751C1177.2 31.751 1178.27 31.2711 1179.03 30.0081H1185.7C1184.6 34.4978 1180.21 36.5381 1175.75 36.5381C1169.28 36.5381 1164.43 32.9744 1164.43 26.4119C1164.43 20.0688 1168.89 16.2488 1175.26 16.2488C1182.04 16.2488 1185.97 20.3307 1185.97 26.8196L1185.97 27.5261ZM1179.53 23.6283C1179.18 21.8103 1177.47 20.6238 1175.6 20.6238C1173.58 20.6238 1171.91 21.6588 1171.48 23.6283H1179.53Z" fill="#717172"/>
<path d="M1111.49 26.0791C1111.49 25.9149 1111.48 25.7549 1111.46 25.5921V25.5864C1111.31 23.8208 1110.72 22.1685 1109.73 20.6762C1109.29 20.0108 1108.79 19.4062 1108.22 18.8639C1107.4 18.0696 1106.44 17.4127 1105.36 16.893C1103.74 16.1186 1101.95 15.7278 1100.04 15.7278C1099.85 15.7278 1099.66 15.7306 1099.46 15.7377C1098.12 15.7986 1096.82 16.0534 1095.6 16.5023C1094.37 16.9468 1093.3 17.5344 1092.42 18.2395C1092.24 18.3811 1092.05 18.5553 1091.84 18.7464L1091.69 18.8937L1091.48 19.1117H1091.49L1091.39 19.2066L1091.34 19.2575L1091.1 19.5152C1090.92 19.7191 1090.75 19.923 1090.58 20.1226L1090.58 20.1198L1090.58 20.1141C1090.24 20.5219 1089.93 20.9438 1089.7 21.3233C1089.55 21.5668 1089.4 21.8174 1089.25 22.068L1087.25 26.1131L1087.26 26.1159L1087.15 26.3212L1086.93 26.7686C1086.49 27.6564 1086.02 28.5413 1085.5 29.2719C1084.32 30.5561 1083 31.1847 1081.3 31.1847C1081.18 31.1847 1081.06 31.179 1080.93 31.172C1079.91 31.1309 1079.03 30.8888 1078.25 30.4272C1078.17 30.3777 1078.09 30.3267 1078.01 30.2743C1077.37 29.851 1076.88 29.3073 1076.52 28.6291C1076.1 27.8603 1075.92 27.0745 1075.95 26.2419C1075.95 26.2193 1075.95 26.1995 1075.95 26.1811C1076.01 24.8558 1076.51 23.8251 1077.53 22.9345C1077.78 22.7207 1078.04 22.5395 1078.31 22.3781C1078.34 22.3554 1078.38 22.3342 1078.42 22.3144C1079.18 21.9023 1080.04 21.697 1081.02 21.697L1081.33 21.7055C1082.9 21.765 1084.11 22.2549 1085.07 23.2106L1088.1 17.7808C1087.37 17.2966 1086.56 16.8803 1085.66 16.5419C1085.62 16.5292 1085.59 16.515 1085.55 16.5037C1085.44 16.4655 1085.34 16.4258 1085.23 16.3904C1084.27 16.0704 1083.27 15.8736 1082.23 15.7844C1082.21 15.7802 1082.18 15.7774 1082.15 15.7745C1081.99 15.7646 1081.83 15.7448 1081.67 15.7377C1081.5 15.7306 1081.33 15.7278 1081.16 15.7264H1081.06C1079.16 15.7335 1077.39 16.1228 1075.78 16.8945C1073.97 17.7666 1072.5 19.0367 1071.41 20.6734C1070.33 22.3101 1069.74 24.1267 1069.65 26.0763C1069.64 26.2434 1069.64 26.409 1069.64 26.5718C1069.64 29.2988 1070.63 31.6972 1072.61 33.7106C1074.67 35.8231 1077.35 36.9614 1080.58 37.0959C1080.78 37.1044 1080.99 37.1101 1081.19 37.1101C1083.01 37.1101 1084.7 36.7858 1086.21 36.1374C1086.59 35.976 1086.96 35.7862 1087.33 35.5753C1087.53 35.4578 1087.73 35.3332 1087.92 35.2001L1088.06 35.1052L1088.3 34.9424C1088.58 34.7371 1088.85 34.5148 1089.11 34.2784L1089.2 34.192C1089.36 34.0462 1089.51 33.8989 1089.65 33.7474L1090.2 33.1343L1090.4 32.8752L1090.5 32.7337L1090.59 32.5949C1091.4 31.2413 1094.02 26.3156 1094.02 26.3156V26.3057L1094.18 26.0055L1094.31 25.7705C1094.69 25.0668 1094.97 24.567 1095.34 24.0417L1095.35 24.0261C1096.22 22.7759 1097.7 21.8854 1099.44 21.7353C1102.38 21.4833 1104.94 23.4088 1105.18 26.0366C1105.42 28.6645 1103.23 30.9992 1100.3 31.2527C1099.69 31.3051 1099.1 31.264 1098.54 31.1408L1098.52 31.1465C1096.37 30.6991 1095 29.1303 1094.33 28.4294L1091.51 33.6157C1091.51 33.6157 1092.38 34.4992 1092.98 34.941C1093.58 35.3813 1094.36 35.8146 1094.98 36.0836C1096.49 36.7264 1098.12 37.1115 1099.93 37.1115C1100.14 37.1115 1100.1 37.1115 1100.32 37.103C1103.54 36.9685 1106.4 35.7353 1108.47 33.6228C1110.43 31.6165 1111.5 29.3257 1111.51 26.6143V26.5336C1111.5 26.3835 1111.5 26.232 1111.49 26.0791Z" fill="#717172"/>
<path d="M1122.28 36.5508C1120.82 36.5508 1119.49 36.3809 1118.3 36.0411C1117.11 35.7013 1116.1 35.1647 1115.25 34.4284C1114.41 33.6922 1113.76 32.7549 1113.3 31.618C1112.84 30.481 1112.61 29.1105 1112.61 27.5134V16.8732H1119.3V27.4284C1119.3 28.6248 1119.59 29.4913 1120.16 30.0322C1120.73 30.5745 1121.46 30.8449 1122.34 30.8449C1123.24 30.8449 1123.97 30.5929 1124.53 30.0874C1125.09 29.582 1125.38 28.7438 1125.38 27.5658V16.8732H1132.07V27.3732C1132.07 29.0269 1131.83 30.4329 1131.37 31.5896C1130.9 32.7478 1130.24 33.6936 1129.38 34.4299C1128.53 35.1661 1127.5 35.7013 1126.29 36.0425C1125.08 36.3809 1123.74 36.5508 1122.28 36.5508Z" fill="#717172"/>
<path opacity="0.6" d="M1339.51 19.8383V16.4329H1335.4V19.8383H1325.96V20.0772C1325.17 19.7618 1324.32 19.6039 1323.46 19.6122C1321.65 19.6122 1320.09 20.249 1318.82 21.5039C1318.42 21.899 1318.07 22.3436 1317.78 22.827C1317.55 22.2654 1317.22 21.7479 1316.81 21.2966C1315.78 20.1621 1314.37 19.5865 1312.61 19.5865C1312.07 19.5826 1311.53 19.6567 1311.01 19.8067V16.4171H1306.9V18.8954C1306.38 18.3161 1305.77 17.8171 1305.1 17.4143C1303.82 16.6162 1302.35 16.1921 1300.84 16.19C1298.52 16.19 1296.53 16.9927 1294.92 18.5764C1294.53 18.962 1294.17 19.3846 1293.86 19.8383H1290.16L1288.54 23.9624L1286.92 19.8383H1284.59V16.6264H1282.24L1276.35 24.0385L1270.42 16.6264H1268.09V32.4349H1272.42V25.8582L1275.49 29.7908H1277.13L1280.26 25.8285V31.5345C1280.12 31.6703 1279.98 31.8183 1279.86 31.9768C1279.53 32.4207 1279.31 32.9435 1279.23 33.4953C1279.21 33.6109 1279.2 33.7284 1279.2 33.8557L1279.19 34.0532V34.0808C1279.19 34.19 1279.2 34.2988 1279.22 34.4067C1279.27 34.7196 1279.38 35.0221 1279.52 35.3022C1279.8 35.8175 1280.21 36.2478 1280.71 36.5463C1281.13 36.7979 1281.6 36.9655 1282.09 37.0399C1282.38 37.0882 1282.67 37.112 1282.96 37.111C1283.08 37.111 1283.19 37.111 1283.3 37.1021C1283.47 37.0952 1283.66 37.0794 1283.85 37.0567C1284.05 37.0322 1284.26 36.9967 1284.46 36.9501C1285.22 36.7633 1285.94 36.4437 1286.59 36.0062L1286.6 35.9993C1287.21 35.6068 1287.76 35.124 1288.22 34.5676C1288.4 34.3545 1288.56 34.131 1288.71 33.8982C1289.49 33.9772 1290.29 34.0591 1291.05 34.1529C1292.39 34.3129 1293.77 34.5024 1295.26 34.7305L1296.26 34.8875C1297.34 35.0593 1298.47 35.237 1299.59 35.3812C1302.58 35.7682 1305.55 36.0269 1308.43 36.1503C1311.41 36.2781 1314.39 36.2415 1317.36 36.0407C1320.64 35.8028 1323.53 35.3772 1326.21 34.7394C1329.75 33.8992 1332.64 32.895 1334.8 31.7556L1335.41 31.4387V32.4339H1339.51V23.8163H1341.82V19.8383H1339.51ZM1270.34 30.3615H1270.17V19.6309L1270.26 19.7573L1270.34 22.8635C1270.34 22.9317 1270.34 22.9988 1270.34 23.061L1270.34 30.3615ZM1280.47 22.2267C1280.39 22.3333 1280.32 22.4242 1280.25 22.5081L1276.31 27.4755L1272.44 22.518L1272.42 22.5012C1272.36 22.4212 1272.29 22.3284 1272.21 22.2237L1271.89 21.7883L1276.35 27.3639L1280.78 21.7962L1280.47 22.2267ZM1282.34 23.062C1282.34 22.9958 1282.34 22.9267 1282.34 22.8556L1282.4 19.7593L1282.52 19.6122V19.8383H1282.47L1282.52 19.9508V30.3615H1282.34L1282.34 23.062ZM1286.34 29.3741L1286.28 29.5459L1286.16 29.8323C1286.04 29.8323 1285.93 29.8352 1285.82 29.8412H1285.81C1285.47 29.8569 1285.17 29.8777 1284.89 29.9043C1284.79 29.9122 1284.69 29.9221 1284.59 29.9349V25.0594L1286.34 29.3692C1286.34 29.3692 1286.34 29.3722 1286.34 29.3741H1286.34ZM1291.61 30.2627C1291.23 30.2154 1290.84 30.1709 1290.46 30.1295C1290.6 29.7651 1290.7 29.4985 1290.75 29.3751L1292.51 25.0397C1292.62 27.0313 1293.49 28.9062 1294.93 30.2845C1295.12 30.4731 1295.32 30.6498 1295.52 30.8167C1294.14 30.5965 1292.86 30.4148 1291.61 30.2578L1291.61 30.2627ZM1295.66 27.9711C1294.93 26.9541 1294.56 25.7683 1294.56 24.4344C1294.56 23.1005 1294.93 21.9107 1295.66 20.8918C1294.96 21.9167 1294.61 23.1035 1294.61 24.4344C1294.61 25.7654 1294.96 26.9443 1295.66 27.9691L1295.66 27.9711ZM1306.9 26.1327H1304.62L1304.21 26.8376C1303.91 27.3372 1303.45 27.7618 1302.83 28.0995C1302.22 28.4398 1301.53 28.6211 1300.84 28.6267C1299.64 28.6267 1298.7 28.2426 1297.88 27.4182C1297.06 26.5937 1296.68 25.6409 1296.68 24.4344C1296.68 23.2279 1297.06 22.2731 1297.89 21.4437C1298.71 20.6143 1299.64 20.2283 1300.84 20.2283C1301.51 20.2347 1302.16 20.4089 1302.75 20.7348C1303.35 21.0577 1303.8 21.4654 1304.08 21.9463L1304.49 22.6532H1306.9L1306.9 26.1327ZM1308.98 25.0466V23.7235L1309.46 23.3147C1309.19 23.8539 1309.03 24.4382 1308.97 25.0377L1308.98 25.0466ZM1314.21 31.3024H1311.01V25.8108C1311.01 24.9932 1311.17 24.3692 1311.47 24.0059C1311.63 23.8084 1311.91 23.5734 1312.61 23.5734C1313.29 23.5734 1313.58 23.8064 1313.75 24.0089C1314.05 24.3663 1314.21 24.9281 1314.21 25.6804L1314.21 31.3024ZM1325.29 28.0096C1324.79 28.5171 1324.25 28.7432 1323.52 28.7432C1323.19 28.7533 1322.86 28.6933 1322.56 28.5671C1322.25 28.441 1321.98 28.2517 1321.75 28.0116C1321.26 27.5051 1321.02 26.9186 1321.02 26.1672C1321.02 25.4158 1321.25 24.8264 1321.75 24.3159C1321.98 24.0836 1322.26 23.8994 1322.56 23.7736C1322.87 23.6479 1323.19 23.5832 1323.52 23.5832C1323.85 23.5832 1324.17 23.6479 1324.48 23.7736C1324.78 23.8994 1325.06 24.0836 1325.29 24.3159C1325.78 24.8224 1326.02 25.4089 1326.02 26.1603C1326.02 26.9117 1325.78 27.4903 1325.28 28.0007L1325.29 28.0096ZM1328 28.132L1327.41 28.6405C1327.7 28.1785 1327.9 27.6682 1328 27.1348V28.132ZM1328 25.1828C1327.9 24.635 1327.69 24.1119 1327.39 23.6406L1328 24.1728V25.1828ZM1331.26 25.3329V24.0286L1331.78 23.5636C1331.49 24.1105 1331.31 24.7086 1331.25 25.324L1331.26 25.3329ZM1335.41 28.213L1333.54 29.069C1333.46 29.1066 1333.37 29.1441 1333.29 29.1806V26.0398C1333.29 25.1413 1333.55 24.5736 1333.67 24.4463C1334.06 24.0592 1334.41 23.8598 1334.74 23.8341L1334.97 23.8163H1335.41V28.213Z" fill="white"/>
<path opacity="0.6" d="M1353.56 21.5513L1353.16 22.3165L1353.03 21.5513H1349.24L1349.27 21.6807C1348.83 21.4794 1348.36 21.3753 1347.88 21.3756C1347.79 21.3756 1347.71 21.3756 1347.63 21.3835L1347.92 19.8353H1344.27L1342.61 28.7748H1345.77C1346.1 28.8934 1346.44 28.9532 1346.79 28.9516C1347.51 28.943 1348.21 28.7507 1348.83 28.3931C1349.45 28.0354 1349.97 27.5243 1350.34 26.9087L1350.42 27.2918L1348.51 30.4908H1352.57L1357.59 21.5513H1353.56Z" fill="white"/>
<path fill-rule="evenodd" clip-rule="evenodd" d="M1346.67 20.8484H1345.13L1343.86 27.7194H1345.34L1345.44 27.1724C1345.59 27.5437 1346.07 27.8962 1346.79 27.8962C1348.1 27.8962 1349.57 26.9681 1349.91 25.1128C1350.27 23.1638 1348.95 22.3937 1347.88 22.3937C1347.29 22.3801 1346.72 22.5889 1346.28 22.9782L1346.35 22.5832L1346.67 20.8484ZM1347.35 23.8273C1348.11 23.8273 1348.49 24.4671 1348.37 25.1257V25.1355C1348.24 25.8129 1347.62 26.4527 1346.83 26.4527C1346.06 26.4527 1345.69 25.8405 1345.83 25.1257C1345.94 24.4859 1346.53 23.8273 1347.35 23.8273Z" fill="#231F20"/>
<path d="M1350.51 22.5655L1351.52 27.4548L1350.34 29.4315H1351.97L1355.82 22.5655H1354.19L1352.65 25.5532L1352.15 22.5655H1350.51Z" fill="#231F20"/>
<path d="M1304.65 30.4069C1303.5 31.1196 1302.18 31.4992 1300.84 31.5028C1298.81 31.5028 1297.06 30.8048 1295.65 29.4205C1294.24 28.0362 1293.52 26.3173 1293.52 24.311C1293.52 22.3047 1294.24 20.5817 1295.65 19.1965C1297.06 17.8112 1298.8 17.1082 1300.84 17.1082C1302.15 17.1096 1303.45 17.4796 1304.56 18.1765C1305.74 18.8953 1306.59 19.8244 1307.09 20.9411L1307.34 21.498H1305.08L1304.97 21.3005C1304.59 20.6538 1304.01 20.1157 1303.24 19.701C1302.5 19.2919 1301.68 19.075 1300.83 19.0701C1299.36 19.0701 1298.16 19.5657 1297.15 20.5876C1296.13 21.6096 1295.64 22.827 1295.64 24.308C1295.64 25.789 1296.13 27.0084 1297.15 28.0283C1298.16 29.0483 1299.37 29.542 1300.84 29.542C1301.71 29.5371 1302.56 29.313 1303.32 28.8903C1304.11 28.4608 1304.71 27.9059 1305.1 27.2414L1305.22 27.044H1307.47L1307.22 27.5969C1306.71 28.7284 1305.84 29.6762 1304.65 30.4069Z" fill="#231F20"/>
<path d="M1310.67 23.2209C1310.21 23.7837 1309.97 24.6131 1309.97 25.6893V31.2757H1307.94V17.3304H1309.97V21.3963C1310.67 20.8029 1311.56 20.5017 1312.61 20.5017C1314.06 20.5017 1315.23 20.9747 1316.05 21.8732C1316.86 22.7717 1317.28 24.0236 1317.28 25.5935V31.2728H1315.24V25.556C1315.24 24.5509 1315 23.7501 1314.54 23.212C1314.08 22.6739 1313.45 22.4123 1312.61 22.4123C1311.75 22.4123 1311.12 22.6769 1310.67 23.2209Z" fill="#231F20"/>
<path fill-rule="evenodd" clip-rule="evenodd" d="M1323.46 31.5028C1324.85 31.5028 1326.03 31.0763 1327 30.239V31.2757H1329.03V20.7535H1327V21.7981C1326.03 20.9549 1324.84 20.5274 1323.46 20.5274C1321.93 20.5274 1320.62 21.0626 1319.55 22.119C1318.49 23.1755 1317.95 24.4887 1317.95 26.0191C1317.95 27.5495 1318.49 28.8557 1319.55 29.9112C1320.62 30.9667 1321.93 31.5028 1323.46 31.5028ZM1319.98 26.0369C1319.98 25.01 1320.32 24.1678 1321.01 23.4608C1321.34 23.1301 1321.73 22.8677 1322.16 22.6886C1322.59 22.5095 1323.05 22.4173 1323.52 22.4173C1323.98 22.4173 1324.44 22.5095 1324.87 22.6886C1325.31 22.8677 1325.7 23.1301 1326.02 23.4608C1326.72 24.1648 1327.05 25.0061 1327.05 26.028C1327.05 27.0499 1326.71 27.897 1326.02 28.604C1325.7 28.9346 1325.3 29.1971 1324.87 29.3761C1324.44 29.5552 1323.98 29.6474 1323.52 29.6474C1323.05 29.6474 1322.59 29.5552 1322.16 29.3761C1321.73 29.1971 1321.34 28.9346 1321.01 28.604C1320.32 27.9039 1319.98 27.0637 1319.98 26.0369Z" fill="#231F20"/>
<path fill-rule="evenodd" clip-rule="evenodd" d="M1338.47 17.3481V20.7535H1340.78V22.6581H1338.48V31.2758H1336.44V22.6581H1334.93L1334.66 22.6789C1334.08 22.7243 1333.51 23.0235 1332.94 23.5932C1332.52 24.0118 1332.25 24.9251 1332.25 25.9184V30.5886C1332.87 30.3628 1333.44 30.1294 1333.97 29.8885L1334.51 29.6397L1334.53 30.6113L1334.32 30.7248C1332.24 31.8227 1329.42 32.7963 1325.97 33.6168C1323.35 34.2418 1320.51 34.6584 1317.29 34.8924C1314.35 35.0895 1311.41 35.1248 1308.47 34.9981C1305.63 34.8756 1302.68 34.6199 1299.72 34.2368C1298.61 34.0917 1297.49 33.9149 1296.41 33.7431L1295.42 33.5881C1293.91 33.3571 1292.52 33.1665 1291.17 33.0046C1290.27 32.8931 1289.34 32.7993 1288.43 32.7085L1288.43 32.7084L1288.15 32.6788C1287.95 33.0738 1287.71 33.4454 1287.42 33.7866C1287.02 34.2657 1286.55 34.6808 1286.03 35.0178C1285.48 35.3888 1284.87 35.6602 1284.22 35.8195C1284.06 35.857 1283.9 35.886 1283.73 35.9064C1283.58 35.9232 1283.41 35.939 1283.26 35.9449C1283.16 35.9528 1283.06 35.9528 1282.97 35.9528C1282.74 35.9538 1282.5 35.935 1282.27 35.8966C1281.91 35.8429 1281.57 35.7209 1281.25 35.5372C1280.91 35.3366 1280.64 35.0462 1280.45 34.6979C1280.35 34.5167 1280.29 34.321 1280.25 34.1183C1280.24 34.0572 1280.24 33.9956 1280.24 33.9337V33.7876C1280.24 33.6977 1280.25 33.6089 1280.26 33.521C1280.31 33.1453 1280.46 32.7891 1280.69 32.4862C1281.14 31.8968 1281.77 31.6026 1282.34 31.3913C1282.45 31.3508 1282.57 31.3133 1282.68 31.2767H1281.3V22.7154C1281.22 22.8299 1281.13 22.9425 1281.05 23.0412L1276.62 28.6326H1275.99L1271.62 23.0323C1271.54 22.9336 1271.46 22.8289 1271.38 22.7174V31.2767H1269.13V17.5417H1269.92L1276.35 25.5797L1282.74 17.5417H1283.55V31.0417C1283.62 31.0298 1283.68 31.0174 1283.75 31.0048C1283.86 30.9839 1283.97 30.9627 1284.08 30.943C1284.38 30.8851 1284.68 30.8426 1284.98 30.8156C1285.27 30.788 1285.56 30.7692 1285.86 30.7554C1286.17 30.7455 1286.49 30.7455 1286.84 30.7455C1286.94 30.5185 1287.09 30.1591 1287.24 29.7997L1287.31 29.614C1287.35 29.5064 1287.39 29.3978 1287.43 29.2902L1287.45 29.2349L1284.01 20.7535H1286.22L1288.54 26.6776L1290.87 20.7535H1293.07L1289.78 28.8715C1289.69 29.1085 1289.39 29.9004 1288.95 30.8956C1289.76 30.9677 1290.63 31.0605 1291.48 31.1652C1292.86 31.338 1294.27 31.5413 1295.8 31.7852L1296.71 31.9329C1297.85 32.1206 1298.93 32.2974 1300.05 32.4507C1302.93 32.8605 1305.8 33.1458 1308.58 33.2998C1311.44 33.4729 1314.3 33.4936 1317.16 33.362C1320 33.2386 1322.83 32.904 1325.62 32.3609C1327.31 32.0205 1328.85 31.649 1330.22 31.2461V20.7535H1332.24V21.6273C1332.82 21.111 1333.61 20.8296 1334.61 20.793H1334.66V20.7535H1336.44V17.3481H1338.47ZM1284.99 32.269C1284.84 32.2572 1284.69 32.2522 1284.51 32.2522C1284.42 32.2522 1284.32 32.2532 1284.22 32.2621C1283.7 32.2714 1283.19 32.3447 1282.7 32.4803C1282.34 32.586 1281.85 32.7884 1281.59 33.1576C1281.49 33.3095 1281.42 33.4865 1281.41 33.6711C1281.4 33.7467 1281.39 33.8232 1281.4 33.8991C1281.42 33.9754 1281.45 34.0482 1281.49 34.1144C1281.65 34.3889 1281.99 34.5617 1282.43 34.5923C1282.66 34.6069 1282.89 34.5956 1283.12 34.5587C1283.24 34.5399 1283.35 34.5162 1283.48 34.4856C1283.59 34.4582 1283.69 34.4253 1283.8 34.3869C1284.23 34.225 1284.63 33.9761 1284.96 33.6553C1285.39 33.2784 1285.76 32.8468 1286.07 32.3717C1285.97 32.3628 1285.88 32.3539 1285.8 32.3451C1285.53 32.3135 1285.26 32.2868 1284.99 32.269Z" fill="#231F20"/>
<path opacity="0.6" d="M1406.44 20.9049C1405.16 19.565 1403.08 18.9134 1400.09 18.9134C1398.11 18.9134 1396.36 19.2431 1394.88 19.8958L1395.77 15.7262H1388.34L1387.4 20.1268C1386.3 19.4357 1384.86 19.0654 1383.2 19.0654C1382.5 19.0645 1381.8 19.1538 1381.12 19.331H1377.35L1377.98 16.3936H1361L1357.61 32.9466H1371.05L1370.26 36.665H1377.69L1378.47 33.0118C1379.26 33.2556 1380.08 33.3749 1380.91 33.3653C1382.23 33.3715 1383.54 33.1085 1384.75 32.5922L1384.68 32.9476H1392.1L1392.28 32.1054C1393.6 32.9417 1395.43 33.3653 1397.73 33.3653C1402.54 33.3653 1405.66 31.588 1407.28 27.9111C1407.51 27.3181 1407.64 26.695 1407.69 26.0618L1407.76 24.7486C1407.83 23.1906 1407.39 21.8972 1406.44 20.9049Z" fill="white"/>
<path d="M1389.68 17.3926H1393.71L1393.19 19.8215H1389.17L1389.68 17.3926Z" fill="#CE1141"/>
<path fill-rule="evenodd" clip-rule="evenodd" d="M1376.34 34.9981H1372.31L1373.11 31.2798H1359.65L1362.35 18.0522H1375.92L1375.3 20.9738H1366.25L1365.82 23.2348H1373.79L1373.2 26.0428H1365.22L1364.79 28.3503H1373.73L1375.29 20.9896H1379.2L1378.91 22.3551H1378.95C1380.03 21.3114 1381.57 20.724 1383.2 20.724C1386.17 20.724 1388.01 22.0579 1388.18 24.4759L1388.92 20.9915H1392.94L1392.15 24.7435C1393.37 21.9582 1396.26 20.5759 1400.09 20.5759C1403.79 20.5759 1406.24 21.656 1406.1 24.6685H1401.93C1401.84 23.7522 1401.12 23.2319 1399.59 23.2319C1397.71 23.2319 1396.35 24.2755 1395.95 26.1347C1395.56 27.9939 1396.44 29.0375 1398.37 29.0375C1399.82 29.0375 1400.93 28.4441 1401.5 27.2435H1405.75C1404.51 30.0841 1402.16 31.6935 1397.73 31.6935C1393.8 31.6935 1391.56 30.3763 1391.55 27.5752L1390.76 31.2758H1386.73L1387.44 27.9455C1386.31 30.1246 1383.96 31.6974 1380.91 31.6974C1379.13 31.6974 1377.88 31.109 1377.36 30.3507H1377.32L1376.34 34.9981ZM1381.64 23.5399C1379.76 23.5399 1378.55 24.5638 1378.22 26.1574C1377.88 27.751 1378.65 28.7758 1380.52 28.7758C1382.36 28.7758 1383.56 27.8645 1383.93 26.1574C1384.29 24.4502 1383.48 23.5399 1381.64 23.5399Z" fill="#CE1141"/>
<path d="M1454.4 31.9139C1454.29 31.8506 1454.2 31.6957 1454.2 31.5699V21.2675C1454.2 21.1415 1454.29 20.9868 1454.4 20.9234L1463.43 15.7738C1463.54 15.7106 1463.72 15.7106 1463.83 15.7738L1472.87 20.924C1472.98 20.9872 1473.07 21.1419 1473.07 21.268V31.5704C1473.07 31.696 1472.98 31.8509 1472.87 31.9143L1463.83 37.0641C1463.72 37.1273 1463.54 37.1273 1463.43 37.0641L1454.4 31.9139ZM1481.55 22.2929V26.4715H1483.34C1484.64 26.4715 1485.21 25.9432 1485.21 25.0786V23.6857C1485.21 22.8213 1484.64 22.2929 1483.34 22.2929H1481.55ZM1481.55 27.8004V31.5308C1481.55 31.7548 1481.5 31.8509 1481.29 31.8509H1480.42C1480.23 31.8509 1480.16 31.7548 1480.16 31.5308V21.2843C1480.16 21.0602 1480.23 20.964 1480.42 20.964H1483.34C1485.82 20.964 1486.61 22.1167 1486.61 23.4296V25.3349C1486.61 26.6477 1485.82 27.8004 1483.34 27.8004H1481.55ZM1489.86 22.2929V26.2154H1491.65C1492.95 26.2154 1493.52 25.703 1493.52 24.8225V23.6857C1493.52 22.8213 1492.95 22.2929 1491.65 22.2929H1489.86ZM1489.86 27.5442V31.5308C1489.86 31.7548 1489.81 31.8509 1489.6 31.8509H1488.73C1488.54 31.8509 1488.47 31.7548 1488.47 31.5308V21.2843C1488.47 21.0602 1488.54 20.964 1488.73 20.964H1491.65C1494.13 20.964 1494.92 22.1167 1494.92 23.4296V25.0947C1494.92 26.0713 1494.47 26.9518 1493.24 27.3362L1494.96 31.5308C1495.04 31.7229 1494.91 31.8509 1494.71 31.8509H1493.84C1493.64 31.8509 1493.61 31.7229 1493.52 31.5308L1491.9 27.5442H1489.86ZM1502.5 23.5577C1502.5 22.6931 1501.89 22.1648 1500.52 22.1648C1499.17 22.1648 1498.56 22.6931 1498.56 23.5577V29.2572C1498.56 30.1219 1499.17 30.6501 1500.52 30.6501C1501.89 30.6501 1502.5 30.1219 1502.5 29.2572V23.5577ZM1497.07 23.3015C1497.07 21.9887 1497.92 20.836 1500.52 20.836C1503.14 20.836 1503.99 21.9887 1503.99 23.3015V29.5135C1503.99 30.8263 1503.14 31.9791 1500.52 31.9791C1497.92 31.9791 1497.07 30.8263 1497.07 29.5135V23.3015ZM1512.02 20.964C1512.22 20.964 1512.31 21.0442 1512.31 21.2682V21.9887C1512.31 22.2128 1512.22 22.2929 1512.02 22.2929H1509.58V31.5308C1509.58 31.7548 1509.51 31.8509 1509.31 31.8509H1508.37C1508.17 31.8509 1508.09 31.7548 1508.09 31.5308V22.2929H1505.66C1505.45 22.2929 1505.37 22.2128 1505.37 21.9887V21.2682C1505.37 21.0442 1505.45 20.964 1505.66 20.964H1512.02ZM1519.11 23.5577C1519.11 22.6931 1518.5 22.1648 1517.13 22.1648C1515.78 22.1648 1515.17 22.6931 1515.17 23.5577V29.2572C1515.17 30.1219 1515.78 30.6501 1517.13 30.6501C1518.5 30.6501 1519.11 30.1219 1519.11 29.2572V23.5577ZM1513.68 23.3015C1513.68 21.9887 1514.53 20.836 1517.13 20.836C1519.74 20.836 1520.6 21.9887 1520.6 23.3015V29.5135C1520.6 30.8263 1519.74 31.9791 1517.13 31.9791C1514.53 31.9791 1513.68 30.8263 1513.68 29.5135V23.3015ZM1529.4 31.5467C1529.4 31.7548 1529.34 31.8509 1529.14 31.8509H1528.35C1528.2 31.8509 1528.15 31.8028 1528.09 31.7068L1524.7 25.1108C1524.39 24.5183 1524.21 24.022 1524.18 23.9579V31.5467C1524.18 31.7548 1524.11 31.8509 1523.92 31.8509H1523.12C1522.93 31.8509 1522.86 31.7548 1522.86 31.5467V21.2682C1522.86 21.0602 1522.93 20.964 1523.12 20.964H1523.92C1524.04 20.964 1524.11 21.012 1524.16 21.0921L1527.63 27.8324C1527.83 28.2167 1528.07 28.857 1528.07 28.857V21.2682C1528.07 21.0602 1528.16 20.964 1528.35 20.964H1529.14C1529.34 20.964 1529.4 21.0602 1529.4 21.2682V31.5467ZM1531.88 31.8509C1531.69 31.8509 1531.62 31.7548 1531.62 31.5308V21.2843C1531.62 21.0602 1531.69 20.964 1531.88 20.964H1536.81C1536.99 20.964 1537.08 21.0442 1537.08 21.2682V21.9887C1537.08 22.2128 1536.99 22.2929 1536.81 22.2929H1533.02V25.5269H1536.55C1536.75 25.5269 1536.84 25.607 1536.84 25.8311V26.5196C1536.84 26.7277 1536.75 26.8238 1536.55 26.8238H1533.02V30.5221H1536.97C1537.15 30.5221 1537.24 30.5862 1537.24 30.8102V31.5467C1537.24 31.7709 1537.15 31.8509 1536.97 31.8509H1531.88ZM1545.18 20.964C1545.37 20.964 1545.46 21.0442 1545.46 21.2682V21.9887C1545.46 22.2128 1545.37 22.2929 1545.18 22.2929H1542.88V31.5308C1542.88 31.7548 1542.8 31.8509 1542.62 31.8509H1541.72C1541.54 31.8509 1541.46 31.7548 1541.46 31.5308V22.2929H1539.16C1538.96 22.2929 1538.88 22.2128 1538.88 21.9887V21.2682C1538.88 21.0442 1538.96 20.964 1539.16 20.964H1545.18Z" fill="#E15B29"/>
</svg>
