<svg width="32" height="32" viewBox="0 0 32 32" fill="none" xmlns="http://www.w3.org/2000/svg">
<mask id="mask0_44_171" style="mask-type:alpha" maskUnits="userSpaceOnUse" x="0" y="0" width="32" height="32">
<rect width="32" height="32" fill="#D9D9D9"/>
</mask>
<g mask="url(#mask0_44_171)">
<path d="M15.9333 6.22233C14.4148 6.22233 12.9926 6.57044 11.6666 7.26667C10.3406 7.96289 9.19984 8.89622 8.24429 10.0667H10.689C11.0074 10.0667 11.2722 10.1722 11.4833 10.3833C11.6944 10.5944 11.8 10.8592 11.8 11.1777C11.8 11.4963 11.6944 11.7612 11.4833 11.9723C11.2722 12.1834 11.0074 12.289 10.689 12.289H5.59996C5.28151 12.289 5.01673 12.1834 4.80562 11.9723C4.59451 11.7612 4.48895 11.4963 4.48895 11.1777V6.111C4.48895 5.79256 4.59451 5.52778 4.80562 5.31667C5.01673 5.10556 5.28151 5 5.59996 5C5.9184 5 6.18318 5.10556 6.39429 5.31667C6.6054 5.52778 6.71096 5.79256 6.71096 6.111V8.4C7.85918 7.02222 9.23518 5.94444 10.839 5.16667C12.4425 4.38889 14.1406 4 15.9333 4C17.6 4 19.1611 4.30744 20.6166 4.92233C22.0722 5.537 23.3518 6.38878 24.4556 7.47767C25.5074 8.51478 26.3222 9.67033 26.9 10.9443C27.4777 12.2186 27.8296 13.5852 27.9556 15.0443C27.9852 15.3481 27.8888 15.6074 27.6666 15.8223C27.4444 16.037 27.1741 16.1443 26.8556 16.1443C26.5518 16.1443 26.2944 16.0407 26.0833 15.8333C25.8722 15.626 25.7518 15.3704 25.7223 15.0667C25.6112 13.8962 25.326 12.811 24.8666 11.811C24.4073 10.811 23.7481 9.88878 22.889 9.04433C21.9852 8.17033 20.9425 7.48145 19.761 6.97767C18.5796 6.47411 17.3037 6.22233 15.9333 6.22233ZM5.15562 16.489C5.45184 16.4741 5.71107 16.5592 5.93329 16.7443C6.15551 16.9297 6.29996 17.1779 6.36662 17.489C6.69262 19.6741 7.63707 21.5259 9.19996 23.0443C10.7628 24.563 12.637 25.4446 14.8223 25.689C15.2147 25.7408 15.4962 25.8797 15.6666 26.1057C15.8371 26.3314 15.9223 26.5777 15.9223 26.8443C15.9223 27.1408 15.8241 27.4112 15.6276 27.6557C15.4314 27.9001 15.1592 28.0001 14.811 27.9557C12.0481 27.6963 9.67584 26.6056 7.69429 24.6833C5.71296 22.7611 4.5334 20.4259 4.15562 17.6777C4.10362 17.3741 4.17762 17.1038 4.37762 16.8667C4.57762 16.6296 4.83696 16.5037 5.15562 16.489ZM17.1333 15.511L19.089 17.4223C19.3556 17.689 19.4723 17.9686 19.439 18.261C19.4056 18.5537 19.289 18.8 19.089 19C18.889 19.2 18.6463 19.3167 18.361 19.35C18.0758 19.3833 17.8 19.2667 17.5333 19L15.2443 16.7557C15.1258 16.637 15.0407 16.5092 14.989 16.3723C14.937 16.2352 14.911 16.0926 14.911 15.9443V10.3777C14.911 10.0592 15.0165 9.79444 15.2276 9.58333C15.4387 9.37222 15.7036 9.26667 16.0223 9.26667C16.3407 9.26667 16.6055 9.37222 16.8166 9.58333C17.0277 9.79444 17.1333 10.0592 17.1333 10.3777V15.511ZM25.189 31.7777C24.937 31.7777 24.7203 31.6962 24.539 31.5333C24.3574 31.3704 24.2407 31.163 24.189 30.911L23.9666 29.6443C23.6111 29.5332 23.2758 29.3943 22.961 29.2277C22.6463 29.061 22.3445 28.8443 22.0556 28.5777L20.889 28.8557C20.6741 28.9148 20.4685 28.9037 20.2723 28.8223C20.0758 28.7408 19.9221 28.6074 19.811 28.4223L19.589 28.0443C19.463 27.837 19.4185 27.6222 19.4556 27.4C19.4925 27.1778 19.5962 26.9889 19.7666 26.8333L20.7443 25.9333C20.6852 25.6593 20.6556 25.3779 20.6556 25.089C20.6556 24.8001 20.6852 24.5186 20.7443 24.2443L19.7666 23.3443C19.5962 23.2037 19.4925 23.0203 19.4556 22.7943C19.4185 22.5686 19.463 22.3593 19.589 22.1667L19.8223 21.7333C19.9334 21.5482 20.0815 21.4186 20.2666 21.3443C20.4517 21.2703 20.6517 21.263 20.8666 21.3223L22.0556 21.6C22.3445 21.3333 22.6463 21.1167 22.961 20.95C23.2758 20.7833 23.6111 20.6444 23.9666 20.5333L24.189 19.2557C24.2407 19.0037 24.3574 18.7981 24.539 18.639C24.7203 18.4797 24.937 18.4 25.189 18.4H25.5443C25.7963 18.4 26.013 18.4814 26.1943 18.6443C26.3758 18.8074 26.4925 19.0149 26.5443 19.2667L26.7666 20.5333C27.1222 20.6444 27.4592 20.787 27.7776 20.961C28.0963 21.1352 28.3963 21.3557 28.6776 21.6223L29.8223 21.3443C30.0445 21.2777 30.2556 21.2851 30.4556 21.3667C30.6556 21.4482 30.8112 21.5852 30.9223 21.7777L31.1443 22.1557C31.2703 22.363 31.3147 22.5778 31.2776 22.8C31.2407 23.0222 31.1371 23.2111 30.9666 23.3667L29.989 24.2667C30.0481 24.5407 30.0776 24.8184 30.0776 25.1C30.0776 25.3816 30.0481 25.6593 29.989 25.9333L30.9666 26.8333C31.1371 26.974 31.2407 27.1573 31.2776 27.3833C31.3147 27.6093 31.2703 27.8186 31.1443 28.011L30.911 28.4443C30.7998 28.6297 30.6517 28.7593 30.4666 28.8333C30.2815 28.9073 30.0815 28.9148 29.8666 28.8557L28.6776 28.5777C28.3887 28.8443 28.087 29.061 27.7723 29.2277C27.4574 29.3943 27.1222 29.5332 26.7666 29.6443L26.5443 30.9223C26.4925 31.1741 26.3758 31.3797 26.1943 31.539C26.013 31.6981 25.7963 31.7777 25.5443 31.7777H25.189ZM25.3666 27.7557C26.1444 27.7557 26.7833 27.5057 27.2833 27.0057C27.7833 26.5057 28.0333 25.8668 28.0333 25.089C28.0333 24.3112 27.7833 23.6723 27.2833 23.1723C26.7833 22.6723 26.1444 22.4223 25.3666 22.4223C24.5888 22.4223 23.95 22.6723 23.45 23.1723C22.95 23.6723 22.7 24.3112 22.7 25.089C22.7 25.8668 22.95 26.5057 23.45 27.0057C23.95 27.5057 24.5888 27.7557 25.3666 27.7557Z" fill="#7560F3"/>
</g>
</svg>
