<svg width="569" height="306" viewBox="0 0 569 306" fill="none" xmlns="http://www.w3.org/2000/svg">
<rect width="569" height="306" fill="white"/>
<rect x="0.5" y="0.5" width="568" height="305" stroke="black" stroke-opacity="0.1"/>
<path opacity="0.5" d="M177.352 160V154.464L173.176 148.08H174.6L178.248 153.632H177.736L181.368 148.08H182.792L178.632 154.464V160H177.352ZM186.623 160.192C185.812 160.192 185.076 160 184.415 159.616C183.754 159.221 183.226 158.688 182.831 158.016C182.447 157.333 182.255 156.56 182.255 155.696C182.255 154.843 182.447 154.08 182.831 153.408C183.215 152.736 183.732 152.208 184.383 151.824C185.044 151.429 185.791 151.232 186.623 151.232C187.455 151.232 188.196 151.424 188.847 151.808C189.508 152.192 190.026 152.72 190.399 153.392C190.783 154.064 190.975 154.832 190.975 155.696C190.975 156.571 190.778 157.349 190.383 158.032C189.988 158.704 189.46 159.232 188.799 159.616C188.148 160 187.423 160.192 186.623 160.192ZM186.623 158.992C187.199 158.992 187.716 158.848 188.175 158.56C188.644 158.272 189.012 157.877 189.279 157.376C189.556 156.875 189.695 156.315 189.695 155.696C189.695 155.077 189.556 154.523 189.279 154.032C189.012 153.541 188.644 153.152 188.175 152.864C187.716 152.576 187.199 152.432 186.623 152.432C186.047 152.432 185.524 152.576 185.055 152.864C184.596 153.152 184.228 153.541 183.951 154.032C183.674 154.523 183.535 155.077 183.535 155.696C183.535 156.315 183.674 156.875 183.951 157.376C184.228 157.877 184.596 158.272 185.055 158.56C185.524 158.848 186.047 158.992 186.623 158.992ZM196.131 160.192C195.534 160.192 194.99 160.053 194.499 159.776C194.009 159.488 193.619 159.093 193.331 158.592C193.054 158.08 192.915 157.493 192.915 156.832V151.424H194.115V156.688C194.115 157.147 194.206 157.552 194.387 157.904C194.579 158.245 194.841 158.512 195.171 158.704C195.513 158.896 195.902 158.992 196.339 158.992C196.777 158.992 197.166 158.896 197.507 158.704C197.849 158.501 198.115 158.219 198.307 157.856C198.499 157.483 198.595 157.04 198.595 156.528V151.424H199.795V160H198.595V158.336L198.867 158.4C198.665 158.955 198.318 159.392 197.827 159.712C197.337 160.032 196.771 160.192 196.131 160.192ZM202.263 160V151.424H203.463V152.832L203.303 152.624C203.506 152.219 203.81 151.899 204.215 151.664C204.631 151.429 205.133 151.312 205.719 151.312H206.263V152.512H205.511C204.893 152.512 204.397 152.704 204.023 153.088C203.65 153.472 203.463 154.016 203.463 154.72V160H202.263ZM210.388 163.2V151.424H211.588V153.344L211.396 153.008C211.738 152.464 212.191 152.032 212.756 151.712C213.332 151.392 213.988 151.232 214.724 151.232C215.535 151.232 216.255 151.429 216.884 151.824C217.524 152.208 218.026 152.736 218.388 153.408C218.762 154.08 218.948 154.848 218.948 155.712C218.948 156.565 218.762 157.333 218.388 158.016C218.026 158.688 217.524 159.221 216.884 159.616C216.255 160 215.535 160.192 214.724 160.192C213.988 160.192 213.322 160.027 212.724 159.696C212.138 159.355 211.695 158.875 211.396 158.256L211.588 158.08V163.2H210.388ZM214.66 158.992C215.236 158.992 215.748 158.848 216.196 158.56C216.655 158.272 217.012 157.883 217.268 157.392C217.535 156.891 217.668 156.331 217.668 155.712C217.668 155.083 217.535 154.523 217.268 154.032C217.012 153.541 216.655 153.152 216.196 152.864C215.748 152.576 215.236 152.432 214.66 152.432C214.084 152.432 213.562 152.576 213.092 152.864C212.634 153.152 212.266 153.547 211.988 154.048C211.722 154.539 211.588 155.093 211.588 155.712C211.588 156.331 211.722 156.891 211.988 157.392C212.266 157.883 212.634 158.272 213.092 158.56C213.562 158.848 214.084 158.992 214.66 158.992ZM221.06 160V151.424H222.26V152.832L222.1 152.624C222.303 152.219 222.607 151.899 223.012 151.664C223.428 151.429 223.929 151.312 224.516 151.312H225.06V152.512H224.308C223.689 152.512 223.193 152.704 222.82 153.088C222.447 153.472 222.26 154.016 222.26 154.72V160H221.06ZM230.482 160.192C229.672 160.192 228.936 160 228.274 159.616C227.613 159.221 227.085 158.688 226.69 158.016C226.306 157.333 226.114 156.56 226.114 155.696C226.114 154.843 226.306 154.08 226.69 153.408C227.074 152.736 227.592 152.208 228.242 151.824C228.904 151.429 229.65 151.232 230.482 151.232C231.314 151.232 232.056 151.424 232.706 151.808C233.368 152.192 233.885 152.72 234.258 153.392C234.642 154.064 234.834 154.832 234.834 155.696C234.834 156.571 234.637 157.349 234.242 158.032C233.848 158.704 233.32 159.232 232.658 159.616C232.008 160 231.282 160.192 230.482 160.192ZM230.482 158.992C231.058 158.992 231.576 158.848 232.034 158.56C232.504 158.272 232.872 157.877 233.138 157.376C233.416 156.875 233.554 156.315 233.554 155.696C233.554 155.077 233.416 154.523 233.138 154.032C232.872 153.541 232.504 153.152 232.034 152.864C231.576 152.576 231.058 152.432 230.482 152.432C229.906 152.432 229.384 152.576 228.914 152.864C228.456 153.152 228.088 153.541 227.81 154.032C227.533 154.523 227.394 155.077 227.394 155.696C227.394 156.315 227.533 156.875 227.81 157.376C228.088 157.877 228.456 158.272 228.914 158.56C229.384 158.848 229.906 158.992 230.482 158.992ZM240.823 160.192C240.023 160.192 239.303 160 238.663 159.616C238.023 159.221 237.516 158.688 237.143 158.016C236.78 157.333 236.599 156.565 236.599 155.712C236.599 154.848 236.78 154.08 237.143 153.408C237.516 152.736 238.017 152.208 238.647 151.824C239.287 151.429 240.012 151.232 240.823 151.232C241.559 151.232 242.215 151.392 242.791 151.712C243.367 152.032 243.82 152.464 244.151 153.008L243.959 153.344V147.888H245.159V160H243.959V158.08L244.151 158.256C243.852 158.875 243.404 159.355 242.807 159.696C242.22 160.027 241.559 160.192 240.823 160.192ZM240.887 158.992C241.463 158.992 241.98 158.848 242.439 158.56C242.908 158.272 243.276 157.883 243.543 157.392C243.82 156.891 243.959 156.331 243.959 155.712C243.959 155.093 243.82 154.539 243.543 154.048C243.276 153.547 242.908 153.152 242.439 152.864C241.98 152.576 241.463 152.432 240.887 152.432C240.321 152.432 239.809 152.576 239.351 152.864C238.892 153.152 238.529 153.541 238.263 154.032C238.007 154.523 237.879 155.083 237.879 155.712C237.879 156.331 238.007 156.891 238.263 157.392C238.529 157.883 238.887 158.272 239.335 158.56C239.793 158.848 240.311 158.992 240.887 158.992ZM250.663 160.192C250.065 160.192 249.521 160.053 249.031 159.776C248.54 159.488 248.151 159.093 247.863 158.592C247.585 158.08 247.447 157.493 247.447 156.832V151.424H248.647V156.688C248.647 157.147 248.737 157.552 248.919 157.904C249.111 158.245 249.372 158.512 249.703 158.704C250.044 158.896 250.433 158.992 250.871 158.992C251.308 158.992 251.697 158.896 252.039 158.704C252.38 158.501 252.647 158.219 252.839 157.856C253.031 157.483 253.127 157.04 253.127 156.528V151.424H254.327V160H253.127V158.336L253.399 158.4C253.196 158.955 252.849 159.392 252.359 159.712C251.868 160.032 251.303 160.192 250.663 160.192ZM260.715 160.192C259.872 160.192 259.131 159.995 258.491 159.6C257.851 159.205 257.349 158.672 256.987 158C256.624 157.317 256.443 156.549 256.443 155.696C256.443 154.843 256.624 154.08 256.987 153.408C257.349 152.736 257.851 152.208 258.491 151.824C259.131 151.429 259.872 151.232 260.715 151.232C261.248 151.232 261.749 151.328 262.219 151.52C262.688 151.712 263.104 151.973 263.467 152.304C263.829 152.624 264.101 152.997 264.283 153.424L263.195 153.984C262.981 153.525 262.656 153.152 262.219 152.864C261.781 152.576 261.28 152.432 260.715 152.432C260.149 152.432 259.637 152.576 259.179 152.864C258.731 153.141 258.373 153.531 258.107 154.032C257.851 154.523 257.723 155.083 257.723 155.712C257.723 156.331 257.851 156.891 258.107 157.392C258.373 157.883 258.731 158.272 259.179 158.56C259.637 158.848 260.149 158.992 260.715 158.992C261.28 158.992 261.776 158.848 262.203 158.56C262.64 158.272 262.971 157.888 263.195 157.408L264.283 158C264.101 158.416 263.829 158.789 263.467 159.12C263.104 159.451 262.688 159.712 262.219 159.904C261.749 160.096 261.248 160.192 260.715 160.192ZM269.668 160.096C268.9 160.096 268.308 159.872 267.892 159.424C267.476 158.976 267.268 158.336 267.268 157.504V152.624H265.684V151.424H266.084C266.447 151.424 266.735 151.307 266.948 151.072C267.162 150.827 267.268 150.523 267.268 150.16V149.44H268.468V151.424H270.356V152.624H268.468V157.504C268.468 157.792 268.511 158.048 268.596 158.272C268.682 158.485 268.826 158.656 269.028 158.784C269.242 158.912 269.524 158.976 269.876 158.976C269.962 158.976 270.063 158.971 270.18 158.96C270.298 158.949 270.399 158.939 270.484 158.928V160C270.356 160.032 270.212 160.053 270.052 160.064C269.892 160.085 269.764 160.096 269.668 160.096ZM278.286 160.192C277.465 160.192 276.745 159.984 276.126 159.568C275.507 159.152 275.059 158.587 274.782 157.872L275.79 157.392C276.035 157.915 276.377 158.331 276.814 158.64C277.262 158.949 277.753 159.104 278.286 159.104C278.798 159.104 279.23 158.981 279.582 158.736C279.934 158.48 280.11 158.149 280.11 157.744C280.11 157.445 280.025 157.211 279.854 157.04C279.683 156.859 279.486 156.72 279.262 156.624C279.038 156.528 278.841 156.459 278.67 156.416L277.438 156.064C276.649 155.84 276.078 155.525 275.726 155.12C275.374 154.715 275.198 154.245 275.198 153.712C275.198 153.211 275.326 152.773 275.582 152.4C275.838 152.027 276.185 151.739 276.622 151.536C277.059 151.333 277.545 151.232 278.078 151.232C278.803 151.232 279.459 151.424 280.046 151.808C280.643 152.181 281.065 152.704 281.31 153.376L280.286 153.856C280.073 153.376 279.763 153.003 279.358 152.736C278.963 152.459 278.521 152.32 278.03 152.32C277.55 152.32 277.166 152.443 276.878 152.688C276.59 152.933 276.446 153.243 276.446 153.616C276.446 153.904 276.521 154.133 276.67 154.304C276.819 154.475 276.99 154.603 277.182 154.688C277.385 154.773 277.561 154.837 277.71 154.88L279.134 155.296C279.827 155.499 280.366 155.813 280.75 156.24C281.145 156.667 281.342 157.168 281.342 157.744C281.342 158.213 281.209 158.635 280.942 159.008C280.686 159.381 280.329 159.675 279.87 159.888C279.411 160.091 278.883 160.192 278.286 160.192ZM287.371 160.192C286.528 160.192 285.787 159.995 285.147 159.6C284.507 159.205 284.005 158.672 283.643 158C283.28 157.317 283.099 156.549 283.099 155.696C283.099 154.843 283.28 154.08 283.643 153.408C284.005 152.736 284.507 152.208 285.147 151.824C285.787 151.429 286.528 151.232 287.371 151.232C287.904 151.232 288.405 151.328 288.875 151.52C289.344 151.712 289.76 151.973 290.123 152.304C290.485 152.624 290.757 152.997 290.939 153.424L289.851 153.984C289.637 153.525 289.312 153.152 288.875 152.864C288.437 152.576 287.936 152.432 287.371 152.432C286.805 152.432 286.293 152.576 285.835 152.864C285.387 153.141 285.029 153.531 284.763 154.032C284.507 154.523 284.379 155.083 284.379 155.712C284.379 156.331 284.507 156.891 284.763 157.392C285.029 157.883 285.387 158.272 285.835 158.56C286.293 158.848 286.805 158.992 287.371 158.992C287.936 158.992 288.432 158.848 288.859 158.56C289.296 158.272 289.627 157.888 289.851 157.408L290.939 158C290.757 158.416 290.485 158.789 290.123 159.12C289.76 159.451 289.344 159.712 288.875 159.904C288.405 160.096 287.904 160.192 287.371 160.192ZM293.045 160V151.424H294.245V152.832L294.085 152.624C294.287 152.219 294.591 151.899 294.997 151.664C295.413 151.429 295.914 151.312 296.501 151.312H297.045V152.512H296.293C295.674 152.512 295.178 152.704 294.805 153.088C294.431 153.472 294.245 154.016 294.245 154.72V160H293.045ZM302.355 160.192C301.555 160.192 300.829 160 300.179 159.616C299.539 159.221 299.032 158.683 298.659 158C298.285 157.317 298.099 156.544 298.099 155.68C298.099 154.816 298.28 154.053 298.643 153.392C299.005 152.72 299.496 152.192 300.115 151.808C300.744 151.424 301.448 151.232 302.227 151.232C302.845 151.232 303.395 151.349 303.875 151.584C304.365 151.808 304.781 152.117 305.123 152.512C305.464 152.896 305.725 153.333 305.907 153.824C306.088 154.304 306.179 154.8 306.179 155.312C306.179 155.419 306.173 155.541 306.163 155.68C306.152 155.808 306.136 155.941 306.115 156.08H298.867V154.96H305.427L304.851 155.44C304.947 154.853 304.877 154.331 304.643 153.872C304.419 153.403 304.093 153.035 303.667 152.768C303.24 152.491 302.76 152.352 302.227 152.352C301.693 152.352 301.197 152.491 300.739 152.768C300.291 153.045 299.939 153.435 299.683 153.936C299.427 154.427 299.325 155.013 299.379 155.696C299.325 156.379 299.432 156.976 299.699 157.488C299.976 157.989 300.349 158.379 300.819 158.656C301.299 158.933 301.811 159.072 302.355 159.072C302.984 159.072 303.512 158.923 303.939 158.624C304.365 158.325 304.712 157.952 304.979 157.504L306.003 158.048C305.832 158.432 305.571 158.789 305.219 159.12C304.867 159.44 304.445 159.701 303.955 159.904C303.475 160.096 302.941 160.192 302.355 160.192ZM312.199 160.192C311.399 160.192 310.673 160 310.023 159.616C309.383 159.221 308.876 158.683 308.503 158C308.129 157.317 307.943 156.544 307.943 155.68C307.943 154.816 308.124 154.053 308.487 153.392C308.849 152.72 309.34 152.192 309.959 151.808C310.588 151.424 311.292 151.232 312.071 151.232C312.689 151.232 313.239 151.349 313.719 151.584C314.209 151.808 314.625 152.117 314.967 152.512C315.308 152.896 315.569 153.333 315.751 153.824C315.932 154.304 316.023 154.8 316.023 155.312C316.023 155.419 316.017 155.541 316.007 155.68C315.996 155.808 315.98 155.941 315.959 156.08H308.711V154.96H315.271L314.695 155.44C314.791 154.853 314.721 154.331 314.487 153.872C314.263 153.403 313.937 153.035 313.511 152.768C313.084 152.491 312.604 152.352 312.071 152.352C311.537 152.352 311.041 152.491 310.583 152.768C310.135 153.045 309.783 153.435 309.527 153.936C309.271 154.427 309.169 155.013 309.223 155.696C309.169 156.379 309.276 156.976 309.543 157.488C309.82 157.989 310.193 158.379 310.663 158.656C311.143 158.933 311.655 159.072 312.199 159.072C312.828 159.072 313.356 158.923 313.783 158.624C314.209 158.325 314.556 157.952 314.823 157.504L315.847 158.048C315.676 158.432 315.415 158.789 315.062 159.12C314.711 159.44 314.289 159.701 313.799 159.904C313.319 160.096 312.785 160.192 312.199 160.192ZM318.138 160V151.424H319.338V153.088L319.066 153.024C319.28 152.469 319.626 152.032 320.106 151.712C320.597 151.392 321.162 151.232 321.802 151.232C322.41 151.232 322.954 151.371 323.434 151.648C323.925 151.925 324.309 152.309 324.586 152.8C324.874 153.28 325.018 153.824 325.018 154.432V160H323.818V154.896C323.818 154.373 323.722 153.931 323.53 153.568C323.349 153.205 323.088 152.928 322.746 152.736C322.416 152.533 322.032 152.432 321.594 152.432C321.157 152.432 320.768 152.533 320.426 152.736C320.085 152.928 319.818 153.211 319.626 153.584C319.434 153.947 319.338 154.384 319.338 154.896V160H318.138ZM330.286 160.192C329.465 160.192 328.745 159.984 328.126 159.568C327.507 159.152 327.059 158.587 326.782 157.872L327.79 157.392C328.035 157.915 328.377 158.331 328.814 158.64C329.262 158.949 329.753 159.104 330.286 159.104C330.798 159.104 331.23 158.981 331.582 158.736C331.934 158.48 332.11 158.149 332.11 157.744C332.11 157.445 332.025 157.211 331.854 157.04C331.683 156.859 331.486 156.72 331.262 156.624C331.038 156.528 330.841 156.459 330.67 156.416L329.438 156.064C328.649 155.84 328.078 155.525 327.726 155.12C327.374 154.715 327.198 154.245 327.198 153.712C327.198 153.211 327.326 152.773 327.582 152.4C327.838 152.027 328.185 151.739 328.622 151.536C329.059 151.333 329.545 151.232 330.078 151.232C330.803 151.232 331.459 151.424 332.046 151.808C332.643 152.181 333.065 152.704 333.31 153.376L332.286 153.856C332.073 153.376 331.763 153.003 331.358 152.736C330.963 152.459 330.521 152.32 330.03 152.32C329.55 152.32 329.166 152.443 328.878 152.688C328.59 152.933 328.446 153.243 328.446 153.616C328.446 153.904 328.521 154.133 328.67 154.304C328.819 154.475 328.99 154.603 329.182 154.688C329.385 154.773 329.561 154.837 329.71 154.88L331.134 155.296C331.827 155.499 332.366 155.813 332.75 156.24C333.145 156.667 333.342 157.168 333.342 157.744C333.342 158.213 333.209 158.635 332.942 159.008C332.686 159.381 332.329 159.675 331.87 159.888C331.411 160.091 330.883 160.192 330.286 160.192ZM335.451 160V147.888H336.651V153.088L336.379 153.024C336.592 152.469 336.939 152.032 337.419 151.712C337.909 151.392 338.475 151.232 339.115 151.232C339.723 151.232 340.267 151.371 340.747 151.648C341.237 151.925 341.621 152.309 341.899 152.8C342.187 153.28 342.331 153.824 342.331 154.432V160H341.131V154.896C341.131 154.373 341.035 153.931 340.843 153.568C340.651 153.205 340.384 152.928 340.043 152.736C339.712 152.533 339.333 152.432 338.907 152.432C338.48 152.432 338.096 152.533 337.755 152.736C337.413 152.928 337.141 153.211 336.939 153.584C336.747 153.947 336.651 154.384 336.651 154.896V160H335.451ZM348.639 160.192C347.828 160.192 347.092 160 346.431 159.616C345.769 159.221 345.241 158.688 344.847 158.016C344.463 157.333 344.271 156.56 344.271 155.696C344.271 154.843 344.463 154.08 344.847 153.408C345.231 152.736 345.748 152.208 346.399 151.824C347.06 151.429 347.807 151.232 348.639 151.232C349.471 151.232 350.212 151.424 350.863 151.808C351.524 152.192 352.041 152.72 352.415 153.392C352.799 154.064 352.991 154.832 352.991 155.696C352.991 156.571 352.793 157.349 352.399 158.032C352.004 158.704 351.476 159.232 350.815 159.616C350.164 160 349.439 160.192 348.639 160.192ZM348.639 158.992C349.215 158.992 349.732 158.848 350.191 158.56C350.66 158.272 351.028 157.877 351.295 157.376C351.572 156.875 351.711 156.315 351.711 155.696C351.711 155.077 351.572 154.523 351.295 154.032C351.028 153.541 350.66 153.152 350.191 152.864C349.732 152.576 349.215 152.432 348.639 152.432C348.063 152.432 347.54 152.576 347.071 152.864C346.612 153.152 346.244 153.541 345.967 154.032C345.689 154.523 345.551 155.077 345.551 155.696C345.551 156.315 345.689 156.875 345.967 157.376C346.244 157.877 346.612 158.272 347.071 158.56C347.54 158.848 348.063 158.992 348.639 158.992ZM358.231 160.096C357.463 160.096 356.871 159.872 356.455 159.424C356.039 158.976 355.831 158.336 355.831 157.504V152.624H354.247V151.424H354.647C355.009 151.424 355.297 151.307 355.511 151.072C355.724 150.827 355.831 150.523 355.831 150.16V149.44H357.031V151.424H358.919V152.624H357.031V157.504C357.031 157.792 357.073 158.048 357.159 158.272C357.244 158.485 357.388 158.656 357.591 158.784C357.804 158.912 358.087 158.976 358.439 158.976C358.524 158.976 358.625 158.971 358.743 158.96C358.86 158.949 358.961 158.939 359.047 158.928V160C358.919 160.032 358.775 160.053 358.615 160.064C358.455 160.085 358.327 160.096 358.231 160.096ZM363.873 160V147.888H365.073V153.088L364.801 153.024C365.014 152.469 365.361 152.032 365.841 151.712C366.331 151.392 366.897 151.232 367.537 151.232C368.145 151.232 368.689 151.371 369.169 151.648C369.659 151.925 370.043 152.309 370.321 152.8C370.609 153.28 370.753 153.824 370.753 154.432V160H369.553V154.896C369.553 154.373 369.457 153.931 369.265 153.568C369.073 153.205 368.806 152.928 368.465 152.736C368.134 152.533 367.755 152.432 367.329 152.432C366.902 152.432 366.518 152.533 366.177 152.736C365.835 152.928 365.563 153.211 365.361 153.584C365.169 153.947 365.073 154.384 365.073 154.896V160H363.873ZM376.949 160.192C376.149 160.192 375.423 160 374.773 159.616C374.133 159.221 373.626 158.683 373.253 158C372.879 157.317 372.693 156.544 372.693 155.68C372.693 154.816 372.874 154.053 373.237 153.392C373.599 152.72 374.09 152.192 374.709 151.808C375.338 151.424 376.042 151.232 376.821 151.232C377.439 151.232 377.989 151.349 378.469 151.584C378.959 151.808 379.375 152.117 379.717 152.512C380.058 152.896 380.319 153.333 380.501 153.824C380.682 154.304 380.773 154.8 380.773 155.312C380.773 155.419 380.767 155.541 380.757 155.68C380.746 155.808 380.73 155.941 380.709 156.08H373.461V154.96H380.021L379.445 155.44C379.541 154.853 379.471 154.331 379.237 153.872C379.013 153.403 378.687 153.035 378.261 152.768C377.834 152.491 377.354 152.352 376.821 152.352C376.287 152.352 375.791 152.491 375.333 152.768C374.885 153.045 374.533 153.435 374.277 153.936C374.021 154.427 373.919 155.013 373.973 155.696C373.919 156.379 374.026 156.976 374.293 157.488C374.57 157.989 374.943 158.379 375.413 158.656C375.893 158.933 376.405 159.072 376.949 159.072C377.578 159.072 378.106 158.923 378.533 158.624C378.959 158.325 379.306 157.952 379.573 157.504L380.597 158.048C380.426 158.432 380.165 158.789 379.812 159.12C379.461 159.44 379.039 159.701 378.549 159.904C378.069 160.096 377.535 160.192 376.949 160.192ZM382.888 160V151.424H384.088V152.832L383.928 152.624C384.131 152.219 384.435 151.899 384.84 151.664C385.256 151.429 385.758 151.312 386.344 151.312H386.888V152.512H386.136C385.518 152.512 385.022 152.704 384.648 153.088C384.275 153.472 384.088 154.016 384.088 154.72V160H382.888ZM392.199 160.192C391.399 160.192 390.673 160 390.023 159.616C389.383 159.221 388.876 158.683 388.503 158C388.129 157.317 387.943 156.544 387.943 155.68C387.943 154.816 388.124 154.053 388.487 153.392C388.849 152.72 389.34 152.192 389.959 151.808C390.588 151.424 391.292 151.232 392.071 151.232C392.689 151.232 393.239 151.349 393.719 151.584C394.209 151.808 394.625 152.117 394.967 152.512C395.308 152.896 395.569 153.333 395.751 153.824C395.932 154.304 396.023 154.8 396.023 155.312C396.023 155.419 396.017 155.541 396.007 155.68C395.996 155.808 395.98 155.941 395.959 156.08H388.711V154.96H395.271L394.695 155.44C394.791 154.853 394.721 154.331 394.487 153.872C394.263 153.403 393.937 153.035 393.511 152.768C393.084 152.491 392.604 152.352 392.071 152.352C391.537 152.352 391.041 152.491 390.583 152.768C390.135 153.045 389.783 153.435 389.527 153.936C389.271 154.427 389.169 155.013 389.223 155.696C389.169 156.379 389.276 156.976 389.543 157.488C389.82 157.989 390.193 158.379 390.663 158.656C391.143 158.933 391.655 159.072 392.199 159.072C392.828 159.072 393.356 158.923 393.783 158.624C394.209 158.325 394.556 157.952 394.823 157.504L395.847 158.048C395.676 158.432 395.415 158.789 395.062 159.12C394.711 159.44 394.289 159.701 393.799 159.904C393.319 160.096 392.785 160.192 392.199 160.192Z" fill="#0A2540"/>
</svg>
