<svg width="377" height="308" viewBox="0 0 377 308" fill="none" xmlns="http://www.w3.org/2000/svg">
<rect width="377" height="308" fill="white"/>
<rect x="0.5" y="0.5" width="376" height="307" stroke="black" stroke-opacity="0.1"/>
<path opacity="0.5" d="M144.172 173V167.464L139.996 161.08H141.42L145.068 166.632H144.556L148.188 161.08H149.612L145.452 167.464V173H144.172ZM153.443 173.192C152.633 173.192 151.897 173 151.235 172.616C150.574 172.221 150.046 171.688 149.651 171.016C149.267 170.333 149.075 169.56 149.075 168.696C149.075 167.843 149.267 167.08 149.651 166.408C150.035 165.736 150.553 165.208 151.203 164.824C151.865 164.429 152.611 164.232 153.443 164.232C154.275 164.232 155.017 164.424 155.667 164.808C156.329 165.192 156.846 165.72 157.219 166.392C157.603 167.064 157.795 167.832 157.795 168.696C157.795 169.571 157.598 170.349 157.203 171.032C156.809 171.704 156.281 172.232 155.619 172.616C154.969 173 154.243 173.192 153.443 173.192ZM153.443 171.992C154.019 171.992 154.537 171.848 154.995 171.56C155.465 171.272 155.833 170.877 156.099 170.376C156.377 169.875 156.515 169.315 156.515 168.696C156.515 168.077 156.377 167.523 156.099 167.032C155.833 166.541 155.465 166.152 154.995 165.864C154.537 165.576 154.019 165.432 153.443 165.432C152.867 165.432 152.345 165.576 151.875 165.864C151.417 166.152 151.049 166.541 150.771 167.032C150.494 167.523 150.355 168.077 150.355 168.696C150.355 169.315 150.494 169.875 150.771 170.376C151.049 170.877 151.417 171.272 151.875 171.56C152.345 171.848 152.867 171.992 153.443 171.992ZM162.952 173.192C162.354 173.192 161.81 173.053 161.32 172.776C160.829 172.488 160.44 172.093 160.152 171.592C159.874 171.08 159.736 170.493 159.736 169.832V164.424H160.936V169.688C160.936 170.147 161.026 170.552 161.208 170.904C161.4 171.245 161.661 171.512 161.992 171.704C162.333 171.896 162.722 171.992 163.16 171.992C163.597 171.992 163.986 171.896 164.328 171.704C164.669 171.501 164.936 171.219 165.128 170.856C165.32 170.483 165.416 170.04 165.416 169.528V164.424H166.616V173H165.416V171.336L165.688 171.4C165.485 171.955 165.138 172.392 164.648 172.712C164.157 173.032 163.592 173.192 162.952 173.192ZM169.084 173V164.424H170.284V165.832L170.124 165.624C170.326 165.219 170.63 164.899 171.036 164.664C171.452 164.429 171.953 164.312 172.54 164.312H173.084V165.512H172.332C171.713 165.512 171.217 165.704 170.844 166.088C170.47 166.472 170.284 167.016 170.284 167.72V173H169.084ZM177.209 176.2V164.424H178.409V166.344L178.217 166.008C178.558 165.464 179.011 165.032 179.577 164.712C180.153 164.392 180.809 164.232 181.545 164.232C182.355 164.232 183.075 164.429 183.705 164.824C184.345 165.208 184.846 165.736 185.209 166.408C185.582 167.08 185.769 167.848 185.769 168.712C185.769 169.565 185.582 170.333 185.209 171.016C184.846 171.688 184.345 172.221 183.705 172.616C183.075 173 182.355 173.192 181.545 173.192C180.809 173.192 180.142 173.027 179.545 172.696C178.958 172.355 178.515 171.875 178.217 171.256L178.409 171.08V176.2H177.209ZM181.481 171.992C182.057 171.992 182.569 171.848 183.017 171.56C183.475 171.272 183.833 170.883 184.089 170.392C184.355 169.891 184.489 169.331 184.489 168.712C184.489 168.083 184.355 167.523 184.089 167.032C183.833 166.541 183.475 166.152 183.017 165.864C182.569 165.576 182.057 165.432 181.481 165.432C180.905 165.432 180.382 165.576 179.913 165.864C179.454 166.152 179.086 166.547 178.809 167.048C178.542 167.539 178.409 168.093 178.409 168.712C178.409 169.331 178.542 169.891 178.809 170.392C179.086 170.883 179.454 171.272 179.913 171.56C180.382 171.848 180.905 171.992 181.481 171.992ZM187.88 173V164.424H189.08V165.832L188.92 165.624C189.123 165.219 189.427 164.899 189.832 164.664C190.248 164.429 190.75 164.312 191.336 164.312H191.88V165.512H191.128C190.51 165.512 190.014 165.704 189.64 166.088C189.267 166.472 189.08 167.016 189.08 167.72V173H187.88ZM197.303 173.192C196.492 173.192 195.756 173 195.095 172.616C194.433 172.221 193.905 171.688 193.511 171.016C193.127 170.333 192.935 169.56 192.935 168.696C192.935 167.843 193.127 167.08 193.511 166.408C193.895 165.736 194.412 165.208 195.063 164.824C195.724 164.429 196.471 164.232 197.303 164.232C198.135 164.232 198.876 164.424 199.527 164.808C200.188 165.192 200.705 165.72 201.079 166.392C201.463 167.064 201.655 167.832 201.655 168.696C201.655 169.571 201.457 170.349 201.063 171.032C200.668 171.704 200.14 172.232 199.479 172.616C198.828 173 198.103 173.192 197.303 173.192ZM197.303 171.992C197.879 171.992 198.396 171.848 198.855 171.56C199.324 171.272 199.692 170.877 199.959 170.376C200.236 169.875 200.375 169.315 200.375 168.696C200.375 168.077 200.236 167.523 199.959 167.032C199.692 166.541 199.324 166.152 198.855 165.864C198.396 165.576 197.879 165.432 197.303 165.432C196.727 165.432 196.204 165.576 195.735 165.864C195.276 166.152 194.908 166.541 194.631 167.032C194.353 167.523 194.215 168.077 194.215 168.696C194.215 169.315 194.353 169.875 194.631 170.376C194.908 170.877 195.276 171.272 195.735 171.56C196.204 171.848 196.727 171.992 197.303 171.992ZM207.643 173.192C206.843 173.192 206.123 173 205.483 172.616C204.843 172.221 204.336 171.688 203.963 171.016C203.6 170.333 203.419 169.565 203.419 168.712C203.419 167.848 203.6 167.08 203.963 166.408C204.336 165.736 204.838 165.208 205.467 164.824C206.107 164.429 206.832 164.232 207.643 164.232C208.379 164.232 209.035 164.392 209.611 164.712C210.187 165.032 210.64 165.464 210.971 166.008L210.779 166.344V160.888H211.979V173H210.779V171.08L210.971 171.256C210.672 171.875 210.224 172.355 209.627 172.696C209.04 173.027 208.379 173.192 207.643 173.192ZM207.707 171.992C208.283 171.992 208.8 171.848 209.259 171.56C209.728 171.272 210.096 170.883 210.363 170.392C210.64 169.891 210.779 169.331 210.779 168.712C210.779 168.093 210.64 167.539 210.363 167.048C210.096 166.547 209.728 166.152 209.259 165.864C208.8 165.576 208.283 165.432 207.707 165.432C207.142 165.432 206.63 165.576 206.171 165.864C205.712 166.152 205.35 166.541 205.083 167.032C204.827 167.523 204.699 168.083 204.699 168.712C204.699 169.331 204.827 169.891 205.083 170.392C205.35 170.883 205.707 171.272 206.155 171.56C206.614 171.848 207.131 171.992 207.707 171.992ZM217.483 173.192C216.886 173.192 216.342 173.053 215.851 172.776C215.36 172.488 214.971 172.093 214.683 171.592C214.406 171.08 214.267 170.493 214.267 169.832V164.424H215.467V169.688C215.467 170.147 215.558 170.552 215.739 170.904C215.931 171.245 216.192 171.512 216.523 171.704C216.864 171.896 217.254 171.992 217.691 171.992C218.128 171.992 218.518 171.896 218.859 171.704C219.2 171.501 219.467 171.219 219.659 170.856C219.851 170.483 219.947 170.04 219.947 169.528V164.424H221.147V173H219.947V171.336L220.219 171.4C220.016 171.955 219.67 172.392 219.179 172.712C218.688 173.032 218.123 173.192 217.483 173.192ZM227.535 173.192C226.692 173.192 225.951 172.995 225.311 172.6C224.671 172.205 224.169 171.672 223.807 171C223.444 170.317 223.263 169.549 223.263 168.696C223.263 167.843 223.444 167.08 223.807 166.408C224.169 165.736 224.671 165.208 225.311 164.824C225.951 164.429 226.692 164.232 227.535 164.232C228.068 164.232 228.569 164.328 229.039 164.52C229.508 164.712 229.924 164.973 230.287 165.304C230.649 165.624 230.921 165.997 231.103 166.424L230.015 166.984C229.801 166.525 229.476 166.152 229.039 165.864C228.601 165.576 228.1 165.432 227.535 165.432C226.969 165.432 226.457 165.576 225.999 165.864C225.551 166.141 225.193 166.531 224.927 167.032C224.671 167.523 224.543 168.083 224.543 168.712C224.543 169.331 224.671 169.891 224.927 170.392C225.193 170.883 225.551 171.272 225.999 171.56C226.457 171.848 226.969 171.992 227.535 171.992C228.1 171.992 228.596 171.848 229.023 171.56C229.46 171.272 229.791 170.888 230.015 170.408L231.103 171C230.921 171.416 230.649 171.789 230.287 172.12C229.924 172.451 229.508 172.712 229.039 172.904C228.569 173.096 228.068 173.192 227.535 173.192ZM236.489 173.096C235.721 173.096 235.129 172.872 234.713 172.424C234.297 171.976 234.089 171.336 234.089 170.504V165.624H232.505V164.424H232.905C233.267 164.424 233.555 164.307 233.769 164.072C233.982 163.827 234.089 163.523 234.089 163.16V162.44H235.289V164.424H237.177V165.624H235.289V170.504C235.289 170.792 235.331 171.048 235.417 171.272C235.502 171.485 235.646 171.656 235.849 171.784C236.062 171.912 236.345 171.976 236.697 171.976C236.782 171.976 236.883 171.971 237.001 171.96C237.118 171.949 237.219 171.939 237.305 171.928V173C237.177 173.032 237.033 173.053 236.873 173.064C236.713 173.085 236.585 173.096 236.489 173.096ZM131.794 197.192C130.973 197.192 130.253 196.984 129.634 196.568C129.015 196.152 128.567 195.587 128.29 194.872L129.298 194.392C129.543 194.915 129.885 195.331 130.322 195.64C130.77 195.949 131.261 196.104 131.794 196.104C132.306 196.104 132.738 195.981 133.09 195.736C133.442 195.48 133.618 195.149 133.618 194.744C133.618 194.445 133.533 194.211 133.362 194.04C133.191 193.859 132.994 193.72 132.77 193.624C132.546 193.528 132.349 193.459 132.178 193.416L130.946 193.064C130.157 192.84 129.586 192.525 129.234 192.12C128.882 191.715 128.706 191.245 128.706 190.712C128.706 190.211 128.834 189.773 129.09 189.4C129.346 189.027 129.693 188.739 130.13 188.536C130.567 188.333 131.053 188.232 131.586 188.232C132.311 188.232 132.967 188.424 133.554 188.808C134.151 189.181 134.573 189.704 134.818 190.376L133.794 190.856C133.581 190.376 133.271 190.003 132.866 189.736C132.471 189.459 132.029 189.32 131.538 189.32C131.058 189.32 130.674 189.443 130.386 189.688C130.098 189.933 129.954 190.243 129.954 190.616C129.954 190.904 130.029 191.133 130.178 191.304C130.327 191.475 130.498 191.603 130.69 191.688C130.893 191.773 131.069 191.837 131.218 191.88L132.642 192.296C133.335 192.499 133.874 192.813 134.258 193.24C134.653 193.667 134.85 194.168 134.85 194.744C134.85 195.213 134.717 195.635 134.45 196.008C134.194 196.381 133.837 196.675 133.378 196.888C132.919 197.091 132.391 197.192 131.794 197.192ZM140.879 197.192C140.036 197.192 139.295 196.995 138.655 196.6C138.015 196.205 137.513 195.672 137.151 195C136.788 194.317 136.607 193.549 136.607 192.696C136.607 191.843 136.788 191.08 137.151 190.408C137.513 189.736 138.015 189.208 138.655 188.824C139.295 188.429 140.036 188.232 140.879 188.232C141.412 188.232 141.913 188.328 142.383 188.52C142.852 188.712 143.268 188.973 143.631 189.304C143.993 189.624 144.265 189.997 144.447 190.424L143.359 190.984C143.145 190.525 142.82 190.152 142.383 189.864C141.945 189.576 141.444 189.432 140.879 189.432C140.313 189.432 139.801 189.576 139.343 189.864C138.895 190.141 138.537 190.531 138.271 191.032C138.015 191.523 137.887 192.083 137.887 192.712C137.887 193.331 138.015 193.891 138.271 194.392C138.537 194.883 138.895 195.272 139.343 195.56C139.801 195.848 140.313 195.992 140.879 195.992C141.444 195.992 141.94 195.848 142.367 195.56C142.804 195.272 143.135 194.888 143.359 194.408L144.447 195C144.265 195.416 143.993 195.789 143.631 196.12C143.268 196.451 142.852 196.712 142.383 196.904C141.913 197.096 141.412 197.192 140.879 197.192ZM146.552 197V188.424H147.752V189.832L147.592 189.624C147.795 189.219 148.099 188.899 148.504 188.664C148.92 188.429 149.422 188.312 150.008 188.312H150.552V189.512H149.8C149.182 189.512 148.686 189.704 148.312 190.088C147.939 190.472 147.752 191.016 147.752 191.72V197H146.552ZM155.863 197.192C155.063 197.192 154.337 197 153.687 196.616C153.047 196.221 152.54 195.683 152.167 195C151.793 194.317 151.607 193.544 151.607 192.68C151.607 191.816 151.788 191.053 152.151 190.392C152.513 189.72 153.004 189.192 153.623 188.808C154.252 188.424 154.956 188.232 155.735 188.232C156.353 188.232 156.903 188.349 157.383 188.584C157.873 188.808 158.289 189.117 158.631 189.512C158.972 189.896 159.233 190.333 159.415 190.824C159.596 191.304 159.687 191.8 159.687 192.312C159.687 192.419 159.681 192.541 159.671 192.68C159.66 192.808 159.644 192.941 159.623 193.08H152.375V191.96H158.935L158.359 192.44C158.455 191.853 158.385 191.331 158.151 190.872C157.927 190.403 157.601 190.035 157.175 189.768C156.748 189.491 156.268 189.352 155.735 189.352C155.201 189.352 154.705 189.491 154.247 189.768C153.799 190.045 153.447 190.435 153.191 190.936C152.935 191.427 152.833 192.013 152.887 192.696C152.833 193.379 152.94 193.976 153.207 194.488C153.484 194.989 153.857 195.379 154.327 195.656C154.807 195.933 155.319 196.072 155.863 196.072C156.492 196.072 157.02 195.923 157.447 195.624C157.873 195.325 158.22 194.952 158.487 194.504L159.511 195.048C159.34 195.432 159.079 195.789 158.727 196.12C158.375 196.44 157.953 196.701 157.463 196.904C156.983 197.096 156.449 197.192 155.863 197.192ZM165.706 197.192C164.906 197.192 164.181 197 163.53 196.616C162.89 196.221 162.384 195.683 162.01 195C161.637 194.317 161.45 193.544 161.45 192.68C161.45 191.816 161.632 191.053 161.994 190.392C162.357 189.72 162.848 189.192 163.466 188.808C164.096 188.424 164.8 188.232 165.578 188.232C166.197 188.232 166.746 188.349 167.226 188.584C167.717 188.808 168.133 189.117 168.474 189.512C168.816 189.896 169.077 190.333 169.258 190.824C169.44 191.304 169.53 191.8 169.53 192.312C169.53 192.419 169.525 192.541 169.514 192.68C169.504 192.808 169.488 192.941 169.466 193.08H162.218V191.96H168.778L168.202 192.44C168.298 191.853 168.229 191.331 167.994 190.872C167.77 190.403 167.445 190.035 167.018 189.768C166.592 189.491 166.112 189.352 165.578 189.352C165.045 189.352 164.549 189.491 164.09 189.768C163.642 190.045 163.29 190.435 163.034 190.936C162.778 191.427 162.677 192.013 162.73 192.696C162.677 193.379 162.784 193.976 163.05 194.488C163.328 194.989 163.701 195.379 164.17 195.656C164.65 195.933 165.162 196.072 165.706 196.072C166.336 196.072 166.864 195.923 167.29 195.624C167.717 195.325 168.064 194.952 168.33 194.504L169.354 195.048C169.184 195.432 168.922 195.789 168.57 196.12C168.218 196.44 167.797 196.701 167.306 196.904C166.826 197.096 166.293 197.192 165.706 197.192ZM171.646 197V188.424H172.846V190.088L172.574 190.024C172.787 189.469 173.134 189.032 173.614 188.712C174.105 188.392 174.67 188.232 175.31 188.232C175.918 188.232 176.462 188.371 176.942 188.648C177.433 188.925 177.817 189.309 178.094 189.8C178.382 190.28 178.526 190.824 178.526 191.432V197H177.326V191.896C177.326 191.373 177.23 190.931 177.038 190.568C176.857 190.205 176.595 189.928 176.254 189.736C175.923 189.533 175.539 189.432 175.102 189.432C174.665 189.432 174.275 189.533 173.934 189.736C173.593 189.928 173.326 190.211 173.134 190.584C172.942 190.947 172.846 191.384 172.846 191.896V197H171.646ZM183.794 197.192C182.973 197.192 182.253 196.984 181.634 196.568C181.015 196.152 180.567 195.587 180.29 194.872L181.298 194.392C181.543 194.915 181.885 195.331 182.322 195.64C182.77 195.949 183.261 196.104 183.794 196.104C184.306 196.104 184.738 195.981 185.09 195.736C185.442 195.48 185.618 195.149 185.618 194.744C185.618 194.445 185.533 194.211 185.362 194.04C185.191 193.859 184.994 193.72 184.77 193.624C184.546 193.528 184.349 193.459 184.178 193.416L182.946 193.064C182.157 192.84 181.586 192.525 181.234 192.12C180.882 191.715 180.706 191.245 180.706 190.712C180.706 190.211 180.834 189.773 181.09 189.4C181.346 189.027 181.693 188.739 182.13 188.536C182.567 188.333 183.053 188.232 183.586 188.232C184.311 188.232 184.967 188.424 185.554 188.808C186.151 189.181 186.573 189.704 186.818 190.376L185.794 190.856C185.581 190.376 185.271 190.003 184.866 189.736C184.471 189.459 184.029 189.32 183.538 189.32C183.058 189.32 182.674 189.443 182.386 189.688C182.098 189.933 181.954 190.243 181.954 190.616C181.954 190.904 182.029 191.133 182.178 191.304C182.327 191.475 182.498 191.603 182.69 191.688C182.893 191.773 183.069 191.837 183.218 191.88L184.642 192.296C185.335 192.499 185.874 192.813 186.258 193.24C186.653 193.667 186.85 194.168 186.85 194.744C186.85 195.213 186.717 195.635 186.45 196.008C186.194 196.381 185.837 196.675 185.378 196.888C184.919 197.091 184.391 197.192 183.794 197.192ZM188.959 197V184.888H190.159V190.088L189.887 190.024C190.1 189.469 190.447 189.032 190.927 188.712C191.417 188.392 191.983 188.232 192.623 188.232C193.231 188.232 193.775 188.371 194.255 188.648C194.745 188.925 195.129 189.309 195.407 189.8C195.695 190.28 195.839 190.824 195.839 191.432V197H194.639V191.896C194.639 191.373 194.543 190.931 194.351 190.568C194.159 190.205 193.892 189.928 193.551 189.736C193.22 189.533 192.841 189.432 192.415 189.432C191.988 189.432 191.604 189.533 191.263 189.736C190.921 189.928 190.649 190.211 190.447 190.584C190.255 190.947 190.159 191.384 190.159 191.896V197H188.959ZM202.146 197.192C201.336 197.192 200.6 197 199.938 196.616C199.277 196.221 198.749 195.688 198.354 195.016C197.97 194.333 197.778 193.56 197.778 192.696C197.778 191.843 197.97 191.08 198.354 190.408C198.738 189.736 199.256 189.208 199.906 188.824C200.568 188.429 201.314 188.232 202.146 188.232C202.978 188.232 203.72 188.424 204.37 188.808C205.032 189.192 205.549 189.72 205.922 190.392C206.306 191.064 206.498 191.832 206.498 192.696C206.498 193.571 206.301 194.349 205.906 195.032C205.512 195.704 204.984 196.232 204.322 196.616C203.672 197 202.946 197.192 202.146 197.192ZM202.146 195.992C202.722 195.992 203.24 195.848 203.698 195.56C204.168 195.272 204.536 194.877 204.802 194.376C205.08 193.875 205.218 193.315 205.218 192.696C205.218 192.077 205.08 191.523 204.802 191.032C204.536 190.541 204.168 190.152 203.698 189.864C203.24 189.576 202.722 189.432 202.146 189.432C201.57 189.432 201.048 189.576 200.578 189.864C200.12 190.152 199.752 190.541 199.474 191.032C199.197 191.523 199.058 192.077 199.058 192.696C199.058 193.315 199.197 193.875 199.474 194.376C199.752 194.877 200.12 195.272 200.578 195.56C201.048 195.848 201.57 195.992 202.146 195.992ZM211.739 197.096C210.971 197.096 210.379 196.872 209.963 196.424C209.547 195.976 209.339 195.336 209.339 194.504V189.624H207.755V188.424H208.155C208.517 188.424 208.805 188.307 209.019 188.072C209.232 187.827 209.339 187.523 209.339 187.16V186.44H210.539V188.424H212.427V189.624H210.539V194.504C210.539 194.792 210.581 195.048 210.667 195.272C210.752 195.485 210.896 195.656 211.099 195.784C211.312 195.912 211.595 195.976 211.947 195.976C212.032 195.976 212.133 195.971 212.251 195.96C212.368 195.949 212.469 195.939 212.555 195.928V197C212.427 197.032 212.283 197.053 212.123 197.064C211.963 197.085 211.835 197.096 211.739 197.096ZM217.38 197V184.888H218.58V190.088L218.308 190.024C218.522 189.469 218.868 189.032 219.348 188.712C219.839 188.392 220.404 188.232 221.044 188.232C221.652 188.232 222.196 188.371 222.676 188.648C223.167 188.925 223.551 189.309 223.828 189.8C224.116 190.28 224.26 190.824 224.26 191.432V197H223.06V191.896C223.06 191.373 222.964 190.931 222.772 190.568C222.58 190.205 222.314 189.928 221.972 189.736C221.642 189.533 221.263 189.432 220.836 189.432C220.41 189.432 220.026 189.533 219.684 189.736C219.343 189.928 219.071 190.211 218.868 190.584C218.676 190.947 218.58 191.384 218.58 191.896V197H217.38ZM230.456 197.192C229.656 197.192 228.931 197 228.28 196.616C227.64 196.221 227.134 195.683 226.76 195C226.387 194.317 226.2 193.544 226.2 192.68C226.2 191.816 226.382 191.053 226.744 190.392C227.107 189.72 227.598 189.192 228.216 188.808C228.846 188.424 229.55 188.232 230.328 188.232C230.947 188.232 231.496 188.349 231.976 188.584C232.467 188.808 232.883 189.117 233.224 189.512C233.566 189.896 233.827 190.333 234.008 190.824C234.19 191.304 234.28 191.8 234.28 192.312C234.28 192.419 234.275 192.541 234.264 192.68C234.254 192.808 234.238 192.941 234.216 193.08H226.968V191.96H233.528L232.952 192.44C233.048 191.853 232.979 191.331 232.744 190.872C232.52 190.403 232.195 190.035 231.768 189.768C231.342 189.491 230.862 189.352 230.328 189.352C229.795 189.352 229.299 189.491 228.84 189.768C228.392 190.045 228.04 190.435 227.784 190.936C227.528 191.427 227.427 192.013 227.48 192.696C227.427 193.379 227.534 193.976 227.8 194.488C228.078 194.989 228.451 195.379 228.92 195.656C229.4 195.933 229.912 196.072 230.456 196.072C231.086 196.072 231.614 195.923 232.04 195.624C232.467 195.325 232.814 194.952 233.08 194.504L234.104 195.048C233.934 195.432 233.672 195.789 233.32 196.12C232.968 196.44 232.547 196.701 232.056 196.904C231.576 197.096 231.043 197.192 230.456 197.192ZM236.396 197V188.424H237.596V189.832L237.436 189.624C237.639 189.219 237.943 188.899 238.348 188.664C238.764 188.429 239.265 188.312 239.852 188.312H240.396V189.512H239.644C239.025 189.512 238.529 189.704 238.156 190.088C237.783 190.472 237.596 191.016 237.596 191.72V197H236.396ZM245.706 197.192C244.906 197.192 244.181 197 243.53 196.616C242.89 196.221 242.384 195.683 242.01 195C241.637 194.317 241.45 193.544 241.45 192.68C241.45 191.816 241.632 191.053 241.994 190.392C242.357 189.72 242.848 189.192 243.466 188.808C244.096 188.424 244.8 188.232 245.578 188.232C246.197 188.232 246.746 188.349 247.226 188.584C247.717 188.808 248.133 189.117 248.474 189.512C248.816 189.896 249.077 190.333 249.258 190.824C249.44 191.304 249.53 191.8 249.53 192.312C249.53 192.419 249.525 192.541 249.514 192.68C249.504 192.808 249.488 192.941 249.466 193.08H242.218V191.96H248.778L248.202 192.44C248.298 191.853 248.229 191.331 247.994 190.872C247.77 190.403 247.445 190.035 247.018 189.768C246.592 189.491 246.112 189.352 245.578 189.352C245.045 189.352 244.549 189.491 244.09 189.768C243.642 190.045 243.29 190.435 243.034 190.936C242.778 191.427 242.677 192.013 242.73 192.696C242.677 193.379 242.784 193.976 243.05 194.488C243.328 194.989 243.701 195.379 244.17 195.656C244.65 195.933 245.162 196.072 245.706 196.072C246.336 196.072 246.864 195.923 247.29 195.624C247.717 195.325 248.064 194.952 248.33 194.504L249.354 195.048C249.184 195.432 248.922 195.789 248.57 196.12C248.218 196.44 247.797 196.701 247.306 196.904C246.826 197.096 246.293 197.192 245.706 197.192Z" fill="#0A2540"/>
</svg>
