<svg width="811" height="537" viewBox="0 0 811 537" fill="none" xmlns="http://www.w3.org/2000/svg">
<rect width="810.382" height="537" fill="white"/>
<rect x="67" y="55" width="677" height="428" rx="12" fill="white"/>
<rect x="67.5" y="55.5" width="676" height="427" rx="11.5" stroke="black" stroke-opacity="0.1"/>
<path opacity="0.5" d="M298.352 276V270.464L294.176 264.08H295.6L299.248 269.632H298.736L302.368 264.08H303.792L299.632 270.464V276H298.352ZM307.623 276.192C306.812 276.192 306.076 276 305.415 275.616C304.754 275.221 304.226 274.688 303.831 274.016C303.447 273.333 303.255 272.56 303.255 271.696C303.255 270.843 303.447 270.08 303.831 269.408C304.215 268.736 304.732 268.208 305.383 267.824C306.044 267.429 306.791 267.232 307.623 267.232C308.455 267.232 309.196 267.424 309.847 267.808C310.508 268.192 311.026 268.72 311.399 269.392C311.783 270.064 311.975 270.832 311.975 271.696C311.975 272.571 311.778 273.349 311.383 274.032C310.988 274.704 310.46 275.232 309.799 275.616C309.148 276 308.423 276.192 307.623 276.192ZM307.623 274.992C308.199 274.992 308.716 274.848 309.175 274.56C309.644 274.272 310.012 273.877 310.279 273.376C310.556 272.875 310.695 272.315 310.695 271.696C310.695 271.077 310.556 270.523 310.279 270.032C310.012 269.541 309.644 269.152 309.175 268.864C308.716 268.576 308.199 268.432 307.623 268.432C307.047 268.432 306.524 268.576 306.055 268.864C305.596 269.152 305.228 269.541 304.951 270.032C304.674 270.523 304.535 271.077 304.535 271.696C304.535 272.315 304.674 272.875 304.951 273.376C305.228 273.877 305.596 274.272 306.055 274.56C306.524 274.848 307.047 274.992 307.623 274.992ZM317.131 276.192C316.534 276.192 315.99 276.053 315.499 275.776C315.009 275.488 314.619 275.093 314.331 274.592C314.054 274.08 313.915 273.493 313.915 272.832V267.424H315.115V272.688C315.115 273.147 315.206 273.552 315.387 273.904C315.579 274.245 315.841 274.512 316.171 274.704C316.513 274.896 316.902 274.992 317.339 274.992C317.777 274.992 318.166 274.896 318.507 274.704C318.849 274.501 319.115 274.219 319.307 273.856C319.499 273.483 319.595 273.04 319.595 272.528V267.424H320.795V276H319.595V274.336L319.867 274.4C319.665 274.955 319.318 275.392 318.827 275.712C318.337 276.032 317.771 276.192 317.131 276.192ZM323.263 276V267.424H324.463V268.832L324.303 268.624C324.506 268.219 324.81 267.899 325.215 267.664C325.631 267.429 326.133 267.312 326.719 267.312H327.263V268.512H326.511C325.893 268.512 325.397 268.704 325.023 269.088C324.65 269.472 324.463 270.016 324.463 270.72V276H323.263ZM331.388 279.2V267.424H332.588V269.344L332.396 269.008C332.738 268.464 333.191 268.032 333.756 267.712C334.332 267.392 334.988 267.232 335.724 267.232C336.535 267.232 337.255 267.429 337.884 267.824C338.524 268.208 339.026 268.736 339.388 269.408C339.762 270.08 339.948 270.848 339.948 271.712C339.948 272.565 339.762 273.333 339.388 274.016C339.026 274.688 338.524 275.221 337.884 275.616C337.255 276 336.535 276.192 335.724 276.192C334.988 276.192 334.322 276.027 333.724 275.696C333.138 275.355 332.695 274.875 332.396 274.256L332.588 274.08V279.2H331.388ZM335.66 274.992C336.236 274.992 336.748 274.848 337.196 274.56C337.655 274.272 338.012 273.883 338.268 273.392C338.535 272.891 338.668 272.331 338.668 271.712C338.668 271.083 338.535 270.523 338.268 270.032C338.012 269.541 337.655 269.152 337.196 268.864C336.748 268.576 336.236 268.432 335.66 268.432C335.084 268.432 334.562 268.576 334.092 268.864C333.634 269.152 333.266 269.547 332.988 270.048C332.722 270.539 332.588 271.093 332.588 271.712C332.588 272.331 332.722 272.891 332.988 273.392C333.266 273.883 333.634 274.272 334.092 274.56C334.562 274.848 335.084 274.992 335.66 274.992ZM342.06 276V267.424H343.26V268.832L343.1 268.624C343.303 268.219 343.607 267.899 344.012 267.664C344.428 267.429 344.929 267.312 345.516 267.312H346.06V268.512H345.308C344.689 268.512 344.193 268.704 343.82 269.088C343.447 269.472 343.26 270.016 343.26 270.72V276H342.06ZM351.482 276.192C350.672 276.192 349.936 276 349.274 275.616C348.613 275.221 348.085 274.688 347.69 274.016C347.306 273.333 347.114 272.56 347.114 271.696C347.114 270.843 347.306 270.08 347.69 269.408C348.074 268.736 348.592 268.208 349.242 267.824C349.904 267.429 350.65 267.232 351.482 267.232C352.314 267.232 353.056 267.424 353.706 267.808C354.368 268.192 354.885 268.72 355.258 269.392C355.642 270.064 355.834 270.832 355.834 271.696C355.834 272.571 355.637 273.349 355.242 274.032C354.848 274.704 354.32 275.232 353.658 275.616C353.008 276 352.282 276.192 351.482 276.192ZM351.482 274.992C352.058 274.992 352.576 274.848 353.034 274.56C353.504 274.272 353.872 273.877 354.138 273.376C354.416 272.875 354.554 272.315 354.554 271.696C354.554 271.077 354.416 270.523 354.138 270.032C353.872 269.541 353.504 269.152 353.034 268.864C352.576 268.576 352.058 268.432 351.482 268.432C350.906 268.432 350.384 268.576 349.914 268.864C349.456 269.152 349.088 269.541 348.81 270.032C348.533 270.523 348.394 271.077 348.394 271.696C348.394 272.315 348.533 272.875 348.81 273.376C349.088 273.877 349.456 274.272 349.914 274.56C350.384 274.848 350.906 274.992 351.482 274.992ZM361.823 276.192C361.023 276.192 360.303 276 359.663 275.616C359.023 275.221 358.516 274.688 358.143 274.016C357.78 273.333 357.599 272.565 357.599 271.712C357.599 270.848 357.78 270.08 358.143 269.408C358.516 268.736 359.017 268.208 359.647 267.824C360.287 267.429 361.012 267.232 361.823 267.232C362.559 267.232 363.215 267.392 363.791 267.712C364.367 268.032 364.82 268.464 365.151 269.008L364.959 269.344V263.888H366.159V276H364.959V274.08L365.151 274.256C364.852 274.875 364.404 275.355 363.807 275.696C363.22 276.027 362.559 276.192 361.823 276.192ZM361.887 274.992C362.463 274.992 362.98 274.848 363.439 274.56C363.908 274.272 364.276 273.883 364.543 273.392C364.82 272.891 364.959 272.331 364.959 271.712C364.959 271.093 364.82 270.539 364.543 270.048C364.276 269.547 363.908 269.152 363.439 268.864C362.98 268.576 362.463 268.432 361.887 268.432C361.321 268.432 360.809 268.576 360.351 268.864C359.892 269.152 359.529 269.541 359.263 270.032C359.007 270.523 358.879 271.083 358.879 271.712C358.879 272.331 359.007 272.891 359.263 273.392C359.529 273.883 359.887 274.272 360.335 274.56C360.793 274.848 361.311 274.992 361.887 274.992ZM371.663 276.192C371.065 276.192 370.521 276.053 370.031 275.776C369.54 275.488 369.151 275.093 368.863 274.592C368.585 274.08 368.447 273.493 368.447 272.832V267.424H369.647V272.688C369.647 273.147 369.737 273.552 369.919 273.904C370.111 274.245 370.372 274.512 370.703 274.704C371.044 274.896 371.433 274.992 371.871 274.992C372.308 274.992 372.697 274.896 373.039 274.704C373.38 274.501 373.647 274.219 373.839 273.856C374.031 273.483 374.127 273.04 374.127 272.528V267.424H375.327V276H374.127V274.336L374.399 274.4C374.196 274.955 373.849 275.392 373.359 275.712C372.868 276.032 372.303 276.192 371.663 276.192ZM381.715 276.192C380.872 276.192 380.131 275.995 379.491 275.6C378.851 275.205 378.349 274.672 377.987 274C377.624 273.317 377.443 272.549 377.443 271.696C377.443 270.843 377.624 270.08 377.987 269.408C378.349 268.736 378.851 268.208 379.491 267.824C380.131 267.429 380.872 267.232 381.715 267.232C382.248 267.232 382.749 267.328 383.219 267.52C383.688 267.712 384.104 267.973 384.467 268.304C384.829 268.624 385.101 268.997 385.283 269.424L384.195 269.984C383.981 269.525 383.656 269.152 383.219 268.864C382.781 268.576 382.28 268.432 381.715 268.432C381.149 268.432 380.637 268.576 380.179 268.864C379.731 269.141 379.373 269.531 379.107 270.032C378.851 270.523 378.723 271.083 378.723 271.712C378.723 272.331 378.851 272.891 379.107 273.392C379.373 273.883 379.731 274.272 380.179 274.56C380.637 274.848 381.149 274.992 381.715 274.992C382.28 274.992 382.776 274.848 383.203 274.56C383.64 274.272 383.971 273.888 384.195 273.408L385.283 274C385.101 274.416 384.829 274.789 384.467 275.12C384.104 275.451 383.688 275.712 383.219 275.904C382.749 276.096 382.248 276.192 381.715 276.192ZM390.668 276.096C389.9 276.096 389.308 275.872 388.892 275.424C388.476 274.976 388.268 274.336 388.268 273.504V268.624H386.684V267.424H387.084C387.447 267.424 387.735 267.307 387.948 267.072C388.162 266.827 388.268 266.523 388.268 266.16V265.44H389.468V267.424H391.356V268.624H389.468V273.504C389.468 273.792 389.511 274.048 389.596 274.272C389.682 274.485 389.826 274.656 390.028 274.784C390.242 274.912 390.524 274.976 390.876 274.976C390.962 274.976 391.063 274.971 391.18 274.96C391.298 274.949 391.399 274.939 391.484 274.928V276C391.356 276.032 391.212 276.053 391.052 276.064C390.892 276.085 390.764 276.096 390.668 276.096ZM399.286 276.192C398.465 276.192 397.745 275.984 397.126 275.568C396.507 275.152 396.059 274.587 395.782 273.872L396.79 273.392C397.035 273.915 397.377 274.331 397.814 274.64C398.262 274.949 398.753 275.104 399.286 275.104C399.798 275.104 400.23 274.981 400.582 274.736C400.934 274.48 401.11 274.149 401.11 273.744C401.11 273.445 401.025 273.211 400.854 273.04C400.683 272.859 400.486 272.72 400.262 272.624C400.038 272.528 399.841 272.459 399.67 272.416L398.438 272.064C397.649 271.84 397.078 271.525 396.726 271.12C396.374 270.715 396.198 270.245 396.198 269.712C396.198 269.211 396.326 268.773 396.582 268.4C396.838 268.027 397.185 267.739 397.622 267.536C398.059 267.333 398.545 267.232 399.078 267.232C399.803 267.232 400.459 267.424 401.046 267.808C401.643 268.181 402.065 268.704 402.31 269.376L401.286 269.856C401.073 269.376 400.763 269.003 400.358 268.736C399.963 268.459 399.521 268.32 399.03 268.32C398.55 268.32 398.166 268.443 397.878 268.688C397.59 268.933 397.446 269.243 397.446 269.616C397.446 269.904 397.521 270.133 397.67 270.304C397.819 270.475 397.99 270.603 398.182 270.688C398.385 270.773 398.561 270.837 398.71 270.88L400.134 271.296C400.827 271.499 401.366 271.813 401.75 272.24C402.145 272.667 402.342 273.168 402.342 273.744C402.342 274.213 402.209 274.635 401.942 275.008C401.686 275.381 401.329 275.675 400.87 275.888C400.411 276.091 399.883 276.192 399.286 276.192ZM408.371 276.192C407.528 276.192 406.787 275.995 406.147 275.6C405.507 275.205 405.005 274.672 404.643 274C404.28 273.317 404.099 272.549 404.099 271.696C404.099 270.843 404.28 270.08 404.643 269.408C405.005 268.736 405.507 268.208 406.147 267.824C406.787 267.429 407.528 267.232 408.371 267.232C408.904 267.232 409.405 267.328 409.875 267.52C410.344 267.712 410.76 267.973 411.123 268.304C411.485 268.624 411.757 268.997 411.939 269.424L410.851 269.984C410.637 269.525 410.312 269.152 409.875 268.864C409.437 268.576 408.936 268.432 408.371 268.432C407.805 268.432 407.293 268.576 406.835 268.864C406.387 269.141 406.029 269.531 405.763 270.032C405.507 270.523 405.379 271.083 405.379 271.712C405.379 272.331 405.507 272.891 405.763 273.392C406.029 273.883 406.387 274.272 406.835 274.56C407.293 274.848 407.805 274.992 408.371 274.992C408.936 274.992 409.432 274.848 409.859 274.56C410.296 274.272 410.627 273.888 410.851 273.408L411.939 274C411.757 274.416 411.485 274.789 411.123 275.12C410.76 275.451 410.344 275.712 409.875 275.904C409.405 276.096 408.904 276.192 408.371 276.192ZM414.045 276V267.424H415.245V268.832L415.085 268.624C415.287 268.219 415.591 267.899 415.997 267.664C416.413 267.429 416.914 267.312 417.501 267.312H418.045V268.512H417.293C416.674 268.512 416.178 268.704 415.805 269.088C415.431 269.472 415.245 270.016 415.245 270.72V276H414.045ZM423.355 276.192C422.555 276.192 421.829 276 421.179 275.616C420.539 275.221 420.032 274.683 419.659 274C419.285 273.317 419.099 272.544 419.099 271.68C419.099 270.816 419.28 270.053 419.643 269.392C420.005 268.72 420.496 268.192 421.115 267.808C421.744 267.424 422.448 267.232 423.227 267.232C423.845 267.232 424.395 267.349 424.875 267.584C425.365 267.808 425.781 268.117 426.123 268.512C426.464 268.896 426.725 269.333 426.907 269.824C427.088 270.304 427.179 270.8 427.179 271.312C427.179 271.419 427.173 271.541 427.163 271.68C427.152 271.808 427.136 271.941 427.115 272.08H419.867V270.96H426.427L425.851 271.44C425.947 270.853 425.877 270.331 425.643 269.872C425.419 269.403 425.093 269.035 424.667 268.768C424.24 268.491 423.76 268.352 423.227 268.352C422.693 268.352 422.197 268.491 421.739 268.768C421.291 269.045 420.939 269.435 420.683 269.936C420.427 270.427 420.325 271.013 420.379 271.696C420.325 272.379 420.432 272.976 420.699 273.488C420.976 273.989 421.349 274.379 421.819 274.656C422.299 274.933 422.811 275.072 423.355 275.072C423.984 275.072 424.512 274.923 424.939 274.624C425.365 274.325 425.712 273.952 425.979 273.504L427.003 274.048C426.832 274.432 426.571 274.789 426.219 275.12C425.867 275.44 425.445 275.701 424.955 275.904C424.475 276.096 423.941 276.192 423.355 276.192ZM433.199 276.192C432.399 276.192 431.673 276 431.023 275.616C430.383 275.221 429.876 274.683 429.503 274C429.129 273.317 428.943 272.544 428.943 271.68C428.943 270.816 429.124 270.053 429.487 269.392C429.849 268.72 430.34 268.192 430.959 267.808C431.588 267.424 432.292 267.232 433.071 267.232C433.689 267.232 434.239 267.349 434.719 267.584C435.209 267.808 435.625 268.117 435.967 268.512C436.308 268.896 436.569 269.333 436.751 269.824C436.932 270.304 437.023 270.8 437.023 271.312C437.023 271.419 437.017 271.541 437.007 271.68C436.996 271.808 436.98 271.941 436.959 272.08H429.711V270.96H436.271L435.695 271.44C435.791 270.853 435.721 270.331 435.487 269.872C435.263 269.403 434.937 269.035 434.511 268.768C434.084 268.491 433.604 268.352 433.071 268.352C432.537 268.352 432.041 268.491 431.583 268.768C431.135 269.045 430.783 269.435 430.527 269.936C430.271 270.427 430.169 271.013 430.223 271.696C430.169 272.379 430.276 272.976 430.543 273.488C430.82 273.989 431.193 274.379 431.663 274.656C432.143 274.933 432.655 275.072 433.199 275.072C433.828 275.072 434.356 274.923 434.783 274.624C435.209 274.325 435.556 273.952 435.823 273.504L436.847 274.048C436.676 274.432 436.415 274.789 436.062 275.12C435.711 275.44 435.289 275.701 434.799 275.904C434.319 276.096 433.785 276.192 433.199 276.192ZM439.138 276V267.424H440.338V269.088L440.066 269.024C440.28 268.469 440.626 268.032 441.106 267.712C441.597 267.392 442.162 267.232 442.802 267.232C443.41 267.232 443.954 267.371 444.434 267.648C444.925 267.925 445.309 268.309 445.586 268.8C445.874 269.28 446.018 269.824 446.018 270.432V276H444.818V270.896C444.818 270.373 444.722 269.931 444.53 269.568C444.349 269.205 444.088 268.928 443.746 268.736C443.416 268.533 443.032 268.432 442.594 268.432C442.157 268.432 441.768 268.533 441.426 268.736C441.085 268.928 440.818 269.211 440.626 269.584C440.434 269.947 440.338 270.384 440.338 270.896V276H439.138ZM451.286 276.192C450.465 276.192 449.745 275.984 449.126 275.568C448.507 275.152 448.059 274.587 447.782 273.872L448.79 273.392C449.035 273.915 449.377 274.331 449.814 274.64C450.262 274.949 450.753 275.104 451.286 275.104C451.798 275.104 452.23 274.981 452.582 274.736C452.934 274.48 453.11 274.149 453.11 273.744C453.11 273.445 453.025 273.211 452.854 273.04C452.683 272.859 452.486 272.72 452.262 272.624C452.038 272.528 451.841 272.459 451.67 272.416L450.438 272.064C449.649 271.84 449.078 271.525 448.726 271.12C448.374 270.715 448.198 270.245 448.198 269.712C448.198 269.211 448.326 268.773 448.582 268.4C448.838 268.027 449.185 267.739 449.622 267.536C450.059 267.333 450.545 267.232 451.078 267.232C451.803 267.232 452.459 267.424 453.046 267.808C453.643 268.181 454.065 268.704 454.31 269.376L453.286 269.856C453.073 269.376 452.763 269.003 452.358 268.736C451.963 268.459 451.521 268.32 451.03 268.32C450.55 268.32 450.166 268.443 449.878 268.688C449.59 268.933 449.446 269.243 449.446 269.616C449.446 269.904 449.521 270.133 449.67 270.304C449.819 270.475 449.99 270.603 450.182 270.688C450.385 270.773 450.561 270.837 450.71 270.88L452.134 271.296C452.827 271.499 453.366 271.813 453.75 272.24C454.145 272.667 454.342 273.168 454.342 273.744C454.342 274.213 454.209 274.635 453.942 275.008C453.686 275.381 453.329 275.675 452.87 275.888C452.411 276.091 451.883 276.192 451.286 276.192ZM456.451 276V263.888H457.651V269.088L457.379 269.024C457.592 268.469 457.939 268.032 458.419 267.712C458.909 267.392 459.475 267.232 460.115 267.232C460.723 267.232 461.267 267.371 461.747 267.648C462.237 267.925 462.621 268.309 462.899 268.8C463.187 269.28 463.331 269.824 463.331 270.432V276H462.131V270.896C462.131 270.373 462.035 269.931 461.843 269.568C461.651 269.205 461.384 268.928 461.043 268.736C460.712 268.533 460.333 268.432 459.907 268.432C459.48 268.432 459.096 268.533 458.755 268.736C458.413 268.928 458.141 269.211 457.939 269.584C457.747 269.947 457.651 270.384 457.651 270.896V276H456.451ZM469.639 276.192C468.828 276.192 468.092 276 467.431 275.616C466.769 275.221 466.241 274.688 465.847 274.016C465.463 273.333 465.271 272.56 465.271 271.696C465.271 270.843 465.463 270.08 465.847 269.408C466.231 268.736 466.748 268.208 467.399 267.824C468.06 267.429 468.807 267.232 469.639 267.232C470.471 267.232 471.212 267.424 471.863 267.808C472.524 268.192 473.041 268.72 473.415 269.392C473.799 270.064 473.991 270.832 473.991 271.696C473.991 272.571 473.793 273.349 473.399 274.032C473.004 274.704 472.476 275.232 471.815 275.616C471.164 276 470.439 276.192 469.639 276.192ZM469.639 274.992C470.215 274.992 470.732 274.848 471.191 274.56C471.66 274.272 472.028 273.877 472.295 273.376C472.572 272.875 472.711 272.315 472.711 271.696C472.711 271.077 472.572 270.523 472.295 270.032C472.028 269.541 471.66 269.152 471.191 268.864C470.732 268.576 470.215 268.432 469.639 268.432C469.063 268.432 468.54 268.576 468.071 268.864C467.612 269.152 467.244 269.541 466.967 270.032C466.689 270.523 466.551 271.077 466.551 271.696C466.551 272.315 466.689 272.875 466.967 273.376C467.244 273.877 467.612 274.272 468.071 274.56C468.54 274.848 469.063 274.992 469.639 274.992ZM479.231 276.096C478.463 276.096 477.871 275.872 477.455 275.424C477.039 274.976 476.831 274.336 476.831 273.504V268.624H475.247V267.424H475.647C476.009 267.424 476.297 267.307 476.511 267.072C476.724 266.827 476.831 266.523 476.831 266.16V265.44H478.031V267.424H479.919V268.624H478.031V273.504C478.031 273.792 478.073 274.048 478.159 274.272C478.244 274.485 478.388 274.656 478.591 274.784C478.804 274.912 479.087 274.976 479.439 274.976C479.524 274.976 479.625 274.971 479.743 274.96C479.86 274.949 479.961 274.939 480.047 274.928V276C479.919 276.032 479.775 276.053 479.615 276.064C479.455 276.085 479.327 276.096 479.231 276.096ZM484.873 276V263.888H486.073V269.088L485.801 269.024C486.014 268.469 486.361 268.032 486.841 267.712C487.331 267.392 487.897 267.232 488.537 267.232C489.145 267.232 489.689 267.371 490.169 267.648C490.659 267.925 491.043 268.309 491.321 268.8C491.609 269.28 491.753 269.824 491.753 270.432V276H490.553V270.896C490.553 270.373 490.457 269.931 490.265 269.568C490.073 269.205 489.806 268.928 489.465 268.736C489.134 268.533 488.755 268.432 488.329 268.432C487.902 268.432 487.518 268.533 487.177 268.736C486.835 268.928 486.563 269.211 486.361 269.584C486.169 269.947 486.073 270.384 486.073 270.896V276H484.873ZM497.949 276.192C497.149 276.192 496.423 276 495.773 275.616C495.133 275.221 494.626 274.683 494.253 274C493.879 273.317 493.693 272.544 493.693 271.68C493.693 270.816 493.874 270.053 494.237 269.392C494.599 268.72 495.09 268.192 495.709 267.808C496.338 267.424 497.042 267.232 497.821 267.232C498.439 267.232 498.989 267.349 499.469 267.584C499.959 267.808 500.375 268.117 500.717 268.512C501.058 268.896 501.319 269.333 501.501 269.824C501.682 270.304 501.773 270.8 501.773 271.312C501.773 271.419 501.767 271.541 501.757 271.68C501.746 271.808 501.73 271.941 501.709 272.08H494.461V270.96H501.021L500.445 271.44C500.541 270.853 500.471 270.331 500.237 269.872C500.013 269.403 499.687 269.035 499.261 268.768C498.834 268.491 498.354 268.352 497.821 268.352C497.287 268.352 496.791 268.491 496.333 268.768C495.885 269.045 495.533 269.435 495.277 269.936C495.021 270.427 494.919 271.013 494.973 271.696C494.919 272.379 495.026 272.976 495.293 273.488C495.57 273.989 495.943 274.379 496.413 274.656C496.893 274.933 497.405 275.072 497.949 275.072C498.578 275.072 499.106 274.923 499.533 274.624C499.959 274.325 500.306 273.952 500.573 273.504L501.597 274.048C501.426 274.432 501.165 274.789 500.812 275.12C500.461 275.44 500.039 275.701 499.549 275.904C499.069 276.096 498.535 276.192 497.949 276.192ZM503.888 276V267.424H505.088V268.832L504.928 268.624C505.131 268.219 505.435 267.899 505.84 267.664C506.256 267.429 506.758 267.312 507.344 267.312H507.888V268.512H507.136C506.518 268.512 506.022 268.704 505.648 269.088C505.275 269.472 505.088 270.016 505.088 270.72V276H503.888ZM513.199 276.192C512.399 276.192 511.673 276 511.023 275.616C510.383 275.221 509.876 274.683 509.503 274C509.129 273.317 508.943 272.544 508.943 271.68C508.943 270.816 509.124 270.053 509.487 269.392C509.849 268.72 510.34 268.192 510.959 267.808C511.588 267.424 512.292 267.232 513.071 267.232C513.689 267.232 514.239 267.349 514.719 267.584C515.209 267.808 515.625 268.117 515.967 268.512C516.308 268.896 516.569 269.333 516.751 269.824C516.932 270.304 517.023 270.8 517.023 271.312C517.023 271.419 517.017 271.541 517.007 271.68C516.996 271.808 516.98 271.941 516.959 272.08H509.711V270.96H516.271L515.695 271.44C515.791 270.853 515.721 270.331 515.487 269.872C515.263 269.403 514.937 269.035 514.511 268.768C514.084 268.491 513.604 268.352 513.071 268.352C512.537 268.352 512.041 268.491 511.583 268.768C511.135 269.045 510.783 269.435 510.527 269.936C510.271 270.427 510.169 271.013 510.223 271.696C510.169 272.379 510.276 272.976 510.543 273.488C510.82 273.989 511.193 274.379 511.663 274.656C512.143 274.933 512.655 275.072 513.199 275.072C513.828 275.072 514.356 274.923 514.783 274.624C515.209 274.325 515.556 273.952 515.823 273.504L516.847 274.048C516.676 274.432 516.415 274.789 516.062 275.12C515.711 275.44 515.289 275.701 514.799 275.904C514.319 276.096 513.785 276.192 513.199 276.192Z" fill="#0A2540"/>
</svg>
