<svg width="125" height="27" viewBox="0 0 125 27" fill="none" xmlns="http://www.w3.org/2000/svg">
<mask id="mask0_82_11" style="mask-type:alpha" maskUnits="userSpaceOnUse" x="0" y="0" width="27" height="27">
<rect width="26.0247" height="26.0247" fill="#D9D9D9"/>
</mask>
<g mask="url(#mask0_82_11)">
<path d="M5.93334 22.3414C5.31453 22.3414 4.78482 22.1211 4.34421 21.6805C3.90359 21.2399 3.68329 20.7102 3.68329 20.0914V5.9334C3.68329 5.31459 3.90359 4.78488 4.34421 4.34427C4.78482 3.90366 5.31453 3.68335 5.93334 3.68335H20.0913C20.7101 3.68335 21.2398 3.90366 21.6804 4.34427C22.1211 4.78488 22.3414 5.31459 22.3414 5.9334V20.0914C22.3414 20.7102 22.1211 21.2399 21.6804 21.6805C21.2398 22.1211 20.7101 22.3414 20.0913 22.3414H5.93334ZM11.0605 20.0914V13.663H5.93334V20.0914H11.0605ZM13.0123 20.0914H20.0913V13.663H13.0123V20.0914ZM5.93334 11.7112H20.0913V5.9334H5.93334V11.7112Z" fill="#0A2540"/>
</g>
<path d="M37.0347 20.5125V8.08183H32.6625V5.50998H44.2358V8.08183H39.8637V20.5125H37.0347ZM47.2782 20.8125C46.5209 20.8125 45.8422 20.6839 45.2421 20.4267C44.642 20.1552 44.1634 19.7695 43.8062 19.2694C43.4633 18.755 43.2918 18.1335 43.2918 17.4048C43.2918 16.6761 43.4633 16.0689 43.8062 15.5831C44.1634 15.083 44.6492 14.7115 45.2636 14.4686C45.8922 14.2114 46.6066 14.0828 47.4068 14.0828H50.3215V13.4827C50.3215 12.9826 50.1644 12.5754 49.85 12.2611C49.5357 11.9325 49.0356 11.7682 48.3498 11.7682C47.6783 11.7682 47.1782 11.9253 46.8495 12.2397C46.5209 12.5397 46.3066 12.9326 46.2066 13.4184L43.7205 12.5826C43.8919 12.0396 44.1634 11.5467 44.5349 11.1038C44.9207 10.6465 45.4279 10.2822 46.0566 10.0107C46.6995 9.72496 47.4782 9.58208 48.3927 9.58208C49.7929 9.58208 50.9002 9.93214 51.7146 10.6323C52.5291 11.3324 52.9363 12.3468 52.9363 13.6756V17.6405C52.9363 18.0692 53.1363 18.2835 53.5364 18.2835H54.3936V20.5125H52.5934C52.0647 20.5125 51.6289 20.3839 51.286 20.1267C50.9431 19.8695 50.7716 19.5266 50.7716 19.0979V19.0765H50.3644C50.3073 19.248 50.1787 19.4766 49.9786 19.7623C49.7786 20.0338 49.4643 20.2767 49.0356 20.491C48.607 20.7053 48.0212 20.8125 47.2782 20.8125ZM47.7497 18.6264C48.507 18.6264 49.1213 18.4192 49.5929 18.0049C50.0787 17.5763 50.3215 17.0119 50.3215 16.3118V16.0974H47.5997C47.0996 16.0974 46.7067 16.2046 46.4209 16.4189C46.1351 16.6332 45.9923 16.9333 45.9923 17.3191C45.9923 17.7048 46.1423 18.0192 46.4423 18.2621C46.7424 18.505 47.1782 18.6264 47.7497 18.6264ZM62.3262 20.8125C61.3689 20.8125 60.6331 20.6482 60.1187 20.3196C59.6043 19.9909 59.2257 19.6266 58.9828 19.2265H58.597V20.5125H55.9394V5.50998H58.6399V11.1038H59.0257C59.1828 10.8466 59.39 10.6037 59.6472 10.3751C59.9187 10.1465 60.2687 9.96071 60.6974 9.81783C61.1403 9.66066 61.6832 9.58208 62.3262 9.58208C63.1835 9.58208 63.9765 9.7964 64.7052 10.225C65.4339 10.6394 66.0197 11.2538 66.4626 12.0682C66.9055 12.8826 67.127 13.8685 67.127 15.0258V15.3687C67.127 16.5261 66.9055 17.512 66.4626 18.3264C66.0197 19.1408 65.4339 19.7623 64.7052 20.191C63.9765 20.6053 63.1835 20.8125 62.3262 20.8125ZM61.5118 18.455C62.3405 18.455 63.0335 18.1906 63.5907 17.662C64.1479 17.119 64.4265 16.3332 64.4265 15.3045V15.0901C64.4265 14.0614 64.1479 13.2827 63.5907 12.754C63.0477 12.2111 62.3548 11.9396 61.5118 11.9396C60.6831 11.9396 59.9901 12.2111 59.4329 12.754C58.8756 13.2827 58.597 14.0614 58.597 15.0901V15.3045C58.597 16.3332 58.8756 17.119 59.4329 17.662C59.9901 18.1906 60.6831 18.455 61.5118 18.455ZM69.1779 20.5125V5.50998H71.8784V20.5125H69.1779ZM79.2859 20.8125C78.2285 20.8125 77.2927 20.591 76.4783 20.1481C75.6781 19.6909 75.0494 19.0551 74.5922 18.2406C74.1493 17.4119 73.9278 16.4404 73.9278 15.3259V15.0687C73.9278 13.9542 74.1493 12.9898 74.5922 12.1754C75.0352 11.3467 75.6567 10.7108 76.4568 10.2679C77.257 9.81069 78.1857 9.58208 79.243 9.58208C80.286 9.58208 81.1933 9.81783 81.9649 10.2893C82.7364 10.7466 83.3365 11.3895 83.7652 12.2182C84.1938 13.0326 84.4081 13.9828 84.4081 15.0687V15.9903H76.6711C76.6997 16.719 76.9712 17.3119 77.4856 17.7691C77.9999 18.2264 78.6286 18.455 79.3716 18.455C80.1289 18.455 80.6861 18.2907 81.0433 17.962C81.4005 17.6334 81.672 17.2691 81.8577 16.869L84.0652 18.0263C83.8652 18.3978 83.5723 18.805 83.1865 19.248C82.815 19.6766 82.3149 20.0481 81.6863 20.3624C81.0576 20.6625 80.2574 20.8125 79.2859 20.8125ZM76.6926 13.9757H81.6648C81.6077 13.3613 81.3576 12.8683 80.9147 12.4968C80.4861 12.1254 79.9217 11.9396 79.2216 11.9396C78.4929 11.9396 77.9142 12.1254 77.4856 12.4968C77.0569 12.8683 76.7926 13.3613 76.6926 13.9757ZM91.4839 20.8125C90.4552 20.8125 89.5193 20.5839 88.6763 20.1267C87.8476 19.6552 87.1832 18.9765 86.6831 18.0906C86.1973 17.1905 85.9544 16.0974 85.9544 14.8115V11.2109C85.9544 9.28203 86.4974 7.80322 87.5833 6.77448C88.6692 5.73145 90.1408 5.20993 91.9983 5.20993C93.8414 5.20993 95.2631 5.70287 96.2633 6.68875C97.2777 7.66034 97.7849 8.98198 97.7849 10.6537V10.7394H94.9988V10.568C94.9988 10.0393 94.8845 9.56065 94.6559 9.13201C94.4415 8.70336 94.1129 8.36759 93.67 8.1247C93.227 7.86751 92.6698 7.73892 91.9983 7.73892C90.9981 7.73892 90.2123 8.04611 89.6407 8.6605C89.0692 9.27489 88.7835 10.1107 88.7835 11.1681V14.8544C88.7835 15.8974 89.0692 16.7404 89.6407 17.3834C90.2123 18.012 91.0124 18.3264 92.0411 18.3264C93.0699 18.3264 93.82 18.0549 94.2915 17.512C94.763 16.969 94.9988 16.2832 94.9988 15.4545V15.2402H91.441V12.8398H97.7849V20.5125H95.1702V19.0765H94.7844C94.6844 19.3194 94.5201 19.5766 94.2915 19.8481C94.0772 20.1195 93.7486 20.3481 93.3056 20.5339C92.8627 20.7196 92.2555 20.8125 91.4839 20.8125ZM104.988 20.8125C103.931 20.8125 102.995 20.591 102.181 20.1481C101.381 19.6909 100.752 19.0551 100.295 18.2406C99.8519 17.4119 99.6304 16.4404 99.6304 15.3259V15.0687C99.6304 13.9542 99.8519 12.9898 100.295 12.1754C100.738 11.3467 101.359 10.7108 102.159 10.2679C102.96 9.81069 103.888 9.58208 104.946 9.58208C105.989 9.58208 106.896 9.81783 107.667 10.2893C108.439 10.7466 109.039 11.3895 109.468 12.2182C109.896 13.0326 110.111 13.9828 110.111 15.0687V15.9903H102.374C102.402 16.719 102.674 17.3119 103.188 17.7691C103.703 18.2264 104.331 18.455 105.074 18.455C105.831 18.455 106.389 18.2907 106.746 17.962C107.103 17.6334 107.375 17.2691 107.56 16.869L109.768 18.0263C109.568 18.3978 109.275 18.805 108.889 19.248C108.518 19.6766 108.018 20.0481 107.389 20.3624C106.76 20.6625 105.96 20.8125 104.988 20.8125ZM102.395 13.9757H107.367C107.31 13.3613 107.06 12.8683 106.617 12.4968C106.189 12.1254 105.624 11.9396 104.924 11.9396C104.195 11.9396 103.617 12.1254 103.188 12.4968C102.76 12.8683 102.495 13.3613 102.395 13.9757ZM112.086 20.5125V9.88213H114.743V11.2752H115.129C115.3 10.9037 115.622 10.5537 116.093 10.225C116.565 9.88213 117.279 9.71067 118.237 9.71067C119.065 9.71067 119.787 9.90356 120.401 10.2893C121.03 10.6608 121.516 11.1823 121.859 11.8539C122.202 12.5111 122.373 13.2827 122.373 14.1685V20.5125H119.673V14.3829C119.673 13.5827 119.473 12.9826 119.073 12.5826C118.687 12.1825 118.13 11.9825 117.401 11.9825C116.572 11.9825 115.929 12.2611 115.472 12.8183C115.015 13.3613 114.786 14.1257 114.786 15.1116V20.5125H112.086Z" fill="#0A2540"/>
</svg>
